<svg id="Слой_1" data-name="Слой 1" xmlns="http://www.w3.org/2000/svg" viewBox="0 0 344.27 329.27"><defs><style>.cls-1{fill:#ef4137;}.cls-2{fill:#1a2e35;}.cls-3{opacity:0.3;}.cls-4{fill:#fff;}.cls-5{opacity:0.2;}</style></defs><path class="cls-1" d="M187.35,326.29C247,316,285.58,272.86,285.58,272.86l-5-14.91s-38.2,31-92.74,43-121.91-14.2-121.91-14.2l-2.18,8.49A179.28,179.28,0,0,0,166.5,327.5,181.7,181.7,0,0,0,187.35,326.29Z"/><path class="cls-1" d="M288.66,279.67c-.6-1.2-1.22-2.41-1.88-3.62-.57-1.05-6.32-18.06-6.32-18.06s35.12-30.51,33-88.29c-1.9-51.5-38.39-89.32-42.05-94.44s-64.62-20-72.9-18.63-43.75,4.6-54.78,6.9S58.33,98.44,61.57,105.58s-.63-.08-.63-.08-44.28,34.37-38.52,92c6.42,64.2,44.59,76.9,44.94,89.87a53.87,53.87,0,0,1-.33,6.78,182,182,0,0,0,89.52,33.05c3.29.18,6.61.28,9.95.28A179.6,179.6,0,0,0,288.66,279.67Z"/><path class="cls-2" d="M120.09,68.41a7.43,7.43,0,0,1,1,1.77c.6,1.16,1.44,2.87,2.43,5,2,4.25,4.6,10.19,7.26,16.85s4.87,12.76,6.35,17.21c.75,2.23,1.32,4,1.69,5.3a7.82,7.82,0,0,1,.46,2c-.15,0-1.21-2.65-2.89-7s-4-10.43-6.64-17.07-5.15-12.62-7-17S120,68.48,120.09,68.41Z"/><path class="cls-2" d="M210.24,83.92c.28.22-5,6.29-9.09,15.15s-5.57,16.72-5.92,16.64c-.14,0,0-2,.75-5.18a60,60,0,0,1,10.73-22.74C208.7,85.23,210.13,83.83,210.24,83.92Z"/><path class="cls-2" d="M194.57,76.78c.32.16-3.42,6.14-4.93,14.52s-.27,15.3-.63,15.33c-.13,0-.63-1.66-.94-4.48a39.11,39.11,0,0,1,.47-11.05,39.6,39.6,0,0,1,3.54-10.48C193.38,78.1,194.46,76.71,194.57,76.78Z"/><path class="cls-2" d="M88.53,84.43a9.93,9.93,0,0,1,2.29.5A47.2,47.2,0,0,1,96.88,87a63.41,63.41,0,0,1,8.48,4.3,71.49,71.49,0,0,1,9.39,6.92,70.14,70.14,0,0,1,8,8.47,62.45,62.45,0,0,1,5.31,7.9,47.58,47.58,0,0,1,2.82,5.75,9.74,9.74,0,0,1,.77,2.22c-.19.08-1.48-3-4.27-7.57a72.23,72.23,0,0,0-5.43-7.66A69.85,69.85,0,0,0,104.82,92.2a70.92,70.92,0,0,0-8.26-4.45C91.69,85.53,88.47,84.63,88.53,84.43Z"/><g class="cls-3"><path d="M167.57,303.8c-52.12,1.91-101.63-17-101.63-17l-1.2,4.68c38.35,18.52,82.7,32.46,124.81,26.14,37.34-5.61,70.34-28,90.91-59.61C280.46,258,222.28,301.79,167.57,303.8Z"/></g><path class="cls-1" d="M153,301a44.29,44.29,0,0,1-12.71,8.41,27.61,27.61,0,0,0,24.5-4.86q.15,6.39.31,12.79c3.48-1.08,4.28-6.69,7.9-7.11,3.85-.45,5.51,5.37,9.25,6.4a9.6,9.6,0,0,1-1-3.86,3.27,3.27,0,0,1,2.1-3.11,4.82,4.82,0,0,1,3,.47l10.92,4.26L192,307.52a67.73,67.73,0,0,0,26.74,1.56,72.22,72.22,0,0,1-13.82-5.15,51,51,0,0,0,20.78-5.06,9,9,0,0,1-5.16-2.54c13.76,1.07,27.7-7.87,32.44-20.83q-13.69,4.28-27.71,7.45c-23.65,5.37-48.19,8.48-70,19"/><path class="cls-4" d="M147.32,162a33.43,33.43,0,1,1-32.54-34.29A33.43,33.43,0,0,1,147.32,162Z"/><path class="cls-2" d="M147.32,162a57.94,57.94,0,0,0-1.07-8.13,33.23,33.23,0,0,0-11.71-18.44A32.7,32.7,0,0,0,120.82,129a33.08,33.08,0,0,0-17.3,1A33,33,0,0,0,88,141a32.7,32.7,0,0,0-1,38.8A32.93,32.93,0,0,0,101.9,191.7a33.14,33.14,0,0,0,43.93-21.62c1.43-5.09,1.3-8.09,1.49-8.07a2.33,2.33,0,0,1,0,.55c0,.43,0,.95-.06,1.59a15.32,15.32,0,0,1-.28,2.58,24.19,24.19,0,0,1-.71,3.48,31.75,31.75,0,0,1-3.86,8.92,33.74,33.74,0,0,1-23.14,15.49,34,34,0,0,1-17.8-1.88A33.91,33.91,0,0,1,86,180.52,33.79,33.79,0,0,1,87,140.32a31.69,31.69,0,0,1,7.39-7,32.07,32.07,0,0,1,8.73-4.38A34.06,34.06,0,0,1,121,128a33.8,33.8,0,0,1,22.31,16.68,31.83,31.83,0,0,1,3.38,9.11,23.83,23.83,0,0,1,.53,3.51,15.62,15.62,0,0,1,.14,2.59c0,.64,0,1.17,0,1.6A2.24,2.24,0,0,1,147.32,162Z"/><path class="cls-4" d="M253.15,167.14a33.43,33.43,0,1,1-15.62-44.61A33.44,33.44,0,0,1,253.15,167.14Z"/><path class="cls-2" d="M253.15,167.14a58.21,58.21,0,0,0,2.36-7.85,33.31,33.31,0,0,0-3.12-21.62A32.89,32.89,0,0,0,226.33,120a33,33,0,0,0-18.71,3.72,32.72,32.72,0,0,0-16.84,35,33,33,0,0,0,8.77,16.94,33.13,33.13,0,0,0,48.93-1.71c3.4-4,4.5-6.84,4.67-6.75a1.73,1.73,0,0,1-.21.51l-.71,1.43a15.27,15.27,0,0,1-1.3,2.24,25.66,25.66,0,0,1-2.08,2.88,31.82,31.82,0,0,1-7.18,6.56,33.74,33.74,0,0,1-27.46,4.63,33.91,33.91,0,0,1-15.46-9,33.92,33.92,0,0,1-9.13-17.51,33.78,33.78,0,0,1,17.44-36.24,34,34,0,0,1,19.38-3.78,34,34,0,0,1,16.69,6.47,33.73,33.73,0,0,1,13.5,24.35,31.58,31.58,0,0,1-.65,9.71,24.35,24.35,0,0,1-.95,3.41,16,16,0,0,1-.94,2.42c-.27.58-.49,1.06-.68,1.45A2,2,0,0,1,253.15,167.14Z"/><path class="cls-1" d="M61.8,105.68S71.14,17.76,84.32,7.46s65.93,59,65.93,59L82,99.63Z"/><g class="cls-3"><path d="M84.88,93.14s-1.82-74.29,5.47-75.62,47.12,50.07,47.12,50.07S107.74,98.74,84.88,93.14Z"/></g><path class="cls-2" d="M81.08,97.12s.13-.28.49-.75a22.94,22.94,0,0,1,1.63-2,46.29,46.29,0,0,1,7-6.25c6.39-4.76,16.42-9.72,28.24-12.57l.27-.07-.32,1a22.78,22.78,0,0,0-9-6.13l-1.35-.5,1.31-.58a45.93,45.93,0,0,1,22.74-3.73,41,41,0,0,1,6.64,1.17,10.32,10.32,0,0,1,2.3.78c-.05.2-3.32-.85-9-1.21a47.36,47.36,0,0,0-22.21,4.06l0-1.08a23.55,23.55,0,0,1,9.47,6.41l.67.75-1,.25-.27.07c-11.66,2.81-21.61,7.57-28,12.09S81.26,97.3,81.08,97.12Z"/><path class="cls-1" d="M291.48,99.26S282.14,11.35,269,1s-65.92,59-65.92,59l68.27,33.14Z"/><g class="cls-3"><path d="M268.4,86.72s1.82-74.29-5.47-75.62-47.11,50.07-47.11,50.07S245.54,92.32,268.4,86.72Z"/></g><path class="cls-2" d="M272.21,90.7s-.14-.28-.49-.75a23.46,23.46,0,0,0-1.64-2,45.8,45.8,0,0,0-7-6.25C256.67,77,246.63,72,234.81,69.16l-.27-.07.32,1a22.85,22.85,0,0,1,9-6.13l1.35-.5-1.31-.58a45.93,45.93,0,0,0-22.74-3.73,41,41,0,0,0-6.64,1.17,9.83,9.83,0,0,0-2.29.78c0,.2,3.31-.85,9-1.21a47.3,47.3,0,0,1,22.2,4.06l0-1.08A23.58,23.58,0,0,0,234,69.27l-.66.75,1,.25.26.07c11.66,2.81,21.61,7.57,28,12.09S272,90.88,272.21,90.7Z"/><g class="cls-5"><path class="cls-4" d="M193.88,180.09h0a72.63,72.63,0,0,0-13.81-6.58L209.22,57.45c-34.52,3.22-55.92,3-69,4.32,0,0,7.84,65,14.59,113.88a39.81,39.81,0,0,0-8.95,4.4C132,189.26,125.51,207,130.34,222.16S151,249,168,249.94s34.2-8.66,41.18-23.1S213.61,192.26,193.88,180.09Z"/></g><path class="cls-2" d="M169.39,195.45a8.25,8.25,0,0,1,.68,2.58,28.36,28.36,0,0,1-2.77,17.69,25.32,25.32,0,0,1-9.05,9.71,22.69,22.69,0,0,1-12.81,3.5,21.51,21.51,0,0,1-10.37-3.23,19,19,0,0,1-5.35-5,7.15,7.15,0,0,1-1.27-2.35c.21-.2,1.86,3.5,7.08,6.57a21.37,21.37,0,0,0,9.95,2.82,22,22,0,0,0,12.1-3.4,24.67,24.67,0,0,0,8.69-9.19,28.88,28.88,0,0,0,3.18-9.95C170.17,199.22,169.13,195.48,169.39,195.45Z"/><path class="cls-2" d="M172.3,195.45a8.25,8.25,0,0,0-.68,2.58,28.48,28.48,0,0,0,2.78,17.69,25.22,25.22,0,0,0,9,9.71,22.69,22.69,0,0,0,12.81,3.5,21.51,21.51,0,0,0,10.37-3.23,19,19,0,0,0,5.35-5,7.15,7.15,0,0,0,1.27-2.35c-.21-.2-1.86,3.5-7.08,6.57a21.37,21.37,0,0,1-9.95,2.82,22,22,0,0,1-12.1-3.4,24.83,24.83,0,0,1-8.69-9.19,28.88,28.88,0,0,1-3.18-9.95C171.52,199.22,172.56,195.48,172.3,195.45Z"/><path class="cls-2" d="M184.35,226.21c.12.08-.68,1.53-2.69,3.24a17.34,17.34,0,0,1-19.34,2c-2.31-1.26-3.39-2.51-3.29-2.61s1.39.82,3.68,1.81a18.48,18.48,0,0,0,18.41-1.9C183.16,227.3,184.19,226.08,184.35,226.21Z"/><path class="cls-2" d="M160.62,182.05c7.37-2.68,13.47-2,20.58,1.68,2.89,1.38,3.69,4.43,2.11,6.21l-11.58,10.64a2.1,2.1,0,0,1-3.18.18l-10.13-12.48C156.65,186.47,158.19,182.65,160.62,182.05Z"/><path class="cls-4" d="M179.73,185.59c-.1.36-4.43-.56-9.84-.64s-9.79.63-9.86.26,4.29-1.65,9.88-1.53S179.83,185.28,179.73,185.59Z"/><path class="cls-2" d="M147.65,208.67c.1.26-23,9.34-51.66,20.27s-51.92,19.58-52,19.32S67,238.92,95.63,228,147.55,208.41,147.65,208.67Z"/><path class="cls-2" d="M10.48,225.84a7.7,7.7,0,0,1,1.34-.51l3.87-1.28c3.38-1.1,8.29-2.58,14.4-4.3,12.2-3.45,29.24-7.64,48.3-11.08s36.5-5.41,49.15-6.43c6.32-.51,11.44-.83,15-1l4.08-.15a7,7,0,0,1,1.42,0,7.94,7.94,0,0,1-1.41.19l-4.07.34c-3.53.26-8.64.69-15,1.29-12.61,1.2-30,3.31-49,6.72s-36,7.5-48.29,10.76c-6.12,1.63-11.07,3-14.47,4l-3.93,1.1A6.49,6.49,0,0,1,10.48,225.84Z"/><path class="cls-2" d="M304.13,195.82a4.15,4.15,0,0,1-1.08.24l-3.13.46c-2.71.39-6.65.87-11.52,1.39-9.75,1-23.26,2.12-38.22,2.64s-28.52.34-38.31,0c-4.9-.19-8.86-.39-11.6-.6l-3.14-.24a4.94,4.94,0,0,1-1.1-.16,4,4,0,0,1,1.11-.06l3.15,0,11.6.25c9.79.18,23.32.22,38.25-.28s28.43-1.48,38.18-2.33l11.56-1,3.14-.27A5.54,5.54,0,0,1,304.13,195.82Z"/><path class="cls-2" d="M308.45,206.62a4.76,4.76,0,0,1-1.09.16l-3.15.27c-2.73.22-6.69.46-11.58.7-9.79.49-23.33.88-38.28.8s-28.49-.64-38.28-1.23c-4.89-.3-8.84-.59-11.57-.83l-3.14-.31a4,4,0,0,1-1.09-.18,4.66,4.66,0,0,1,1.1,0l3.16.11,11.58.49c9.78.4,23.3.83,38.24.92s28.46-.2,38.25-.49l11.59-.35,3.16-.07A3.75,3.75,0,0,1,308.45,206.62Z"/><ellipse class="cls-2" cx="220.36" cy="154.72" rx="23.54" ry="18.19" transform="translate(46.89 360.65) rotate(-84.96)"/><ellipse class="cls-2" cx="119.78" cy="161.14" rx="18.19" ry="23.54" transform="translate(-35.31 33.62) rotate(-13.95)"/><path class="cls-4" d="M112.71,161.14c.35,2.92-3.36,5.75-8.28,6.34s-9.19-1.3-9.54-4.22,3.36-5.75,8.28-6.33S112.37,158.23,112.71,161.14Z"/><path class="cls-4" d="M213.29,154.72c.35,2.92-3.36,5.75-8.29,6.34s-9.19-1.3-9.54-4.22,3.37-5.75,8.29-6.33S212.94,151.81,213.29,154.72Z"/></svg>