<svg id="Слой_1" data-name="Слой 1" xmlns="http://www.w3.org/2000/svg" xmlns:xlink="http://www.w3.org/1999/xlink" viewBox="0 0 1626 547"><defs><style>.cls-1{opacity:0.4;}.cls-2{fill:#ececec;}.cls-3{opacity:0.1;}.cls-4{fill:#fff;}.cls-5{opacity:0.3;}.cls-6{opacity:0.6;}.cls-7{opacity:0.7;}.cls-8{opacity:0.9;}.cls-9{opacity:0.8;}.cls-10{opacity:0.15;}.cls-11{fill:#2d314c;}.cls-12{fill:url(#Безымянный_градиент_187);}.cls-13{opacity:0.2;}.cls-14{fill:#2d3d8e;}.cls-15{fill:url(#Безымянный_градиент_88);}.cls-16{opacity:0.3;}.cls-17{fill:url(#Безымянный_градиент_187-2);}.cls-18{fill:#5b4537;}.cls-19{opacity:0.31;}.cls-20{fill:url(#Безымянный_градиент_14);}.cls-21{fill:url(#Безымянный_градиент_14-2);}.cls-22{fill:url(#Безымянный_градиент_88-2);}</style><linearGradient id="Безымянный_градиент_187" x1="1397.65" y1="402.21" x2="1397.65" y2="167.97" gradientUnits="userSpaceOnUse"><stop offset="0" stop-color="#2d3d8e"/><stop offset="0.01" stop-color="#2d3a85"/><stop offset="0.02" stop-color="#2d336b"/><stop offset="0.03" stop-color="#2d2842"/><stop offset="0.03" stop-color="#2d273e"/><stop offset="0.23" stop-color="#2d2a48"/><stop offset="0.58" stop-color="#2d3264"/><stop offset="1" stop-color="#2d3d8e"/></linearGradient><radialGradient id="Безымянный_градиент_88" cx="1169.63" cy="288.39" r="21.39" gradientUnits="userSpaceOnUse"><stop offset="0" stop-color="#fff"/><stop offset="0.01" stop-color="#fff" stop-opacity="0.99"/><stop offset="0.09" stop-color="#fff" stop-opacity="0.78"/><stop offset="0.17" stop-color="#fff" stop-opacity="0.6"/><stop offset="0.26" stop-color="#fff" stop-opacity="0.44"/><stop offset="0.35" stop-color="#fff" stop-opacity="0.3"/><stop offset="0.45" stop-color="#fff" stop-opacity="0.19"/><stop offset="0.55" stop-color="#fff" stop-opacity="0.11"/><stop offset="0.67" stop-color="#fff" stop-opacity="0.05"/><stop offset="0.8" stop-color="#fff" stop-opacity="0.01"/><stop offset="1" stop-color="#fff" stop-opacity="0"/></radialGradient><linearGradient id="Безымянный_градиент_187-2" x1="926.34" y1="276.62" x2="926.34" y2="191" xlink:href="#Безымянный_градиент_187"/><radialGradient id="Безымянный_градиент_14" cx="589.78" cy="363.6" r="12.6" xlink:href="#Безымянный_градиент_88"/><radialGradient id="Безымянный_градиент_14-2" cx="141.93" cy="317.82" r="14.82" xlink:href="#Безымянный_градиент_88"/><radialGradient id="Безымянный_градиент_88-2" cx="596.96" cy="152.53" r="17.04" xlink:href="#Безымянный_градиент_88"/></defs><g class="cls-1"><path class="cls-2" d="M378.79,71.59l1,1.78A4.05,4.05,0,0,0,381.35,75l1.78,1-1.78,1a3.93,3.93,0,0,0-1.59,1.59l-1,1.78-1-1.78a3.87,3.87,0,0,0-1.59-1.59l-1.78-1,1.78-1a4,4,0,0,0,1.59-1.59Z"/></g><g class="cls-1"><path class="cls-2" d="M231.64,104.2l.59,1.09a2.47,2.47,0,0,0,1,1l1.09.6-1.09.6a2.47,2.47,0,0,0-1,1l-.59,1.09-.6-1.09a2.38,2.38,0,0,0-1-1l-1.09-.6,1.09-.6a2.38,2.38,0,0,0,1-1Z"/></g><g class="cls-3"><path class="cls-4" d="M341.55,139.31l1,1.78a4,4,0,0,0,1.59,1.6l1.78,1-1.78,1a4,4,0,0,0-1.59,1.6l-1,1.78-1-1.78a4,4,0,0,0-1.59-1.6l-1.78-1,1.78-1a4,4,0,0,0,1.59-1.6Z"/></g><g class="cls-1"><path class="cls-2" d="M597.31,148.08l-1,1.78a3.87,3.87,0,0,1-1.59,1.59l-1.78,1,1.78,1a3.93,3.93,0,0,1,1.59,1.59l1,1.78,1-1.78a4.05,4.05,0,0,1,1.59-1.59l1.79-1-1.79-1a4,4,0,0,1-1.59-1.59Z"/></g><g class="cls-1"><path class="cls-2" d="M422.06,198l-.6,1.09a2.38,2.38,0,0,1-1,1l-1.09.6,1.09.6a2.38,2.38,0,0,1,1,1l.6,1.09.59-1.09a2.47,2.47,0,0,1,1-1l1.09-.6-1.09-.6a2.47,2.47,0,0,1-1-1Z"/></g><g class="cls-3"><path class="cls-4" d="M108.19,71.63l-1,1.78A4.05,4.05,0,0,1,105.63,75l-1.79,1,1.79,1a4.05,4.05,0,0,1,1.59,1.59l1,1.78,1-1.78a4,4,0,0,1,1.6-1.59l1.78-1-1.78-1a4,4,0,0,1-1.6-1.59Z"/></g><g class="cls-1"><path class="cls-2" d="M977.87,71.59l1,1.78A4.05,4.05,0,0,0,980.43,75l1.78,1-1.78,1a3.93,3.93,0,0,0-1.59,1.59l-1,1.78-1-1.78a3.87,3.87,0,0,0-1.59-1.59l-1.78-1,1.78-1a4,4,0,0,0,1.59-1.59Z"/></g><g class="cls-1"><path class="cls-2" d="M830.72,104.2l.6,1.09a2.38,2.38,0,0,0,1,1l1.09.6-1.09.6a2.38,2.38,0,0,0-1,1l-.6,1.09-.6-1.09a2.38,2.38,0,0,0-1-1l-1.09-.6,1.09-.6a2.38,2.38,0,0,0,1-1Z"/></g><g class="cls-1"><path class="cls-4" d="M940.63,139.31l1,1.78a4,4,0,0,0,1.59,1.6l1.78,1-1.78,1a4,4,0,0,0-1.59,1.6l-1,1.78-1-1.78a4,4,0,0,0-1.59-1.6l-1.78-1,1.78-1a4,4,0,0,0,1.59-1.6Z"/></g><g class="cls-1"><path class="cls-2" d="M1187.46,100.46l-1,1.78a4.05,4.05,0,0,1-1.59,1.59l-1.78,1,1.78,1a4.05,4.05,0,0,1,1.59,1.59l1,1.78,1-1.78a3.93,3.93,0,0,1,1.59-1.59l1.78-1-1.78-1a3.93,3.93,0,0,1-1.59-1.59Z"/></g><g class="cls-1"><path class="cls-2" d="M1021.14,198l-.6,1.09a2.38,2.38,0,0,1-1,1l-1.09.6,1.09.6a2.38,2.38,0,0,1,1,1l.6,1.09.6-1.09a2.38,2.38,0,0,1,1-1l1.09-.6-1.09-.6a2.38,2.38,0,0,1-1-1Z"/></g><g class="cls-1"><path class="cls-2" d="M1572.18,19l1,1.78a4,4,0,0,0,1.6,1.59l1.78,1-1.78,1a4,4,0,0,0-1.6,1.59l-1,1.78-1-1.78a4.05,4.05,0,0,0-1.59-1.59l-1.79-1,1.79-1a4.05,4.05,0,0,0,1.59-1.59Z"/></g><g class="cls-1"><path class="cls-2" d="M1615.45,145.45l-.59,1.09a2.56,2.56,0,0,1-1,1l-1.09.59,1.09.6a2.47,2.47,0,0,1,1,1l.59,1.09.6-1.09a2.38,2.38,0,0,1,1-1l1.09-.6-1.09-.59a2.47,2.47,0,0,1-1-1Z"/></g><g class="cls-5"><path class="cls-4" d="M1020.8,289.91l-1,1.78a4,4,0,0,1-1.6,1.59l-1.78,1,1.78,1a4,4,0,0,1,1.6,1.59l1,1.78,1-1.78a4.05,4.05,0,0,1,1.59-1.59l1.79-1-1.79-1a4.05,4.05,0,0,1-1.59-1.59Z"/></g><g class="cls-5"><path class="cls-2" d="M1593.17,297.23l-.6-1.09a2.38,2.38,0,0,0-1-1l-1.09-.6,1.09-.6a2.38,2.38,0,0,0,1-1l.6-1.09.6,1.09a2.38,2.38,0,0,0,1,1l1.09.6-1.09.6a2.38,2.38,0,0,0-1,1Z"/></g><g class="cls-1"><path class="cls-2" d="M1101.84,57.42l1-1.78a4,4,0,0,1,1.6-1.59l1.78-1-1.78-1a4,4,0,0,1-1.6-1.59l-1-1.78-1,1.78a4,4,0,0,1-1.59,1.59l-1.79,1,1.79,1a4.05,4.05,0,0,1,1.59,1.59Z"/></g><g class="cls-5"><path class="cls-2" d="M589.88,361.52l-.6,1.09a2.47,2.47,0,0,1-1,1l-1.09.59,1.09.6a2.38,2.38,0,0,1,1,1l.6,1.09.59-1.09a2.47,2.47,0,0,1,1-1l1.09-.6-1.09-.59a2.56,2.56,0,0,1-1-1Z"/></g><g class="cls-6"><path class="cls-4" d="M661.35,102.3l-1,1.78a4,4,0,0,1-1.59,1.59l-1.79,1,1.79,1a4.05,4.05,0,0,1,1.59,1.59l1,1.78,1-1.78a4,4,0,0,1,1.6-1.59l1.78-1-1.78-1a4,4,0,0,1-1.6-1.59Z"/></g><g class="cls-1"><path class="cls-2" d="M713.72,249.28l-.6,1.09a2.45,2.45,0,0,1-1,1l-1.09.6,1.09.59a2.54,2.54,0,0,1,1,1l.6,1.09.59-1.09a2.5,2.5,0,0,1,1-1l1.09-.59-1.09-.6a2.41,2.41,0,0,1-1-1Z"/></g><g class="cls-5"><path class="cls-4" d="M810.08,399.48l-1,1.78a4,4,0,0,1-1.59,1.59l-1.78,1,1.78,1a3.93,3.93,0,0,1,1.59,1.59l1,1.78,1-1.78a4,4,0,0,1,1.59-1.59l1.78-1-1.78-1a4.05,4.05,0,0,1-1.59-1.59Z"/></g><g class="cls-5"><path class="cls-4" d="M913.36,506.26l-1-1.78a4.05,4.05,0,0,0-1.59-1.59l-1.78-1,1.78-1a4,4,0,0,0,1.59-1.59l1-1.78,1,1.78a4,4,0,0,0,1.59,1.59l1.78,1-1.78,1a4.05,4.05,0,0,0-1.59,1.59Z"/></g><g class="cls-7"><path class="cls-2" d="M1386,117.76l.6-1.09a2.47,2.47,0,0,1,1-1l1.09-.59-1.09-.6a2.51,2.51,0,0,1-1-1l-.6-1.09-.59,1.09a2.47,2.47,0,0,1-1,1l-1.09.6,1.09.59a2.43,2.43,0,0,1,1,1Z"/></g><g class="cls-8"><path class="cls-4" d="M863.36,185.22l1-1.78a4,4,0,0,1,1.59-1.59l1.78-1-1.78-1a3.93,3.93,0,0,1-1.59-1.59l-1-1.78-1,1.78a4,4,0,0,1-1.59,1.59l-1.78,1,1.78,1a4.05,4.05,0,0,1,1.59,1.59Z"/></g><g class="cls-1"><path class="cls-2" d="M1432.57,76.12l1,1.78a4.05,4.05,0,0,0,1.59,1.59l1.78,1-1.78,1a4.05,4.05,0,0,0-1.59,1.59l-1,1.78-1-1.78a4.05,4.05,0,0,0-1.59-1.59l-1.78-1,1.78-1a4.05,4.05,0,0,0,1.59-1.59Z"/></g><g class="cls-1"><path class="cls-2" d="M1280.33,170.37l.59,1.09a2.56,2.56,0,0,0,1,1l1.09.59-1.09.6a2.47,2.47,0,0,0-1,1l-.59,1.09-.6-1.09a2.38,2.38,0,0,0-1-1l-1.09-.6,1.09-.59a2.47,2.47,0,0,0,1-1Z"/></g><g class="cls-1"><path class="cls-4" d="M1487.24,406.48l1,1.79a4.05,4.05,0,0,0,1.59,1.59l1.78,1-1.78,1a4,4,0,0,0-1.59,1.6l-1,1.78-1-1.78a4,4,0,0,0-1.59-1.6l-1.78-1,1.78-1a4.05,4.05,0,0,0,1.59-1.59Z"/></g><g class="cls-1"><path class="cls-2" d="M1394.29,48.22l-.6,1.1a2.51,2.51,0,0,1-1,1l-1.09.59,1.09.6a2.47,2.47,0,0,1,1,1l.6,1.09.59-1.09a2.43,2.43,0,0,1,1-1l1.09-.6-1.09-.59a2.47,2.47,0,0,1-1-1Z"/></g><g class="cls-9"><path class="cls-2" d="M513,38l1,1.78a4,4,0,0,0,1.59,1.59l1.78,1-1.78,1A4,4,0,0,0,514,44.87l-1,1.78-1-1.78a4.05,4.05,0,0,0-1.59-1.59l-1.78-1,1.78-1A4.05,4.05,0,0,0,512,39.74Z"/></g><g class="cls-8"><path class="cls-2" d="M741,63.22,740,65a4.05,4.05,0,0,1-1.59,1.59l-1.78,1,1.78,1A4.05,4.05,0,0,1,740,70.13l1,1.78,1-1.78a4.05,4.05,0,0,1,1.59-1.59l1.78-1-1.78-1A4.05,4.05,0,0,1,741.94,65Z"/></g><g class="cls-1"><path class="cls-4" d="M786.45,224.83l-1-1.78a4.05,4.05,0,0,0-1.59-1.59l-1.78-1,1.78-1a4,4,0,0,0,1.59-1.59l1-1.78,1,1.78a3.93,3.93,0,0,0,1.59,1.59l1.78,1-1.78,1a4,4,0,0,0-1.59,1.59Z"/></g><g class="cls-1"><path class="cls-2" d="M786.09,175.08l1-1.79a4.05,4.05,0,0,1,1.59-1.59l1.78-1-1.78-1a4,4,0,0,1-1.59-1.6l-1-1.78-1,1.78a3.89,3.89,0,0,1-1.59,1.6l-1.78,1,1.78,1a3.93,3.93,0,0,1,1.59,1.59Z"/></g><g class="cls-1"><path class="cls-2" d="M1292.58,88.9l-1-1.78a4,4,0,0,0-1.59-1.6l-1.78-1,1.78-1a4.05,4.05,0,0,0,1.59-1.59l1-1.79,1,1.79a4,4,0,0,0,1.59,1.59l1.78,1-1.78,1a4,4,0,0,0-1.59,1.6Z"/></g><g class="cls-1"><path class="cls-2" d="M449,335.16l.6-1.09a2.47,2.47,0,0,1,1-1l1.09-.59-1.09-.6a2.38,2.38,0,0,1-1-1l-.6-1.09-.59,1.09a2.47,2.47,0,0,1-1,1l-1.09.6,1.09.59a2.56,2.56,0,0,1,1,1Z"/></g><g class="cls-1"><path class="cls-2" d="M564.7,214.56l-.59,1.09a2.47,2.47,0,0,1-1,1l-1.09.6,1.09.6a2.47,2.47,0,0,1,1,1l.59,1.09.6-1.09a2.38,2.38,0,0,1,1-1l1.09-.6-1.09-.6a2.38,2.38,0,0,1-1-1Z"/></g><g class="cls-1"><path class="cls-2" d="M480.18,256.17l-1-1.78a3.93,3.93,0,0,0-1.59-1.59l-1.78-1,1.78-1a4,4,0,0,0,1.59-1.59l1-1.78,1,1.78a4.05,4.05,0,0,0,1.59,1.59l1.78,1-1.78,1a4,4,0,0,0-1.59,1.59Z"/></g><g class="cls-8"><path class="cls-2" d="M474.4,107l-1,1.78a4,4,0,0,1-1.59,1.6l-1.78,1,1.78,1a4.05,4.05,0,0,1,1.59,1.59l1,1.79,1-1.79a4,4,0,0,1,1.59-1.59l1.78-1-1.78-1a4,4,0,0,1-1.59-1.6Z"/></g><g class="cls-10"><circle class="cls-11" cx="250.56" cy="345.82" r="60.34"/><g class="cls-5"><path class="cls-4" d="M276.78,376.48c-1.55,2.31-1.85,5.22-2.31,8s-1.21,5.68-3.31,7.48-5.93,1.64-7.05-.91c-.6-1.39-.26-3-.59-4.49-.42-1.93-1.9-3.43-2.59-5.28a14.65,14.65,0,0,1-.61-5c-.16-9.21-2.26-18.85-8.33-25.67a6,6,0,0,0-2.67-2,3.4,3.4,0,0,0-3.54,1.2,14.06,14.06,0,0,1-1.38,2.07c-1.33,1.2-3.62.3-4.48-1.29s-.71-3.52-.54-5.32q.3-3.36.62-6.72a5.69,5.69,0,0,1,1-3.31c1.09-1.26,3-1.29,4.34-2.28,1.74-1.3,2-3.8,3.1-5.68s4.52-2.65,5-.51c3.69-7.8,11.5,3.94,16.24,3.12,1.38-.24,2.73-.89,4.11-.68,2.43.37,3.66,3.13,4.46,5.5q2,5.91,4,11.82c.51,1.5,1.17,3.17,2.61,3.76,1.11.45,2.41.13,3.53.56,2.95,1.13,1.93,5.88-.48,7.95s-5.78,3.37-6.95,6.36c-.88,2.25-.22,4.91-1.17,7.13C279.13,373.91,277.74,375.05,276.78,376.48Z"/></g><g class="cls-5"><path class="cls-4" d="M213.09,393.06h0c.6.5,1.22,1,1.85,1.44s1,.74,1.49,1.1l1.53,1,1.1.69c0-.11-.1-.2-.14-.31-1.3-3-1.33-7.28,1.55-8.72a6.64,6.64,0,0,0,1.63-.85c1.29-1.22.27-3.76,1.56-5,.73-.67,1.85-.61,2.74-1,1.61-.73,2.15-2.81,2-4.61s-.66-3.57-.44-5.35c.35-2.7,2.44-5.41,1.29-7.86-1.3-2.74-5.18-2.35-7.9-3.6-3.79-1.75-4.91-6.58-7.36-10-2.2-3.07-7.36-6.47-11.34-5.6a4.88,4.88,0,0,0-4.2,4.5l-.37-.06c-1.06-.13-2.3-.2-2.87-1.1-.67-1.06,0-2.6-.67-3.63a5.77,5.77,0,0,0-1.5-1.17c-.51-.37-1-1.08-.62-1.64s.93-.57,1.27-1a1,1,0,0,0,0-1.22c-1.08-1.33-2.33,1.34-2.94,2a4.22,4.22,0,0,1-.49.47h0c0,.11,0,.22,0,.34,0,.36,0,.74,0,1.11s0,.74,0,1.11,0,.6,0,.9v.9c0,.15,0,.29,0,.43a63.47,63.47,0,0,0,3.49,19.79,57.09,57.09,0,0,0,3.52,8c.58,1.13,1.22,2.24,1.88,3.33.83,1.35,1.88,2.82,2.81,4.09s1.77,2.31,2.75,3.46c1.33,1.58,2.75,3,4.24,4.48,1.31,1.28,2.72,2.41,4.16,3.57"/></g><g class="cls-5"><path class="cls-4" d="M307.26,325.13a15.39,15.39,0,0,1-.61-1.93c-2.27-6.69-8.13-9.77-11.76-15-1.19-1.7-2.11-3.11-4.24-3.46-3.15-.54-4.77,1.28-7-1.8-.59-.82-1.64-1.6-2.53-1.12.22.66.45,1.31.67,2a.89.89,0,0,1,.08.43c-.06.46-.73.57-1.11.32a3.89,3.89,0,0,1-.83-1.12,3.06,3.06,0,0,0-4.54-.43,1.78,1.78,0,0,0-1-1.45,2.07,2.07,0,0,1-2.62,1.67c-.18-.59.87-.69,1.24-1.19s-.06-1.14-.48-1.55a6.54,6.54,0,0,0-4.15-1.69,5.59,5.59,0,0,1-2.85-.38c-.48-.3-.82-.79-1.31-1.08-1.06-.62-2.4-.07-3.48.52-1.47.81-3,1.84-3.53,3.46s.59,3.82,2.26,3.64a3.09,3.09,0,0,1,1.27-.14,1.59,1.59,0,0,1,.89,1.51,4.45,4.45,0,0,0,.26,1.82c.28.55,1.15.84,1.49.32.79-.75.71-2,.52-3.11s-.38-2.31.26-3.19,2.47-.58,2.33.52c-.08.64-.81,1.1-.79,1.75s.82,1,1.47,1a7,7,0,0,1,1.94-.07c.64.16,1.14,1,.67,1.49-.8.91-2.85-.69-3.28.45a4.09,4.09,0,0,0,0,.93c-.08,1-1.26,1.3-2.2,1.4a5.07,5.07,0,0,1-2.79-.23,1.82,1.82,0,0,1-.92-2.38,1.06,1.06,0,0,0-1.47.52,3.24,3.24,0,0,0-.12,1.78c-1-.24-1.9.61-2.47,1.45s-1.14,1.84-2.11,2.13-2.32-.13-2.84.76c-.67,1.16,1.23,2.67.54,3.82-.39.65-1.3.62-2,.82-1.93.53-2.64,3.39-1.34,4.93a3.71,3.71,0,0,0,5.32,0c1-1,1.38-2.41,2.1-3.61s2-2.27,3.36-1.86a4.06,4.06,0,0,1,1.36.89l1.9,1.67c.41.36.86.8.81,1.35s-.38.77-.53,1.18c-.41,1.18,1.25,2.32,2.31,1.69a2.39,2.39,0,0,0,.49-3.3c-1-1.42-3.23-2.15-3.15-3.88,1.16-.94,3,.08,3.61,1.44s.66,3,1.21,4.36,2.11,2.66,3.44,2c-.33-1.22-.65-2.42-1-3.62.85-.64,1.79,1.25,2.8,1,.62-.19.7-1.09.44-1.7a8.64,8.64,0,0,1-.83-1.77,2,2,0,0,1,2.31-2,3,3,0,0,1,2.21,2.54,5.9,5.9,0,0,0,.29,1.4c.43.94,1.57,1.24,2.5,1.64s1.91,1.37,1.51,2.32c-.19.42-.63.82-.48,1.25s.7.55.69,1-.29.46-.54.56c-.64.26-1.33.34-1.94.63a1.79,1.79,0,0,0-1.14,1.57c.06,1,1.2,1.46,1.72,2.27s.42,1.8.74,2.68a9.32,9.32,0,0,0,1.42,2.15c1.56,2.23,1.9,5.07,2.65,7.69.33,1.18,1,2.51,2.13,2.75a3.59,3.59,0,0,0,1.92-.36,11.56,11.56,0,0,0,4.72-2.79c1.23-1.42,1.65-3.72.44-5.13a1,1,0,0,0-.58-.39,1.8,1.8,0,0,0-.91.31,2.53,2.53,0,0,1-2.66-.61,7.71,7.71,0,0,1-1.56-2.45c-.46-1-.92-1.95-1.39-2.93a1.65,1.65,0,0,1,2.05.22,10.9,10.9,0,0,1,1.38,1.77,8.84,8.84,0,0,0,6,3,5.46,5.46,0,0,1,1.7.38c1.69.81,2.15,3.36,3.93,3.92a10.87,10.87,0,0,1,1.52.37,2.86,2.86,0,0,1,1.25,1.95,31.34,31.34,0,0,0,1.07,4.32,3.93,3.93,0,0,0,3.21,2.66,2.82,2.82,0,0,0,2.24-.89l-.09-.17c.1-1.34.27-2.47.29-3.84,0-.28-.08-.65-.1-.93,0-.89,0-1.73,0-2.61s-.15-1.95-.23-2.82c-.06-.7-.15-1.25-.24-1.94s-.24-1.49-.35-2.21c-.34-2.18-1.27-6.1-1.83-8.2"/></g><g class="cls-5"><path class="cls-4" d="M288,379.17c-1,.13-2.12-.38-2.87.28a3.26,3.26,0,0,0-.72,1.56,3.37,3.37,0,0,1-1.4,1.91,2,2,0,0,1-2.26-.07,1.56,1.56,0,0,1-.28-2.15,9.48,9.48,0,0,1,.85-.69c1.31-1.23.45-3.55,1.45-5,.59-.87,1.51-1.75,2.16-2.62.5-.68.68-1.22,1.59-1.39C290.48,370.24,292.16,378.63,288,379.17Z"/></g><g class="cls-5"><path class="cls-4" d="M236.78,300.16c-1.21.72-1.86,2.09-2.8,3.15s-2.6,1.79-3.68.89a2.58,2.58,0,0,1-.8-1.82,4.74,4.74,0,0,1,.68-2.82c.53-.85,1.33-1.53,1.79-2.43s.37-2.24-.53-2.68c-.48-.23-1.1-.15-1.53-.48-.77-.59-.2-2,.71-2.31a6.67,6.67,0,0,1,2.88,0c3.5.27,6.11-2,8.77-4,2.06-1.48,6.45-3.22,8.8-1.65.94.63,1.3,2.22.4,2.9-.41.31-1,.37-1.33.71s-.52,1.09-.79,1.64c-.68,1.44-2.6,1.94-3.23,3.4-.38.88-.23,2-.81,2.74a3.22,3.22,0,0,1-2,1l-4.59,1.06A7.06,7.06,0,0,0,236.78,300.16Z"/></g><g class="cls-5"><path class="cls-4" d="M194.23,327.22c1.14-1,3.09-1.07,4,.17a4.33,4.33,0,0,1,.28,3.16c-.24,1.44-.47,2.88-.72,4.32a2.39,2.39,0,0,0,0,1.3c.41.92,1.89.76,2.46-.05a4,4,0,0,0,.39-2.93,5.64,5.64,0,0,1,.07-3c1-2.31,4.37-1.92,6.36-3.41,1.24-.92,1.8-2.48,2.55-3.85s2-2.73,3.5-2.64c.52,0,1,.23,1.54.21a2.11,2.11,0,0,0,1.36-3.38,3.42,3.42,0,0,1-.66-.71,1.29,1.29,0,0,1,.49-1.52,3.51,3.51,0,0,1,1.62-.51l3.88-.58c1.43-.21,3.27-.94,3.08-2.39-.16-1.26-1.82-1.85-2.06-3.1a4.11,4.11,0,0,0-.15-.92c-.38-.8-1.56-.49-2.33-.07a1.85,1.85,0,0,0-2.83-1c-.77.63-.88,1.76-1.16,2.73-.66,2.33-2.51,4.08-4.27,5.71a3.46,3.46,0,0,1-2.05,1.15c-.79,0-1.62-.85-1.25-1.56.26-.48,1-.76.89-1.3s-1.26-.65-1.48-1.31c.48-1.92,2.67-2.7,4.34-3.71a10.57,10.57,0,0,0,4.46-5.45,1.4,1.4,0,0,0,.07-1.13c-.24-.49-.88-.58-1.43-.59-1.28,0-2.88.13-3.36,1.34a14.24,14.24,0,0,0-.25,2.08c-.47,2-3.2,2.21-4.88,3.4a15.39,15.39,0,0,1-1.89,1.46,7,7,0,0,1-2.56.39l-.46.05c-.53.74-1.05,1.49-1.55,2.26s-1,1.55-1.44,2.33a62.05,62.05,0,0,0-5.38,11.86c-.49,1.45-.92,2.93-1.29,4.43s-.7,3-1,4.57a17.38,17.38,0,0,0,1.14-3.87A7.15,7.15,0,0,1,194.23,327.22Z"/></g><g class="cls-1"><path d="M311,346.08c0-.41,0-.84,0-1.25a1.34,1.34,0,0,0,0-.2v-.11c0-.44,0-.88-.07-1.31s-.05-.83-.08-1.24c-.05-.62-.11-1.22-.18-1.83-.16-1.52-.38-3-.67-4.5,0-.2-.08-.41-.12-.61l-.12-.58c-.1-.54-.22-1.07-.35-1.59a59.13,59.13,0,0,0-2.78-8.73c-.27-.66-.55-1.32-.84-2-.43-.94-.87-1.87-1.34-2.78-.37-.72-.75-1.43-1.15-2.14s-.95-1.63-1.46-2.42c-.18-.32-.39-.63-.59-.94h0l-.45-.69c-.08-.11-.15-.21-.24-.32-.3-.45-.62-.9-.94-1.33-.1-.16-.21-.3-.32-.46l-.25-.32-.46-.6c-.63-.83-1.3-1.65-2-2.43l-.1-.12c-.57-.67-1.16-1.32-1.76-1.94l-.55-.59-.42-.42,0,0c-1.09-1.11-2.22-2.18-3.4-3.19l-.54-.47-.76-.64c-.47-.39-1-.77-1.44-1.15l-.4-.31h0l-.71-.53h0a61.17,61.17,0,0,0-6.08-3.92c.39.26.78.52,1.15.79a.24.24,0,0,1,.09.06c.41.28.81.56,1.21.86h0c.24.17.47.34.71.53h0l.4.31c.48.37,1,.75,1.44,1.15.26.21.52.42.77.64l.53.46q1.77,1.53,3.4,3.19l0,0,.42.43c.79.82,1.57,1.65,2.31,2.52l.1.12.25.3c.75.89,1.49,1.81,2.19,2.74l.24.32.33.45.66.93.51.73c.15.23.31.45.45.68a0,0,0,0,1,0,0c.31.48.61.95.9,1.43s.77,1.25,1.12,1.89c.49.84.94,1.69,1.38,2.56s.76,1.57,1.12,2.37.59,1.33.86,2l.41,1a59.14,59.14,0,0,1,2.73,9.29c0,.19.07.39.11.58s.07.33.1.49c.19,1,.36,2,.48,2.95q.13.84.21,1.68.18,1.51.27,3.06l.06,1.27v0c0,.52,0,1.05,0,1.57,0,.22,0,.44,0,.66s0,.37,0,.55c0,.34,0,.67,0,1,0,1.24-.09,2.47-.21,3.68-.06.69-.13,1.39-.21,2.08,0,.13,0,.27-.06.4-.15,1.17-.32,2.32-.53,3.45l-.21,1a59.66,59.66,0,0,1-5.44,15.39l-.05.09c-.37.71-.75,1.4-1.13,2.08a62.53,62.53,0,0,1-7.57,10.46c-.88,1-1.79,1.92-2.73,2.84h0a62.36,62.36,0,0,1-6.26,5.32h0a60.68,60.68,0,0,1-10.77,6.32h0c-1.18.54-2.39,1-3.61,1.5-.64.24-1.28.48-1.91.69-1,.34-2,.65-3,.93a57.58,57.58,0,0,1-6.56,1.44,60.16,60.16,0,0,1-28.57-2.24c-1.28-.41-2.54-.88-3.77-1.39-1-.39-2-.83-2.95-1.29s-1.92-.94-2.86-1.45l-1.23-.68c.65.42,1.3.84,2,1.23.28.18.55.33.83.5l.16.1.28.16c.54.32,1.08.62,1.63.91a60.25,60.25,0,0,0,5.8,2.74c1.24.51,2.5,1,3.78,1.39a60.18,60.18,0,0,0,35.12.79c.33-.08.66-.18,1-.29.68-.19,1.35-.4,2-.64s1.28-.44,1.92-.68a59.11,59.11,0,0,0,9.51-4.59A60.17,60.17,0,0,0,295.52,387c.82-.91,1.63-1.85,2.39-2.81a60.23,60.23,0,0,0,4.23-6c.34-.55.68-1.11,1-1.67s.77-1.38,1.14-2.08c.59-1.14,1.15-2.3,1.66-3.48h0a59.36,59.36,0,0,0,4.43-15.49l.09-.63c0-.24.07-.49.09-.74s.09-.7.13-1.06l.09-1.06c0-.25.05-.49.07-.73l.09-1.59c0-.43,0-.87.05-1.31s0-1,0-1.56C311,346.53,311,346.31,311,346.08Z"/></g></g><g class="cls-5"><ellipse class="cls-12" cx="1397.65" cy="285.09" rx="123.31" ry="117.11"/><g class="cls-13"><path d="M1360.63,183.59c6.89,9.1,14.87,14.85,24.72,20.68,2.27,1.34,4.3-1.75,3.09-3.54-5.25-7.81-10-15.38-16-22.76-1.62-2-3.22-4.22-4.88-6.45a129,129,0,0,0-12.89,3.79C1356.45,178.26,1358.71,181.06,1360.63,183.59Z"/><path class="cls-4" d="M1352.69,204.1c15.38,20,35.77,36.12,58.37,48.23a211.13,211.13,0,0,0,74.73,23.16c10,1.15,22.59,2,34.84,1A110.24,110.24,0,0,0,1519,264.4a131.81,131.81,0,0,1-29.18.16,205.41,205.41,0,0,1-63.1-16.77c-19.32-8.54-37.19-19.74-52.4-34-9.67-9.05-22.38-21.63-28.11-35.15-2.47,1.09-4.93,2.25-7.35,3.5C1342.5,190.55,1348.5,198.67,1352.69,204.1Z"/><path class="cls-4" d="M1443.52,199.44c10.66,6.53,33.29,14.8,47.85,9.55a121.93,121.93,0,0,0-8.79-8.82,22.15,22.15,0,0,1-2.61.32c-9.13.61-18.26-2.36-26.38-6-9.49-4.25-24.26-13.28-31.39-24.13q-3.83-.75-7.68-1.25C1419,181.78,1433.14,193.07,1443.52,199.44Z"/><path d="M1332,242.39c20.51,22.67,46.92,38.83,74.87,52.14,25.49,12.15,52.89,20.82,81.5,22.43a170.42,170.42,0,0,0,28.09-.43,112.11,112.11,0,0,0,4.43-27,179.06,179.06,0,0,1-37.76-1.08c-23.75-3.24-46.41-11.42-67.69-21.74-22.34-10.83-44-23.89-61.45-41.21a176.7,176.7,0,0,1-22.73-28.05c-1.72-2.62-3.28-5.27-4.81-7.93a121.86,121.86,0,0,0-19.59,16.36C1313.25,219.44,1322.68,232.12,1332,242.39Z"/><path d="M1315.4,324.45c-14.09-10.11-28.16-20.85-40.85-32.77.18,3.11.5,6.22.94,9.31,28.17,28,64.68,50,99.86,66.69a403.32,403.32,0,0,0,69.58,25.56c2.32-.91,4.62-1.88,6.9-2.94a393.87,393.87,0,0,1-72-27.27A456.09,456.09,0,0,1,1315.4,324.45Z"/><path class="cls-4" d="M1435.64,216.42c15.11,9,32.08,15.61,50,16.64a93.22,93.22,0,0,0,21.76-1.24c-1.73-3.21-3.62-6.38-5.69-9.48a67.06,67.06,0,0,1-18.16,1.12c-15.07-1-29.56-6.31-42.5-13.53-18.53-10.33-37-24.31-48.35-41.84-2.88.11-5.75.29-8.62.59C1395.32,188.83,1418.26,206,1435.64,216.42Z"/><path class="cls-4" d="M1478,373.93a297.77,297.77,0,0,1-32.81-4.4,288.17,288.17,0,0,1-62.68-19.71c-21.26-9.67-40.76-22.41-58.85-36.7-16.78-13.25-35.69-28-47.84-45.8-.44,2.74-.8,5.5-1,8.26,9.65,13.44,24.65,24.79,36.52,34.94,19.13,16.37,39.88,31.17,62.71,42.58a297.48,297.48,0,0,0,93.65,28.38c.31-.2.63-.38.93-.59C1471.86,378.7,1475,376.37,1478,373.93Z"/><path class="cls-4" d="M1384,339.55c28.57,13.14,59.63,23,91.21,26.68,3.43.41,6.89.74,10.35,1a115.87,115.87,0,0,0,25.88-37,193.5,193.5,0,0,1-35.5-1.81c-27.1-3.85-53-12.4-77.55-23.85-25.46-11.87-49.4-27.33-68.94-47A195,195,0,0,1,1302,222.75c-1.35-2.19-2.62-4.47-3.88-6.77a114.45,114.45,0,0,0-19.73,39.47,193.34,193.34,0,0,0,20.69,25.47C1322.93,305.67,1352.22,325,1384,339.55Z"/><path d="M1471.81,240.08c-9.75-3.09-19.68-3.5-29.21-7.92-9.74-4.51-18.49-11.71-29-14.31-5.21-1.29-7.39,5.39-4,8.37,8.51,7.58,22.08,12.76,32.72,17.36,8.65,3.74,20.36,6.53,29.29,2.38C1473.82,244.9,1474.9,241.06,1471.81,240.08Z"/><path class="cls-4" d="M1343.51,369.94a30.52,30.52,0,0,0-6.75-1.64c-2.45-.31-3.84,3.16-1.34,4.08a24.4,24.4,0,0,1,5.19,2.58c1.74,1.19,3.51,1.55,5.48,2.25a1.86,1.86,0,0,0,2.35-2.69C1347.17,372.47,1345.92,370.83,1343.51,369.94Z"/><path d="M1411.16,389.14c-12.79-4.71-25.38-13.1-38.92-15.33-3.06-.5-6,3.18-3.79,5.67,9.54,10.78,26.2,16,39.71,20.83,1.14.4,2.27.77,3.41,1.16a128.12,128.12,0,0,0,23.28-4.7C1426.84,394.47,1418.9,392,1411.16,389.14Z"/><path class="cls-4" d="M1321.33,356.15c4,1,5.24-3.94,3-6.18-7.79-7.77-19.1-12.56-28-19.32-5.87-4.46-11.68-9-17.33-13.76a111.9,111.9,0,0,0,6.27,16.32C1295.81,343.69,1308.17,352.94,1321.33,356.15Z"/></g><g class="cls-13"><path class="cls-4" d="M1514.23,302.74c0,.61-3.18,1.24-9.09,1.85l-4.92.45c-1.8.09-3.76,0-5.87,0a126.81,126.81,0,0,1-14.32-.55l-8.32-.81c-2.89-.31-5.85-1-8.94-1.45-6.22-.9-12.68-2.69-19.52-4.43a225.43,225.43,0,0,1-42.45-17.3,225.58,225.58,0,0,1-37.65-26.17c-5.19-4.78-10.21-9.23-14.35-13.95-2.11-2.32-4.26-4.45-6.1-6.7l-5.2-6.54a126.89,126.89,0,0,1-8.28-11.7c-1.14-1.78-2.24-3.39-3.15-5l-2.3-4.38c-2.71-5.28-3.94-8.32-3.41-8.62s2.77,2.13,6.32,6.74l2.9,3.87c1.09,1.39,2.37,2.83,3.68,4.42,2.67,3.13,5.44,6.89,9.07,10.59l5.47,6c1.9,2.06,4.11,4,6.26,6.13,4.22,4.34,9.25,8.42,14.38,12.86a256.91,256.91,0,0,0,36.61,24.61A258.79,258.79,0,0,0,1445.62,290c6.52,1.88,12.68,3.87,18.62,5.05,3,.64,5.79,1.43,8.56,1.9l8,1.34c5.07,1,9.74,1.3,13.82,1.83,2.05.23,4,.52,5.71.68l4.82.32C1510.94,301.58,1514.2,302.13,1514.23,302.74Z"/></g><path class="cls-14" d="M1290.8,226.33c.69-1.22,1.46-2.41,2.2-3.61-54.9-22.2-84.14-28.46-93-25.57a2.54,2.54,0,0,0-1.38.8l-.16.31c-.22.37,0,1.18.11,1.51,2,6.14,20.56,32.12,177.35,108.55,94.39,46,169.94,69.92,195.89,72.76a3.24,3.24,0,0,0,2.84-5.48c-9.14-8.86-30.11-24.35-63.63-44.61-.47.95-.89,1.92-1.38,2.85,27.5,16.81,43.38,29.27,41.15,33.4-4.48,8.3-80.2-20.07-169.14-63.36s-157.41-85.11-152.94-93.41C1231.18,205.93,1255.08,212.42,1290.8,226.33Z"/><path class="cls-14" d="M1516,319.43c-.3.83-.67,1.64-1,2.46,42.88,25.7,71.26,47.05,74.59,57.45a7.73,7.73,0,0,1-2.5,8.83c-2.75,2.18-11.12,8.82-76.16-13-41.91-14.06-91.51-34.74-139.68-58.22-20.29-9.89-41.7-20.63-62.44-31.53-59.83-31.45-114.09-64.34-120-82.82a10.81,10.81,0,0,1,.63-8.87,11.76,11.76,0,0,1,7.24-5.72c15.8-5.17,58,8.63,101.82,26.47.36-.48.67-1,1-1.46-74.29-29.47-127.06-41.59-135.4-30.34-18,24.24,78.33,85.18,201.72,145.23s235.63,89.78,245.09,72.25C1617.24,388.52,1578.68,356.91,1516,319.43Z"/><path class="cls-14" d="M1524.28,351.13c.68.7-7.48-.05-7.71-.09a81.79,81.79,0,0,1-9-2.57c-8-2.46-15.81-5.32-23.53-8.38-10.92-4.33-21.45-10.07-32.91-13a1.06,1.06,0,0,0-.79,1.94c18.3,12.6,45.32,22.22,67.44,26.56,3.15.62,8,1.95,10-1.47,1.3-2.26.48-4-1.79-5.23a1.42,1.42,0,0,0-1.74,2.21Z"/><g class="cls-5"><path d="M1290.8,226.33c.69-1.22,1.46-2.41,2.2-3.61-54.9-22.2-84.14-28.46-93-25.57a2.54,2.54,0,0,0-1.38.8l-.16.31c-.22.37,0,1.18.11,1.51,2,6.14,20.56,32.12,177.35,108.55,94.39,46,169.94,69.92,195.89,72.76a3.24,3.24,0,0,0,2.84-5.48c-9.14-8.86-30.11-24.35-63.63-44.61-.47.95-.89,1.92-1.38,2.85,27.5,16.81,43.38,29.27,41.15,33.4-4.48,8.3-80.2-20.07-169.14-63.36s-157.41-85.11-152.94-93.41C1231.18,205.93,1255.08,212.42,1290.8,226.33Z"/><path d="M1524.28,351.13c.68.7-7.48-.05-7.71-.09a81.79,81.79,0,0,1-9-2.57c-8-2.46-15.81-5.32-23.53-8.38-10.92-4.33-21.45-10.07-32.91-13a1.06,1.06,0,0,0-.79,1.94c18.3,12.6,45.32,22.22,67.44,26.56,3.15.62,8,1.95,10-1.47,1.3-2.26.48-4-1.79-5.23a1.42,1.42,0,0,0-1.74,2.21Z"/></g><g class="cls-5"><path d="M1516,319.43c-.3.83-.67,1.64-1,2.46,42.88,25.7,71.26,47.05,74.59,57.45a7.73,7.73,0,0,1-2.5,8.83c-2.75,2.18-11.12,8.82-76.16-13-41.91-14.06-91.51-34.74-139.68-58.22-20.29-9.89-41.7-20.63-62.44-31.53-59.83-31.45-114.09-64.34-120-82.82a10.81,10.81,0,0,1,.63-8.87,11.76,11.76,0,0,1,7.24-5.72c15.8-5.17,58,8.63,101.82,26.47.36-.48.67-1,1-1.46-74.29-29.47-127.06-41.59-135.4-30.34-18,24.24,78.33,85.18,201.72,145.23s235.63,89.78,245.09,72.25C1617.24,388.52,1578.68,356.91,1516,319.43Z"/></g></g><g class="cls-8"><path class="cls-2" d="M1109.81,129.13l-.74,1.34a3.05,3.05,0,0,1-1.19,1.2l-1.35.73,1.35.73a3.05,3.05,0,0,1,1.19,1.2l.74,1.34.73-1.34a3.08,3.08,0,0,1,1.2-1.2l1.34-.73-1.34-.73a3.08,3.08,0,0,1-1.2-1.2Z"/></g><g class="cls-8"><path class="cls-4" d="M1169.91,294.05l1-1.78a4,4,0,0,1,1.59-1.59l1.78-1-1.78-1a4.05,4.05,0,0,1-1.59-1.59l-1-1.78-1,1.78a4.05,4.05,0,0,1-1.59,1.59l-1.78,1,1.78,1a4,4,0,0,1,1.59,1.59Z"/></g><g class="cls-1"><path class="cls-4" d="M1131.7,399.14l-1-1.78a3.93,3.93,0,0,0-1.59-1.59l-1.78-1,1.78-1a3.87,3.87,0,0,0,1.59-1.59l1-1.78,1,1.78a4,4,0,0,0,1.59,1.59l1.78,1-1.78,1a4.05,4.05,0,0,0-1.59,1.59Z"/></g><g class="cls-1"><path class="cls-2" d="M1131.33,349.39l1-1.79a4.05,4.05,0,0,1,1.59-1.59l1.78-1-1.78-1a4,4,0,0,1-1.59-1.6l-1-1.78-1,1.78a4,4,0,0,1-1.59,1.6l-1.78,1,1.78,1a4.05,4.05,0,0,1,1.59,1.59Z"/></g><g class="cls-13"><path class="cls-2" d="M353.85,202.37l1,1.78a4,4,0,0,0,1.6,1.59l1.78,1-1.78,1a4,4,0,0,0-1.6,1.59l-1,1.78-1-1.78a4.05,4.05,0,0,0-1.59-1.59l-1.79-1,1.79-1a4,4,0,0,0,1.59-1.59Z"/></g><g class="cls-3"><path class="cls-2" d="M130.61,295.1l.59,1.09a2.47,2.47,0,0,0,1,1l1.09.6-1.09.59a2.56,2.56,0,0,0-1,1l-.59,1.09-.6-1.09a2.47,2.47,0,0,0-1-1l-1.09-.59,1.09-.6a2.38,2.38,0,0,0,1-1Z"/></g><g class="cls-1"><path class="cls-4" d="M369.61,285.1l1,1.78a4,4,0,0,0,1.6,1.59l1.78,1-1.78,1a4,4,0,0,0-1.6,1.59l-1,1.78-1-1.78a4.05,4.05,0,0,0-1.59-1.59l-1.79-1,1.79-1a4.05,4.05,0,0,0,1.59-1.59Z"/></g><g class="cls-1"><path class="cls-2" d="M142.44,314.52l-.6,1.09a2.47,2.47,0,0,1-1,1l-1.09.59,1.09.6a2.38,2.38,0,0,1,1,1l.6,1.09.59-1.09a2.47,2.47,0,0,1,1-1l1.09-.6-1.09-.59a2.56,2.56,0,0,1-1-1Z"/></g><g class="cls-9"><path class="cls-2" d="M657,219.92l1,1.79a4,4,0,0,0,1.6,1.59l1.78,1-1.78,1a4,4,0,0,0-1.6,1.6l-1,1.78-1-1.78a4,4,0,0,0-1.6-1.6l-1.78-1,1.78-1a4,4,0,0,0,1.6-1.59Z"/></g><g class="cls-8"><path class="cls-2" d="M116.4,363.41l-1,1.78a3.87,3.87,0,0,1-1.59,1.59l-1.78,1,1.78,1a3.93,3.93,0,0,1,1.59,1.59l1,1.78,1-1.78a4.05,4.05,0,0,1,1.59-1.59l1.79-1-1.79-1a4,4,0,0,1-1.59-1.59Z"/></g><circle class="cls-15" cx="1169.63" cy="288.39" r="21.39"/><g class="cls-1"><path class="cls-2" d="M147.14,144.82l.6,1.09a2.45,2.45,0,0,0,1,1l1.09.6-1.09.59a2.41,2.41,0,0,0-1,1l-.6,1.09-.6-1.09a2.41,2.41,0,0,0-1-1l-1.09-.59,1.09-.6a2.45,2.45,0,0,0,1-1Z"/></g><g class="cls-1"><path class="cls-4" d="M257.05,179.93l1,1.78a4.05,4.05,0,0,0,1.59,1.59l1.78,1-1.78,1a4.05,4.05,0,0,0-1.59,1.59l-1,1.78-1-1.78a4,4,0,0,0-1.59-1.59l-1.78-1,1.78-1a4,4,0,0,0,1.59-1.59Z"/></g><g class="cls-8"><path class="cls-4" d="M179.78,225.84l1-1.78a3.93,3.93,0,0,1,1.59-1.59l1.78-1-1.78-1a4,4,0,0,1-1.59-1.59l-1-1.78-1,1.78a4.05,4.05,0,0,1-1.59,1.59l-1.78,1,1.78,1a4,4,0,0,1,1.59,1.59Z"/></g><g class="cls-1"><path class="cls-2" d="M102.51,215.69l1-1.78a4.05,4.05,0,0,1,1.59-1.59l1.78-1-1.78-1a4.05,4.05,0,0,1-1.59-1.59l-1-1.78-1,1.78a4,4,0,0,1-1.59,1.59l-1.78,1,1.78,1a4,4,0,0,1,1.59,1.59Z"/></g><g class="cls-1"><path class="cls-4" d="M1578.06,233l1,1.78a4,4,0,0,0,1.6,1.59l1.78,1-1.78,1a4,4,0,0,0-1.6,1.59l-1,1.78-1-1.78a4.05,4.05,0,0,0-1.59-1.59l-1.79-1,1.79-1a4.05,4.05,0,0,0,1.59-1.59Z"/></g><g class="cls-1"><path class="cls-2" d="M16.65,245.36l1,1.78a4,4,0,0,0,1.59,1.6l1.78,1-1.78,1a4.05,4.05,0,0,0-1.59,1.59l-1,1.79-1-1.79a4,4,0,0,0-1.59-1.59l-1.78-1,1.78-1a4,4,0,0,0,1.59-1.6Z"/></g><g class="cls-1"><path class="cls-2" d="M74.44,135.33l-1,1.78a3.93,3.93,0,0,1-1.59,1.59l-1.78,1,1.78,1a4,4,0,0,1,1.59,1.59l1,1.78,1-1.78A4.05,4.05,0,0,1,77,140.65l1.78-1-1.78-1a4,4,0,0,1-1.59-1.59Z"/></g><g class="cls-9"><path class="cls-2" d="M711,408.87l1,1.78a4,4,0,0,0,1.59,1.59l1.78,1-1.78,1a4.05,4.05,0,0,0-1.59,1.59l-1,1.78-1-1.78a4.05,4.05,0,0,0-1.59-1.59l-1.78-1,1.78-1a4,4,0,0,0,1.59-1.59Z"/></g><g class="cls-8"><path class="cls-2" d="M399,211.36l-1,1.78a4.05,4.05,0,0,1-1.59,1.59l-1.78,1,1.78,1a4.05,4.05,0,0,1,1.59,1.59l1,1.78,1-1.78a3.93,3.93,0,0,1,1.59-1.59l1.78-1-1.78-1a3.93,3.93,0,0,1-1.59-1.59Z"/></g><g class="cls-5"><path class="cls-4" d="M1233.36,435.91l-.8,1.46a3.18,3.18,0,0,1-1.31,1.31l-1.46.8,1.46.8a3.3,3.3,0,0,1,1.31,1.31l.8,1.47.8-1.47a3.37,3.37,0,0,1,1.31-1.31l1.47-.8-1.47-.8a3.24,3.24,0,0,1-1.31-1.31Z"/></g><g class="cls-5"><path class="cls-4" d="M1174.4,526.31l-.8-1.46a3.37,3.37,0,0,0-1.31-1.31l-1.47-.8,1.47-.8a3.37,3.37,0,0,0,1.31-1.31l.8-1.46.8,1.46a3.24,3.24,0,0,0,1.31,1.31l1.46.8-1.46.8a3.24,3.24,0,0,0-1.31,1.31Z"/></g><g class="cls-5"><path class="cls-2" d="M1024.77,459.83l.8-1.46a3.24,3.24,0,0,1,1.31-1.31l1.46-.8-1.46-.8a3.24,3.24,0,0,1-1.31-1.31l-.8-1.46-.8,1.46a3.37,3.37,0,0,1-1.31,1.31l-1.47.8,1.47.8a3.37,3.37,0,0,1,1.31,1.31Z"/></g><g class="cls-1"><path class="cls-2" d="M586.71,482.5l-.6,1.09a2.47,2.47,0,0,1-1,1l-1.09.59,1.09.6a2.38,2.38,0,0,1,1,1l.6,1.09.6-1.09a2.38,2.38,0,0,1,1-1l1.09-.6-1.09-.59a2.47,2.47,0,0,1-1-1Z"/></g><g class="cls-1"><path class="cls-2" d="M1288.12,396.37l-1-1.78a4,4,0,0,0-1.59-1.59l-1.79-1,1.79-1a4.05,4.05,0,0,0,1.59-1.59l1-1.78,1,1.78a4,4,0,0,0,1.6,1.59l1.78,1-1.78,1a4,4,0,0,0-1.6,1.59Z"/></g><g class="cls-1"><path class="cls-2" d="M1552.28,60.53l-.6,1.09a2.47,2.47,0,0,1-1,1l-1.09.59,1.09.6a2.38,2.38,0,0,1,1,1l.6,1.09.59-1.09a2.47,2.47,0,0,1,1-1l1.09-.6-1.09-.59a2.56,2.56,0,0,1-1-1Z"/></g><g class="cls-1"><path class="cls-2" d="M479.24,412.75l-1-1.78a3.93,3.93,0,0,0-1.59-1.59l-1.78-1,1.78-1a4.05,4.05,0,0,0,1.59-1.59l1-1.79,1,1.79a4.05,4.05,0,0,0,1.59,1.59l1.78,1-1.78,1a3.93,3.93,0,0,0-1.59,1.59Z"/></g><g class="cls-1"><path class="cls-2" d="M211.41,442.73l-.59,1.09a2.56,2.56,0,0,1-1,1l-1.09.59,1.09.6a2.47,2.47,0,0,1,1,1l.59,1.09L212,447a2.38,2.38,0,0,1,1-1l1.09-.6L213,444.8a2.47,2.47,0,0,1-1-1Z"/></g><g class="cls-1"><path class="cls-2" d="M269.53,500.86l-1-1.78a4.05,4.05,0,0,0-1.59-1.59l-1.78-1,1.78-1a4.05,4.05,0,0,0,1.59-1.59l1-1.78,1,1.78a4,4,0,0,0,1.59,1.59l1.78,1-1.78,1a4,4,0,0,0-1.59,1.59Z"/></g><g class="cls-8"><path class="cls-2" d="M188.36,456.05l-1,1.78a4,4,0,0,1-1.59,1.59l-1.78,1,1.78,1a4.05,4.05,0,0,1,1.59,1.59l1,1.78,1-1.78a4.05,4.05,0,0,1,1.59-1.59l1.78-1-1.78-1a4,4,0,0,1-1.59-1.59Z"/></g><g class="cls-1"><path class="cls-2" d="M1357.17,450.68l-1-1.78a4.05,4.05,0,0,0-1.59-1.59l-1.78-1,1.78-1a4.05,4.05,0,0,0,1.59-1.59l1-1.78,1,1.78a4.05,4.05,0,0,0,1.59,1.59l1.78,1-1.78,1a4.05,4.05,0,0,0-1.59,1.59Z"/></g><g class="cls-1"><path class="cls-2" d="M1409.3,529l.6,1.09a2.47,2.47,0,0,0,1,1l1.09.59-1.09.6a2.38,2.38,0,0,0-1,1l-.6,1.09-.6-1.09a2.38,2.38,0,0,0-1-1l-1.09-.6,1.09-.59a2.47,2.47,0,0,0,1-1Z"/></g><g class="cls-1"><path class="cls-2" d="M1532,529l.6,1.09a2.38,2.38,0,0,0,1,1l1.09.6-1.09.6a2.38,2.38,0,0,0-1,1l-.6,1.09-.59-1.09a2.47,2.47,0,0,0-1-1l-1.09-.6,1.09-.6a2.47,2.47,0,0,0,1-1Z"/></g><g class="cls-16"><path class="cls-17" d="M883.84,228.63a42.81,42.81,0,1,0,47.67-37.31A42.81,42.81,0,0,0,883.84,228.63Z"/><g class="cls-13"><path d="M915.65,247.21a9,9,0,0,0,7.78,10.31c5.1.62,9.46-3.39,10.08-8.49a8.7,8.7,0,0,0-7.84-9.92A9,9,0,0,0,915.65,247.21Z"/></g><g class="cls-5"><path d="M917.26,191.44a42.83,42.83,0,0,0-22.54,25.35,5.29,5.29,0,0,1,1.41,4c-.25,1.79-2.26,2.31-3,2.44-.11.62-.22,1.24-.29,1.87a42.73,42.73,0,0,0-.09,9.45c.12.1,3.65,2.74,3.85,5.2a8.11,8.11,0,0,1-1.58,4.93c.26.73.53,1.45.83,2.15a42.91,42.91,0,0,0,10.66,15.07,6.58,6.58,0,0,1,5.22,0c2.48,1.26,1.66,4.88,1.66,4.88l-.3.1A42.79,42.79,0,0,0,944,272.15a42.8,42.8,0,1,1-26.72-80.71Z"/></g><g class="cls-5"><path d="M894.86,225.81a1,1,0,0,0,2,.25,1,1,0,1,0-2-.25Z"/></g><g class="cls-13"><path d="M941,252.76a14.49,14.49,0,0,1,2.61-5.33,4.76,4.76,0,0,1,3.08-2l1.68-.28a4.76,4.76,0,0,1,3.92,1.55,5.1,5.1,0,0,1,1,4.31,9.75,9.75,0,0,1-2,4.06,18.63,18.63,0,0,1-3.68,3.58,4.15,4.15,0,0,1-2.45.95,3.22,3.22,0,0,1-2.46-1.49A6.3,6.3,0,0,1,941,252.76Z"/></g><g class="cls-13"><path d="M929,268a12.83,12.83,0,0,1-4.58-.57c-1-.26-2-.7-2.13-1.54l-.08-.73a2.4,2.4,0,0,1-.06-3.08,4.52,4.52,0,0,1,3.09-1.51,8.9,8.9,0,0,1,3.49.47,14.41,14.41,0,0,1,3.46,1.61,3.07,3.07,0,0,1,1.37,1.42,2.17,2.17,0,0,1-.5,2A5.88,5.88,0,0,1,929,268Z"/><path d="M929.21,268a13,13,0,0,1-4.58-.57c-1-.27-2-.71-2.13-1.55l-.08-.73a2.4,2.4,0,0,1-.06-3.08,4.48,4.48,0,0,1,3.08-1.5,8.76,8.76,0,0,1,3.5.46,14.59,14.59,0,0,1,3.46,1.61,3.12,3.12,0,0,1,1.37,1.42,2.17,2.17,0,0,1-.5,2A5.85,5.85,0,0,1,929.21,268Z"/></g><g class="cls-5"><path d="M906.46,207.16a14.44,14.44,0,0,1,4.87-3.39c1.17-.55,2.63-1,3.66-.25l.87.69a4.14,4.14,0,0,1,3.41,3.14A5.08,5.08,0,0,1,918,211.6a9.66,9.66,0,0,1-3.75,2.56,18.23,18.23,0,0,1-5,1.34,4.83,4.83,0,0,1-2.82-.29,3.61,3.61,0,0,1-1.74-2.53A6.66,6.66,0,0,1,906.46,207.16Z"/></g><g class="cls-13"><path d="M904.86,207.61a14.58,14.58,0,0,1,4.87-3.39,4.78,4.78,0,0,1,3.66-.24l1.6.57a4.79,4.79,0,0,1,2.68,3.26,5.1,5.1,0,0,1-1.23,4.25,9.77,9.77,0,0,1-3.75,2.56,18.58,18.58,0,0,1-5,1.33,4.14,4.14,0,0,1-2.6-.35,3.21,3.21,0,0,1-1.42-2.5A6.31,6.31,0,0,1,904.86,207.61Z"/></g><g class="cls-13"><path class="cls-18" d="M947,238.22a2.1,2.1,0,0,1,.81-1.16,2.82,2.82,0,0,1,1.93-.23,2.06,2.06,0,0,1,1.36,1.08,2.94,2.94,0,0,1,.48,2.23,2.39,2.39,0,0,1-1.43,1.73,2.43,2.43,0,0,1-2.7-.8A3.08,3.08,0,0,1,947,238.22Z"/><g class="cls-5"><path d="M946.9,238.2a2.22,2.22,0,0,1,.81-1.16,2.89,2.89,0,0,1,1.93-.23,2.09,2.09,0,0,1,1.36,1.08,3,3,0,0,1,.48,2.23,2.43,2.43,0,0,1-1.43,1.74,2.46,2.46,0,0,1-2.7-.8A3.1,3.1,0,0,1,946.9,238.2Z"/></g><path d="M946.6,238.24a2,2,0,0,1,.74-1.07,2.67,2.67,0,0,1,1.79-.21,1.92,1.92,0,0,1,1.24,1,2.68,2.68,0,0,1,.44,2.05,2.2,2.2,0,0,1-1.31,1.6,2.24,2.24,0,0,1-2.48-.74A2.85,2.85,0,0,1,946.6,238.24Z"/></g><g class="cls-13"><path class="cls-18" d="M951,212.53a1.73,1.73,0,0,1,.65-.93,2.31,2.31,0,0,1,1.56-.19,1.68,1.68,0,0,1,1.09.87,2.38,2.38,0,0,1,.38,1.79,1.93,1.93,0,0,1-1.14,1.4,2,2,0,0,1-2.17-.65A2.47,2.47,0,0,1,951,212.53Z"/><g class="cls-19"><path d="M950.86,212.51a1.76,1.76,0,0,1,.65-.93,2.31,2.31,0,0,1,1.56-.18,1.67,1.67,0,0,1,1.09.87,2.36,2.36,0,0,1,.38,1.79,1.92,1.92,0,0,1-1.14,1.39,2,2,0,0,1-2.17-.64A2.49,2.49,0,0,1,950.86,212.51Z"/></g><path d="M950.62,212.54a1.57,1.57,0,0,1,.6-.85,2.06,2.06,0,0,1,1.43-.17,1.52,1.52,0,0,1,1,.79A2.21,2.21,0,0,1,954,214a1.75,1.75,0,0,1-1.06,1.28,1.81,1.81,0,0,1-2-.58A2.29,2.29,0,0,1,950.62,212.54Z"/></g><g class="cls-13"><path class="cls-18" d="M928.2,199.63a2.27,2.27,0,0,1,.85-1.22,3,3,0,0,1,2-.24,2.14,2.14,0,0,1,1.43,1.13,3.11,3.11,0,0,1,.5,2.35,2.51,2.51,0,0,1-1.5,1.83,2.59,2.59,0,0,1-2.84-.84A3.3,3.3,0,0,1,928.2,199.63Z"/><g class="cls-5"><path d="M928.06,199.61a2.21,2.21,0,0,1,.85-1.22,3,3,0,0,1,2-.24,2.15,2.15,0,0,1,1.42,1.13,3.07,3.07,0,0,1,.51,2.35,2.56,2.56,0,0,1-1.5,1.83,2.6,2.6,0,0,1-2.85-.84A3.26,3.26,0,0,1,928.06,199.61Z"/></g><path d="M927.74,199.65a2.09,2.09,0,0,1,.78-1.12,2.81,2.81,0,0,1,1.88-.23,2,2,0,0,1,1.31,1,2.84,2.84,0,0,1,.47,2.15,2.35,2.35,0,0,1-1.38,1.69,2.38,2.38,0,0,1-2.62-.78A3,3,0,0,1,927.74,199.65Z"/></g><g class="cls-13"><path class="cls-18" d="M936.58,201.12a1.11,1.11,0,0,1,.43-.61,1.48,1.48,0,0,1,1-.12,1.09,1.09,0,0,1,.71.57,1.53,1.53,0,0,1,.25,1.17,1.28,1.28,0,0,1-.75.92,1.29,1.29,0,0,1-1.42-.42A1.66,1.66,0,0,1,936.58,201.12Z"/><g class="cls-5"><path class="cls-18" d="M936.51,201.11a1.15,1.15,0,0,1,.42-.61,1.49,1.49,0,0,1,1-.12,1.1,1.1,0,0,1,.72.57,1.57,1.57,0,0,1,.25,1.17,1.28,1.28,0,0,1-.75.92,1.29,1.29,0,0,1-1.42-.42A1.63,1.63,0,0,1,936.51,201.11Z"/></g><path d="M936.35,201.13a1.06,1.06,0,0,1,.39-.56,1.43,1.43,0,0,1,.94-.11,1,1,0,0,1,.66.52,1.43,1.43,0,0,1,.23,1.08,1.11,1.11,0,0,1-2,.45A1.51,1.51,0,0,1,936.35,201.13Z"/></g></g><g class="cls-1"><path class="cls-2" d="M1156.53,185.1l.59,1.09a2.56,2.56,0,0,0,1,1l1.09.59-1.09.6a2.47,2.47,0,0,0-1,1l-.59,1.09-.6-1.09a2.38,2.38,0,0,0-1-1l-1.09-.6,1.09-.59a2.47,2.47,0,0,0,1-1Z"/></g><g class="cls-1"><path class="cls-2" d="M719.57,328.4l-1-1.78A4.05,4.05,0,0,0,717,325l-1.78-1,1.78-1a4,4,0,0,0,1.59-1.59l1-1.78,1,1.78a4,4,0,0,0,1.59,1.59l1.78,1-1.78,1a4.05,4.05,0,0,0-1.59,1.59Z"/></g><g class="cls-1"><path class="cls-2" d="M970.69,363.78l1-1.78a3.93,3.93,0,0,1,1.59-1.59l1.78-1-1.78-1a4,4,0,0,1-1.59-1.59l-1-1.78-1,1.78a4.05,4.05,0,0,1-1.59,1.59l-1.78,1,1.78,1a4,4,0,0,1,1.59,1.59Z"/></g><circle class="cls-20" cx="589.78" cy="363.6" r="12.6"/><circle class="cls-21" cx="141.93" cy="317.82" r="14.82"/><g class="cls-1"><path class="cls-2" d="M91,423.6l-.59,1.09a2.41,2.41,0,0,1-1,1l-1.09.6,1.09.59a2.5,2.5,0,0,1,1,1l.59,1.09.6-1.09a2.54,2.54,0,0,1,1-1l1.09-.59-1.09-.6a2.45,2.45,0,0,1-1-1Z"/></g><circle class="cls-22" cx="596.96" cy="152.53" r="17.04"/></svg>