<svg id="Слой_1" data-name="Слой 1" xmlns="http://www.w3.org/2000/svg" xmlns:xlink="http://www.w3.org/1999/xlink" viewBox="0 0 1291 740"><defs><style>.cls-1{opacity:0.9;}.cls-2{fill:#fff;}.cls-3{opacity:0.4;}.cls-4{fill:#ececec;}.cls-5{opacity:0.1;}.cls-6{opacity:0.3;}.cls-7{opacity:0.6;}.cls-8{opacity:0.7;}.cls-9{opacity:0.8;}.cls-10{opacity:0.15;}.cls-11{fill:#2d314c;}.cls-12{fill:url(#Безымянный_градиент_187);}.cls-13{opacity:0.2;}.cls-14{fill:#2d3d8e;}.cls-15{fill:url(#Безымянный_градиент_14);}.cls-16{fill:url(#Безымянный_градиент_187-2);}.cls-17{fill:#5b4537;}.cls-18{opacity:0.31;}.cls-19{fill:url(#Безымянный_градиент_14-2);}.cls-20{fill:url(#Безымянный_градиент_14-3);}.cls-21{fill:url(#Безымянный_градиент_14-4);}</style><linearGradient id="Безымянный_градиент_187" x1="1102.34" y1="363.14" x2="1102.34" y2="167.97" gradientUnits="userSpaceOnUse"><stop offset="0" stop-color="#2d3d8e"/><stop offset="0.01" stop-color="#2d3a85"/><stop offset="0.02" stop-color="#2d336b"/><stop offset="0.03" stop-color="#2d2842"/><stop offset="0.03" stop-color="#2d273e"/><stop offset="0.23" stop-color="#2d2a48"/><stop offset="0.58" stop-color="#2d3264"/><stop offset="1" stop-color="#2d3d8e"/></linearGradient><radialGradient id="Безымянный_градиент_14" cx="838.63" cy="288.39" r="21.39" gradientUnits="userSpaceOnUse"><stop offset="0" stop-color="#fff"/><stop offset="0.01" stop-color="#fff" stop-opacity="0.99"/><stop offset="0.09" stop-color="#fff" stop-opacity="0.78"/><stop offset="0.17" stop-color="#fff" stop-opacity="0.6"/><stop offset="0.26" stop-color="#fff" stop-opacity="0.44"/><stop offset="0.35" stop-color="#fff" stop-opacity="0.3"/><stop offset="0.45" stop-color="#fff" stop-opacity="0.19"/><stop offset="0.55" stop-color="#fff" stop-opacity="0.11"/><stop offset="0.67" stop-color="#fff" stop-opacity="0.05"/><stop offset="0.8" stop-color="#fff" stop-opacity="0.01"/><stop offset="1" stop-color="#fff" stop-opacity="0"/></radialGradient><linearGradient id="Безымянный_градиент_187-2" x1="616.34" y1="257.62" x2="616.34" y2="172" xlink:href="#Безымянный_градиент_187"/><radialGradient id="Безымянный_градиент_14-2" cx="258.78" cy="363.6" r="12.6" xlink:href="#Безымянный_градиент_14"/><radialGradient id="Безымянный_градиент_14-3" cx="407.93" cy="556.82" r="14.82" xlink:href="#Безымянный_градиент_14"/><radialGradient id="Безымянный_градиент_14-4" cx="265.96" cy="152.53" r="17.04" xlink:href="#Безымянный_градиент_14"/></defs><g class="cls-1"><path class="cls-2" d="M97.66,639.33l1-1.78a4.05,4.05,0,0,1,1.59-1.59l1.78-1-1.78-1a4.05,4.05,0,0,1-1.59-1.59l-1-1.78-1,1.78A4.05,4.05,0,0,1,95.09,634l-1.78,1,1.78,1a4.05,4.05,0,0,1,1.59,1.59Z"/></g><g class="cls-3"><path class="cls-4" d="M47.79,71.59l1,1.78A4.05,4.05,0,0,0,50.35,75l1.78,1-1.78,1a3.93,3.93,0,0,0-1.59,1.59l-1,1.78-1-1.78a3.87,3.87,0,0,0-1.59-1.59l-1.78-1,1.78-1a4,4,0,0,0,1.59-1.59Z"/></g><g class="cls-3"><path class="cls-4" d="M1173.64,648.2l.59,1.09a2.47,2.47,0,0,0,1,1l1.09.6-1.09.6a2.47,2.47,0,0,0-1,1l-.59,1.09-.6-1.09a2.38,2.38,0,0,0-1-1l-1.09-.6,1.09-.6a2.38,2.38,0,0,0,1-1Z"/></g><g class="cls-5"><path class="cls-2" d="M10.55,139.31l1,1.78a4,4,0,0,0,1.59,1.6l1.78,1-1.78,1a4,4,0,0,0-1.59,1.6l-1,1.78-1-1.78A4,4,0,0,0,8,144.63l-1.78-1,1.78-1a4,4,0,0,0,1.59-1.6Z"/></g><g class="cls-3"><path class="cls-4" d="M266.31,148.08l-1,1.78a3.87,3.87,0,0,1-1.59,1.59l-1.78,1,1.78,1a3.93,3.93,0,0,1,1.59,1.59l1,1.78,1-1.78a4.05,4.05,0,0,1,1.59-1.59l1.79-1-1.79-1a4,4,0,0,1-1.59-1.59Z"/></g><g class="cls-3"><path class="cls-4" d="M91.06,198l-.6,1.09a2.38,2.38,0,0,1-1,1l-1.09.6,1.09.6a2.38,2.38,0,0,1,1,1l.6,1.09.59-1.09a2.47,2.47,0,0,1,1-1l1.09-.6-1.09-.6a2.47,2.47,0,0,1-1-1Z"/></g><g class="cls-5"><path class="cls-2" d="M1050.19,615.63l-1,1.78a4.05,4.05,0,0,1-1.59,1.59l-1.79,1,1.79,1a4.05,4.05,0,0,1,1.59,1.59l1,1.78,1-1.78a4,4,0,0,1,1.6-1.59l1.78-1-1.78-1a4,4,0,0,1-1.6-1.59Z"/></g><g class="cls-3"><path class="cls-4" d="M646.87,71.59l1,1.78A4.05,4.05,0,0,0,649.43,75l1.78,1-1.78,1a3.93,3.93,0,0,0-1.59,1.59l-1,1.78-1-1.78a3.87,3.87,0,0,0-1.59-1.59l-1.78-1,1.78-1a4,4,0,0,0,1.59-1.59Z"/></g><g class="cls-3"><path class="cls-4" d="M499.72,104.2l.6,1.09a2.38,2.38,0,0,0,1,1l1.09.6-1.09.6a2.38,2.38,0,0,0-1,1l-.6,1.09-.6-1.09a2.38,2.38,0,0,0-1-1l-1.09-.6,1.09-.6a2.38,2.38,0,0,0,1-1Z"/></g><g class="cls-3"><path class="cls-2" d="M609.63,139.31l1,1.78a4,4,0,0,0,1.59,1.6l1.78,1-1.78,1a4,4,0,0,0-1.59,1.6l-1,1.78-1-1.78a4,4,0,0,0-1.59-1.6l-1.78-1,1.78-1a4,4,0,0,0,1.59-1.6Z"/></g><g class="cls-3"><path class="cls-4" d="M856.46,100.46l-1,1.78a4.05,4.05,0,0,1-1.59,1.59l-1.78,1,1.78,1a4.05,4.05,0,0,1,1.59,1.59l1,1.78,1-1.78a3.93,3.93,0,0,1,1.59-1.59l1.78-1-1.78-1a3.93,3.93,0,0,1-1.59-1.59Z"/></g><g class="cls-3"><path class="cls-4" d="M690.14,198l-.6,1.09a2.38,2.38,0,0,1-1,1l-1.09.6,1.09.6a2.38,2.38,0,0,1,1,1l.6,1.09.6-1.09a2.38,2.38,0,0,1,1-1l1.09-.6-1.09-.6a2.38,2.38,0,0,1-1-1Z"/></g><g class="cls-3"><path class="cls-4" d="M1241.18,19l1,1.78a4,4,0,0,0,1.6,1.59l1.78,1-1.78,1a4,4,0,0,0-1.6,1.59l-1,1.78-1-1.78a4.05,4.05,0,0,0-1.59-1.59l-1.79-1,1.79-1a4.05,4.05,0,0,0,1.59-1.59Z"/></g><g class="cls-3"><path class="cls-4" d="M1284.45,145.45l-.59,1.09a2.56,2.56,0,0,1-1,1l-1.09.59,1.09.6a2.47,2.47,0,0,1,1,1l.59,1.09.6-1.09a2.38,2.38,0,0,1,1-1l1.09-.6-1.09-.59a2.47,2.47,0,0,1-1-1Z"/></g><g class="cls-6"><path class="cls-2" d="M689.8,289.91l-1,1.78a4,4,0,0,1-1.6,1.59l-1.78,1,1.78,1a4,4,0,0,1,1.6,1.59l1,1.78,1-1.78a4.05,4.05,0,0,1,1.59-1.59l1.79-1-1.79-1a4.05,4.05,0,0,1-1.59-1.59Z"/></g><g class="cls-6"><path class="cls-4" d="M1262.17,297.23l-.6-1.09a2.38,2.38,0,0,0-1-1l-1.09-.6,1.09-.6a2.38,2.38,0,0,0,1-1l.6-1.09.6,1.09a2.38,2.38,0,0,0,1,1l1.09.6-1.09.6a2.38,2.38,0,0,0-1,1Z"/></g><g class="cls-3"><path class="cls-4" d="M770.84,57.42l1-1.78a4,4,0,0,1,1.6-1.59l1.78-1-1.78-1a4,4,0,0,1-1.6-1.59l-1-1.78-1,1.78a4,4,0,0,1-1.59,1.59l-1.79,1,1.79,1a4.05,4.05,0,0,1,1.59,1.59Z"/></g><g class="cls-6"><path class="cls-4" d="M258.88,361.52l-.6,1.09a2.47,2.47,0,0,1-1,1l-1.09.59,1.09.6a2.38,2.38,0,0,1,1,1l.6,1.09.59-1.09a2.47,2.47,0,0,1,1-1l1.09-.6-1.09-.59a2.56,2.56,0,0,1-1-1Z"/></g><g class="cls-7"><path class="cls-2" d="M330.35,102.3l-1,1.78a4,4,0,0,1-1.59,1.59l-1.79,1,1.79,1a4.05,4.05,0,0,1,1.59,1.59l1,1.78,1-1.78a4,4,0,0,1,1.6-1.59l1.78-1-1.78-1a4,4,0,0,1-1.6-1.59Z"/></g><g class="cls-3"><path class="cls-4" d="M382.72,249.28l-.6,1.09a2.45,2.45,0,0,1-1,1l-1.09.6,1.09.59a2.54,2.54,0,0,1,1,1l.6,1.09.59-1.09a2.5,2.5,0,0,1,1-1l1.09-.59-1.09-.6a2.41,2.41,0,0,1-1-1Z"/></g><g class="cls-6"><path class="cls-2" d="M479.08,399.48l-1,1.78a4,4,0,0,1-1.59,1.59l-1.78,1,1.78,1a3.93,3.93,0,0,1,1.59,1.59l1,1.78,1-1.78a4,4,0,0,1,1.59-1.59l1.78-1-1.78-1a4.05,4.05,0,0,1-1.59-1.59Z"/></g><g class="cls-6"><path class="cls-2" d="M582.36,506.26l-1-1.78a4.05,4.05,0,0,0-1.59-1.59l-1.78-1,1.78-1a4,4,0,0,0,1.59-1.59l1-1.78,1,1.78a4,4,0,0,0,1.59,1.59l1.78,1-1.78,1a4.05,4.05,0,0,0-1.59,1.59Z"/></g><g class="cls-8"><path class="cls-4" d="M1055,117.76l.6-1.09a2.47,2.47,0,0,1,1-1l1.09-.59-1.09-.6a2.51,2.51,0,0,1-1-1l-.6-1.09-.59,1.09a2.47,2.47,0,0,1-1,1l-1.09.6,1.09.59a2.43,2.43,0,0,1,1,1Z"/></g><g class="cls-1"><path class="cls-2" d="M532.36,185.22l1-1.78a4,4,0,0,1,1.59-1.59l1.78-1-1.78-1a3.93,3.93,0,0,1-1.59-1.59l-1-1.78-1,1.78a4,4,0,0,1-1.59,1.59l-1.78,1,1.78,1a4.05,4.05,0,0,1,1.59,1.59Z"/></g><g class="cls-3"><path class="cls-4" d="M1101.57,76.12l1,1.78a4.05,4.05,0,0,0,1.59,1.59l1.78,1-1.78,1a4.05,4.05,0,0,0-1.59,1.59l-1,1.78-1-1.78a4.05,4.05,0,0,0-1.59-1.59l-1.78-1,1.78-1a4.05,4.05,0,0,0,1.59-1.59Z"/></g><g class="cls-3"><path class="cls-4" d="M949.33,170.37l.59,1.09a2.56,2.56,0,0,0,1,1L952,173l-1.09.6a2.47,2.47,0,0,0-1,1l-.59,1.09-.6-1.09a2.38,2.38,0,0,0-1-1l-1.09-.6,1.09-.59a2.47,2.47,0,0,0,1-1Z"/></g><g class="cls-3"><path class="cls-2" d="M1156.24,406.48l1,1.79a4.05,4.05,0,0,0,1.59,1.59l1.78,1-1.78,1a4,4,0,0,0-1.59,1.6l-1,1.78-1-1.78a4,4,0,0,0-1.59-1.6l-1.78-1,1.78-1a4.05,4.05,0,0,0,1.59-1.59Z"/></g><g class="cls-3"><path class="cls-4" d="M1063.29,48.22l-.6,1.1a2.51,2.51,0,0,1-1,1l-1.09.59,1.09.6a2.47,2.47,0,0,1,1,1l.6,1.09.59-1.09a2.43,2.43,0,0,1,1-1l1.09-.6-1.09-.59a2.47,2.47,0,0,1-1-1Z"/></g><g class="cls-9"><path class="cls-4" d="M182,38l1,1.78a4,4,0,0,0,1.59,1.59l1.78,1-1.78,1A4,4,0,0,0,183,44.87l-1,1.78-1-1.78a4.05,4.05,0,0,0-1.59-1.59l-1.78-1,1.78-1A4.05,4.05,0,0,0,181,39.74Z"/></g><g class="cls-1"><path class="cls-4" d="M410,63.22,409,65a4.05,4.05,0,0,1-1.59,1.59l-1.78,1,1.78,1A4.05,4.05,0,0,1,409,70.13l1,1.78,1-1.78a4.05,4.05,0,0,1,1.59-1.59l1.78-1-1.78-1A4.05,4.05,0,0,1,410.94,65Z"/></g><g class="cls-3"><path class="cls-2" d="M455.45,224.83l-1-1.78a4.05,4.05,0,0,0-1.59-1.59l-1.78-1,1.78-1a4,4,0,0,0,1.59-1.59l1-1.78,1,1.78a3.93,3.93,0,0,0,1.59,1.59l1.78,1-1.78,1a4,4,0,0,0-1.59,1.59Z"/></g><g class="cls-3"><path class="cls-4" d="M455.09,175.08l1-1.79a4.05,4.05,0,0,1,1.59-1.59l1.78-1-1.78-1a4,4,0,0,1-1.59-1.6l-1-1.78-1,1.78a3.89,3.89,0,0,1-1.59,1.6l-1.78,1,1.78,1a3.93,3.93,0,0,1,1.59,1.59Z"/></g><g class="cls-3"><path class="cls-4" d="M961.58,88.9l-1-1.78a4,4,0,0,0-1.59-1.6l-1.78-1,1.78-1A4.05,4.05,0,0,0,960.61,82l1-1.79,1,1.79a4,4,0,0,0,1.59,1.59l1.78,1-1.78,1a4,4,0,0,0-1.59,1.6Z"/></g><g class="cls-3"><path class="cls-4" d="M118,335.16l.6-1.09a2.47,2.47,0,0,1,1-1l1.09-.59-1.09-.6a2.38,2.38,0,0,1-1-1l-.6-1.09-.59,1.09a2.47,2.47,0,0,1-1,1l-1.09.6,1.09.59a2.56,2.56,0,0,1,1,1Z"/></g><g class="cls-3"><path class="cls-4" d="M233.7,214.56l-.59,1.09a2.47,2.47,0,0,1-1,1l-1.09.6,1.09.6a2.47,2.47,0,0,1,1,1l.59,1.09.6-1.09a2.38,2.38,0,0,1,1-1l1.09-.6-1.09-.6a2.38,2.38,0,0,1-1-1Z"/></g><g class="cls-3"><path class="cls-4" d="M149.18,256.17l-1-1.78a3.93,3.93,0,0,0-1.59-1.59l-1.78-1,1.78-1a4,4,0,0,0,1.59-1.59l1-1.78,1,1.78a4.05,4.05,0,0,0,1.59,1.59l1.78,1-1.78,1a4,4,0,0,0-1.59,1.59Z"/></g><g class="cls-1"><path class="cls-4" d="M143.4,107l-1,1.78a4,4,0,0,1-1.59,1.6l-1.78,1,1.78,1a4.05,4.05,0,0,1,1.59,1.59l1,1.79,1-1.79a4,4,0,0,1,1.59-1.59l1.78-1-1.78-1a4,4,0,0,1-1.59-1.6Z"/></g><g class="cls-10"><circle class="cls-11" cx="177.56" cy="487.82" r="60.34"/><g class="cls-6"><path class="cls-2" d="M203.78,518.48c-1.55,2.31-1.85,5.22-2.31,8s-1.21,5.68-3.31,7.48-5.93,1.64-7-.91c-.6-1.39-.26-3-.59-4.49-.42-1.93-1.9-3.43-2.59-5.28a14.65,14.65,0,0,1-.61-5c-.16-9.21-2.26-18.85-8.33-25.67a6,6,0,0,0-2.67-2,3.4,3.4,0,0,0-3.54,1.2,14.06,14.06,0,0,1-1.38,2.07c-1.33,1.2-3.62.3-4.48-1.29s-.71-3.52-.54-5.32q.3-3.36.62-6.72a5.69,5.69,0,0,1,1-3.31c1.09-1.26,3-1.29,4.34-2.28,1.74-1.3,2-3.8,3.1-5.68s4.52-2.65,5-.51c3.69-7.8,11.5,3.94,16.24,3.12,1.38-.24,2.73-.89,4.11-.68,2.43.37,3.66,3.13,4.46,5.5q2,5.91,4,11.82c.51,1.5,1.17,3.17,2.61,3.76,1.11.45,2.41.13,3.53.56,3,1.13,1.93,5.88-.48,7.95s-5.78,3.37-7,6.36c-.88,2.25-.22,4.91-1.17,7.13C206.13,515.91,204.74,517.05,203.78,518.48Z"/></g><g class="cls-6"><path class="cls-2" d="M140.09,535.06h0c.6.5,1.22,1,1.85,1.44s1,.74,1.49,1.1l1.53,1,1.1.69c0-.11-.1-.2-.14-.31-1.3-3-1.33-7.28,1.55-8.72a6.64,6.64,0,0,0,1.63-.85c1.29-1.22.27-3.76,1.56-5,.73-.67,1.85-.61,2.74-1,1.61-.73,2.15-2.81,2-4.61s-.66-3.57-.44-5.35c.35-2.7,2.44-5.41,1.29-7.86-1.3-2.74-5.18-2.35-7.9-3.6-3.79-1.75-4.91-6.58-7.36-10-2.2-3.07-7.36-6.47-11.34-5.6a4.88,4.88,0,0,0-4.2,4.5l-.37-.06c-1.06-.13-2.3-.2-2.87-1.1-.67-1.06,0-2.6-.67-3.63a5.77,5.77,0,0,0-1.5-1.17c-.51-.37-1-1.08-.62-1.64s.93-.57,1.27-1a1,1,0,0,0,0-1.22c-1.08-1.33-2.33,1.34-2.94,2a4.22,4.22,0,0,1-.49.47h0c0,.11,0,.22,0,.34,0,.36,0,.74,0,1.11s0,.74,0,1.11,0,.6,0,.9v.9c0,.15,0,.29,0,.43a63.47,63.47,0,0,0,3.49,19.79,57.09,57.09,0,0,0,3.52,8c.58,1.13,1.22,2.24,1.88,3.33.83,1.35,1.88,2.82,2.81,4.09s1.77,2.31,2.75,3.46c1.33,1.58,2.75,3,4.24,4.48,1.31,1.28,2.72,2.41,4.16,3.57"/></g><g class="cls-6"><path class="cls-2" d="M234.26,467.13a15.39,15.39,0,0,1-.61-1.93c-2.27-6.69-8.13-9.77-11.76-15-1.19-1.7-2.11-3.11-4.24-3.46-3.15-.54-4.77,1.28-7-1.8-.59-.82-1.64-1.6-2.53-1.12.22.66.45,1.31.67,2a.89.89,0,0,1,.08.43c-.06.46-.73.57-1.11.32a3.89,3.89,0,0,1-.83-1.12,3.06,3.06,0,0,0-4.54-.43,1.78,1.78,0,0,0-1-1.45,2.07,2.07,0,0,1-2.62,1.67c-.18-.59.87-.69,1.24-1.19s-.06-1.14-.48-1.55a6.54,6.54,0,0,0-4.15-1.69,5.59,5.59,0,0,1-2.85-.38c-.48-.3-.82-.79-1.31-1.08-1.06-.62-2.4-.07-3.48.52-1.47.81-3,1.84-3.53,3.46s.59,3.82,2.26,3.64a3.09,3.09,0,0,1,1.27-.14,1.59,1.59,0,0,1,.89,1.51,4.45,4.45,0,0,0,.26,1.82c.28.55,1.15.84,1.49.32.79-.75.71-2,.52-3.11s-.38-2.31.26-3.19,2.47-.58,2.33.52c-.08.64-.81,1.1-.79,1.75s.82,1,1.47,1a7,7,0,0,1,1.94-.07c.64.16,1.14,1,.67,1.49-.8.91-2.85-.69-3.28.45a4.09,4.09,0,0,0,0,.93c-.08,1-1.26,1.3-2.2,1.4a5.07,5.07,0,0,1-2.79-.23,1.82,1.82,0,0,1-.92-2.38,1.06,1.06,0,0,0-1.47.52,3.24,3.24,0,0,0-.12,1.78c-1-.24-1.9.61-2.47,1.45s-1.14,1.84-2.11,2.13-2.32-.13-2.84.76c-.67,1.16,1.23,2.67.54,3.82-.39.65-1.3.62-2,.82-1.93.53-2.64,3.39-1.34,4.93a3.71,3.71,0,0,0,5.32,0c1-1,1.38-2.41,2.1-3.61s2-2.27,3.36-1.86a4.06,4.06,0,0,1,1.36.89l1.9,1.67c.41.36.86.8.81,1.35s-.38.77-.53,1.18c-.41,1.18,1.25,2.32,2.31,1.69a2.39,2.39,0,0,0,.49-3.3c-1-1.42-3.23-2.15-3.15-3.88,1.16-.94,3,.08,3.61,1.44s.66,3,1.21,4.36,2.11,2.66,3.44,2c-.33-1.22-.65-2.42-1-3.62.85-.64,1.79,1.25,2.8,1,.62-.19.7-1.09.44-1.7a8.64,8.64,0,0,1-.83-1.77,2,2,0,0,1,2.31-2,3,3,0,0,1,2.21,2.54,5.9,5.9,0,0,0,.29,1.4c.43.94,1.57,1.24,2.5,1.64s1.91,1.37,1.51,2.32c-.19.42-.63.82-.48,1.25s.7.55.69,1-.29.46-.54.56c-.64.26-1.33.34-1.94.63a1.79,1.79,0,0,0-1.14,1.57c.06,1,1.2,1.46,1.72,2.27s.42,1.8.74,2.68a9.32,9.32,0,0,0,1.42,2.15c1.56,2.23,1.9,5.07,2.65,7.69.33,1.18.95,2.51,2.13,2.75a3.59,3.59,0,0,0,1.92-.36,11.56,11.56,0,0,0,4.72-2.79c1.23-1.42,1.65-3.72.44-5.13a1,1,0,0,0-.58-.39,1.8,1.8,0,0,0-.91.31,2.53,2.53,0,0,1-2.66-.61,7.71,7.71,0,0,1-1.56-2.45c-.46-1-.92-1.95-1.39-2.93a1.65,1.65,0,0,1,2.05.22,10.9,10.9,0,0,1,1.38,1.77,8.84,8.84,0,0,0,6,3,5.46,5.46,0,0,1,1.7.38c1.69.81,2.15,3.36,3.93,3.92a10.87,10.87,0,0,1,1.52.37,2.86,2.86,0,0,1,1.25,1.95,31.34,31.34,0,0,0,1.07,4.32,3.93,3.93,0,0,0,3.21,2.66,2.82,2.82,0,0,0,2.24-.89l-.09-.17c.1-1.34.27-2.47.29-3.84,0-.28-.08-.65-.1-.93,0-.89,0-1.73,0-2.61s-.15-1.95-.23-2.82c-.06-.7-.15-1.25-.24-1.94s-.24-1.49-.35-2.21c-.34-2.18-1.27-6.1-1.83-8.2"/></g><g class="cls-6"><path class="cls-2" d="M215,521.17c-1,.13-2.12-.38-2.87.28a3.26,3.26,0,0,0-.72,1.56,3.37,3.37,0,0,1-1.4,1.91,2,2,0,0,1-2.26-.07,1.56,1.56,0,0,1-.28-2.15,9.48,9.48,0,0,1,.85-.69c1.31-1.23.45-3.55,1.45-5,.59-.87,1.51-1.75,2.16-2.62.5-.68.68-1.22,1.59-1.39C217.48,512.24,219.16,520.63,215,521.17Z"/></g><g class="cls-6"><path class="cls-2" d="M163.78,442.16c-1.21.72-1.86,2.09-2.8,3.15s-2.6,1.79-3.68.89a2.58,2.58,0,0,1-.8-1.82,4.74,4.74,0,0,1,.68-2.82c.53-.85,1.33-1.53,1.79-2.43s.37-2.24-.53-2.68c-.48-.23-1.1-.15-1.53-.48-.77-.59-.2-2,.71-2.31a6.67,6.67,0,0,1,2.88,0c3.5.27,6.11-2,8.77-4,2.06-1.48,6.45-3.22,8.8-1.65.94.63,1.3,2.22.4,2.9-.41.31-1,.37-1.33.71s-.52,1.09-.79,1.64c-.68,1.44-2.6,1.94-3.23,3.4-.38.88-.23,2-.81,2.74a3.22,3.22,0,0,1-2,1l-4.59,1.06A7.06,7.06,0,0,0,163.78,442.16Z"/></g><g class="cls-6"><path class="cls-2" d="M121.23,469.22c1.14-1,3.09-1.07,4,.17a4.33,4.33,0,0,1,.28,3.16c-.24,1.44-.47,2.88-.72,4.32a2.39,2.39,0,0,0,0,1.3c.41.92,1.89.76,2.46-.05a4,4,0,0,0,.39-2.93,5.64,5.64,0,0,1,.07-3c1-2.31,4.37-1.92,6.36-3.41,1.24-.92,1.8-2.48,2.55-3.85s2-2.73,3.5-2.64c.52,0,1,.23,1.54.21a2.11,2.11,0,0,0,1.36-3.38,3.42,3.42,0,0,1-.66-.71,1.29,1.29,0,0,1,.49-1.52,3.51,3.51,0,0,1,1.62-.51l3.88-.58c1.43-.21,3.27-.94,3.08-2.39-.16-1.26-1.82-1.85-2.06-3.1a4.11,4.11,0,0,0-.15-.92c-.38-.8-1.56-.49-2.33-.07a1.85,1.85,0,0,0-2.83-1c-.77.63-.88,1.76-1.16,2.73-.66,2.33-2.51,4.08-4.27,5.71a3.46,3.46,0,0,1-2.05,1.15c-.79,0-1.62-.85-1.25-1.56.26-.48,1-.76.89-1.3s-1.26-.65-1.48-1.31c.48-1.92,2.67-2.7,4.34-3.71a10.57,10.57,0,0,0,4.46-5.45,1.4,1.4,0,0,0,.07-1.13c-.24-.49-.88-.58-1.43-.59-1.28,0-2.88.13-3.36,1.34a14.24,14.24,0,0,0-.25,2.08c-.47,2-3.2,2.21-4.88,3.4a15.39,15.39,0,0,1-1.89,1.46,7,7,0,0,1-2.56.39l-.46.05c-.53.74-1.05,1.49-1.55,2.26s-1,1.55-1.44,2.33a62.05,62.05,0,0,0-5.38,11.86c-.49,1.45-.92,2.93-1.29,4.43s-.7,3-1,4.57a17.38,17.38,0,0,0,1.14-3.87A7.15,7.15,0,0,1,121.23,469.22Z"/></g><g class="cls-3"><path d="M238,488.08c0-.41,0-.84,0-1.25a1.34,1.34,0,0,0,0-.2v-.11c0-.44,0-.88-.07-1.31s0-.83-.08-1.24c-.05-.62-.11-1.22-.18-1.83-.16-1.52-.38-3-.67-4.5,0-.2-.08-.41-.12-.61l-.12-.58c-.1-.54-.22-1.07-.35-1.59a59.13,59.13,0,0,0-2.78-8.73c-.27-.66-.55-1.32-.84-2-.43-.94-.87-1.87-1.34-2.78-.37-.72-.75-1.43-1.15-2.14s-.95-1.63-1.46-2.42c-.18-.32-.39-.63-.59-.94h0l-.45-.69-.24-.32c-.3-.45-.62-.9-.94-1.33-.1-.16-.21-.3-.32-.46l-.25-.32-.46-.6c-.63-.83-1.3-1.65-2-2.43l-.1-.12c-.57-.67-1.16-1.32-1.76-1.94l-.55-.59-.42-.42,0,0c-1.09-1.11-2.22-2.18-3.4-3.19l-.54-.47-.76-.64c-.47-.39-1-.77-1.44-1.15l-.4-.31h0l-.71-.53h0a61.17,61.17,0,0,0-6.08-3.92c.39.26.78.52,1.15.79l.09.06c.41.28.81.56,1.21.86h0c.24.17.47.34.71.53h0l.4.31c.48.37,1,.75,1.44,1.15.26.21.52.42.77.64l.53.46q1.77,1.53,3.4,3.19l0,0,.42.43c.79.82,1.57,1.65,2.31,2.52l.1.12.25.3c.75.89,1.49,1.81,2.19,2.74l.24.32.33.45.66.93.51.73c.15.23.31.45.45.68a0,0,0,0,1,0,0c.31.48.61.95.9,1.43s.77,1.25,1.12,1.89c.49.84.94,1.69,1.38,2.56s.76,1.57,1.12,2.37.59,1.33.86,2l.41,1a59.14,59.14,0,0,1,2.73,9.29c0,.19.07.39.11.58s.07.33.1.49c.19,1,.36,2,.48,2.95q.14.84.21,1.68.18,1.51.27,3.06l.06,1.27v0c0,.52,0,1.05,0,1.57,0,.22,0,.44,0,.66s0,.37,0,.55c0,.34,0,.67,0,1,0,1.24-.09,2.47-.21,3.68-.06.69-.13,1.39-.21,2.08,0,.13,0,.27-.06.4-.15,1.17-.32,2.32-.53,3.45l-.21,1a59.66,59.66,0,0,1-5.44,15.39l-.05.09c-.37.71-.75,1.4-1.13,2.08a62.53,62.53,0,0,1-7.57,10.46c-.88,1-1.79,1.92-2.73,2.84h0a62.36,62.36,0,0,1-6.26,5.32h0a60.68,60.68,0,0,1-10.77,6.32h0c-1.18.54-2.39,1-3.61,1.5-.64.24-1.28.48-1.91.69-1,.34-2,.65-3,.93a57.58,57.58,0,0,1-6.56,1.44,60.16,60.16,0,0,1-28.57-2.24c-1.28-.41-2.54-.88-3.77-1.39-1-.39-2-.83-2.95-1.29s-1.92-.94-2.86-1.45l-1.23-.68c.65.42,1.3.84,2,1.23.28.18.55.33.83.5l.16.1.28.16c.54.32,1.08.62,1.63.91a60.25,60.25,0,0,0,5.8,2.74c1.24.51,2.5,1,3.78,1.39a60.18,60.18,0,0,0,35.12.79c.33-.08.66-.18,1-.29.68-.19,1.35-.4,2-.64s1.28-.44,1.92-.68a59.11,59.11,0,0,0,9.51-4.59A60.17,60.17,0,0,0,222.52,529c.82-.91,1.63-1.85,2.39-2.81a60.23,60.23,0,0,0,4.23-6c.34-.55.68-1.11,1-1.67s.77-1.38,1.14-2.08c.59-1.14,1.15-2.3,1.66-3.48h0a59.36,59.36,0,0,0,4.43-15.49l.09-.63c0-.24.07-.49.09-.74s.09-.7.13-1.06l.09-1.06c0-.25,0-.49.07-.73,0-.53.06-1,.09-1.59s0-.87,0-1.31,0-1,0-1.56C238,488.53,238,488.31,238,488.08Z"/></g></g><g class="cls-6"><ellipse class="cls-12" cx="1102.34" cy="265.55" rx="102.74" ry="97.58"/><g class="cls-13"><path d="M1071.49,181c5.75,7.57,12.4,12.37,20.6,17.22,1.89,1.12,3.59-1.45,2.58-2.94-4.38-6.51-8.36-12.82-13.36-19-1.35-1.66-2.68-3.51-4.06-5.37a108,108,0,0,0-10.74,3.16A84.44,84.44,0,0,0,1071.49,181Z"/><path class="cls-2" d="M1064.88,198.07c12.82,16.63,29.8,30.09,48.63,40.19a176,176,0,0,0,62.27,19.3,149.32,149.32,0,0,0,29,.81,93,93,0,0,0-1.34-10.06,109.27,109.27,0,0,1-24.32.14,171.29,171.29,0,0,1-52.57-14,155.7,155.7,0,0,1-43.66-28.31c-8.06-7.55-18.64-18-23.42-29.29-2.06.9-4.11,1.87-6.13,2.91C1056.39,186.78,1061.39,193.55,1064.88,198.07Z"/><path class="cls-2" d="M1140.56,194.19c8.89,5.45,27.74,12.33,39.87,8a101.54,101.54,0,0,0-7.32-7.35,21.8,21.8,0,0,1-2.17.27c-7.61.5-15.22-2-22-5-7.9-3.55-20.21-11.07-26.15-20.11q-3.19-.61-6.4-1C1120.1,179.47,1131.92,188.88,1140.56,194.19Z"/><path d="M1047.62,230c17.09,18.88,39.09,32.35,62.38,43.44,21.24,10.12,44.07,17.35,67.9,18.69a143.31,143.31,0,0,0,23.41-.36,93.54,93.54,0,0,0,3.69-22.5,149.35,149.35,0,0,1-31.46-.91c-19.79-2.7-38.67-9.51-56.4-18.11-18.61-9-36.68-19.9-51.2-34.33A147,147,0,0,1,1047,192.52c-1.43-2.18-2.73-4.39-4-6.6a101,101,0,0,0-16.31,13.63C1032,210.86,1039.88,221.42,1047.62,230Z"/><path d="M1033.81,298.35c-11.74-8.42-23.46-17.37-34-27.3.15,2.59.42,5.17.79,7.76,23.47,23.32,53.89,41.65,83.2,55.56a336.77,336.77,0,0,0,58,21.3c1.93-.77,3.85-1.57,5.74-2.46a327.89,327.89,0,0,1-60-22.71A380.57,380.57,0,0,1,1033.81,298.35Z"/><path class="cls-2" d="M1134,208.33c12.6,7.53,26.73,13,41.71,13.87a77.83,77.83,0,0,0,18.13-1q-2.16-4-4.74-7.9a55.27,55.27,0,0,1-15.13.93c-12.56-.86-24.63-5.25-35.42-11.27-15.44-8.6-30.79-20.26-40.28-34.86-2.4.09-4.79.24-7.19.49C1100.4,185.35,1119.52,199.69,1134,208.33Z"/><path class="cls-2" d="M1169.28,339.58a248.33,248.33,0,0,1-27.34-3.67,239.48,239.48,0,0,1-52.22-16.43c-17.72-8.05-34-18.66-49-30.57-14-11-29.74-23.32-39.86-38.17-.37,2.29-.67,4.59-.87,6.89,8,11.2,20.54,20.65,30.43,29.11,15.94,13.64,33.23,26,52.25,35.48a248.1,248.1,0,0,0,78,23.65l.78-.49C1164.18,343.55,1166.78,341.61,1169.28,339.58Z"/><path class="cls-2" d="M1090.93,310.93c23.8,10.95,49.68,19.13,76,22.23,2.86.34,5.74.61,8.63.84a96.64,96.64,0,0,0,21.56-30.79,161.79,161.79,0,0,1-29.58-1.51c-22.58-3.21-44.15-10.33-64.61-19.87-21.21-9.89-41.16-22.77-57.44-39.15a162.69,162.69,0,0,1-22.84-29.07c-1.12-1.82-2.18-3.72-3.23-5.64A95.33,95.33,0,0,0,1003,240.86a161,161,0,0,0,17.24,21.22C1040.09,282.7,1064.49,298.76,1090.93,310.93Z"/><path d="M1164.13,228.05c-8.12-2.58-16.4-2.91-24.34-6.6-8.11-3.76-15.4-9.76-24.17-11.92-4.35-1.07-6.16,4.49-3.38,7,7.09,6.32,18.4,10.64,27.26,14.47,7.21,3.11,17,5.44,24.41,2C1165.81,232.07,1166.71,228.86,1164.13,228.05Z"/><path class="cls-2" d="M1057.24,336.25a26.45,26.45,0,0,0-5.63-1.37c-2-.25-3.2,2.63-1.11,3.41a19.58,19.58,0,0,1,4.32,2.15,18.39,18.39,0,0,0,4.56,1.87,1.55,1.55,0,0,0,2-2.24A8,8,0,0,0,1057.24,336.25Z"/><path d="M1113.6,352.25c-10.66-3.93-21.15-10.92-32.43-12.77-2.55-.42-5,2.64-3.16,4.72,8,9,21.83,13.35,33.09,17.35,1,.34,1.9.65,2.84,1a106.6,106.6,0,0,0,19.4-3.92C1126.67,356.69,1120.05,354.62,1113.6,352.25Z"/><path class="cls-2" d="M1038.75,324.76c3.34.81,4.37-3.28,2.5-5.15-6.5-6.48-15.92-10.46-23.35-16.1-4.9-3.71-9.73-7.52-14.44-11.46a94.68,94.68,0,0,0,5.22,13.6C1017.49,314.38,1027.79,322.09,1038.75,324.76Z"/></g><g class="cls-13"><path class="cls-2" d="M1199.48,280.26c0,.51-2.65,1-7.57,1.54l-4.11.37c-1.5.08-3.13,0-4.89.05a106.51,106.51,0,0,1-11.93-.46l-6.93-.67c-2.41-.26-4.87-.79-7.45-1.21a163.39,163.39,0,0,1-16.26-3.7A187,187,0,0,1,1105,261.77,187.24,187.24,0,0,1,1073.6,240a162.52,162.52,0,0,1-12-11.62c-1.76-1.94-3.55-3.71-5.08-5.59l-4.34-5.45a107.32,107.32,0,0,1-6.89-9.75c-.95-1.48-1.87-2.82-2.62-4.12l-1.93-3.65c-2.25-4.4-3.28-6.93-2.83-7.19s2.3,1.78,5.26,5.63l2.42,3.22c.91,1.15,2,2.35,3.06,3.68,2.23,2.61,4.54,5.74,7.56,8.82q2.18,2.38,4.56,5c1.58,1.72,3.42,3.34,5.21,5.11,3.52,3.62,7.71,7,12,10.71a213.61,213.61,0,0,0,30.5,20.51,214.36,214.36,0,0,0,33.8,14.39c5.44,1.57,10.57,3.23,15.52,4.21,2.46.53,4.82,1.19,7.13,1.59l6.64,1.11c4.23.85,8.12,1.09,11.52,1.53,1.71.19,3.29.43,4.76.56l4,.27C1196.73,279.29,1199.45,279.75,1199.48,280.26Z"/></g><path class="cls-14" d="M1013.32,216.59c.57-1,1.21-2,1.83-3-45.75-18.5-70.11-23.71-77.48-21.31a2.13,2.13,0,0,0-1.15.67l-.14.26c-.18.3,0,1,.1,1.26,1.64,5.11,17.13,26.76,147.77,90.44,78.64,38.35,141.59,58.26,163.21,60.62a2.7,2.7,0,0,0,2.36-4.56c-7.61-7.38-25.08-20.29-53-37.17-.39.79-.74,1.59-1.15,2.37,22.91,14,36.15,24.39,34.29,27.83-3.73,6.91-66.83-16.72-140.93-52.79s-131.15-70.92-127.43-77.83C963.64,199.59,983.55,205,1013.32,216.59Z"/><path class="cls-14" d="M1201,294.16c-.25.7-.56,1.37-.82,2.06,35.72,21.41,59.37,39.2,62.14,47.86a6.43,6.43,0,0,1-2.08,7.36c-2.29,1.81-9.26,7.35-63.46-10.84-34.91-11.72-76.24-29-116.37-48.51-16.91-8.24-34.75-17.19-52-26.27-49.85-26.2-95.06-53.61-100-69a9,9,0,0,1,.53-7.38,9.79,9.79,0,0,1,6-4.77c13.17-4.31,48.32,7.19,84.84,22.06.3-.41.56-.82.86-1.22-61.89-24.56-105.86-34.66-112.81-25.28-15,20.2,65.27,71,168.07,121s196.32,74.8,204.21,60.19C1285.31,351.73,1253.18,325.4,1201,294.16Z"/><path class="cls-14" d="M1207.85,320.58c.56.58-6.23,0-6.42-.08a67,67,0,0,1-7.47-2.14c-6.63-2.05-13.17-4.43-19.6-7-9.1-3.61-17.87-8.39-27.42-10.8a.88.88,0,0,0-.66,1.61c15.24,10.5,37.76,18.51,56.19,22.13,2.63.51,6.67,1.63,8.32-1.22,1.09-1.89.4-3.38-1.49-4.36a1.19,1.19,0,0,0-1.45,1.84Z"/><g class="cls-6"><path d="M1013.32,216.59c.57-1,1.21-2,1.83-3-45.75-18.5-70.11-23.71-77.48-21.31a2.13,2.13,0,0,0-1.15.67l-.14.26c-.18.3,0,1,.1,1.26,1.64,5.11,17.13,26.76,147.77,90.44,78.64,38.35,141.59,58.26,163.21,60.62a2.7,2.7,0,0,0,2.36-4.56c-7.61-7.38-25.08-20.29-53-37.17-.39.79-.74,1.59-1.15,2.37,22.91,14,36.15,24.39,34.29,27.83-3.73,6.91-66.83-16.72-140.93-52.79s-131.15-70.92-127.43-77.83C963.64,199.59,983.55,205,1013.32,216.59Z"/><path d="M1207.85,320.58c.56.58-6.23,0-6.42-.08a67,67,0,0,1-7.47-2.14c-6.63-2.05-13.17-4.43-19.6-7-9.1-3.61-17.87-8.39-27.42-10.8a.88.88,0,0,0-.66,1.61c15.24,10.5,37.76,18.51,56.19,22.13,2.63.51,6.67,1.63,8.32-1.22,1.09-1.89.4-3.38-1.49-4.36a1.19,1.19,0,0,0-1.45,1.84Z"/></g><g class="cls-6"><path d="M1201,294.16c-.25.7-.56,1.37-.82,2.06,35.72,21.41,59.37,39.2,62.14,47.86a6.43,6.43,0,0,1-2.08,7.36c-2.29,1.81-9.26,7.35-63.46-10.84-34.91-11.72-76.24-29-116.37-48.51-16.91-8.24-34.75-17.19-52-26.27-49.85-26.2-95.06-53.61-100-69a9,9,0,0,1,.53-7.38,9.79,9.79,0,0,1,6-4.77c13.17-4.31,48.32,7.19,84.84,22.06.3-.41.56-.82.86-1.22-61.89-24.56-105.86-34.66-112.81-25.28-15,20.2,65.27,71,168.07,121s196.32,74.8,204.21,60.19C1285.31,351.73,1253.18,325.4,1201,294.16Z"/></g></g><g class="cls-1"><path class="cls-4" d="M778.81,129.13l-.74,1.34a3.05,3.05,0,0,1-1.19,1.2l-1.35.73,1.35.73a3.05,3.05,0,0,1,1.19,1.2l.74,1.34.73-1.34a3.08,3.08,0,0,1,1.2-1.2l1.34-.73-1.34-.73a3.08,3.08,0,0,1-1.2-1.2Z"/></g><g class="cls-1"><path class="cls-2" d="M838.91,294.05l1-1.78a4,4,0,0,1,1.59-1.59l1.78-1-1.78-1a4.05,4.05,0,0,1-1.59-1.59l-1-1.78-1,1.78a4.05,4.05,0,0,1-1.59,1.59l-1.78,1,1.78,1a4,4,0,0,1,1.59,1.59Z"/></g><g class="cls-3"><path class="cls-2" d="M800.7,399.14l-1-1.78a3.93,3.93,0,0,0-1.59-1.59l-1.78-1,1.78-1a3.87,3.87,0,0,0,1.59-1.59l1-1.78,1,1.78a4,4,0,0,0,1.59,1.59l1.78,1-1.78,1a4.05,4.05,0,0,0-1.59,1.59Z"/></g><g class="cls-3"><path class="cls-4" d="M800.33,349.39l1-1.79A4.05,4.05,0,0,1,802.9,346l1.78-1-1.78-1a4,4,0,0,1-1.59-1.6l-1-1.78-1,1.78a4,4,0,0,1-1.59,1.6L796,345l1.78,1a4.05,4.05,0,0,1,1.59,1.59Z"/></g><g class="cls-13"><path class="cls-4" d="M22.85,202.37l1,1.78a4,4,0,0,0,1.6,1.59l1.78,1-1.78,1a4,4,0,0,0-1.6,1.59l-1,1.78-1-1.78a4.05,4.05,0,0,0-1.59-1.59l-1.79-1,1.79-1a4,4,0,0,0,1.59-1.59Z"/></g><g class="cls-5"><path class="cls-4" d="M968.61,630.1l.59,1.09a2.47,2.47,0,0,0,1,1l1.09.6-1.09.59a2.56,2.56,0,0,0-1,1l-.59,1.09-.6-1.09a2.47,2.47,0,0,0-1-1l-1.09-.59,1.09-.6a2.38,2.38,0,0,0,1-1Z"/></g><g class="cls-3"><path class="cls-2" d="M38.61,285.1l1,1.78a4,4,0,0,0,1.6,1.59l1.78,1-1.78,1a4,4,0,0,0-1.6,1.59l-1,1.78-1-1.78a4.05,4.05,0,0,0-1.59-1.59l-1.79-1,1.79-1a4.05,4.05,0,0,0,1.59-1.59Z"/></g><g class="cls-3"><path class="cls-4" d="M408.44,553.52l-.6,1.09a2.47,2.47,0,0,1-1,1l-1.09.59,1.09.6a2.38,2.38,0,0,1,1,1l.6,1.09.59-1.09a2.47,2.47,0,0,1,1-1l1.09-.6-1.09-.59a2.56,2.56,0,0,1-1-1Z"/></g><g class="cls-9"><path class="cls-4" d="M326,219.92l1,1.79a4,4,0,0,0,1.6,1.59l1.78,1-1.78,1a4,4,0,0,0-1.6,1.6l-1,1.78-1-1.78a4,4,0,0,0-1.6-1.6l-1.78-1,1.78-1a4,4,0,0,0,1.6-1.59Z"/></g><g class="cls-1"><path class="cls-4" d="M343.4,576.41l-1,1.78a3.87,3.87,0,0,1-1.59,1.59l-1.78,1,1.78,1a3.93,3.93,0,0,1,1.59,1.59l1,1.78,1-1.78a4.05,4.05,0,0,1,1.59-1.59l1.79-1-1.79-1a4,4,0,0,1-1.59-1.59Z"/></g><circle class="cls-15" cx="838.63" cy="288.39" r="21.39"/><g class="cls-3"><path class="cls-4" d="M1089.14,688.82l.6,1.09a2.45,2.45,0,0,0,1,1l1.09.6-1.09.59a2.41,2.41,0,0,0-1,1l-.6,1.09-.6-1.09a2.41,2.41,0,0,0-1-1l-1.09-.59,1.09-.6a2.45,2.45,0,0,0,1-1Z"/></g><g class="cls-3"><path class="cls-2" d="M1251.05,451.93l1,1.78a4.05,4.05,0,0,0,1.59,1.59l1.78,1-1.78,1a4.05,4.05,0,0,0-1.59,1.59l-1,1.78-1-1.78a4,4,0,0,0-1.59-1.59l-1.78-1,1.78-1a4,4,0,0,0,1.59-1.59Z"/></g><g class="cls-1"><path class="cls-2" d="M1017.78,560.84l1-1.78a3.93,3.93,0,0,1,1.59-1.59l1.78-1-1.78-1a4,4,0,0,1-1.59-1.59l-1-1.78-1,1.78a4.05,4.05,0,0,1-1.59,1.59l-1.78,1,1.78,1a4,4,0,0,1,1.59,1.59Z"/></g><g class="cls-3"><path class="cls-4" d="M940.51,550.69l1-1.78a4.05,4.05,0,0,1,1.59-1.59l1.78-1-1.78-1a4.05,4.05,0,0,1-1.59-1.59l-1-1.78-1,1.78a4,4,0,0,1-1.59,1.59l-1.78,1,1.78,1a4,4,0,0,1,1.59,1.59Z"/></g><g class="cls-3"><path class="cls-2" d="M1247.06,233l1,1.78a4,4,0,0,0,1.6,1.59l1.78,1-1.78,1a4,4,0,0,0-1.6,1.59l-1,1.78-1-1.78a4.05,4.05,0,0,0-1.59-1.59l-1.79-1,1.79-1a4.05,4.05,0,0,0,1.59-1.59Z"/></g><g class="cls-3"><path class="cls-4" d="M47.65,413.36l1,1.78a4,4,0,0,0,1.59,1.6l1.78,1-1.78,1a4.05,4.05,0,0,0-1.59,1.59l-1,1.79-1-1.79a4,4,0,0,0-1.59-1.59l-1.78-1,1.78-1a4,4,0,0,0,1.59-1.6Z"/></g><g class="cls-3"><path class="cls-4" d="M548.44,609.33l-1,1.78a3.93,3.93,0,0,1-1.59,1.59l-1.78,1,1.78,1a4,4,0,0,1,1.59,1.59l1,1.78,1-1.78a4.05,4.05,0,0,1,1.59-1.59l1.78-1-1.78-1a4,4,0,0,1-1.59-1.59Z"/></g><g class="cls-9"><path class="cls-4" d="M380,408.87l1,1.78a4,4,0,0,0,1.59,1.59l1.78,1-1.78,1a4.05,4.05,0,0,0-1.59,1.59l-1,1.78-1-1.78a4.05,4.05,0,0,0-1.59-1.59l-1.78-1,1.78-1a4,4,0,0,0,1.59-1.59Z"/></g><g class="cls-1"><path class="cls-4" d="M68,211.36l-1,1.78a4.05,4.05,0,0,1-1.59,1.59l-1.78,1,1.78,1A4.05,4.05,0,0,1,67,218.27l1,1.78,1-1.78a3.93,3.93,0,0,1,1.59-1.59l1.78-1-1.78-1A3.93,3.93,0,0,1,69,213.14Z"/></g><g class="cls-6"><path class="cls-2" d="M902.36,435.91l-.8,1.46a3.18,3.18,0,0,1-1.31,1.31l-1.46.8,1.46.8a3.3,3.3,0,0,1,1.31,1.31l.8,1.47.8-1.47a3.37,3.37,0,0,1,1.31-1.31l1.47-.8-1.47-.8a3.24,3.24,0,0,1-1.31-1.31Z"/></g><g class="cls-6"><path class="cls-2" d="M843.4,526.31l-.8-1.46a3.37,3.37,0,0,0-1.31-1.31l-1.47-.8,1.47-.8a3.37,3.37,0,0,0,1.31-1.31l.8-1.46.8,1.46a3.24,3.24,0,0,0,1.31,1.31l1.46.8-1.46.8a3.24,3.24,0,0,0-1.31,1.31Z"/></g><g class="cls-6"><path class="cls-4" d="M693.77,459.83l.8-1.46a3.24,3.24,0,0,1,1.31-1.31l1.46-.8-1.46-.8a3.24,3.24,0,0,1-1.31-1.31l-.8-1.46-.8,1.46a3.37,3.37,0,0,1-1.31,1.31l-1.47.8,1.47.8a3.37,3.37,0,0,1,1.31,1.31Z"/></g><g class="cls-3"><path class="cls-4" d="M255.71,482.5l-.6,1.09a2.47,2.47,0,0,1-1,1l-1.09.59,1.09.6a2.38,2.38,0,0,1,1,1l.6,1.09.6-1.09a2.38,2.38,0,0,1,1-1l1.09-.6-1.09-.59a2.47,2.47,0,0,1-1-1Z"/></g><g class="cls-3"><path class="cls-4" d="M957.12,396.37l-1-1.78a4,4,0,0,0-1.59-1.59l-1.79-1,1.79-1a4.05,4.05,0,0,0,1.59-1.59l1-1.78,1,1.78a4,4,0,0,0,1.6,1.59l1.78,1-1.78,1a4,4,0,0,0-1.6,1.59Z"/></g><g class="cls-3"><path class="cls-4" d="M1221.28,60.53l-.6,1.09a2.47,2.47,0,0,1-1,1l-1.09.59,1.09.6a2.38,2.38,0,0,1,1,1l.6,1.09.59-1.09a2.47,2.47,0,0,1,1-1l1.09-.6-1.09-.59a2.56,2.56,0,0,1-1-1Z"/></g><g class="cls-3"><path class="cls-4" d="M148.24,412.75l-1-1.78a3.93,3.93,0,0,0-1.59-1.59l-1.78-1,1.78-1a4.05,4.05,0,0,0,1.59-1.59l1-1.79,1,1.79a4.05,4.05,0,0,0,1.59,1.59l1.78,1-1.78,1a3.93,3.93,0,0,0-1.59,1.59Z"/></g><g class="cls-3"><path class="cls-4" d="M551.41,607.73l-.59,1.09a2.56,2.56,0,0,1-1,1l-1.09.59,1.09.6a2.47,2.47,0,0,1,1,1l.59,1.09L552,612a2.38,2.38,0,0,1,1-1l1.09-.6L553,609.8a2.47,2.47,0,0,1-1-1Z"/></g><g class="cls-3"><path class="cls-4" d="M766.53,610.86l-1-1.78a4.05,4.05,0,0,0-1.59-1.59l-1.78-1,1.78-1a4.05,4.05,0,0,0,1.59-1.59l1-1.78,1,1.78a4,4,0,0,0,1.59,1.59l1.78,1-1.78,1a4,4,0,0,0-1.59,1.59Z"/></g><g class="cls-1"><path class="cls-4" d="M624.36,448.05l-1,1.78a4,4,0,0,1-1.59,1.59l-1.78,1,1.78,1a4.05,4.05,0,0,1,1.59,1.59l1,1.78,1-1.78a4.05,4.05,0,0,1,1.59-1.59l1.78-1-1.78-1a4,4,0,0,1-1.59-1.59Z"/></g><g class="cls-3"><path class="cls-4" d="M1026.17,450.68l-1-1.78a4.05,4.05,0,0,0-1.59-1.59l-1.78-1,1.78-1a4.05,4.05,0,0,0,1.59-1.59l1-1.78,1,1.78a4.05,4.05,0,0,0,1.59,1.59l1.78,1-1.78,1a4.05,4.05,0,0,0-1.59,1.59Z"/></g><g class="cls-3"><path class="cls-4" d="M1078.3,529l.6,1.09a2.47,2.47,0,0,0,1,1l1.09.59-1.09.6a2.38,2.38,0,0,0-1,1l-.6,1.09-.6-1.09a2.38,2.38,0,0,0-1-1l-1.09-.6,1.09-.59a2.47,2.47,0,0,0,1-1Z"/></g><g class="cls-3"><path class="cls-4" d="M1201,529l.6,1.09a2.38,2.38,0,0,0,1,1l1.09.6-1.09.6a2.38,2.38,0,0,0-1,1l-.6,1.09-.59-1.09a2.47,2.47,0,0,0-1-1l-1.09-.6,1.09-.6a2.47,2.47,0,0,0,1-1Z"/></g><g class="cls-6"><path class="cls-16" d="M573.84,209.63a42.81,42.81,0,1,0,47.67-37.31A42.81,42.81,0,0,0,573.84,209.63Z"/><g class="cls-13"><path d="M605.65,228.21a9,9,0,0,0,7.78,10.31c5.1.62,9.46-3.39,10.08-8.49a8.7,8.7,0,0,0-7.84-9.92A9,9,0,0,0,605.65,228.21Z"/></g><g class="cls-6"><path d="M607.26,172.44a42.83,42.83,0,0,0-22.54,25.35,5.29,5.29,0,0,1,1.41,4c-.25,1.79-2.26,2.31-3,2.44-.11.62-.22,1.24-.29,1.87a42.73,42.73,0,0,0-.09,9.45c.12.1,3.65,2.74,3.85,5.2a8.11,8.11,0,0,1-1.58,4.93c.26.73.53,1.45.83,2.15a42.91,42.91,0,0,0,10.66,15.07,6.58,6.58,0,0,1,5.22,0c2.48,1.26,1.66,4.88,1.66,4.88l-.3.1A42.79,42.79,0,0,0,634,253.15a42.8,42.8,0,1,1-26.72-80.71Z"/></g><g class="cls-6"><path d="M584.86,206.81a1,1,0,0,0,2,.25,1,1,0,1,0-2-.25Z"/></g><g class="cls-13"><path d="M631,233.76a14.49,14.49,0,0,1,2.61-5.33,4.76,4.76,0,0,1,3.08-2l1.68-.28a4.76,4.76,0,0,1,3.92,1.55,5.1,5.1,0,0,1,1,4.31,9.75,9.75,0,0,1-2,4.06,18.63,18.63,0,0,1-3.68,3.58,4.15,4.15,0,0,1-2.45,1,3.22,3.22,0,0,1-2.46-1.49A6.3,6.3,0,0,1,631,233.76Z"/></g><g class="cls-13"><path d="M619,249a12.83,12.83,0,0,1-4.58-.57c-1-.26-2-.7-2.13-1.54l-.08-.73a2.4,2.4,0,0,1-.06-3.08,4.52,4.52,0,0,1,3.09-1.51,8.9,8.9,0,0,1,3.49.47,14.41,14.41,0,0,1,3.46,1.61,3.07,3.07,0,0,1,1.37,1.42,2.17,2.17,0,0,1-.5,2A5.88,5.88,0,0,1,619,249Z"/><path d="M619.21,249a13,13,0,0,1-4.58-.57c-1-.27-2-.71-2.13-1.55l-.08-.73a2.4,2.4,0,0,1-.06-3.08,4.48,4.48,0,0,1,3.08-1.5,8.76,8.76,0,0,1,3.5.46,14.59,14.59,0,0,1,3.46,1.61,3.12,3.12,0,0,1,1.37,1.42,2.17,2.17,0,0,1-.5,2A5.85,5.85,0,0,1,619.21,249Z"/></g><g class="cls-6"><path d="M596.46,188.16a14.44,14.44,0,0,1,4.87-3.39c1.17-.55,2.63-1,3.66-.25l.87.69a4.14,4.14,0,0,1,3.41,3.14A5.08,5.08,0,0,1,608,192.6a9.66,9.66,0,0,1-3.75,2.56,18.23,18.23,0,0,1-5,1.34,4.83,4.83,0,0,1-2.82-.29,3.61,3.61,0,0,1-1.74-2.53A6.66,6.66,0,0,1,596.46,188.16Z"/></g><g class="cls-13"><path d="M594.86,188.61a14.58,14.58,0,0,1,4.87-3.39,4.78,4.78,0,0,1,3.66-.24l1.6.57a4.79,4.79,0,0,1,2.68,3.26,5.1,5.1,0,0,1-1.23,4.25,9.77,9.77,0,0,1-3.75,2.56,18.58,18.58,0,0,1-5,1.33,4.14,4.14,0,0,1-2.6-.35,3.21,3.21,0,0,1-1.42-2.5A6.31,6.31,0,0,1,594.86,188.61Z"/></g><g class="cls-13"><path class="cls-17" d="M637,219.22a2.1,2.1,0,0,1,.81-1.16,2.82,2.82,0,0,1,1.93-.23,2.06,2.06,0,0,1,1.36,1.08,2.94,2.94,0,0,1,.48,2.23,2.39,2.39,0,0,1-1.43,1.73,2.43,2.43,0,0,1-2.7-.8A3.08,3.08,0,0,1,637,219.22Z"/><g class="cls-6"><path d="M636.9,219.2a2.22,2.22,0,0,1,.81-1.16,2.89,2.89,0,0,1,1.93-.23,2.09,2.09,0,0,1,1.36,1.08,3,3,0,0,1,.48,2.23,2.43,2.43,0,0,1-1.43,1.74,2.46,2.46,0,0,1-2.7-.8A3.1,3.1,0,0,1,636.9,219.2Z"/></g><path d="M636.6,219.24a2,2,0,0,1,.74-1.07,2.67,2.67,0,0,1,1.79-.21,1.92,1.92,0,0,1,1.24,1,2.68,2.68,0,0,1,.44,2.05,2.2,2.2,0,0,1-1.31,1.6,2.24,2.24,0,0,1-2.48-.74A2.85,2.85,0,0,1,636.6,219.24Z"/></g><g class="cls-13"><path class="cls-17" d="M641,193.53a1.73,1.73,0,0,1,.65-.93,2.31,2.31,0,0,1,1.56-.19,1.68,1.68,0,0,1,1.09.87,2.38,2.38,0,0,1,.38,1.79,1.93,1.93,0,0,1-1.14,1.4,2,2,0,0,1-2.17-.65A2.47,2.47,0,0,1,641,193.53Z"/><g class="cls-18"><path d="M640.86,193.51a1.76,1.76,0,0,1,.65-.93,2.31,2.31,0,0,1,1.56-.18,1.67,1.67,0,0,1,1.09.87,2.36,2.36,0,0,1,.38,1.79,1.92,1.92,0,0,1-1.14,1.39,2,2,0,0,1-2.17-.64A2.49,2.49,0,0,1,640.86,193.51Z"/></g><path d="M640.62,193.54a1.57,1.57,0,0,1,.6-.85,2.06,2.06,0,0,1,1.43-.17,1.52,1.52,0,0,1,1,.79A2.21,2.21,0,0,1,644,195a1.75,1.75,0,0,1-1.06,1.28,1.81,1.81,0,0,1-2-.58A2.29,2.29,0,0,1,640.62,193.54Z"/></g><g class="cls-13"><path class="cls-17" d="M618.2,180.63a2.27,2.27,0,0,1,.85-1.22,3,3,0,0,1,2-.24,2.14,2.14,0,0,1,1.43,1.13,3.11,3.11,0,0,1,.5,2.35,2.51,2.51,0,0,1-1.5,1.83,2.59,2.59,0,0,1-2.84-.84A3.3,3.3,0,0,1,618.2,180.63Z"/><g class="cls-6"><path d="M618.06,180.61a2.21,2.21,0,0,1,.85-1.22,3,3,0,0,1,2-.24,2.15,2.15,0,0,1,1.42,1.13,3.07,3.07,0,0,1,.51,2.35,2.56,2.56,0,0,1-1.5,1.83,2.6,2.6,0,0,1-2.85-.84A3.26,3.26,0,0,1,618.06,180.61Z"/></g><path d="M617.74,180.65a2.09,2.09,0,0,1,.78-1.12,2.81,2.81,0,0,1,1.88-.23,2,2,0,0,1,1.31,1,2.84,2.84,0,0,1,.47,2.15,2.35,2.35,0,0,1-1.38,1.69,2.38,2.38,0,0,1-2.62-.78A3,3,0,0,1,617.74,180.65Z"/></g><g class="cls-13"><path class="cls-17" d="M626.58,182.12a1.11,1.11,0,0,1,.43-.61,1.48,1.48,0,0,1,1-.12,1.09,1.09,0,0,1,.71.57,1.53,1.53,0,0,1,.25,1.17,1.28,1.28,0,0,1-.75.92,1.29,1.29,0,0,1-1.42-.42A1.66,1.66,0,0,1,626.58,182.12Z"/><g class="cls-6"><path class="cls-17" d="M626.51,182.11a1.15,1.15,0,0,1,.42-.61,1.49,1.49,0,0,1,1-.12,1.1,1.1,0,0,1,.72.57,1.57,1.57,0,0,1,.25,1.17,1.28,1.28,0,0,1-.75.92,1.29,1.29,0,0,1-1.42-.42A1.63,1.63,0,0,1,626.51,182.11Z"/></g><path d="M626.35,182.13a1.06,1.06,0,0,1,.39-.56,1.43,1.43,0,0,1,.94-.11,1,1,0,0,1,.66.52,1.43,1.43,0,0,1,.23,1.08,1.11,1.11,0,0,1-2,.45A1.51,1.51,0,0,1,626.35,182.13Z"/></g></g><g class="cls-3"><path class="cls-4" d="M825.53,185.1l.59,1.09a2.56,2.56,0,0,0,1,1l1.09.59-1.09.6a2.47,2.47,0,0,0-1,1l-.59,1.09-.6-1.09a2.38,2.38,0,0,0-1-1l-1.09-.6,1.09-.59a2.47,2.47,0,0,0,1-1Z"/></g><g class="cls-3"><path class="cls-4" d="M388.57,328.4l-1-1.78A4.05,4.05,0,0,0,386,325l-1.78-1,1.78-1a4,4,0,0,0,1.59-1.59l1-1.78,1,1.78a4,4,0,0,0,1.59,1.59l1.78,1-1.78,1a4.05,4.05,0,0,0-1.59,1.59Z"/></g><g class="cls-3"><path class="cls-4" d="M639.69,363.78l1-1.78a3.93,3.93,0,0,1,1.59-1.59l1.78-1-1.78-1a4,4,0,0,1-1.59-1.59l-1-1.78-1,1.78a4.05,4.05,0,0,1-1.59,1.59l-1.78,1,1.78,1a4,4,0,0,1,1.59,1.59Z"/></g><circle class="cls-19" cx="258.78" cy="363.6" r="12.6"/><circle class="cls-20" cx="407.93" cy="556.82" r="14.82"/><g class="cls-3"><path class="cls-4" d="M319,629.6l-.59,1.09a2.41,2.41,0,0,1-1,1l-1.09.6,1.09.59a2.5,2.5,0,0,1,1,1l.59,1.09.6-1.09a2.54,2.54,0,0,1,1-1l1.09-.59-1.09-.6a2.45,2.45,0,0,1-1-1Z"/></g><circle class="cls-21" cx="265.96" cy="152.53" r="17.04"/></svg>