<svg id="Слой_1" data-name="Слой 1" xmlns="http://www.w3.org/2000/svg" xmlns:xlink="http://www.w3.org/1999/xlink" viewBox="0 0 1039 700"><defs><style>.cls-1{fill:url(#Безымянный_градиент_765);}.cls-2{opacity:0.13;}.cls-3{fill:#fff;}.cls-4{opacity:0.25;}.cls-5{fill:#375a64;}.cls-6{fill:#1a2e35;}.cls-7{fill:#3a3332;}.cls-8{opacity:0.3;}.cls-9{fill:#4f4847;}.cls-10{fill-rule:evenodd;}.cls-11{fill:#e1e1e1;}.cls-12{fill:#e2e2e2;}.cls-13{opacity:0.2;}.cls-14{fill:#c43a30;}.cls-15{opacity:0.3;}.cls-16{fill:#6525a4;}.cls-17{fill:#131c1e;}.cls-18{opacity:0.4;}.cls-19{opacity:0.5;}.cls-20{fill:url(#Безымянный_градиент_782);}.cls-21{opacity:0.1;}.cls-22{fill:#ffc19d;}.cls-23{fill:#ff9c6a;}.cls-24{fill:url(#Безымянный_градиент_763);}.cls-25{fill:url(#Безымянный_градиент_782-2);}.cls-26{fill:#e51336;}.cls-27,.cls-30{fill:#161616;}.cls-28{fill:#455a64;}.cls-29{fill:#4b98f2;}.cls-30{stroke:#455a64;stroke-miterlimit:10;stroke-width:0.25px;}</style><linearGradient id="Безымянный_градиент_765" x1="507.32" y1="454.85" x2="507.32" y2="195.68" gradientTransform="translate(378.58 -263.46) rotate(45)" gradientUnits="userSpaceOnUse"><stop offset="0" stop-color="#3b0117"/><stop offset="0.22" stop-color="#700b19"/><stop offset="0.49" stop-color="#a8151b"/><stop offset="0.71" stop-color="#d01c1c"/><stop offset="0.89" stop-color="#e9201d"/><stop offset="1" stop-color="#f2221d"/></linearGradient><linearGradient id="Безымянный_градиент_782" x1="23.06" y1="397.91" x2="51.23" y2="397.91" gradientUnits="userSpaceOnUse"><stop offset="0" stop-color="#1e457c"/><stop offset="1" stop-color="#3d6da8"/></linearGradient><linearGradient id="Безымянный_градиент_763" x1="92.53" y1="233.14" x2="159.16" y2="233.14" gradientUnits="userSpaceOnUse"><stop offset="0" stop-color="#aeadb2"/><stop offset="0.14" stop-color="#a5a4a9"/><stop offset="0.38" stop-color="#8c8b8f"/><stop offset="0.69" stop-color="#636266"/><stop offset="1" stop-color="#333235"/></linearGradient><linearGradient id="Безымянный_градиент_782-2" x1="265.51" y1="317.64" x2="288.01" y2="317.64" xlink:href="#Безымянный_градиент_782"/></defs><circle class="cls-1" cx="507.32" cy="325.26" r="129.55" transform="translate(-81.4 453.99) rotate(-45)"/><g class="cls-2"><path class="cls-3" d="M629,280.7c-.29-.85-.62-1.71-1-2.55l-.13-.39c-.36-.87-.71-1.75-1.08-2.61s-.77-1.82-1.17-2.7c-.5-1.13-1-2.25-1.56-3.37q-1.92-4.05-4.15-7.89c-16.49,5.09-39.36,13.26-60,24.54-37.79,20.66-50.38,51-95.21,70.63s-67-2.46-58.29-16.67,63.8-42.28,122.74-63.73c40.19-14.64,68.65-23.25,82.71-27.26-2.36-3.24-4.88-6.37-7.52-9.36-.66-.73-1.32-1.47-2-2.18-.43-.47-.86-.94-1.31-1.4-.11-.12-.25-.25-.35-.37-1-1-2-2.08-3.05-3.07-.44-.42-.88-.87-1.34-1.28s-1-.9-1.43-1.36a623.42,623.42,0,0,1-118,56.25C430,302.6,397.07,312.76,377.7,318.35c-.17,2.92-.24,5.89-.18,8.84,0,1.59.06,3.19.14,4.78,0,.56.06,1.13.1,1.69,0,.35.05.71.07,1.09h0c.17,2.07.36,4.13.63,6.21.07.77.17,1.56.29,2.33v0c.18,1.34.4,2.66.62,4,.09.51.17,1,.28,1.48.2,1.21.45,2.43.73,3.65v0c.26,1.23.54,2.47.86,3.68.19.89.42,1.78.67,2.67q.84,3.17,1.88,6.3c.1.36.2.7.33,1.06.23.71.48,1.42.72,2.13.44,1.25.9,2.48,1.37,3.69.25.64.49,1.29.78,1.9s.38,1,.59,1.52c.69,1.64,1.39,3.25,2.15,4.83.64,1.39,1.3,2.77,2,4.12A128.57,128.57,0,0,0,408,408.83c29.69-15.09,106.85-54.09,143.87-70.56,27.42-12.21,61.92-21.34,84.38-26.54-.38-3.85-1-7.72-1.74-11.57-.08-.44-.18-.89-.29-1.34s-.17-.87-.26-1.3c-.18-.83-.38-1.66-.59-2.5s-.37-1.49-.57-2.24c-.13-.51-.26-1-.4-1.52-.3-1.11-.61-2.2-.94-3.3-.27-.9-.54-1.81-.84-2.72s-.7-2.12-1.08-3.19C629.33,281.6,629.17,281.14,629,280.7ZM395.14,319.05a6.25,6.25,0,1,1-3.81,8A6.24,6.24,0,0,1,395.14,319.05Zm22.43,69.6a8.19,8.19,0,1,1,5-10.44A8.19,8.19,0,0,1,417.57,388.65ZM551.66,316.3a6.25,6.25,0,1,1,3.8-8A6.24,6.24,0,0,1,551.66,316.3Zm17.37,10a3.13,3.13,0,1,1,1.92-4A3.13,3.13,0,0,1,569,326.33Z"/></g><g class="cls-4"><path class="cls-3" d="M531.54,386.68a859.62,859.62,0,0,1-115.28,31.1c.21.22.43.41.64.62a11.78,11.78,0,0,0,.89.84c.1.08.18.18.27.26.34.32.67.63,1,.93.74.71,1.54,1.41,2.32,2.11,2.6,2.3,5.3,4.47,8.06,6.54l.45.33q3.86,2.86,7.91,5.42c.47.32,1,.63,1.45.93a135.31,135.31,0,0,0,15.41,8.08A132.65,132.65,0,0,0,471.54,450h0c.88.29,1.76.53,2.65.77l.21.06c1.86.48,3.72.93,5.58,1.3.51.13,1,.23,1.49.32h0l.55.12a10,10,0,0,0,1.09.21c1.31.27,2.63.49,4,.69,2.51.4,5,.73,7.56,1,25.64-10.89,48.55-19.92,55.58-20.73,8.12-.92-6.18,8.82-24.75,20.05a130.74,130.74,0,0,0,24.7-6.07,129.15,129.15,0,0,0,31.57-16.22c.82-.57,1.65-1.15,2.46-1.77,1-.73,2-1.5,3-2.27,1.15-.89,2.28-1.82,3.41-2.77A128.46,128.46,0,0,0,607.11,408h0a131.26,131.26,0,0,0,10.73-15q.81-1.35,1.62-2.76c-6.19,2.95-15.08,7.09-27.86,12.91-38.52,17.55-105.84,36.16-105.91,30.74s36.35-26.9,85.83-42.67c23.16-7.36,42.18-13.14,55.87-17.18.85-2.11,1.65-4.26,2.42-6.41a130.68,130.68,0,0,0,4.26-15.3c.27-1.25.52-2.51.76-3.79.29-1.68.57-3.35.81-5,.42-2.85.72-5.73.92-8.61a1.88,1.88,0,0,0,0-.41A466.41,466.41,0,0,1,531.54,386.68Zm-62.21,40.06c-11.44,4-21.65,4.64-22.8,1.39s7.22-9.16,18.66-13.19,21.65-4.64,22.8-1.38S480.77,422.72,469.33,426.74Z"/></g><g class="cls-2"><path class="cls-3" d="M565.48,209.44a308.85,308.85,0,0,1-83.85,43c-37.81,12.67-73.45,21.78-95.74,27a127.94,127.94,0,0,1,7.9-17.05c22.21-2.53,48-6.49,67.85-12.62,43.32-13.38,83-40.25,73.67-42.58s-39,16-80.19,28.19a495.58,495.58,0,0,1-51.65,12,127.17,127.17,0,0,1,15.41-17.18c.06-.07.14-.12.2-.18s.22-.21.34-.3c16.36-3.18,37.79-8.94,64.66-19.16,15.7-6,27.76-10.67,37.06-14.36,1.42.15,2.83.32,4.26.52a.07.07,0,0,0,.07,0c2.34.35,4.67.73,7,1.22a.52.52,0,0,1,.22.06,124.7,124.7,0,0,1,12.15,3,0,0,0,0,1,0,0c.62.18,1.22.37,1.84.57h0l1,.35c1.26.42,2.52.84,3.77,1.31l2,.75,1.42.57q4.69,1.85,9.23,4.07l.05,0,1.16.57Z"/></g><path class="cls-5" d="M960.79,619.08l-17.46-3.84a.71.71,0,0,0-.29,1.39l17.45,3.83a.71.71,0,0,0,.3-1.38Z"/><path class="cls-5" d="M961.61,615.32l-17.45-3.84a.71.71,0,0,0-.29,1.38l17.45,3.84a.71.71,0,0,0,.29-1.38Z"/><polygon class="cls-5" points="983.91 632.23 988.03 613.47 960.1 607.33 956.08 625.61 956.01 626.09 983.91 632.23"/><rect class="cls-3" x="963.8" y="606.89" width="16.45" height="25.79" transform="translate(157.61 1435.68) rotate(-77.57)"/><rect class="cls-5" x="976.2" y="611.81" width="1.21" height="17.96" transform="translate(1804.67 1429.59) rotate(-168.1)"/><rect class="cls-5" x="971.43" y="606.28" width="1.21" height="26.98" transform="translate(1778.93 -203.56) rotate(101.9)"/><rect class="cls-5" x="967.27" y="609.93" width="1.21" height="17.96" transform="translate(1787.4 1424.03) rotate(-168.1)"/><path class="cls-5" d="M921.06,608.16,938.51,612a.71.71,0,0,0,.29-1.38l-17.45-3.84a.71.71,0,0,0-.29,1.38Z"/><path class="cls-5" d="M920.23,611.93l17.45,3.84a.71.71,0,0,0,.29-1.38l-17.45-3.84a.71.71,0,0,0-.29,1.38Z"/><polygon class="cls-5" points="931.67 579.6 938.75 593.14 954.34 596.86 966.15 587.34 931.67 579.6"/><rect class="cls-5" x="942.62" y="581.66" width="12.73" height="1.31" transform="translate(194.86 1401.43) rotate(-78.9)"/><path class="cls-5" d="M952,577.72a2.88,2.88,0,1,1,.88-4A2.89,2.89,0,0,1,952,577.72Z"/><polygon class="cls-5" points="938.75 593.14 938.23 595.5 933.9 598.27 928.21 624.15 930.48 627.7 930.07 629.57 946.95 633.26 947.42 631.12 950.86 628.91 956.33 602.95 953.8 598.93 954.3 596.85 938.75 593.14"/><polygon class="cls-5" points="897.93 595.02 893.81 613.78 921.74 619.92 925.76 601.63 925.83 601.15 897.93 595.02"/><rect class="cls-3" x="901.59" y="594.57" width="16.45" height="25.79" transform="translate(120.81 1365.26) rotate(-77.57)"/><rect class="cls-5" x="904.43" y="597.48" width="1.21" height="17.96" transform="translate(144.53 -173.61) rotate(11.9)"/><rect class="cls-5" x="909.21" y="593.98" width="1.21" height="26.98" transform="translate(127.85 1372.53) rotate(-78.1)"/><rect class="cls-5" x="913.36" y="599.36" width="1.21" height="17.96" transform="translate(145 -175.31) rotate(11.89)"/><path class="cls-6" d="M956.23,603.25a219.47,219.47,0,0,1-22.45-4.73,111.17,111.17,0,0,1,11.29,2.08C951.27,601.91,956.27,603.09,956.23,603.25Z"/><path class="cls-6" d="M933.9,598.27a11.41,11.41,0,0,1-.29,1.92c-.26,1.32-.6,3.07-1,5.19-.88,4.37-2.13,10.41-3.56,17.07l-.35,1.67-.23-.35c6.28,1.33,11.89,2.55,15.92,3.45l4.75,1.1a10.7,10.7,0,0,1,1.72.47,9.7,9.7,0,0,1-1.76-.26l-4.79-.91c-4.06-.8-9.68-2-16-3.27l-.29-.06.06-.29c.12-.53.24-1.1.36-1.67,1.42-6.66,2.74-12.68,3.72-17,.49-2.1.89-3.83,1.2-5.15A12.09,12.09,0,0,1,933.9,598.27Z"/><path class="cls-6" d="M947.37,631.3a126.05,126.05,0,0,1-16.9-3.56,63.14,63.14,0,0,1,8.51,1.5A65.09,65.09,0,0,1,947.37,631.3Z"/><path class="cls-6" d="M953.8,598.93a54.5,54.5,0,0,1-7.93-1.37c-4.36-.91-7.86-1.79-7.82-1.95A57.44,57.44,0,0,1,946,597,55.85,55.85,0,0,1,953.8,598.93Z"/><path class="cls-6" d="M954.49,596.74a111.44,111.44,0,0,1-15.73-3.31,110.65,110.65,0,0,1,15.73,3.31Z"/><path class="cls-6" d="M968.66,623.66a45.74,45.74,0,0,1,5.92-4.14c3.35-2.15,6.14-3.79,6.23-3.65s-2.56,2-5.92,4.14S968.75,623.8,968.66,623.66Z"/><path class="cls-6" d="M964.52,622.25a13.75,13.75,0,0,1,3.15-2.49,14,14,0,0,1,3.48-2,27.28,27.28,0,0,1-6.63,4.49Z"/><path class="cls-6" d="M903.28,612.17a71.91,71.91,0,0,1,8-4.17c4.52-2.16,8.23-3.79,8.3-3.64a71.91,71.91,0,0,1-8,4.17C907.06,610.69,903.35,612.32,903.28,612.17Z"/><path class="cls-6" d="M900.13,611.09a32.08,32.08,0,0,1,4.15-2.25,30,30,0,0,1,4.21-2.14,14.23,14.23,0,0,1-3.94,2.66A13.92,13.92,0,0,1,900.13,611.09Z"/><path class="cls-7" d="M497.89,525s4.27,11.66-2.22,27.22-9.57,25.41-19.52,26.57-27.22.59-27.22.59l-.85-28.31Z"/><g class="cls-8"><path d="M497.89,525s4.27,11.66-2.22,27.22-9.57,25.41-19.52,26.57-27.22.59-27.22.59l-.85-28.31Z"/></g><path class="cls-9" d="M430.13,530.09s13.33,19.11,17,22l2.1,2.83c2.93-1.13,33.73-10.5,35.28-13.08a6.13,6.13,0,0,0,.55-5.09l4.71,1.61,8.1-13.33-35,4.22s3.69-3.24,1.45-4.43S430.13,530.09,430.13,530.09Z"/><path class="cls-7" d="M448.93,579.38s-5.58-7.54-10.08-20.75-8.72-28.54-8.72-28.54l19.12,24.8Z"/><g class="cls-8"><path d="M484.53,541.81l1.54,16,3.72-19.51-4.71-1.61S485.84,539.92,484.53,541.81Z"/></g><polygon class="cls-7" points="687.64 643.5 684.26 627.83 707.9 623.24 715.58 604.53 711.11 628.08 702.67 640.73 687.64 643.5"/><polygon class="cls-7" points="669.54 613.09 671.99 627.82 687.64 643.5 684.26 627.83 669.54 613.09"/><path class="cls-9" d="M674.15,602.35c-1.22,1.84-4.61,10.74-4.61,10.74l14.72,14.74,23.64-4.59,7.68-18.71c-.79-1.91-6.89-9.36-6.89-9.36Z"/><polygon class="cls-7" points="187.11 658.62 200.93 654.8 197.94 646.09 186.12 627.83 171.77 637.86 174.64 649.09 187.11 658.62"/><polygon class="cls-9" points="171.77 637.86 189.61 648.09 197.94 646.09 186.12 627.83 171.77 637.86"/><g class="cls-8"><polygon class="cls-10" points="187.11 658.62 189.61 648.09 197.94 646.09 200.93 654.8 187.11 658.62"/></g><polygon class="cls-7" points="259.81 617.08 259.87 611.43 252.15 605.85 248.05 614.09 250.28 620.62 254.84 620.75 259.81 617.08"/><polygon class="cls-9" points="250.28 620.62 256.1 614.98 252.15 605.85 248.05 614.09 250.28 620.62"/><g class="cls-8"><polygon class="cls-10" points="259.94 617.08 256.23 614.98 252.28 605.85 260 611.43 259.94 617.08"/></g><path class="cls-7" d="M639.6,442.62,622.28,445l-1,1.85s-6.83,1.06-7.43,1.27l-2,9.91L623,459.53,634,450.35Z"/><path class="cls-7" d="M611.82,458.07c.31.21,4.28,6.88,10.64,10a62.17,62.17,0,0,0,10.76,4.26L618.87,457.4Z"/><polygon class="cls-9" points="634.38 443.63 632.5 447.4 623.37 448.13 622.21 453.06 618.87 457.4 633.22 472.34 639.6 462.62 639.6 442.62 634.38 443.63"/><g class="cls-8"><polygon points="623.37 448.13 613.8 448.16 611.82 458.07 618.87 457.4 622.21 453.06 623.37 448.13"/></g><path class="cls-11" d="M880.64,388c5.54-7.52,9.16-22,7.44-31.15s-5.11-18.05-6-27.35c-.35-3.82.17-8.46,3.59-10.2,2.79-1.41,6.37,0,8.35,2.4s2.71,5.62,3.2,8.71.82,6.28,2.2,9.1c.05-2.3,2.81-3.86,5-3.22s3.68,2.84,4.12,5.09,1.25,3.81,1.22,6.47a78.33,78.33,0,0,1-5.15,24.57c-2.86,7-11.18,16.15-19.45,18.58"/><path class="cls-6" d="M905.05,371.18a21.92,21.92,0,0,1-2.12-1.68,18.32,18.32,0,0,0-12-3.7,23.26,23.26,0,0,1-2.7.21,6.6,6.6,0,0,1,2.65-.72,16.14,16.14,0,0,1,12.42,3.81A6.69,6.69,0,0,1,905.05,371.18Z"/><path class="cls-6" d="M909.49,352.09c-.08.11-1.14-.71-3.06-1.64a21.27,21.27,0,0,0-8-2.05,20.84,20.84,0,0,0-8.14,1.2c-2,.72-3.13,1.43-3.2,1.32s.23-.25.74-.59a13.17,13.17,0,0,1,2.27-1.21,18.89,18.89,0,0,1,8.37-1.45,19.14,19.14,0,0,1,8.16,2.33,13.22,13.22,0,0,1,2.14,1.43C909.28,351.82,909.52,352.05,909.49,352.09Z"/><path class="cls-6" d="M897.68,333c0,.24-3.51-.65-7.66.34s-6.91,3.24-7,3,.54-.72,1.73-1.53a15.51,15.51,0,0,1,10.74-2.47A5.47,5.47,0,0,1,897.68,333Z"/><path class="cls-12" d="M782.22,432.92c-1.15.72-10.07,10.72-23,9.23s-19.78-7-25.22-5.77-28.94,20.16-28,27,3.94,5.32,3.94,5.32,4.9,4.32,8.85,1c0,0,.63,2.61,4.68-1.13s2.69-8.55,4-11.16,11.67-7.64,11.67-7.64,14.83,14.24,30.63,13.92,21.82-10.53,21.82-10.53Z"/><path class="cls-12" d="M883.08,438.86c.5.3,3.86,10.29,9.32,14.37s8.66,5.74,6.86,9.47-20.66,24.5-21.72,29.12,2.58,12.6-4.57,13.41c0,0-2.08,5-5.81,3.18,0,0-2.17,2.89-4,1.15s-5.74-4.51-3.78-11.41,18.3-24,17.29-27.84-13.54-14-13.54-14Z"/><g class="cls-8"><polygon points="863.1 456.3 868.26 460.75 887.11 446.85 884.17 441.08 863.1 456.3"/></g><path class="cls-12" d="M790.21,444.31,793.87,468l-2,2.3s-17.72,3.11-23.11,7.38-24.29,23.09-16.65,30.63c0,0,8.36,10.18,14,3.2,0,0,6.11,1.67,6.59-4s-1.81-9-1.81-9l7.49-9.85s45.75-2.48,48.05-7.73,2.21-26.5,2.21-26.5L831.09,433s-8.82-4.77-23.05-2.8A21.59,21.59,0,0,0,790.21,444.31Z"/><path class="cls-12" d="M872.48,424.31c.72.44,14,15.87,24,17.89s37.83-7.59,43.87-5.11,12.2,9.83,15.81,15.19c2.42,3.62,3.65,6.91,8.9,5.63,0,0,4.32,6.3,9,.51,0,0,4.74-2.32,3.07-6.91s-18.66-22-28.1-26.2-9.79,1.84-15.89-.31-13-19.87-21.29-24.15a55.53,55.53,0,0,0-20.24,2.51C880.44,406.83,872.48,424.31,872.48,424.31Z"/><g class="cls-8"><path d="M770.09,440.8s2.45,14.66,10.37,20.92c0,0,3.6-1,8.93-5.81l-10.61-20.07A38.36,38.36,0,0,1,770.09,440.8Z"/></g><path class="cls-12" d="M773.49,417.41c0,1.22-1.43,32.1,19,41.46,18.07,8.29,56.71,1.42,56.71,1.42s12.72-1.49,21.31-7.16c13.44-8.87,17.2-17.19,17.2-17.19L913.31,402s-13.91-16.21-30.19-17-17.34,13.48-29.67,15.82-24.24,8.21-30.32.43l-6.08-7.78Z"/><path class="cls-11" d="M785.5,471.65s13.83,8.54,13.34,15.46l6-.66a24.44,24.44,0,0,0-12.93-16.13Z"/><path class="cls-11" d="M754.94,441.49s5.29,6.12,7,13.55c1.46,6.18,1.33,8.07,1.33,8.07a22.64,22.64,0,0,0,6.44.62,37.55,37.55,0,0,0-7.17-21.44Z"/><path class="cls-11" d="M835.35,404.92s9.94,27.77-3.94,57.16l6-.46s17.39-31.05,3.05-57.68Z"/><path class="cls-6" d="M895.81,442a3.34,3.34,0,0,1-1.13-.25,23.25,23.25,0,0,1-2.9-1.17,34.09,34.09,0,0,1-8.38-6,65.69,65.69,0,0,1-6.78-7.72,22.58,22.58,0,0,1-2.43-3.49,26.73,26.73,0,0,1,2.83,3.17,94.27,94.27,0,0,0,6.88,7.51,39.47,39.47,0,0,0,8.12,6C894.3,441.38,895.85,441.89,895.81,442Z"/><path class="cls-6" d="M886.88,437.38a8.81,8.81,0,0,1-.87,1.5,19.8,19.8,0,0,1-1.17,1.67c-.48.63-1,1.36-1.69,2.11a47.2,47.2,0,0,1-5,5,58.46,58.46,0,0,1-7,5.1,60.68,60.68,0,0,1-7.66,3.93,50.68,50.68,0,0,1-6.66,2.27c-1,.29-1.85.46-2.63.62a19.73,19.73,0,0,1-2,.36,8,8,0,0,1-1.73.16c0-.13,2.42-.49,6.22-1.63a61.73,61.73,0,0,0,6.53-2.39,67.14,67.14,0,0,0,7.55-3.94,64.76,64.76,0,0,0,6.9-5,53.46,53.46,0,0,0,5-4.82C885.43,439.38,886.76,437.3,886.88,437.38Z"/><path class="cls-6" d="M807.16,431.3c0,.07-.62-.07-1.72,0a9.15,9.15,0,0,0-4.32,1.55c-3.39,2.1-5.92,7.35-7.14,13.23a59.32,59.32,0,0,0-.74,15.49c.15,2,.35,3.59.47,4.7a8,8,0,0,1,.16,1.74,9.08,9.08,0,0,1-.44-1.69c-.21-1.1-.49-2.71-.7-4.71a53.46,53.46,0,0,1,.54-15.68,31.13,31.13,0,0,1,2.87-8.19,13.58,13.58,0,0,1,4.7-5.33,8.87,8.87,0,0,1,4.59-1.39,5.71,5.71,0,0,1,1.3.13C807,431.23,807.17,431.28,807.16,431.3Z"/><path class="cls-6" d="M828,468.62a29.13,29.13,0,0,1,.1-4.32c.12-2.66.31-6.33.11-10.37a41.9,41.9,0,0,0-1.68-10.17c-.78-2.53-1.52-4-1.41-4.06s.27.33.63,1A20.43,20.43,0,0,1,827,443.6a30.54,30.54,0,0,1,1.24,4.55,44.09,44.09,0,0,1,.68,5.74,72.9,72.9,0,0,1-.33,10.45A22.5,22.5,0,0,1,828,468.62Z"/><path class="cls-6" d="M789.54,457.92a5.08,5.08,0,0,1-1.16-.72,24.82,24.82,0,0,1-2.89-2.36,33.71,33.71,0,0,1-3.74-4.09,38.74,38.74,0,0,1-3.63-5.74,39.49,39.49,0,0,1-2.47-6.32,33.54,33.54,0,0,1-1.08-5.44,26,26,0,0,1-.19-3.72,5.06,5.06,0,0,1,.12-1.37c.13,0,.11,1.95.58,5a40.21,40.21,0,0,0,1.21,5.32,44,44,0,0,0,2.48,6.18,42.68,42.68,0,0,0,3.51,5.67,38.66,38.66,0,0,0,3.57,4.12C788,456.67,789.62,457.81,789.54,457.92Z"/><path class="cls-6" d="M901.44,391.76c-.08.1-1.48-1.09-4.08-2.43a33.33,33.33,0,0,0-10.78-3.5,30.51,30.51,0,0,0-11.27.88c-2.81.82-4.35,1.84-4.41,1.72a3.75,3.75,0,0,1,1-.76,16.76,16.76,0,0,1,3.21-1.45,28,28,0,0,1,11.52-1.11,30,30,0,0,1,10.94,3.77,20.91,20.91,0,0,1,2.9,2A4.36,4.36,0,0,1,901.44,391.76Z"/><path class="cls-6" d="M931.34,425.29c.18-.06.92,2.42.57,5.53s-1.57,5.37-1.73,5.28.7-2.38,1-5.36S931.13,425.33,931.34,425.29Z"/><path class="cls-6" d="M939.48,425.6c.18-.07,1.11,2.35,1,5.5s-1.1,5.53-1.26,5.45.48-2.45.53-5.47S939.27,425.65,939.48,425.6Z"/><path class="cls-6" d="M885.65,473.56c-.14.17-1.84-1.43-4.54-2s-4.89.22-5,0,.46-.4,1.39-.65a8.46,8.46,0,0,1,7.08,1.45C885.38,473,885.71,473.5,885.65,473.56Z"/><path class="cls-6" d="M897.86,457a14.47,14.47,0,0,1-2.68,2.39,55.31,55.31,0,0,1-7.24,4.73,56.66,56.66,0,0,1-7.89,3.58,14,14,0,0,1-3.45,1,23.46,23.46,0,0,1,3.26-1.45c2-.86,4.79-2.12,7.73-3.73s5.48-3.27,7.29-4.52A21.24,21.24,0,0,1,897.86,457Z"/><path class="cls-6" d="M776.36,491.13c-.19.08-1.6-3-4.37-6s-5.4-5.07-5.26-5.26,3,1.65,5.8,4.78S776.55,491.08,776.36,491.13Z"/><path class="cls-6" d="M780.65,488.5c-.23,0-.55-3.43-2.16-7.32s-3.82-6.58-3.63-6.72,2.64,2.41,4.3,6.44S780.82,488.51,780.65,488.5Z"/><path class="cls-6" d="M733.62,436.49c.12-.12,2.43,2.4,4,6.24s1.79,7.26,1.62,7.27-.73-3.26-2.29-7S733.43,436.62,733.62,436.49Z"/><path class="cls-6" d="M742.9,438.56c.16-.08,1.31,2.75,1,6.43s-1.79,6.32-1.93,6.22,1-2.75,1.2-6.27S742.68,438.61,742.9,438.56Z"/><path class="cls-6" d="M917.68,407.07s-.12.21-.41.55a14,14,0,0,1-1.35,1.44,24.85,24.85,0,0,1-5.91,4.19,35.36,35.36,0,0,1-10.22,3.32,48.73,48.73,0,0,1-13.15.36,32.36,32.36,0,0,1-12.57-3.87,22.91,22.91,0,0,1-7.85-7.32A18.53,18.53,0,0,1,863.5,399a13.08,13.08,0,0,1-.21-2,2.21,2.21,0,0,1,0-.68c.07,0,.1.94.46,2.59a19.76,19.76,0,0,0,2.88,6.48,23.06,23.06,0,0,0,7.75,7,32.64,32.64,0,0,0,12.32,3.73,50,50,0,0,0,13-.3,36.35,36.35,0,0,0,10.1-3.12A31.09,31.09,0,0,0,917.68,407.07Z"/><path class="cls-6" d="M879.78,429.62a15.26,15.26,0,0,1-1.57,1.6,25.8,25.8,0,0,1-2,1.76c-.8.65-1.68,1.43-2.74,2.18s-2.19,1.61-3.48,2.42-2.7,1.64-4.19,2.49a65,65,0,0,1-21.06,7.09c-1.7.22-3.32.47-4.84.54s-2.94.18-4.24.19-2.47-.05-3.49-.08-1.91-.12-2.63-.21a14.19,14.19,0,0,1-2.23-.33,13.3,13.3,0,0,1,2.25.05c.72,0,1.6.09,2.62.08s2.19.06,3.47,0,2.69-.1,4.2-.27,3.1-.36,4.78-.6a76.88,76.88,0,0,0,10.72-2.67,74.64,74.64,0,0,0,10.14-4.36c1.48-.82,2.91-1.57,4.17-2.4s2.46-1.59,3.51-2.33,2-1.46,2.78-2.08,1.49-1.17,2-1.65A12.42,12.42,0,0,1,879.78,429.62Z"/><g class="cls-13"><ellipse cx="775.73" cy="365.33" rx="58.23" ry="54.04" transform="translate(-25.66 60.37) rotate(-4.38)"/></g><path class="cls-14" d="M753.22,329.73c-2.18,2.56-5.77,10.36-3.49,20.68S760.26,371,760.26,371l15.8-12.62Z"/><g class="cls-15"><path d="M753.22,329.73c-2.18,2.56-5.77,10.36-3.49,20.68S760.26,371,760.26,371l15.8-12.62Z"/></g><g class="cls-13"><path class="cls-3" d="M832.4,377.09s0-.31.14-.91.27-1.49.47-2.62c.11-.58.23-1.23.36-1.94s.12-1.51.19-2.36.14-1.78.22-2.76,0-2-.06-3.15A51.53,51.53,0,0,0,833,356a55.31,55.31,0,0,0-2.37-8.46,52.85,52.85,0,0,0-11.3-18l-1-1.1c-.36-.35-.75-.68-1.12-1l-2.29-2.06a26.32,26.32,0,0,0-2.49-1.94l-2.59-1.9a61.12,61.12,0,0,0-12.05-6c-1.1-.39-2.2-.82-3.33-1.18l-3.48-.89-1.76-.45c-.59-.14-1.2-.2-1.8-.31l-3.66-.57a61.69,61.69,0,0,0-15.29.11,65.5,65.5,0,0,0-7.82,1.47l-3.87,1.2a30.6,30.6,0,0,0-3.83,1.44l-1.9.79-1,.4-.92.48-3.7,1.95a63.68,63.68,0,0,0-7,4.82,54.28,54.28,0,0,0-19.07,29c-2.82,11.74-1.58,24.19,3.66,34.36a53.13,53.13,0,0,0,9.64,13.66c.91,1,2,1.86,3,2.8l1.5,1.36,1.62,1.2c1.1.78,2.12,1.64,3.25,2.34l3.39,2a58.24,58.24,0,0,0,14.21,5.64,63.86,63.86,0,0,0,14.29,2,63,63,0,0,0,25.31-4.91,59.3,59.3,0,0,0,17.86-11.65,52.25,52.25,0,0,0,10-12.71c.53-1,1.1-1.86,1.52-2.76s.76-1.74,1.11-2.53l.95-2.17.6-1.87c.35-1.1.63-1.95.82-2.54s.31-.86.31-.86-.07.3-.24.88-.43,1.45-.75,2.56l-.57,1.89-.92,2.19-1.09,2.56c-.4.91-1,1.8-1.49,2.79a52.37,52.37,0,0,1-9.92,12.86,59.21,59.21,0,0,1-17.94,11.83,63.17,63.17,0,0,1-25.52,5,64.61,64.61,0,0,1-14.44-2A58.63,58.63,0,0,1,745.15,412L741.71,410c-1.14-.71-2.18-1.58-3.29-2.36l-1.64-1.22L735.25,405c-1-.94-2.1-1.78-3-2.83a53.63,53.63,0,0,1-9.78-13.82c-5.32-10.31-6.59-22.95-3.73-34.86a54.91,54.91,0,0,1,19.34-29.33,64.25,64.25,0,0,1,7.06-4.87l3.74-2,.93-.49,1-.41,1.93-.8a30.71,30.71,0,0,1,3.88-1.44l3.91-1.21a69.09,69.09,0,0,1,7.91-1.48,63,63,0,0,1,15.45-.08l3.69.59c.61.11,1.23.17,1.82.32l1.78.46,3.51.91c1.14.36,2.25.8,3.36,1.19A61.45,61.45,0,0,1,810.14,321l2.61,1.93a24.36,24.36,0,0,1,2.5,2l2.31,2.08c.38.35.76.68,1.13,1l1,1.12A53,53,0,0,1,831,347.39a53.87,53.87,0,0,1,2.33,8.54,51.66,51.66,0,0,1,.66,7.42c0,1.11.07,2.17,0,3.16s-.18,1.91-.26,2.77-.15,1.64-.22,2.37-.27,1.35-.39,1.93l-.55,2.62C832.48,376.79,832.4,377.09,832.4,377.09Z"/></g><path class="cls-14" d="M815.17,397.4,800.93,409s-20.28,6.76-20.79,5.93-8.69-13.47-14.38-13.27c-10,.35-10.4,1.17-17.62.09-12.23-1.82-15.07-15.39-14.82-17.62s10.22-4.93,14.49-6.61,6-2.2,12.17-14.29a20.64,20.64,0,0,1,18.28-11.35s11.41-32.93,16.63-28.52,5.38,33.43,5.38,33.43l5.8,5.12a14.79,14.79,0,0,0,4.32,5.28c2.94,2.16,6.92,3,5.21,4.1s-5.16,2.92-5.16,2.92l5.14,1-3.35,5.23,4.5-.35-3.1,5.89,6.11,7.34Z"/><path class="cls-16" d="M767.62,423.12A69.23,69.23,0,0,0,817,407.36a67.9,67.9,0,0,0,10.43-10.87c1.75-2.33,1.87-5.92-.6-7.86-2.26-1.77-6-1.89-7.87.6q-1.8,2.4-3.82,4.6c-.63.68-1.27,1.35-1.93,2l-1.07,1-.47.44c-.57.55.71-.62.11-.1a67.8,67.8,0,0,1-9.65,7c-.8.48-1.61.93-2.42,1.37l-.57.3c-.57.3.31-.15.34-.17a6.48,6.48,0,0,1-1.54.75q-2.72,1.27-5.53,2.29c-1.87.68-3.78,1.27-5.71,1.78l-1.25.31c-.22.05-1.74.36-.93.21l-.74.14-1.68.29a60.6,60.6,0,0,1-6.58.67c-1.14.06-2.28.08-3.42.07l-1.49,0-.86,0c-.82,0,1.41.09,0,0-2.89-.2-6.06,1.18-6.54,4.41-.4,2.69,1.3,6.32,4.41,6.54Z"/><path class="cls-17" d="M738.64,380.38s-9.16,1-6.23,7.1l2.73,4.47s4.9-3.58,5.16-7.92c.22-3.82-1.66-3.65-1.66-3.65"/><path class="cls-6" d="M778.26,351.83a36.48,36.48,0,0,0-5.56,1.26,25.9,25.9,0,0,0-5.53,2.68,19.48,19.48,0,0,0-5.38,5.14,70.47,70.47,0,0,0-3.69,6.64,34.21,34.21,0,0,1-3.39,5.29,11.86,11.86,0,0,1-3.17,2.84,3.54,3.54,0,0,1-1.44.58,13.23,13.23,0,0,0,4.21-3.74,38.35,38.35,0,0,0,3.2-5.28,59.63,59.63,0,0,1,3.68-6.74,19.05,19.05,0,0,1,5.62-5.29,23.84,23.84,0,0,1,5.73-2.61,18.7,18.7,0,0,1,4.17-.8A5.22,5.22,0,0,1,778.26,351.83Z"/><g class="cls-15"><path class="cls-3" d="M793.59,331.17a40.84,40.84,0,0,0-6.78,21.77,9,9,0,0,1,3.08-4.16c.38,2,.75,4,1.12,5.93a6.42,6.42,0,0,1,2.63-4.2,13.71,13.71,0,0,1,2.35,4.35,42.46,42.46,0,0,0-2.68-23.26"/></g><path class="cls-17" d="M768.84,370.37c-1.49.44-2.14,3.07-1.47,4.47a3,3,0,0,0,4,1.25,3.17,3.17,0,0,0,1.24-4,3.37,3.37,0,0,0-3.94-1.63"/><path class="cls-17" d="M775.08,366.35c-.42.93-1.85,1.2-3.29,1.34s-2.9,0-3.46-.82c-.25-.43-.12-1.05.45-1.64a4.59,4.59,0,0,1,5.61-.42C775,365.3,775.26,365.89,775.08,366.35Z"/><path class="cls-6" d="M763.93,386.58s0,.14.05.42a7.08,7.08,0,0,1-.05,1.23,9.93,9.93,0,0,1-1.54,4.23,17.34,17.34,0,0,1-4.67,4.78,32.64,32.64,0,0,1-3.33,2.1,14.7,14.7,0,0,1-4,1.47,14,14,0,0,1-8.17-.48,11.17,11.17,0,0,1-4.82-4.64,27.4,27.4,0,0,1-2-4,6.7,6.7,0,0,1-.52-1.56c.14-.06.94,2.16,2.93,5.31a11,11,0,0,0,4.64,4.31,13.82,13.82,0,0,0,7.76.37,19,19,0,0,0,7.12-3.4,17.51,17.51,0,0,0,4.63-4.51,10.6,10.6,0,0,0,1.69-4A12.29,12.29,0,0,1,763.93,386.58Z"/><g class="cls-13"><path class="cls-3" d="M818.76,339.71c-5.54-12.16-23.37-23.48-33.21-21.32-5,.79-5,5.24-3.63,7.88s4.25,4.18,7.13,5,5.89,1,8.76,1.76a21.22,21.22,0,0,1,11.86,8.65,22.6,22.6,0,0,0,3.3,4.59c1.41,1.26,3.61,1.91,5.2.89C820.45,345.66,819.88,342.18,818.76,339.71Z"/></g><g class="cls-13"><path class="cls-3" d="M822,353.65a3.13,3.13,0,1,0,1-.27"/></g><path class="cls-16" d="M208.91,291.1a7.91,7.91,0,0,1,4.25-.71c.14,0,1.12.13.48,0a10,10,0,0,1,1.21.26c.39.1.78.23,1.17.37.92.33-.38-.27.46.21a9,9,0,0,1,3,2.41,8.36,8.36,0,0,1,1.59,3.43c.08.33.15.67.21,1-.11-.67,0,.64,0,.78,0,.34,0,.69,0,1,0,.15-.13,1,0,.44a11.65,11.65,0,0,1-.64,2.29c.24-.61-.15.26-.21.38-.22.39-.46.76-.7,1.14-.36.59.24-.2-.27.36-.22.25-.44.5-.68.74a12.12,12.12,0,0,1-1,.9c.49-.39-.35.23-.37.25-.33.21-.67.41-1,.59-.12.07-1.13.49-.53.27a13.57,13.57,0,0,1-2.27.61c-1.86.33-2.91,2.6-2.44,4.3a3.57,3.57,0,0,0,4.3,2.44,15.75,15.75,0,0,0,2.89-30.13,15.73,15.73,0,0,0-11.32-.15,3.6,3.6,0,0,0-2.44,4.3c.47,1.69,2.53,3.13,4.3,2.45Z"/><g class="cls-15"><path d="M208.91,291.1a7.91,7.91,0,0,1,4.25-.71c.14,0,1.12.13.48,0a10,10,0,0,1,1.21.26c.39.1.78.23,1.17.37.92.33-.38-.27.46.21a9,9,0,0,1,3,2.41,8.36,8.36,0,0,1,1.59,3.43c.08.33.15.67.21,1-.11-.67,0,.64,0,.78,0,.34,0,.69,0,1,0,.15-.13,1,0,.44a11.65,11.65,0,0,1-.64,2.29c.24-.61-.15.26-.21.38-.22.39-.46.76-.7,1.14-.36.59.24-.2-.27.36-.22.25-.44.5-.68.74a12.12,12.12,0,0,1-1,.9c.49-.39-.35.23-.37.25-.33.21-.67.41-1,.59-.12.07-1.13.49-.53.27a13.57,13.57,0,0,1-2.27.61c-1.86.33-2.91,2.6-2.44,4.3a3.57,3.57,0,0,0,4.3,2.44,15.75,15.75,0,0,0,2.89-30.13,15.73,15.73,0,0,0-11.32-.15,3.6,3.6,0,0,0-2.44,4.3c.47,1.69,2.53,3.13,4.3,2.45Z"/></g><path class="cls-12" d="M213.06,549.28,245,581l5.61,32.34a12.76,12.76,0,0,0,14.71,9.28,5.08,5.08,0,0,0,1.5-.48h0c1.37-.75,4-5.06,4.21-6.6,2.69-17.31,7-40.24,2.56-45.66C271.08,566.8,245,528.18,245,528.18Z"/><path class="cls-6" d="M248.33,558.4s.21.13.55.42.84.74,1.47,1.32c1.25,1.17,3.07,2.87,5.12,5.17a34.52,34.52,0,0,1,6,9,23.09,23.09,0,0,1,1.74,6.19,53.25,53.25,0,0,1,.34,6.86c-.1,4.67.6,9.07.51,13.18s-1.22,7.85-3.3,10.24a9.33,9.33,0,0,1-6.43,3.3,6.76,6.76,0,0,1-2-.2,2.09,2.09,0,0,1-.65-.25,10.41,10.41,0,0,0,2.62.16,9.15,9.15,0,0,0,6.05-3.34c1.93-2.32,3-5.93,3-9.92s-.67-8.47-.56-13.16a55,55,0,0,0-.33-6.77,23,23,0,0,0-1.64-6,35.51,35.51,0,0,0-5.78-8.93c-2-2.32-3.74-4.07-4.93-5.3A18.7,18.7,0,0,1,248.33,558.4Z"/><path class="cls-6" d="M257.26,576.84c0,.22-2.94.57-6.39,1.7s-6.05,2.57-6.16,2.39,2.38-1.93,5.94-3.08S257.26,576.66,257.26,576.84Z"/><path class="cls-6" d="M257,587.44c0,.22-2.58.06-5.67.6s-5.46,1.51-5.55,1.31,2.22-1.49,5.43-2S257,587.26,257,587.44Z"/><path class="cls-6" d="M259.87,597.6c-.06.21-2.56-.39-5.7-.39s-5.65.58-5.7.37,2.44-1.11,5.7-1.09S259.94,597.43,259.87,597.6Z"/><path class="cls-6" d="M255.33,620a11.87,11.87,0,0,0,2.3,0,9.44,9.44,0,0,0,5.45-2.77c1.89-1.84,3.25-4.79,4.12-8.18s1.66-7.25,2.31-11.28A140.08,140.08,0,0,0,271.24,577c0-2.68,0-4.84-.07-6.35a15.51,15.51,0,0,1,0-2.33,14.51,14.51,0,0,1,.29,2.32c.11,1.5.26,3.67.29,6.36a120.83,120.83,0,0,1-1.52,21c-.66,4.06-1.46,7.88-2.38,11.33s-2.37,6.49-4.41,8.38a9.44,9.44,0,0,1-5.78,2.68,6.45,6.45,0,0,1-1.75-.12C255.52,620.1,255.32,620,255.33,620Z"/><path class="cls-6" d="M270.82,572.88a18.13,18.13,0,0,1-2-2.87c-1.2-1.8-2.89-4.26-4.89-6.87s-3.94-4.89-5.36-6.52a19.39,19.39,0,0,1-2.25-2.7,14.12,14.12,0,0,1,2.62,2.35,72.27,72.27,0,0,1,5.57,6.42,70.21,70.21,0,0,1,4.74,7A14.7,14.7,0,0,1,270.82,572.88Z"/><path class="cls-12" d="M317,481.1l9.59,44.22,24.34,22.23a12.82,12.82,0,0,1-.1,17.48,5.4,5.4,0,0,1-1.21,1h0c-1.38.76-6.43.63-7.87,0-16.11-7.08-37.84-15.83-40-22.51-1.25-3.82-19.83-46.79-19.83-46.79Z"/><path class="cls-6" d="M305.62,515.89a2.32,2.32,0,0,1,.21.67l.45,1.93c.4,1.67.93,4.11,1.82,7a35.82,35.82,0,0,0,4.44,9.71,22.89,22.89,0,0,0,4.21,4.65,53.63,53.63,0,0,0,5.55,3.93c4,2.46,7.42,5.48,10.83,7.6s7,3.18,10,2.8a9.24,9.24,0,0,0,6.11-3.32,11.29,11.29,0,0,0,1.28-2.3,2.37,2.37,0,0,1-.15.68,6.5,6.5,0,0,1-.91,1.79,9.31,9.31,0,0,1-6.26,3.66c-3.15.47-7-.59-10.45-2.74s-6.88-5.12-10.89-7.56a51.82,51.82,0,0,1-5.61-4,23.07,23.07,0,0,1-4.31-4.81,35.14,35.14,0,0,1-4.37-10,73.06,73.06,0,0,1-1.6-7.13c-.16-.85-.26-1.51-.33-2A2.94,2.94,0,0,1,305.62,515.89Z"/><path class="cls-6" d="M316.41,533.42c-.15-.1,1.52-2.67,4.43-5s5.74-3.53,5.81-3.36-2.54,1.6-5.35,3.93S316.58,533.56,316.41,533.42Z"/><path class="cls-6" d="M325.54,538.9c-.17-.06.83-2.55,3-5s4.56-3.66,4.65-3.5-2,1.65-4.12,4S325.73,539,325.54,538.9Z"/><path class="cls-6" d="M332.57,546.86c-.18,0,.37-2.67,2.14-5.43s3.9-4.38,4-4.24-1.71,2-3.4,4.63S332.78,546.92,332.57,546.86Z"/><path class="cls-6" d="M354,555.13a2.24,2.24,0,0,1-.15.6,6.62,6.62,0,0,1-.84,1.55,9.51,9.51,0,0,1-5.39,3.44c-2.7.7-6.07.28-9.48-.79s-7.1-2.48-10.89-4.12a122.49,122.49,0,0,1-18.56-10c-2.26-1.49-4-2.78-5.23-3.69a15.22,15.22,0,0,1-1.81-1.5,14.87,14.87,0,0,1,2,1.27c1.25.83,3.06,2.06,5.34,3.48a139.19,139.19,0,0,0,18.57,9.81c3.77,1.63,7.43,3,10.8,4.15s6.57,1.54,9.16.93a9.45,9.45,0,0,0,5.28-3.12A12.7,12.7,0,0,0,354,555.13Z"/><path class="cls-6" d="M305.73,542.76a14.32,14.32,0,0,1-1.81-3,70.69,70.69,0,0,1-3.4-7.83,73.78,73.78,0,0,1-2.43-8.18,14.82,14.82,0,0,1-.57-3.49,19.3,19.3,0,0,1,1.07,3.36c.61,2.09,1.49,4.95,2.62,8.06s2.3,5.87,3.18,7.86A21.77,21.77,0,0,1,305.73,542.76Z"/><path class="cls-16" d="M108.55,351.55A19.63,19.63,0,0,0,96.3,364.21c-2.18,6.53-1.09,14,1.69,20.16s8.06,9.9,14.78,10,13.47-2.8,19.81-4.82l24.61-7.86c4.27-1.36,2.45-8.11-1.86-6.74l-18.63,5.95c-5.82,1.86-11.63,3.95-17.54,5.52-4.44,1.18-9.71,1.92-13-2s-4.28-9.69-3.92-14.47c.37-4.94,3.32-10,8.19-11.66,4.24-1.43,2.42-8.18-1.86-6.74Z"/><g class="cls-18"><path d="M108.55,351.55A19.63,19.63,0,0,0,96.3,364.21c-2.18,6.53-1.09,14,1.69,20.16s8.06,9.9,14.78,10,13.47-2.8,19.81-4.82l24.61-7.86c4.27-1.36,2.45-8.11-1.86-6.74l-18.63,5.95c-5.82,1.86-11.63,3.95-17.54,5.52-4.44,1.18-9.71,1.92-13-2s-4.28-9.69-3.92-14.47c.37-4.94,3.32-10,8.19-11.66,4.24-1.43,2.42-8.18-1.86-6.74Z"/></g><path class="cls-16" d="M73.05,217.91c-5.93,1.2-9.53,7-9.77,12.75-.26,6.33,3.18,11.91,6.58,17a3.58,3.58,0,0,0,4.78,1.26,3.54,3.54,0,0,0,1.25-4.79c-2.47-3.67-5.38-7.85-5.6-12.14a8.73,8.73,0,0,1,.23-2.86c0-.2.44-1.3.26-.89a12.48,12.48,0,0,1,.68-1.24c.07-.13.3-.44.07-.15.14-.18.3-.36.46-.53s.42-.41.63-.61c.42-.38-.35.22.11-.1.19-.13.39-.25.59-.37s.63-.33.36-.2.32-.11.39-.13a8.59,8.59,0,0,1,.84-.21,3.5,3.5,0,0,0-1.86-6.74Z"/><g class="cls-19"><path d="M73.05,217.91c-5.93,1.2-9.53,7-9.77,12.75-.26,6.33,3.18,11.91,6.58,17a3.58,3.58,0,0,0,4.78,1.26,3.54,3.54,0,0,0,1.25-4.79c-2.47-3.67-5.38-7.85-5.6-12.14a8.73,8.73,0,0,1,.23-2.86c0-.2.44-1.3.26-.89a12.48,12.48,0,0,1,.68-1.24c.07-.13.3-.44.07-.15.14-.18.3-.36.46-.53s.42-.41.63-.61c.42-.38-.35.22.11-.1.19-.13.39-.25.59-.37s.63-.33.36-.2.32-.11.39-.13a8.59,8.59,0,0,1,.84-.21,3.5,3.5,0,0,0-1.86-6.74Z"/></g><rect class="cls-16" x="60.87" y="225.97" width="128.47" height="133.81" rx="14.35" transform="translate(-88.53 56.69) rotate(-19)"/><g class="cls-8"><rect x="60.87" y="225.97" width="128.47" height="133.81" rx="14.35" transform="translate(-88.53 56.69) rotate(-19)"/></g><rect class="cls-16" x="78.04" y="220.06" width="128.47" height="133.81" rx="14.35" transform="translate(-85.67 61.95) rotate(-19)"/><path class="cls-12" d="M76.86,255.07S64.15,265.48,61,276.52s-13.14,45.37-13.14,45.37S42,333.68,40,340.11C38.5,344.67,27.1,370,29.66,378c.24.76-5.61,14.14-5.61,14.14l27.53,9.21,5.7-14.4,2.35-1.38a11.37,11.37,0,0,0,4.86-5.79l15-40.15,11.88-32.62Z"/><path class="cls-6" d="M71.85,259.88a12.89,12.89,0,0,1,1.6,1.5,25,25,0,0,1,1.76,1.89c.65.77,1.44,1.61,2.18,2.63a60.51,60.51,0,0,1,4.94,7.41,62.79,62.79,0,0,1,7.29,20.49,62,62,0,0,1,.84,8.86c.07,1.27,0,2.42,0,3.42s-.09,1.87-.17,2.58a13.35,13.35,0,0,1-.3,2.18,13.33,13.33,0,0,1,0-2.2c0-.7.07-1.56,0-2.56s0-2.14-.08-3.4a66.23,66.23,0,0,0-1-8.77,71.18,71.18,0,0,0-2.77-10.43,72.08,72.08,0,0,0-4.43-9.84A66.69,66.69,0,0,0,77,266.21c-.71-1-1.46-1.89-2.08-2.68s-1.18-1.44-1.66-2A12.91,12.91,0,0,1,71.85,259.88Z"/><path class="cls-6" d="M63.38,270.46A9.39,9.39,0,0,1,65,271.59c1,.75,2.37,1.92,4,3.45a71.57,71.57,0,0,1,5.41,5.69,79.41,79.41,0,0,1,5.73,7.74,77.76,77.76,0,0,1,4.65,8.44,70,70,0,0,1,2.92,7.3,52.42,52.42,0,0,1,1.46,5.08,9.68,9.68,0,0,1,.36,1.91,10.94,10.94,0,0,1-.63-1.83c-.35-1.2-.92-2.91-1.68-5s-1.78-4.53-3-7.18a78.11,78.11,0,0,0-10.28-16c-1.88-2.25-3.67-4.2-5.26-5.76s-2.9-2.79-3.84-3.61A9.67,9.67,0,0,1,63.38,270.46Z"/><path class="cls-14" d="M45.19,327.51C54.47,335.85,67,341.38,79.43,340l2-5.33C69,336.37,56.19,331.4,47.68,322.15Z"/><path class="cls-6" d="M82.5,331.53a5.74,5.74,0,0,1-1.45.18,28.49,28.49,0,0,1-4,0,39,39,0,0,1-12.68-3.08,54.7,54.7,0,0,1-11.28-6.56c-1.34-1-2.39-1.85-3.09-2.46a5.82,5.82,0,0,1-1-1c.07-.1,1.69,1.17,4.43,3A63.86,63.86,0,0,0,64.7,328a43.33,43.33,0,0,0,12.43,3.24C80.43,331.52,82.49,331.39,82.5,331.53Z"/><path class="cls-6" d="M77,344.46a5.93,5.93,0,0,1-1.44.19,28.65,28.65,0,0,1-4,0,39.47,39.47,0,0,1-12.68-3.08A54.7,54.7,0,0,1,47.61,335c-1.34-1-2.39-1.85-3.09-2.47a5.46,5.46,0,0,1-1-1c.07-.09,1.7,1.18,4.43,3.06a64.22,64.22,0,0,0,11.27,6.31,43.64,43.64,0,0,0,12.44,3.24C74.91,344.45,77,344.32,77,344.46Z"/><path class="cls-14" d="M64.7,288.44a9.72,9.72,0,0,0-3.09-2.37,3.31,3.31,0,0,0-3.64.58,4.83,4.83,0,0,0-.9,2q-2,7.09-3.91,14.18a6.09,6.09,0,0,0-.33,2.42,3.82,3.82,0,0,0,2,2.73c2.21,1.18,5.07.42,6.93-1.26a13.72,13.72,0,0,0,3.6-6.48C66.58,296.27,67.34,291.18,64.7,288.44Z"/><path class="cls-6" d="M53.94,390.93a4.94,4.94,0,0,1-1.22-.3l-3.28-1.08c-2.77-.93-6.63-2.28-11-3.85l-.34-.12.12-.34c.33-.89.66-1.83,1-2.78.13-.37.26-.73.39-1.07l.11-.33.34.11c4.83,1.53,9.15,2.94,12.25,4,1.55.53,2.79,1,3.65,1.28l1,.38c.1.06.21.05.2.14s.11,0,.12,0,0-.05-.05,0-.19,0-.31,0l-1-.25c-.88-.24-2.15-.6-3.72-1.06-3.14-.92-7.49-2.25-12.32-3.78l.45-.22c-.12.34-.26.7-.39,1.07-.34,1-.68,1.88-1,2.78l-.22-.47c4.36,1.6,8.18,3,10.91,4.09l3.2,1.27A5.3,5.3,0,0,1,53.94,390.93Z"/><path class="cls-6" d="M27.07,385.08c.07-.19,6.15,1.84,13.58,4.53s13.39,5,13.32,5.22S47.83,393,40.4,390.29,27,385.27,27.07,385.08Z"/><path class="cls-20" d="M24.28,395.22l24.47,8.87A1.85,1.85,0,0,0,51.12,403h0A1.85,1.85,0,0,0,50,400.61l-24.47-8.87a1.85,1.85,0,0,0-2.37,1.11h0A1.86,1.86,0,0,0,24.28,395.22Z"/><path class="cls-12" d="M49.27,403.15s4.57,9,4.8,14.92.19,10.32-2.43,12.21-5.19,1.48-5.46-1.47.81-4.78-.74-8.27-2.67-4-2.67-4S38.26,426.17,39.4,429s7.52,9.48,3.35,11.43-8.42-2.27-8.42-2.27-4,3.86-8.38-.9A10.35,10.35,0,0,1,17.72,429s-5.48-.81-5.11-5.7,2.76-14.23,5-18.61a57.55,57.55,0,0,1,3.84-6.36c.08-.26,2.66-4.48,2.66-4.48Z"/><path class="cls-6" d="M29.61,422.81c.24,0-.35,3.71,1,8s3.9,7,3.72,7.1-.79-.52-1.72-1.7a16.82,16.82,0,0,1-3.46-11A6,6,0,0,1,29.61,422.81Z"/><path class="cls-6" d="M22.78,418.18c.24,0-1.18,4.36-.26,9.71s3.57,9,3.36,9.12a7.84,7.84,0,0,1-1.74-2.35A20.18,20.18,0,0,1,21.89,421,7.65,7.65,0,0,1,22.78,418.18Z"/><path class="cls-6" d="M19,415.15c.21.06-.58,3.16-.88,7.07s0,7.11-.25,7.13-.81-3.18-.48-7.18S18.83,415.09,19,415.15Z"/><path class="cls-6" d="M16.47,408.76c.08-.09,1.56,1.35,4.48,3.14a61.43,61.43,0,0,0,12.5,5.49l-.45.22a50.57,50.57,0,0,1,2.21-5.2A49.26,49.26,0,0,1,38.32,407l.17.52a88.85,88.85,0,0,1-12.14-5.58c-1.46-.8-2.59-1.49-3.36-2a5.65,5.65,0,0,1-1.14-.82,8,8,0,0,1,1.27.61l3.44,1.8a109.65,109.65,0,0,0,12.17,5.31l.42.15-.24.38a53.42,53.42,0,0,0-3,5.38,51.45,51.45,0,0,0-2.19,5.12l-.12.33-.33-.12a54.74,54.74,0,0,1-12.52-5.78,27.25,27.25,0,0,1-3.21-2.46A6.25,6.25,0,0,1,16.47,408.76Z"/><path class="cls-6" d="M46.44,427.15c-.06-.06.17-.47.8-.88a4,4,0,0,1,5.3,1c.43.61.5,1.08.41,1.11s-.32-.32-.8-.78a4.55,4.55,0,0,0-2.2-1.17,4.48,4.48,0,0,0-2.47.28C46.87,427,46.52,427.23,46.44,427.15Z"/><path class="cls-6" d="M37.9,440.47c-.08,0-.35-.45-.45-1.31a5.78,5.78,0,0,1,2.94-5.68c.76-.41,1.3-.47,1.32-.38s-1.9,1-3,3.11S38.11,440.44,37.9,440.47Z"/><path class="cls-6" d="M49.93,404.3A26.24,26.24,0,0,1,46,403l-9.47-3.43L27.05,396a23,23,0,0,1-3.85-1.63,24.19,24.19,0,0,1,4,1.15c2.45.8,5.82,2,9.52,3.31s7,2.65,9.4,3.64A21.48,21.48,0,0,1,49.93,404.3Z"/><path class="cls-12" d="M91.13,312.2c.3.49,24.75,47.88,24.75,47.88S126,392.45,133,402.13l96.36-58L212,310.23l-29.83-94.07L168,218.89s-68.39,24.54-77.43,28-13.71,8.23-13.71,8.23S80.08,294.68,91.13,312.2Z"/><g class="cls-8"><rect x="117.89" y="276.87" width="70.37" height="59.52" rx="9.47" transform="translate(-97.05 72.34) rotate(-20.34)"/></g><path class="cls-16" d="M83.46,250.31c17,5.17,25.75,22.29,33.26,36.95,2,4,8.09.47,6-3.53-8.45-16.48-18.52-34.39-37.44-40.16-4.32-1.32-6.16,5.43-1.86,6.74Z"/><g class="cls-15"><path d="M83.46,250.31c17,5.17,25.75,22.29,33.26,36.95,2,4,8.09.47,6-3.53-8.45-16.48-18.52-34.39-37.44-40.16-4.32-1.32-6.16,5.43-1.86,6.74Z"/></g><rect class="cls-16" x="118.91" y="274.28" width="70.37" height="59.52" rx="9.47" transform="matrix(0.94, -0.35, 0.35, 0.94, -96.08, 72.53)"/><path class="cls-6" d="M188.54,323a16.8,16.8,0,0,0,2.14-1.22,9.4,9.4,0,0,0,3.7-5.76,9.25,9.25,0,0,0-.36-5c-.66-1.75-1.37-3.66-2.14-5.7-1.53-4.11-3.28-8.77-5.21-13.93l-6.31-16.87a12.87,12.87,0,0,0-2.15-4.3,9.15,9.15,0,0,0-9-3.11,18.22,18.22,0,0,0-2.5.82l-2.54.95-44.42,16.5a9.08,9.08,0,0,0-4.57,3.75,9,9,0,0,0-1.33,5.68,10.38,10.38,0,0,0,.73,2.86l1.06,2.85c.7,1.89,1.39,3.77,2.08,5.62,2.75,7.44,5.4,14.61,7.93,21.44l1.86,5.06a19.11,19.11,0,0,0,2.1,4.69,9.17,9.17,0,0,0,8.47,3.73,19.69,19.69,0,0,0,4.49-1.37l4.32-1.59,8.11-3,24.5-9,6.68-2.4,1.74-.61c.39-.13.6-.18.6-.18l-.57.25-1.72.68-6.63,2.53-24.42,9.17-8.1,3-4.31,1.61a20.31,20.31,0,0,1-4.61,1.42,9.78,9.78,0,0,1-9.06-3.95,10.35,10.35,0,0,1-1.28-2.36c-.3-.82-.61-1.65-.92-2.48q-.93-2.49-1.88-5.06c-2.54-6.82-5.21-14-8-21.42-.69-1.86-1.38-3.73-2.09-5.62l-1-2.84a11.12,11.12,0,0,1-.78-3.05,9.74,9.74,0,0,1,1.43-6.14,9.91,9.91,0,0,1,4.94-4L164,268.29l2.54-.94a17.82,17.82,0,0,1,2.59-.84,9.81,9.81,0,0,1,5.35.35,10,10,0,0,1,4.25,3,13.52,13.52,0,0,1,2.24,4.49c2.23,6.07,4.32,11.73,6.22,16.91s3.61,9.84,5.12,13.95c.74,2.06,1.44,4,2.08,5.74a9.54,9.54,0,0,1,.3,5.14,9.42,9.42,0,0,1-3.89,5.82A7.74,7.74,0,0,1,188.54,323Z"/><path class="cls-11" d="M152.91,311.06l-20.2,7.49a2.86,2.86,0,0,1-3.66-1.68h0a2.85,2.85,0,0,1,1.68-3.65l20.2-7.49a2.83,2.83,0,0,1,3.65,1.68h0A2.84,2.84,0,0,1,152.91,311.06Z"/><path class="cls-11" d="M136.37,323.6a2.37,2.37,0,1,1-3.05-1.4A2.37,2.37,0,0,1,136.37,323.6Z"/><path class="cls-11" d="M144,320.78a2.37,2.37,0,1,1-3-1.4A2.37,2.37,0,0,1,144,320.78Z"/><path class="cls-11" d="M151.31,318.06a2.37,2.37,0,1,1-3.05-1.4A2.36,2.36,0,0,1,151.31,318.06Z"/><path class="cls-11" d="M158.65,315.34a2.37,2.37,0,1,1-3-1.4A2.36,2.36,0,0,1,158.65,315.34Z"/><path class="cls-11" d="M146.22,293.43,126,300.92a2.85,2.85,0,0,1-3.65-1.68h0a2.85,2.85,0,0,1,1.67-3.66l20.2-7.48a2.85,2.85,0,0,1,3.66,1.67h0A2.86,2.86,0,0,1,146.22,293.43Z"/><path class="cls-5" d="M129.68,306a2.37,2.37,0,1,1-3.05-1.4A2.37,2.37,0,0,1,129.68,306Z"/><path class="cls-14" d="M137.28,303.15a2.37,2.37,0,1,1-3.05-1.4A2.36,2.36,0,0,1,137.28,303.15Z"/><path class="cls-5" d="M144.62,300.43a2.37,2.37,0,1,1-3-1.4A2.36,2.36,0,0,1,144.62,300.43Z"/><path class="cls-14" d="M152,297.7a2.37,2.37,0,1,1-3-1.39A2.37,2.37,0,0,1,152,297.7Z"/><path class="cls-14" d="M117.49,364.57s31-4.33,60.62-18.87,38.75-26,38.75-26l5.44,10.64s-28.94,30.85-101.48,45.28C120.82,375.62,116.71,367.72,117.49,364.57Z"/><path class="cls-6" d="M152.43,272.92a4.2,4.2,0,0,1,.4.87c.26.66.59,1.5,1,2.56.88,2.31,2.09,5.52,3.57,9.45l11.51,31.27,1,2.77.13.35-.34.12-29.5,10.59-8.88,3.1-2.41.81a4.52,4.52,0,0,1-.86.24,3.63,3.63,0,0,1,.81-.37l2.37-.93,8.8-3.32,29.42-10.81-.22.47-1-2.77c-4.4-12.21-8.39-23.25-11.31-31.34-1.4-4-2.53-7.2-3.35-9.53-.36-1.08-.66-1.94-.88-2.61A5.28,5.28,0,0,1,152.43,272.92Z"/><g class="cls-8"><polygon points="169.58 319.97 168.9 321.84 128.78 336.99 128.06 335.05 169.58 319.97"/></g><rect class="cls-6" x="161.34" y="276.97" width="16.87" height="16.87" rx="1.66" transform="matrix(0.94, -0.35, 0.35, 0.94, -88.62, 76.82)"/><path class="cls-6" d="M182.48,298.21l-13,4.49a2.17,2.17,0,0,1-2.76-1.35h0A2.16,2.16,0,0,1,168,298.6l13-4.49a2.16,2.16,0,0,1,2.75,1.34h0A2.17,2.17,0,0,1,182.48,298.21Z"/><path class="cls-6" d="M191.12,304c.07.19-5.28,2.31-12,4.72S167,313,167,312.79s5.28-2.3,11.95-4.72S191.06,303.84,191.12,304Z"/><path class="cls-14" d="M178.93,317.88a2.3,2.3,0,1,1-1.88-2.65A2.3,2.3,0,0,1,178.93,317.88Z"/><path class="cls-5" d="M187,315.22a2.3,2.3,0,1,1-1.88-2.65A2.3,2.3,0,0,1,187,315.22Z"/><polygon class="cls-11" points="130.17 361.9 134.52 373.86 141.97 371.82 137.5 358.46 130.17 361.9"/><polygon class="cls-11" points="200.91 331.69 208.58 341.84 215.11 337.71 206.91 326.24 200.91 331.69"/><path class="cls-6" d="M213.84,314.78a6.07,6.07,0,0,1-.82.73l-2.45,2c-1.07.87-2.38,1.91-3.95,3.06s-3.32,2.52-5.35,3.9-4.21,3-6.64,4.5-5,3.19-7.8,4.89c-5.58,3.3-11.84,6.72-18.59,10s-13.35,5.95-19.43,8.23c-3.05,1.09-5.94,2.16-8.7,3s-5.31,1.67-7.66,2.35-4.51,1.23-6.39,1.72-3.52.88-4.86,1.17l-3.09.66a7.11,7.11,0,0,1-1.08.18,5.08,5.08,0,0,1,1-.33l3-.79c1.33-.33,3-.74,4.82-1.28s4-1.08,6.35-1.82,4.91-1.49,7.63-2.43,5.61-2,8.65-3.08c6-2.31,12.61-5.05,19.35-8.26s13-6.64,18.56-9.9c2.76-1.67,5.41-3.23,7.81-4.82s4.66-3,6.68-4.42,3.81-2.67,5.4-3.8,2.93-2.12,4-3l2.54-1.89A5.71,5.71,0,0,1,213.84,314.78Z"/><path class="cls-6" d="M124.94,358.34c-.18.1-7.8-12.8-17-28.81s-16.57-29.07-16.39-29.17,7.79,12.79,17,28.81S125.11,358.24,124.94,358.34Z"/><path class="cls-6" d="M192.05,259a16.73,16.73,0,0,1,.55,2.43c.34,1.69.79,3.94,1.33,6.66,1.14,5.62,2.84,13.35,5.06,21.81s4.55,16,6.33,21.48c.86,2.64,1.58,4.82,2.12,6.45a16.81,16.81,0,0,1,.71,2.39,16.29,16.29,0,0,1-1-2.29c-.59-1.49-1.39-3.67-2.34-6.38-1.9-5.42-4.31-13-6.54-21.46s-3.86-16.25-4.87-21.9c-.5-2.83-.88-5.12-1.1-6.71A16.52,16.52,0,0,1,192.05,259Z"/><rect class="cls-6" x="150.71" y="355.18" width="10.37" height="11.85" transform="translate(-98.68 61.28) rotate(-16.98)"/><path class="cls-12" d="M160.11,202.44c-4.76,28-30.68,43.15-58.66,38.39S54,213.18,58.79,185.2a51.39,51.39,0,1,1,101.32,17.24Z"/><path class="cls-6" d="M160.11,202.44s0-.28.06-.82.14-1.36.25-2.4c.05-.53.12-1.11.19-1.76s0-1.36,0-2.14a36.6,36.6,0,0,0-.15-5.32c-.09-1-.16-2.06-.29-3.16s-.43-2.24-.65-3.44a53.71,53.71,0,0,0-2.25-7.6,50.75,50.75,0,0,0-10.06-16.35,50.18,50.18,0,0,0-31.71-16.27,50.38,50.38,0,0,0-13.75.18l-3.51.65c-1.17.23-2.31.64-3.48,1l-1.74.51-1.71.67c-1.12.47-2.3.86-3.4,1.41a53.16,53.16,0,0,0-12.57,8.32c-.93.88-1.87,1.77-2.8,2.67L70,161.48a34.77,34.77,0,0,0-2.36,3.14l-1.14,1.62c-.35.56-.66,1.14-1,1.72-.62,1.16-1.39,2.26-1.91,3.5s-1.09,2.45-1.64,3.67a55.65,55.65,0,0,0-2.29,7.78,46.3,46.3,0,0,0,3.57,31,48.92,48.92,0,0,0,20.64,20.62,58.43,58.43,0,0,0,12.84,5l3.26.7,1.62.34,1.62.21,3.21.41c1.07.09,2.13.1,3.18.15a59.24,59.24,0,0,0,12.12-.81l2.83-.65a24.47,24.47,0,0,0,2.74-.72,44.94,44.94,0,0,0,5.16-1.88,46.17,46.17,0,0,0,15.76-10.9,42.43,42.43,0,0,0,8.09-12.06,24.46,24.46,0,0,0,1.14-2.59l.81-2.36c.24-.74.5-1.4.67-2s.28-1.21.41-1.73c.24-1,.42-1.78.55-2.34s.22-.79.22-.79,0,.27-.14.81-.28,1.34-.49,2.36c-.11.52-.24,1.1-.37,1.74s-.41,1.3-.65,2-.5,1.54-.78,2.38a23.65,23.65,0,0,1-1.11,2.63,42.51,42.51,0,0,1-8,12.22,46.58,46.58,0,0,1-15.86,11.1,45.68,45.68,0,0,1-5.2,1.91,23,23,0,0,1-2.77.74l-2.85.67a59.1,59.1,0,0,1-12.25.87c-1.06,0-2.14-.06-3.21-.15l-3.24-.41-1.65-.2-1.63-.34-3.3-.7a59,59,0,0,1-13-5,49.53,49.53,0,0,1-21-20.89A46.89,46.89,0,0,1,59,182.76a55.52,55.52,0,0,1,2.33-7.89c.55-1.25,1.11-2.49,1.66-3.73a39.31,39.31,0,0,1,1.94-3.55c.34-.58.65-1.18,1-1.74l1.16-1.64a34.08,34.08,0,0,1,2.4-3.19l2.6-3,2.84-2.7a54,54,0,0,1,12.75-8.43c1.13-.55,2.32-.94,3.46-1.42l1.73-.67,1.77-.51c1.18-.32,2.33-.73,3.52-1l3.56-.65a50.49,50.49,0,0,1,13.93-.16,53.25,53.25,0,0,1,12.76,3.18,52.5,52.5,0,0,1,19.25,13.38,50.86,50.86,0,0,1,10.06,16.56,53.56,53.56,0,0,1,2.21,7.67c.21,1.21.42,2.36.62,3.47s.18,2.17.27,3.18a37.59,37.59,0,0,1,.08,5.35c0,.78,0,1.49-.08,2.14s-.16,1.24-.23,1.77c-.13,1-.24,1.82-.32,2.39S160.11,202.44,160.11,202.44Z"/><g class="cls-21"><path d="M125.3,144.91s-57.79-2.7-48.08,60h0A36.76,36.76,0,0,0,96.5,222c16.45,6.29,44.08,11.17,62.49-15.76l.76-1.68S169.55,161.51,125.3,144.91Z"/></g><path class="cls-22" d="M136.68,224.27s12.48-4.12,14.5-9.57a15.79,15.79,0,0,0-.39-11.39c-2.5-6.5-8.74-19.47-14.53-31.13-6.21-12.55-19-15.2-32-10l-1.29.52c-13.61,6.37-17.8,18.49-11,31.92l15.31,30.5s9.62,2.43,15.92,1.76A106.36,106.36,0,0,0,136.68,224.27Z"/><path class="cls-6" d="M137.93,186.44a2.05,2.05,0,0,1-1.08,2.66,2,2,0,0,1-2.66-.94,2.06,2.06,0,0,1,1.08-2.66A2,2,0,0,1,137.93,186.44Z"/><path class="cls-6" d="M135.78,179.23c-.14.34-2-.15-4.07.67s-3.16,2.46-3.48,2.3c-.15-.07-.09-.62.37-1.36a5.67,5.67,0,0,1,2.66-2.14,5.38,5.38,0,0,1,3.37-.23C135.45,178.7,135.85,179.07,135.78,179.23Z"/><path class="cls-6" d="M119.66,194.54a2.05,2.05,0,0,1-1.07,2.66,2,2,0,0,1-2.66-.93A2.06,2.06,0,0,1,117,193.6,2,2,0,0,1,119.66,194.54Z"/><path class="cls-6" d="M115.8,187.75c-.14.35-2-.15-4.07.68s-3.16,2.46-3.48,2.29c-.16-.06-.1-.61.37-1.35a5.68,5.68,0,0,1,2.66-2.15,5.44,5.44,0,0,1,3.37-.22C115.47,187.23,115.87,187.59,115.8,187.75Z"/><path class="cls-6" d="M129.49,200.62a14.36,14.36,0,0,1,3.1-1.94c.5-.26,1-.57.9-1s-.47-.91-1-1.42l-3.15-3.38c-4.43-4.83-7.86-8.89-7.67-9.07s4,3.6,8.38,8.43l3.1,3.43a3.28,3.28,0,0,1,1.09,2,1.39,1.39,0,0,1-.55,1.11,3.74,3.74,0,0,1-.85.48A14.55,14.55,0,0,1,129.49,200.62Z"/><path class="cls-6" d="M113.89,181.05c-.07.64-2.28.88-4.74,1.8s-4.32,2.1-4.79,1.66c-.21-.22,0-.85.7-1.62a8.5,8.5,0,0,1,3.33-2.16,8.32,8.32,0,0,1,3.93-.47C113.34,180.4,113.92,180.75,113.89,181.05Z"/><path class="cls-6" d="M133.46,173.14c-.24.64-2.1.85-4.11,1.66s-3.57,1.85-4.16,1.53c-.27-.16-.2-.74.36-1.49a7,7,0,0,1,3-2.15,6.87,6.87,0,0,1,3.65-.42C133.12,172.45,133.55,172.83,133.46,173.14Z"/><path class="cls-22" d="M98,199.07c-.27,0-10.29,1-6.34,10s12.79,2.8,12.69,2.53S98,199.07,98,199.07Z"/><path class="cls-23" d="M99.46,209.79s-.11.18-.32.42a1.69,1.69,0,0,1-1.17.53c-1.1.07-2.57-1.09-3.33-2.7a5.7,5.7,0,0,1-.54-2.45,2,2,0,0,1,.66-1.73.87.87,0,0,1,1.12,0c.23.2.25.41.3.4s.13-.24-.1-.58a1.14,1.14,0,0,0-.61-.41,1.32,1.32,0,0,0-1,.15,2.43,2.43,0,0,0-1,2.12,5.78,5.78,0,0,0,.55,2.76c.86,1.79,2.53,3.09,4,2.9a1.85,1.85,0,0,0,1.34-.87C99.54,210,99.5,209.79,99.46,209.79Z"/><g class="cls-8"><path d="M159.36,223.62l-58.87,24.93c5.28,2.37,11.28,2.76,17,2a88.24,88.24,0,0,0,16.78-4.33,69.55,69.55,0,0,0,13-5.42,24.75,24.75,0,0,0,9.89-9.83A21.69,21.69,0,0,0,159.36,223.62Z"/></g><path class="cls-24" d="M93.38,242.7l-.85-2L94,239s10.88,3.53,33-3.19c23.17-7.07,27.33-17.78,27.33-17.78l2.51-.75,2.35,5.42s-4.69,15.78-32.19,23c-13.4,3.5-21.38,3.68-26,2.94A9.85,9.85,0,0,1,93.38,242.7Z"/><path class="cls-6" d="M93.38,242.7s.23.49.78,1.35a9.93,9.93,0,0,0,3.16,3.07,9.79,9.79,0,0,0,3,1.2,26.49,26.49,0,0,0,3.8.41,54.42,54.42,0,0,0,9.36-.56A109.48,109.48,0,0,0,124.62,246,83.72,83.72,0,0,0,137,241.91a49.93,49.93,0,0,0,12.41-7.29,38.35,38.35,0,0,0,5.4-5.34,23.81,23.81,0,0,0,4-6.66v.25c-.15-.36-.32-.74-.49-1.12-.62-1.45-1.25-2.9-1.86-4.3l.44.2-2.52.75.24-.22a18.39,18.39,0,0,1-3.49,4.82,33.48,33.48,0,0,1-4.34,3.78,53.14,53.14,0,0,1-9.46,5.48,94.82,94.82,0,0,1-18.39,6c-11.38,2.52-20.46,2.22-25,.89l.12,0-1.51,1.67v-.09c.25.65.45,1.15.6,1.52a3.84,3.84,0,0,1,.17.51,1.78,1.78,0,0,1-.25-.47l-.67-1.49,0-.05,0,0,1.47-1.71,0-.05.08,0c4.47,1.18,13.48,1.37,24.77-1.23a95.17,95.17,0,0,0,18.24-6,53,53,0,0,0,9.32-5.44,32.86,32.86,0,0,0,4.24-3.7,18,18,0,0,0,3.33-4.59l.08-.17.16-.05,2.51-.75.31-.09.13.3,1.86,4.3.49,1.12.06.13-.05.12c-2,5.18-5.72,9.12-9.62,12.34a50.12,50.12,0,0,1-12.58,7.36,85.19,85.19,0,0,1-12.55,4,105.87,105.87,0,0,1-11.26,2.12,52.68,52.68,0,0,1-9.45.46,23.53,23.53,0,0,1-3.86-.48,9.94,9.94,0,0,1-3-1.29A9.63,9.63,0,0,1,94,244.12,6.46,6.46,0,0,1,93.38,242.7Z"/><path class="cls-11" d="M81.65,204.12c1.26,4.24-.68,8.55-4.33,9.64s-7.64-1.46-8.9-5.69.68-8.55,4.33-9.64S80.39,199.89,81.65,204.12Z"/><path class="cls-6" d="M81.65,204.12c-.07,0-.25-.61-.83-1.63a8.33,8.33,0,0,0-3.47-3.34,6.6,6.6,0,0,0-3.22-.66,5.82,5.82,0,0,0-3.41,1.45,8.19,8.19,0,0,0,4.08,13.67,5.86,5.86,0,0,0,3.64-.66,6.45,6.45,0,0,0,2.33-2.31,8.28,8.28,0,0,0,1.08-4.7c-.07-1.16-.27-1.8-.2-1.82s.09.15.19.45a6.73,6.73,0,0,1,.29,1.35,8.17,8.17,0,0,1-.91,5,7,7,0,0,1-2.48,2.58,6.48,6.48,0,0,1-4,.8,8.81,8.81,0,0,1-4.43-14.85,6.41,6.41,0,0,1,3.82-1.54,6.94,6.94,0,0,1,3.48.8,8.17,8.17,0,0,1,3.49,3.67,7.38,7.38,0,0,1,.5,1.29C81.65,204,81.68,204.12,81.65,204.12Z"/><path class="cls-3" d="M149.71,171.4c-3.55-11.2-13.21-20.58-24.79-22.51a2.7,2.7,0,0,0-2,.26,2.45,2.45,0,0,0-1.17,2.24c.53,4.18,10.63,4.61,14.54,8.93s6.55,9.19,9.51,14.21c.45.76,1,1.6,1.87,1.79a2.23,2.23,0,0,0,2.37-1.74A5.81,5.81,0,0,0,149.71,171.4Z"/><path class="cls-6" d="M156.88,217.72a2.49,2.49,0,0,1-.24.7c-.2.45-.5,1.1-.94,1.91a27.47,27.47,0,0,1-4.72,6.24,26.74,26.74,0,0,1-4.24,3.37q-2.43,1.62-5.33,3.17a73.66,73.66,0,0,1-13.1,5.45,108.77,108.77,0,0,1-13.83,3.14A66,66,0,0,1,103,242.78a29.14,29.14,0,0,1-7.75-1,18.06,18.06,0,0,1-2-.71,2.4,2.4,0,0,1-.67-.33c0-.06,1,.33,2.75.77a31.39,31.39,0,0,0,7.67.79A68.65,68.65,0,0,0,114.37,241a112.76,112.76,0,0,0,13.73-3.17,76.1,76.1,0,0,0,13-5.34c1.92-1,3.7-2,5.31-3.08a27.82,27.82,0,0,0,4.22-3.24,30.07,30.07,0,0,0,4.82-6C156.41,218.63,156.83,217.7,156.88,217.72Z"/><path class="cls-12" d="M168,218.89c.49-.4,18.56-6.28,32.63-.46,8.82,3.65,28.13,14.43,41.44,27.49s36.26,40,36.95,43.51a12.13,12.13,0,0,1-.52,6.38l6.93,12.55-18.8,15.26-8.94-9s-4.93-.06-11.29-6.56-19.61-28.83-27.71-34.46-34.67-16.33-37-16.87S168,218.89,168,218.89Z"/><path class="cls-6" d="M259.68,316.61a28.09,28.09,0,0,1,3.28-3c2.1-1.79,5.06-4.24,8.43-7l-.05.5L269.58,305l-.67-.84.5.07c-3.83,2.85-7.28,5.37-9.79,7.15-1.26.9-2.27,1.61-3,2.09-.35.24-.63.42-.83.53s-.14.13-.28.11,0,0,0,0,0,0,.1-.06.06-.11.13-.2l.75-.64c.66-.55,1.63-1.32,2.85-2.27,2.43-1.89,5.83-4.48,9.65-7.34l.28-.2.22.27.68.83,1.75,2.16.22.28-.28.23c-3.39,2.73-6.4,5.12-8.58,6.81A30.1,30.1,0,0,1,259.68,316.61Z"/><path class="cls-6" d="M282.5,302.51c.12.16-4.32,4-9.92,8.52s-10.25,8.1-10.37,8,4.31-4,9.91-8.52S282.37,302.35,282.5,302.51Z"/><path class="cls-6" d="M235.13,239.64a26.23,26.23,0,0,1-2.44,3.28c-1.55,2-3.69,4.73-5.95,7.84-1.62,2.22-3.08,4.33-4.3,6.1l-.15.22-.23-.11c-1.76-.84-3.21-1.55-4.22-2.07a7.08,7.08,0,0,1-1.54-.9,6.29,6.29,0,0,1,1.69.58c1,.42,2.54,1,4.32,1.83l-.38.11c1.16-1.82,2.59-4,4.22-6.19,2.27-3.12,4.48-5.83,6.14-7.74A20.65,20.65,0,0,1,235.13,239.64Z"/><path class="cls-6" d="M228,234.64a16.91,16.91,0,0,1-1.84,2.77c-1.18,1.67-2.8,4-4.48,6.61s-3.13,5.06-4.15,6.83a17.69,17.69,0,0,1-1.76,2.83,13.77,13.77,0,0,1,1.3-3.07,77.68,77.68,0,0,1,8.68-13.51A13.75,13.75,0,0,1,228,234.64Z"/><path class="cls-6" d="M226.3,232.68a7.08,7.08,0,0,1-.86,1.36c-.59.83-1.44,2.06-2.46,3.58A121.17,121.17,0,0,0,215.72,250a122.61,122.61,0,0,0-5.67,13.16c-.63,1.73-1.11,3.13-1.44,4.11a6.63,6.63,0,0,1-.59,1.49,6.85,6.85,0,0,1,.32-1.57c.24-1,.66-2.44,1.22-4.2a94,94,0,0,1,13-25.64c1.09-1.49,2-2.68,2.66-3.47A6.61,6.61,0,0,1,226.3,232.68Z"/><path class="cls-6" d="M218.79,230.56c.09.08-1.33,1.78-3.42,4.67a96.88,96.88,0,0,0-7.31,11.85,94.93,94.93,0,0,0-5.45,12.81c-1.15,3.37-1.73,5.51-1.84,5.49a5.94,5.94,0,0,1,.26-1.54c.2-1,.57-2.39,1.09-4.11a77.71,77.71,0,0,1,5.29-13A78.5,78.5,0,0,1,215,234.92c1.1-1.41,2-2.53,2.72-3.26A6.54,6.54,0,0,1,218.79,230.56Z"/><g class="cls-8"><path d="M213.85,225.19c-3.36,7.07-5.8,11.27-9.17,18.35a2.08,2.08,0,0,1-.87,1.08,2.06,2.06,0,0,1-1.64-.25l-7.81-3.57a4.17,4.17,0,0,1-1.71-1.16,4,4,0,0,1-.46-2.87c.68-6.85,3.42-13,7-18.88,0,0,2.77,1,7.26,3.21C210.64,223.15,213.85,225.19,213.85,225.19Z"/></g><path class="cls-25" d="M287.36,311.27l-19,15.43a1.73,1.73,0,0,1-2.45-.25h0a1.74,1.74,0,0,1,.25-2.45l19-15.43a1.74,1.74,0,0,1,2.45.25h0A1.75,1.75,0,0,1,287.36,311.27Z"/><path class="cls-12" d="M268,326.08s-.45,8.74,1.46,13.51,3.48,8.24,6.22,8.81,4.64-.66,3.8-3.08-2.32-3.5-2.32-6.81.72-4.1.72-4.1,6.95,6,7,8.7-2.61,10.15,1.38,10.22,5.87-4.76,5.87-4.76,4.53,1.64,6.32-3.66a9,9,0,0,0,3.6-9.47s4.06-2.57,2-6.31-7.2-10.29-10.54-13a48,48,0,0,0-5.28-3.68l-1.61-2.11Z"/><path class="cls-6" d="M290.46,334.73c.12-.14,2.24,2.54,2.67,6.58s-1,7.12-1.11,7,.86-3.11.39-6.94S290.26,334.83,290.46,334.73Z"/><path class="cls-6" d="M294.25,328.65a6.3,6.3,0,0,1,1.71,1.87A17.37,17.37,0,0,1,299,342.19a6.17,6.17,0,0,1-.58,2.46c-.24,0,.61-3.86-.61-8.39S294.05,328.78,294.25,328.65Z"/><path class="cls-6" d="M296.17,324.92c.13-.13,2.14,1.9,3.79,5s2.29,5.84,2.11,5.88-1.11-2.56-2.75-5.54S296,325.06,296.17,324.92Z"/><path class="cls-6" d="M295.92,319a4.07,4.07,0,0,1-.42,1.2,22.16,22.16,0,0,1-1.66,3.09,47.62,47.62,0,0,1-7.87,9l-.26.24-.24-.25a47.14,47.14,0,0,0-3.54-3.28,44.08,44.08,0,0,0-4.3-3.19l-.37-.24.32-.31a98.2,98.2,0,0,0,7.78-8.48c1.81-2.22,2.82-3.6,2.9-3.55a4.27,4.27,0,0,1-.6,1.06c-.43.66-1.09,1.61-2,2.76a77.42,77.42,0,0,1-7.64,8.72l-.06-.55a43.78,43.78,0,0,1,4.39,3.22,42.91,42.91,0,0,1,3.58,3.35l-.5,0a54.08,54.08,0,0,0,8-8.74C295.14,320.58,295.82,318.92,295.92,319Z"/><path class="cls-6" d="M278.67,344.1c0,.19-1.59-.27-3,.71s-1.52,2.6-1.71,2.56-.22-.39-.1-1a3.4,3.4,0,0,1,1.4-2.12,3.47,3.47,0,0,1,2.47-.57C278.37,343.75,278.7,344,278.67,344.1Z"/><path class="cls-6" d="M290.12,351.63c-.2.06-.54-1.76-2.16-3.05s-3.46-1.23-3.45-1.44.43-.25,1.19-.2a5,5,0,0,1,2.71,1.07,5,5,0,0,1,1.65,2.42C290.27,351.15,290.21,351.62,290.12,351.63Z"/><path class="cls-6" d="M288,311c.12.16-4.27,3.83-9.81,8.19S268,327,267.92,326.8s4.26-3.83,9.8-8.19S287.85,310.85,288,311Z"/><path class="cls-14" d="M227,282.47c11.67-4.4,22.36-13,26.79-24.68L250,253.55c-4.17,11.87-14.47,20.94-26.6,24.25Z"/><path class="cls-6" d="M247.69,251.19a5.15,5.15,0,0,1-.5,1.37,27.52,27.52,0,0,1-1.82,3.52,39.27,39.27,0,0,1-8.57,9.84,54.74,54.74,0,0,1-11,7c-1.5.73-2.74,1.27-3.61,1.6a5.4,5.4,0,0,1-1.38.46c0-.1,1.83-1,4.76-2.52a63.75,63.75,0,0,0,10.78-7.11,43.3,43.3,0,0,0,8.6-9.56C246.73,253,247.56,251.13,247.69,251.19Z"/><path class="cls-6" d="M256.64,262a5.15,5.15,0,0,1-.5,1.37,28.9,28.9,0,0,1-1.82,3.52,39.27,39.27,0,0,1-8.57,9.84,54.19,54.19,0,0,1-11,7c-1.5.74-2.74,1.27-3.61,1.61a5.4,5.4,0,0,1-1.38.46c0-.1,1.83-1,4.76-2.52a64.78,64.78,0,0,0,10.78-7.11,43.3,43.3,0,0,0,8.6-9.56C255.68,263.88,256.51,262,256.64,262Z"/><path class="cls-6" d="M172.4,217.65a11.94,11.94,0,0,1,.35,2.09c.15,1.34.46,3.28.93,5.66a63,63,0,0,0,6.38,17.71A60.34,60.34,0,0,0,191.59,258c1.77,1.65,3.25,2.94,4.33,3.77a13.5,13.5,0,0,1,1.6,1.38,11.55,11.55,0,0,1-1.78-1.16,48.45,48.45,0,0,1-4.5-3.62,57,57,0,0,1-5.93-6.19,56.12,56.12,0,0,1-10.05-18.36,59.66,59.66,0,0,1-2.09-8.31,52.17,52.17,0,0,1-.71-5.74A12.48,12.48,0,0,1,172.4,217.65Z"/><path class="cls-6" d="M184.39,215.9a10.13,10.13,0,0,1,.09,2c0,1.27.06,3.09.21,5.34s.45,4.91.91,7.85A82.61,82.61,0,0,0,191,249.6c1.18,2.73,2.34,5.15,3.43,7.12s2,3.55,2.69,4.62a10.43,10.43,0,0,1,1,1.71,11.11,11.11,0,0,1-1.21-1.56A52.94,52.94,0,0,1,194,257a71.24,71.24,0,0,1-3.61-7.1,83.88,83.88,0,0,1-3.32-9.18,79.68,79.68,0,0,1-2.11-9.53,72.49,72.49,0,0,1-.76-7.93,51.31,51.31,0,0,1,0-5.37A10.73,10.73,0,0,1,184.39,215.9Z"/><path class="cls-16" d="M237.84,351.81s7-3.93,11.12-1.69S270.8,365,270,367.27s-2.06,7.38-2.06,7.38Z"/><path class="cls-12" d="M239.13,509.47c-.21-.69-16.85-22.34-16.85-22.34l-13.46-29.31-7-20.05s3.91-4.4-2.52-8.46L198,410.5l-76.85-34.82s-1.2,28.16,10.56,39.89c3.54,3.54,8.76,29,16.82,43.55s26.86,39.25,29.27,44,23.4,31,31.84,39.25c10,9.83,28.19,31,28.19,31l27-20.93S239.33,510.15,239.13,509.47Z"/><path class="cls-12" d="M240.06,352.65c1.5.05,42.7,29.8,50,39.31s15.9,37.54,17.24,42.86,16.41,72.94,16.73,74.84-14.9,17.39-31.47,14.37l-12-23S267.22,476.36,264.51,469l-2.7-7.4L251.08,436.4,239.26,424a6.46,6.46,0,0,1-4.23-4.46l-7.5-7.9-15.86-4s-6.74-10.92-3.46-30.8,20.18-34.56,20.18-34.56Z"/><path class="cls-6" d="M163.71,482.77a6.72,6.72,0,0,1,1.29-1.64,35.47,35.47,0,0,1,4.25-3.77,68.7,68.7,0,0,1,16.43-8.9c1.72-.63,3.37-1.3,5-1.78a48.92,48.92,0,0,1,4.85-1.2,57.68,57.68,0,0,1,8.37-.91,54.41,54.41,0,0,1,5.67.07,9.08,9.08,0,0,1,2.07.27,15.28,15.28,0,0,1-2.08,0c-1.33,0-3.26,0-5.63.15a64.61,64.61,0,0,0-8.27,1.06,57,57,0,0,0-9.75,3,75.41,75.41,0,0,0-16.39,8.63,44,44,0,0,0-4.36,3.56C164.23,482.24,163.75,482.8,163.71,482.77Z"/><path class="cls-14" d="M167.69,488.38s9.43-9.69,22.69-14.25a93.55,93.55,0,0,1,23.62-5l1.75,3.82s-16.14,3.18-22.79,5.65c-8.26,3.06-22.68,13.48-22.68,13.48Z"/><path class="cls-6" d="M234.77,419.65a14.34,14.34,0,0,1,.25-2.35,22.41,22.41,0,0,1,.5-2.72,35.5,35.5,0,0,1,.89-3.56,43.69,43.69,0,0,1,1.42-4.22c.53-1.51,1.28-3.05,2-4.69a57.85,57.85,0,0,1,14.25-18.41c1.4-1.13,2.7-2.25,4-3.13a43.55,43.55,0,0,1,3.73-2.44c1.14-.74,2.26-1.25,3.22-1.76a23.43,23.43,0,0,1,2.51-1.16,14.28,14.28,0,0,1,2.2-.83,15.46,15.46,0,0,1-2.08,1.09,25.62,25.62,0,0,0-2.44,1.27c-.93.53-2,1.07-3.14,1.83s-2.39,1.52-3.64,2.48-2.58,2-3.95,3.16a59.89,59.89,0,0,0-14.09,18.2c-.76,1.61-1.52,3.13-2.07,4.61s-1.08,2.87-1.49,4.15-.7,2.47-1,3.5a27.29,27.29,0,0,0-.61,2.68A16.21,16.21,0,0,1,234.77,419.65Z"/><path class="cls-6" d="M239.72,424.08a15.33,15.33,0,0,1,.26-2.35,22.16,22.16,0,0,1,.49-2.72c.25-1.05.47-2.27.9-3.56a43.55,43.55,0,0,1,1.42-4.21c.53-1.52,1.28-3.06,2-4.7a57.77,57.77,0,0,1,14.25-18.41c1.39-1.13,2.7-2.24,4-3.13a43.55,43.55,0,0,1,3.73-2.44,35.75,35.75,0,0,1,3.22-1.75,21.87,21.87,0,0,1,2.51-1.17,13.84,13.84,0,0,1,2.2-.83,14.13,14.13,0,0,1-2.08,1.09,26.89,26.89,0,0,0-2.45,1.27c-.93.53-2,1.07-3.13,1.83a43.22,43.22,0,0,0-3.64,2.49c-1.31.9-2.58,2-3.95,3.15a59.89,59.89,0,0,0-14.09,18.2c-.76,1.61-1.52,3.13-2.07,4.62s-1.08,2.86-1.49,4.14-.71,2.47-1,3.5a27.29,27.29,0,0,0-.61,2.68A15.2,15.2,0,0,1,239.72,424.08Z"/><path class="cls-12" d="M127,409.5s33-21,71,5c1.53,1.05,3-1.8,3-1.8s11.3-2.21,10.64-5.09C202,365.5,233,347.5,233,347.5l-11-17-34,21-67,24,1,17"/><path class="cls-6" d="M232.72,347.23a23.24,23.24,0,0,1-2,1.57,52.26,52.26,0,0,0-5.25,4.56,50,50,0,0,0-14.71,41.73,54.22,54.22,0,0,0,1.23,6.85,19.67,19.67,0,0,1,.59,2.49,2.47,2.47,0,0,1-.26-.61c-.14-.41-.38-1-.61-1.81a45.89,45.89,0,0,1-1.46-6.85A48.74,48.74,0,0,1,225.09,353a44.26,44.26,0,0,1,5.44-4.42c.67-.48,1.23-.8,1.6-1A2.27,2.27,0,0,1,232.72,347.23Z"/><path class="cls-6" d="M199.64,415.67a2.76,2.76,0,0,1-.59-.33l-1.6-1.07c-.68-.47-1.53-1-2.56-1.63s-2.14-1.35-3.48-2-2.75-1.47-4.36-2.16-3.33-1.41-5.17-2.13A71.75,71.75,0,0,0,156.8,402c-2,.06-3.84.08-5.58.27s-3.36.35-4.83.58-2.8.5-4,.72-2.15.46-3,.68l-1.86.47a2.94,2.94,0,0,1-.67.11,2.5,2.5,0,0,1,.62-.25l1.84-.6a28.53,28.53,0,0,1,2.94-.81c1.16-.26,2.47-.62,4-.83s3.1-.53,4.86-.67,3.65-.26,5.63-.34a76.73,76.73,0,0,1,12.87,1,75.36,75.36,0,0,1,12.46,3.38c1.84.74,3.61,1.41,5.18,2.21s3,1.52,4.36,2.26,2.44,1.48,3.45,2.11a30.1,30.1,0,0,1,2.5,1.75l1.53,1.18C199.48,415.5,199.66,415.65,199.64,415.67Z"/><path class="cls-6" d="M143.52,446.93A18.08,18.08,0,0,1,145,445,21.53,21.53,0,0,1,147,443a35.87,35.87,0,0,1,2.76-2.59l1.68-1.43c.59-.49,1.25-.93,1.91-1.42,1.31-1,2.83-1.92,4.4-2.91A57.17,57.17,0,0,1,180.49,427c1.85-.15,3.6-.34,5.26-.31.82,0,1.62,0,2.38,0l2.2.13c1.41.05,2.66.28,3.76.42a20.56,20.56,0,0,1,2.81.51,16.65,16.65,0,0,1,2.35.6,15.64,15.64,0,0,1-2.4-.32,25.44,25.44,0,0,0-2.81-.39c-1.1-.1-2.35-.29-3.74-.3l-2.18-.09c-.76,0-1.54,0-2.36.05-1.63,0-3.37.2-5.2.37a59,59,0,0,0-22.49,7.5c-1.57,1-3.08,1.83-4.38,2.82-.67.48-1.33.9-1.92,1.38l-1.7,1.37c-1.1.84-2,1.75-2.8,2.49a27.57,27.57,0,0,0-2,2A13.42,13.42,0,0,1,143.52,446.93Z"/><path class="cls-6" d="M147.24,457a14.55,14.55,0,0,1,1.53-1.79l.86-.94,1.1-1a34.4,34.4,0,0,1,2.76-2.43l1.68-1.33c.6-.44,1.24-.87,1.9-1.33,1.3-.95,2.8-1.78,4.34-2.71a69.67,69.67,0,0,1,10.73-4.74,73,73,0,0,1,11.39-2.76c1.79-.23,3.48-.49,5.09-.57s3.09-.19,4.45-.2,2.59,0,3.67.08a26.65,26.65,0,0,1,2.77.22,14.62,14.62,0,0,1,2.34.34,15.65,15.65,0,0,1-2.36-.06c-.76-.06-1.68-.1-2.76-.09s-2.3-.06-3.65,0-2.83.1-4.41.28-3.26.38-5,.63a76.72,76.72,0,0,0-11.27,2.79A73.34,73.34,0,0,0,161.74,446c-1.54.91-3,1.7-4.33,2.62-.66.45-1.31.86-1.91,1.28l-1.69,1.29c-1.1.79-2,1.62-2.81,2.32l-1.13,1-.9.88A15,15,0,0,1,147.24,457Z"/><path class="cls-6" d="M156.51,469.78a29,29,0,0,1,2.21-4c1.44-2.4,3.48-5.68,5.76-9.28l4.63-7.17,0,.3c-.9-1.88-1.63-3.45-2.13-4.55a7.58,7.58,0,0,1-.69-1.77,7.31,7.31,0,0,1,1,1.61c.59,1.06,1.4,2.59,2.37,4.44l.07.15-.09.15c-1.34,2.13-2.87,4.59-4.52,7.23-2.29,3.6-4.39,6.84-5.94,9.17A28.19,28.19,0,0,1,156.51,469.78Z"/><path class="cls-6" d="M195.56,527.25a9,9,0,0,1,.55-1.81,18.23,18.23,0,0,1,.82-2.07c.36-.78.73-1.7,1.28-2.65a32.51,32.51,0,0,1,1.81-3.07,40.34,40.34,0,0,1,2.39-3.34,47.14,47.14,0,0,1,6.6-6.69,48,48,0,0,1,7.86-5.15,41,41,0,0,1,3.75-1.67,31.73,31.73,0,0,1,3.37-1.17,26.81,26.81,0,0,1,2.86-.73,19.23,19.23,0,0,1,2.18-.4,9.12,9.12,0,0,1,1.89-.17c0,.15-2.66.45-6.77,1.79a33.84,33.84,0,0,0-3.31,1.24c-1.18.45-2.38,1.08-3.66,1.71a46.14,46.14,0,0,0-14.25,11.66c-.87,1.13-1.73,2.18-2.4,3.25a31.78,31.78,0,0,0-1.87,3C196.54,524.73,195.71,527.31,195.56,527.25Z"/><path class="cls-6" d="M201.13,533.19a9.72,9.72,0,0,1,.57-1.71,20.07,20.07,0,0,1,.82-2c.36-.74.73-1.61,1.25-2.51a46.38,46.38,0,0,1,4-6.13A48,48,0,0,1,221.06,509a45.78,45.78,0,0,1,6.55-3.24c.95-.42,1.86-.69,2.64-1a17.32,17.32,0,0,1,2-.59,8.94,8.94,0,0,1,1.77-.37c0,.14-2.46.76-6.24,2.39a50.83,50.83,0,0,0-6.4,3.35,56.28,56.28,0,0,0-7.08,5.27,55,55,0,0,0-6.05,6.43,51.68,51.68,0,0,0-4.06,6C202.16,530.84,201.27,533.25,201.13,533.19Z"/><path class="cls-6" d="M307.81,438.82a11.08,11.08,0,0,1-2,.26c-.65,0-1.44.11-2.36.25s-2,.21-3.11.44a68.22,68.22,0,0,0-8,1.78,67.71,67.71,0,0,0-18.13,8.24,72.23,72.23,0,0,0-6.58,4.83c-.92.72-1.68,1.45-2.38,2.06s-1.27,1.16-1.74,1.61a11.84,11.84,0,0,1-1.51,1.36,10,10,0,0,1,1.31-1.56c.44-.49,1-1.07,1.66-1.71s1.42-1.4,2.33-2.15a62,62,0,0,1,6.54-5,64,64,0,0,1,18.32-8.33,61.81,61.81,0,0,1,8.07-1.64c1.16-.19,2.22-.25,3.15-.34s1.73-.12,2.38-.13A12,12,0,0,1,307.81,438.82Z"/><path class="cls-6" d="M309.51,446.18a11.63,11.63,0,0,1-2,.41c-1.28.2-3.13.57-5.39,1.08s-4.93,1.26-7.84,2.23a78.55,78.55,0,0,0-17.91,8.68c-2.56,1.68-4.8,3.31-6.6,4.77s-3.24,2.68-4.2,3.56a10.52,10.52,0,0,1-1.55,1.31,10.24,10.24,0,0,1,1.36-1.51,53.67,53.67,0,0,1,4.06-3.76A71.41,71.41,0,0,1,276,458a81.81,81.81,0,0,1,8.73-5,80.34,80.34,0,0,1,9.34-3.76,72,72,0,0,1,7.94-2.09,55,55,0,0,1,5.46-.86A11,11,0,0,1,309.51,446.18Z"/><path class="cls-14" d="M294.51,399.51c-10.3-2.81-22,1-29.76,8.33S252.57,425.49,250.46,436l-4.06-4.5c2.12-10.47,7.21-21.59,15-29s19.8-11.36,30.11-8.55A33.85,33.85,0,0,1,294.51,399.51Z"/><g class="cls-8"><path d="M148.9,455.19c1.32,1.25,4.64.89,6.42-.41,2.25-1.65,4.62-5.41,6.47-6.62,10.63-7,21.25-3.25,35.23-8.94.28-.11.62-.1.8-.33a.79.79,0,0,0-.24-1.06,2.29,2.29,0,0,0-1.15-.32c-17.31-1.52-34.56,5.72-47.53,17.68"/></g><g class="cls-8"><path d="M240.46,423.28c4.69-8.29,5.57-18.64,11.72-25.91,5.28-6.26,13.81-9.39,18.19-16.3a56.72,56.72,0,0,0-30.74,41.35"/></g><path class="cls-14" d="M292.43,528.31a39.94,39.94,0,0,0,35.73-17,3.53,3.53,0,0,0-1.25-4.78,3.57,3.57,0,0,0-4.79,1.26,33,33,0,0,1-29.69,13.54,3.5,3.5,0,0,0,0,7Z"/><path class="cls-6" d="M223,334.17a5.46,5.46,0,0,1-.83.74l-2.48,2c-1.07.88-2.4,1.93-4,3.08s-3.36,2.54-5.41,3.92-4.27,2.95-6.74,4.5-5.12,3.18-7.93,4.86c-5.68,3.27-12.06,6.64-18.93,9.8S163,368.8,156.83,371c-3.12,1-6.07,2-8.88,2.8s-5.41,1.53-7.81,2.13-4.59,1.09-6.51,1.53-3.58.76-4.95,1l-3.14.55a5.36,5.36,0,0,1-1.1.14,7.1,7.1,0,0,1,1.07-.29l3.11-.68c1.36-.28,3-.64,4.92-1.12s4.09-.95,6.47-1.62,5-1.35,7.77-2.22,5.73-1.82,8.83-2.86c6.16-2.17,12.85-4.79,19.73-7.9s13.21-6.48,18.89-9.71c2.81-1.66,5.51-3.21,7.94-4.79s4.73-3,6.77-4.42,3.87-2.68,5.47-3.82,3-2.13,4.07-3l2.56-1.9A6.43,6.43,0,0,1,223,334.17Z"/><path class="cls-6" d="M203.81,352.94a9.08,9.08,0,0,1-1.46,1.18c-1,.73-2.4,1.72-4.2,2.91a130.36,130.36,0,0,1-30.36,14.55c-2,.66-3.73,1.16-4.9,1.46a9.54,9.54,0,0,1-1.83.4,9.66,9.66,0,0,1,1.75-.67c1.14-.38,2.79-.95,4.81-1.68a165.2,165.2,0,0,0,15.51-6.46,167.81,167.81,0,0,0,14.74-8c1.83-1.12,3.31-2,4.32-2.7A10.1,10.1,0,0,1,203.81,352.94Z"/><path class="cls-14" d="M239.85,576.76q13.1-11,27.12-20.79a3.59,3.59,0,0,0,1.25-4.78,3.53,3.53,0,0,0-4.78-1.26q-14.74,10.3-28.53,21.88a3.52,3.52,0,0,0,0,5,3.58,3.58,0,0,0,4.94,0Z"/><path class="cls-12" d="M310.07,453.52s10.34,5.55,11.32,9.6,4.76,34.28,4.76,34.28l-3.6,5.37Z"/><path class="cls-6" d="M322.29,502.29c-.2,0-3-11.76-6.22-26.36s-5.7-26.48-5.5-26.52,3,11.75,6.21,26.36S322.49,502.25,322.29,502.29Z"/><path class="cls-12" d="M206.4,546.69a4.38,4.38,0,0,1-.69-5c2.37-4.58,7.29-12.89,10-11.9,2.86,1.06,15.21,17.59,20.16,24.32a4.35,4.35,0,0,1-.24,5.45l-5.68,6.5a3.6,3.6,0,0,1-5.34.09Z"/><path class="cls-6" d="M206.4,546.69a6.17,6.17,0,0,1,.75.7l2,2.09,7.43,7.77,5.11,5.39c.91,1,1.86,2,2.84,3a3.32,3.32,0,0,0,3.61,1.12,3.44,3.44,0,0,0,1.67-1.2l1.54-1.76,3.15-3.62A7.93,7.93,0,0,0,236,558.3a4,4,0,0,0,.3-2.24,4.38,4.38,0,0,0-1-2.13l-1.54-2.07c-4.13-5.56-8.12-10.82-11.94-15.44a43.16,43.16,0,0,0-5.78-6.11c-1-.84-2.18.15-3,.91a20.87,20.87,0,0,0-2.3,2.65A60,60,0,0,0,207.4,539l-1.24,2.18a5.29,5.29,0,0,0-.75,1.91,4.38,4.38,0,0,0,.45,2.76c.32.58.57.83.54.85a2.76,2.76,0,0,1-.67-.78,4.42,4.42,0,0,1-.61-2.87,5.63,5.63,0,0,1,.74-2c.35-.69.74-1.43,1.18-2.22a54,54,0,0,1,3.26-5.22,20.1,20.1,0,0,1,2.32-2.76,6,6,0,0,1,1.6-1.17,2.36,2.36,0,0,1,1.08-.25,2.11,2.11,0,0,1,1,.41,42.42,42.42,0,0,1,6,6.19c3.86,4.62,7.87,9.87,12,15.43l1.53,2.08A5.12,5.12,0,0,1,237,556a4.72,4.72,0,0,1-.37,2.65,4.61,4.61,0,0,1-.72,1.13l-.81.93-3.17,3.61L230.38,566a4.13,4.13,0,0,1-2,1.39,4,4,0,0,1-4.28-1.32l-2.81-3-5.05-5.46L209,549.67l-2-2.18A4.53,4.53,0,0,1,206.4,546.69Z"/><path class="cls-6" d="M292.8,400.77a15.89,15.89,0,0,1-2.23.47,54.53,54.53,0,0,0-6,1.54,49.7,49.7,0,0,0-30,26,54.31,54.31,0,0,0-2.38,5.72,16,16,0,0,1-.8,2.14,2,2,0,0,1,.1-.59c.09-.37.21-.94.43-1.64a42.68,42.68,0,0,1,2.19-5.85,48,48,0,0,1,30.33-26.23,44.4,44.4,0,0,1,6.11-1.33c.73-.11,1.3-.14,1.69-.18S292.8,400.74,292.8,400.77Z"/><path class="cls-6" d="M297.45,407.38a13.07,13.07,0,0,1-2.1.61c-.68.17-1.51.38-2.47.68s-2.05.57-3.23,1a82.64,82.64,0,0,0-8.2,3.2A86.93,86.93,0,0,0,272,418a84.36,84.36,0,0,0-8.69,6.36,80.16,80.16,0,0,0-6.42,6c-.89.88-1.61,1.76-2.29,2.49s-1.22,1.4-1.66,1.94a13,13,0,0,1-1.46,1.64,12.83,12.83,0,0,1,1.23-1.81c.41-.58.93-1.27,1.58-2s1.35-1.67,2.23-2.58a70.29,70.29,0,0,1,6.35-6.19,73.68,73.68,0,0,1,18.33-11.58,73.45,73.45,0,0,1,8.32-3.08c1.2-.4,2.32-.65,3.29-.9s1.81-.43,2.51-.55A12,12,0,0,1,297.45,407.38Z"/><path class="cls-6" d="M173.41,497.08a10.83,10.83,0,0,1,1.13-1.63,23.24,23.24,0,0,1,1.47-1.8c.61-.68,1.26-1.48,2.09-2.27a50.11,50.11,0,0,1,6.08-5.24,52,52,0,0,1,17.7-8.4,50.16,50.16,0,0,1,7.9-1.4c1.14-.15,2.18-.15,3.08-.19a22.46,22.46,0,0,1,2.33,0,10.67,10.67,0,0,1,2,.16c0,.15-2.82,0-7.32.54a55.52,55.52,0,0,0-7.79,1.53,55.22,55.22,0,0,0-17.48,8.3,57.22,57.22,0,0,0-6.11,5.07C175.2,494.89,173.53,497.18,173.41,497.08Z"/><path class="cls-6" d="M218.33,478a8.93,8.93,0,0,1-1.69.82L212,480.83c-3.95,1.76-9.34,4.33-15.11,7.5s-10.83,6.35-14.43,8.74l-4.25,2.85a9.51,9.51,0,0,1-1.6,1,9.09,9.09,0,0,1,1.43-1.23c.95-.75,2.36-1.79,4.13-3a154.37,154.37,0,0,1,29.63-16.29c2-.82,3.64-1.45,4.78-1.85A10.49,10.49,0,0,1,218.33,478Z"/><path class="cls-26" d="M394.3,77.6C394.3,64.41,404,55,417.15,55s22.9,9.45,22.9,22.64-9.64,22.65-22.9,22.65S394.3,90.8,394.3,77.6Zm36.17,0c0-8.2-5.25-14.37-13.32-14.37S403.89,69.4,403.89,77.6,409.07,92,417.15,92,430.47,85.74,430.47,77.6Z"/><path class="cls-26" d="M492.17,67.76v31.7H446.42V67.76h8.33V92.18h10.38V67.76h8.33V92.18h10.31V67.76Z"/><path class="cls-26" d="M500.43,99.46V67.76h8.34V86.92l13.06-19.16h8.4v31.7H521.9V79.57L508.44,99.46Z"/><path class="cls-26" d="M536.47,82.13c0-15.42,5.58-22.31,16.47-23.76,5.32-.79,7.16-1.57,7.16-2.69h8.66c0,6.17-8,7.88-13.19,8.53-7.49,1-10.57,4.27-11.42,8A13.31,13.31,0,0,1,555,67c9,0,15,7.75,15,16.54s-6.17,16.74-16.74,16.74S536.47,92.44,536.47,82.13Zm24.87,1.32c0-4.8-3-9.06-8.14-9.06s-8.07,4.26-8.07,9.06c0,5.12,2.89,9.38,8.07,9.38S561.34,88.57,561.34,83.45Z"/><path class="cls-26" d="M596.92,99.46l-8.4-12.21-3.81,4.07v8.14h-8.34V67.76h8.34V81.87l12-14.11H607L594.42,82.13l12.93,17.33Z"/><path class="cls-26" d="M630.52,99.46V96.18c-2.17,2.56-5.91,4.07-10,4.07-5.06,0-11-3.41-11-10.5,0-7.42,6-10.24,11-10.24,4.2,0,7.94,1.38,10,3.87V79.11c0-3.21-2.76-5.31-7-5.31a13.3,13.3,0,0,0-9.25,3.74L611.16,72A20.81,20.81,0,0,1,625,67c7.22,0,13.85,2.89,13.85,12V99.46Zm0-7.61V87.91c-1.38-1.84-4-2.76-6.69-2.76-3.29,0-6,1.71-6,4.79s2.69,4.66,6,4.66C626.52,94.6,629.14,93.69,630.52,91.85Z"/><path class="cls-3" d="M391.39,76.15c0-13.2,9.64-22.65,22.84-22.65S437.14,63,437.14,76.15s-9.65,22.64-22.91,22.64S391.39,89.34,391.39,76.15Zm36.16,0c0-8.21-5.25-14.38-13.32-14.38S401,67.94,401,76.15s5.18,14.37,13.26,14.37S427.55,84.28,427.55,76.15Z"/><path class="cls-3" d="M489.25,66.3V98H443.5V66.3h8.34V90.72h10.37V66.3h8.33V90.72h10.31V66.3Z"/><path class="cls-3" d="M497.52,98V66.3h8.33V85.47L518.91,66.3h8.41V98H519V78.11L505.52,98Z"/><path class="cls-3" d="M533.55,80.67c0-15.42,5.58-22.31,16.47-23.76,5.32-.78,7.16-1.57,7.16-2.69h8.66c0,6.17-8,7.88-13.19,8.53-7.48,1-10.57,4.27-11.42,8a13.31,13.31,0,0,1,10.83-5.19c9.06,0,15,7.75,15,16.54s-6.17,16.74-16.73,16.74S533.55,91,533.55,80.67ZM558.43,82c0-4.79-3-9.06-8.14-9.06s-8.08,4.27-8.08,9.06c0,5.12,2.89,9.38,8.08,9.38S558.43,87.11,558.43,82Z"/><path class="cls-3" d="M594,98l-8.4-12.21-3.81,4.07V98h-8.34V66.3h8.34V80.41l12-14.11H604L591.51,80.67,604.44,98Z"/><path class="cls-3" d="M627.6,98V94.72c-2.16,2.56-5.91,4.07-10,4.07-5,0-11-3.41-11-10.5,0-7.42,6-10.24,11-10.24,4.2,0,7.94,1.38,10,3.87V77.66c0-3.22-2.75-5.32-7-5.32a13.35,13.35,0,0,0-9.26,3.74l-3.15-5.58a20.81,20.81,0,0,1,13.85-5c7.22,0,13.85,2.89,13.85,12V98Zm0-7.61V86.45c-1.38-1.84-4-2.76-6.69-2.76-3.28,0-6,1.71-6,4.8s2.7,4.66,6,4.66C623.6,93.15,626.22,92.23,627.6,90.39Z"/><path class="cls-26" d="M415.09,263.38V239.44H359.77V220l46-72.31h34v70.06h14.91v21.67H439.72v23.94Zm0-93.82-31.22,48.21h31.22Z"/><path class="cls-26" d="M464.86,205.63c0-29.83,14.74-59.66,47.86-59.66,32.95,0,47.87,29.83,47.87,59.66s-14.92,59.83-47.87,59.83C479.6,265.46,464.86,235.46,464.86,205.63Zm70.58,0c0-21.33-6.24-37.81-22.72-37.81-16.64,0-22.88,16.48-22.88,37.81s6.24,38,22.88,38C529.2,243.61,535.44,227,535.44,205.63Z"/><path class="cls-26" d="M626.14,263.38V239.44H570.82V220l46-72.31h34v70.06h14.91v21.67H650.77v23.94Zm0-93.82-31.21,48.21h31.21Z"/><path class="cls-3" d="M408.59,257.5V233.57H353.27V214.14l46-72.31h34v70.06h14.91v21.68H433.21V257.5Zm0-93.82-31.22,48.21h31.22Z"/><path class="cls-3" d="M458.36,199.75c0-29.83,14.74-59.65,47.86-59.65,32.95,0,47.86,29.82,47.86,59.65s-14.91,59.83-47.86,59.83C473.1,259.58,458.36,229.58,458.36,199.75Zm70.58,0c0-21.33-6.24-37.8-22.72-37.8-16.65,0-22.89,16.47-22.89,37.8s6.24,38,22.89,38C522.7,237.73,528.94,221.08,528.94,199.75Z"/><path class="cls-3" d="M619.64,257.5V233.57H564.32V214.14l46-72.31h34v70.06h14.91v21.68H644.27V257.5Zm0-93.82-31.21,48.21h31.21Z"/><g class="cls-8"><path d="M479,443.46c-7.56.22-15.77.26-21.87-4.23-3.62-2.66-6-6.62-9.23-9.78s-7.89-5.6-12.1-4c-4.82,1.79-7.65,8.28-12.78,8-3.76-.23-6.18-4.12-9.65-5.57-3.85-1.61-11.28-.5-14.21,2.46s-6.32,6.75-7.89,10.61c8.57,11,23.63,14.13,37.45,15.78,24.91,3,31.89,2.07,56.9.05,6-.48,28.48-7.3,34-9.71s15.08-2.53,16.83-6.11C518.21,441.44,497.22,442.92,479,443.46Z"/></g><g class="cls-8"><path d="M691,296.23c-2.85-8.57-9.6-16.52-18.54-17.89s-18.94,6.38-17.55,15.31c-4.92-3-10-6.16-15.68-7.2s-12.24.46-15.64,5.15c-2,2.74-3,6.57-6.14,7.85-4.67,1.92-7-3.58-16-.75-8.79,2.77-13.52,12.45-13.71,13.44,0,0-24.86.39-32.37,14.05h0A259.09,259.09,0,0,1,659,320.56c5.48.82,11,1.82,16.52,1.27s11.13-2.92,14.24-7.5C693.27,309.14,692.92,302.18,691,296.23Z"/></g><g class="cls-8"><path d="M486.16,351.17c-6.54-1.6-8.55-7.2-18.34-7-3.8.08-11.42,3.89-11.42,3.89s-2.62-5.82-3.94-8.79a11.59,11.59,0,0,0-22.16,4c-.46-3.39-4.7-5.87-8.27-5.15a17.55,17.55,0,0,0-10.56,7.17c-2.25,3.47-3.17,3.82-6.22,10.32l-1.84,4.55q41.54-.44,82.92-4.57c2-.2,4.55-1.1,4.34-3.07C490.51,351.06,487.61,351.52,486.16,351.17Z"/></g><g class="cls-8"><path d="M599.58,386.27c-6.54-1.6-8.55-7.2-18.35-7-3.79.08-11.42,3.88-11.42,3.88l-3.94-8.78a11.59,11.59,0,0,0-22.16,4c-.46-3.39-4.69-5.87-8.27-5.15a17.51,17.51,0,0,0-10.56,7.17c-2.25,3.46-3.17,3.82-6.22,10.32l-1.84,4.55q41.53-.45,82.92-4.57c2-.2,4.55-1.1,4.34-3.07C603.92,386.16,601,386.62,599.58,386.27Z"/></g><g class="cls-8"><path d="M432.23,292.63c-6.54-1.59-8.55-7.19-18.35-7-3.79.09-11.42,3.89-11.42,3.89s-2.61-5.82-3.93-8.78a11.59,11.59,0,0,0-22.17,4c-.46-3.39-4.69-5.87-8.26-5.15a17.5,17.5,0,0,0-10.57,7.17c-2.24,3.46-3.16,3.82-6.21,10.31l-1.84,4.56q41.52-.45,82.91-4.58c2-.19,4.56-1.09,4.35-3.06C436.58,292.53,433.67,293,432.23,292.63Z"/></g><polygon class="cls-7" points="139.08 94.2 139.14 88.56 131.43 82.98 127.33 91.22 129.56 97.74 134.11 97.88 139.08 94.2"/><polygon class="cls-9" points="129.56 97.74 135.37 92.11 131.43 82.98 127.33 91.22 129.56 97.74"/><g class="cls-8"><polyline class="cls-10" points="131.56 82.98 139.28 88.56 139.21 94.2"/></g><path class="cls-7" d="M823,223.53s2.28,6.23-1.18,14.54-5.12,13.57-10.43,14.19a129.71,129.71,0,0,1-14.54.32l-.45-15.13Z"/><g class="cls-8"><path d="M823,223.53s2.28,6.23-1.18,14.54-5.12,13.57-10.43,14.19a129.71,129.71,0,0,1-14.54.32l-.45-15.13Z"/></g><path class="cls-9" d="M786.79,226.25s7.12,10.21,9.09,11.73l1.12,1.51c1.57-.6,18-5.6,18.84-7a3.28,3.28,0,0,0,.3-2.72l2.51.86,4.33-7.12-18.7,2.25s2-1.73.78-2.36S786.79,226.25,786.79,226.25Z"/><path class="cls-7" d="M796.83,252.58a44.08,44.08,0,0,1-5.38-11.08c-2.41-7.06-4.66-15.25-4.66-15.25L797,239.49Z"/><g class="cls-8"><path d="M815.84,232.51l.83,8.56,2-10.42-2.51-.86A4,4,0,0,1,815.84,232.51Z"/></g><polygon class="cls-7" points="907.58 221.86 907.65 215.46 898.9 209.13 894.26 218.47 896.78 225.87 901.95 226.02 907.58 221.86"/><polygon class="cls-9" points="896.78 225.87 903.38 219.49 898.9 209.13 894.26 218.47 896.78 225.87"/><g class="cls-8"><polygon class="cls-10" points="907.73 221.86 903.53 219.49 899.05 209.13 907.8 215.46 907.73 221.86"/></g><polygon class="cls-7" points="764.38 188.8 778.2 184.98 775.21 176.27 763.39 158.01 749.04 168.04 751.91 179.26 764.38 188.8"/><polygon class="cls-9" points="749.04 168.04 766.88 178.27 775.21 176.27 763.39 158.01 749.04 168.04"/><g class="cls-8"><polygon class="cls-10" points="764.38 188.8 766.88 178.27 775.21 176.27 778.2 184.98 764.38 188.8"/></g><polygon class="cls-7" points="299.55 236.76 296.17 221.09 319.8 216.5 327.48 197.78 323.01 221.34 314.57 233.99 299.55 236.76"/><polygon class="cls-7" points="281.45 206.35 283.89 221.08 299.55 236.76 296.17 221.09 281.45 206.35"/><path class="cls-9" d="M286.06,195.61c-1.23,1.84-4.61,10.74-4.61,10.74l14.72,14.74,23.63-4.59,7.68-18.71c-.79-1.91-6.89-9.36-6.89-9.36Z"/><path class="cls-7" d="M365.16,123.62,347.83,126l-1,1.85s-6.84,1.06-7.43,1.27l-2,9.91,11.16,1.46,11.06-9.18Z"/><path class="cls-7" d="M337.37,139.07c.32.21,4.28,6.88,10.64,10a61.74,61.74,0,0,0,10.77,4.25L344.43,138.4Z"/><polygon class="cls-9" points="359.94 124.63 358.05 128.4 348.92 129.12 347.76 134.05 344.43 138.4 358.78 153.34 365.16 143.62 365.16 123.62 359.94 124.63"/><g class="cls-8"><polygon points="348.92 129.12 339.36 129.16 337.37 139.07 344.43 138.4 347.76 134.05 348.92 129.12"/></g><path class="cls-27" d="M114.86,158.5c-5.61.56-11,1.65-16.51,5.46-4.21,2.92-6.57,6.7-8.85,10.37-8.64,13.17,10.75,32.5,10.75,32.5s-5.33-4.87-2.52-10.59c2.76-5.54-.79-9.82,2.77-15.09,4.19-6.11,9.68-8.25,18.27-8.36,4.55-9.56,9.91-9,13.19-6.88C126.3,159,120.79,158,114.86,158.5Z"/><path class="cls-28" d="M114.86,158.5a43,43,0,0,0-8.35,1.55,29.06,29.06,0,0,0-7.66,3.62,24,24,0,0,0-6.1,5.84c-.85,1.14-1.62,2.32-2.38,3.52a23.58,23.58,0,0,0-2.05,3.71,14.44,14.44,0,0,0-.93,4.11,19.23,19.23,0,0,0,.24,4.22,29.48,29.48,0,0,0,2.77,8,52.37,52.37,0,0,0,4.47,7.2,61.58,61.58,0,0,0,5.46,6.5l-.15.16a11.5,11.5,0,0,1-3.1-5.18,8.1,8.1,0,0,1,.71-5.93,12.51,12.51,0,0,0,1-5.84,19.17,19.17,0,0,1,.33-6,13.24,13.24,0,0,1,3.15-5.13,17,17,0,0,1,4.77-3.7c3.63-1.85,7.76-2.32,11.76-2.37l0,0a25.61,25.61,0,0,1,2.17-3.72,12.16,12.16,0,0,1,3-3.09,6.79,6.79,0,0,1,4-1.35,7.62,7.62,0,0,1,4.07,1.28l0,0a21.33,21.33,0,0,0-7.51-6.09,16.18,16.18,0,0,0-4.69-1.29A24,24,0,0,0,114.86,158.5Zm0,0a24,24,0,0,1,4.87,0,16.22,16.22,0,0,1,4.7,1.28,21.35,21.35,0,0,1,7.55,6.08l.13.16-.17-.11a7.56,7.56,0,0,0-4-1.25,6.71,6.71,0,0,0-4,1.34,12.21,12.21,0,0,0-3,3.08,26.26,26.26,0,0,0-2.14,3.71l0,0h0c-4,.06-8.1.55-11.69,2.4a16.78,16.78,0,0,0-4.71,3.67A13.17,13.17,0,0,0,99.28,184a18.93,18.93,0,0,0-.3,6,12.78,12.78,0,0,1-1,5.95,8,8,0,0,0-.7,5.77,11.31,11.31,0,0,0,3,5.07l-.16.16a63.16,63.16,0,0,1-5.46-6.53,51.86,51.86,0,0,1-4.46-7.25,29.67,29.67,0,0,1-2.76-8,20.14,20.14,0,0,1-.23-4.25,14.83,14.83,0,0,1,1-4.15A23.6,23.6,0,0,1,90.29,173c.76-1.2,1.54-2.38,2.4-3.52a24.15,24.15,0,0,1,6.13-5.84,28.82,28.82,0,0,1,7.68-3.6A43.16,43.16,0,0,1,114.86,158.5Z"/><path class="cls-27" d="M92.12,170.47c-.08-2.71-2.93-3.66-5.68-3.48a6.88,6.88,0,0,0-5.82,4.91,7.26,7.26,0,0,0,1.64,7.21c1.32,1.28,4.15,3.08,5.37.31"/><path class="cls-28" d="M92.12,170.47a3.06,3.06,0,0,0-.61-1.71,3.56,3.56,0,0,0-1.44-1.08,7.45,7.45,0,0,0-3.59-.5,6.64,6.64,0,0,0-5.41,4.21,7.19,7.19,0,0,0,.74,6.89,6.94,6.94,0,0,0,2.8,2.26,2.5,2.5,0,0,0,1.76.14,2.32,2.32,0,0,0,1.26-1.26,2.4,2.4,0,0,1-1.22,1.38,2.7,2.7,0,0,1-1.88,0,7.21,7.21,0,0,1-3-2.26,7.51,7.51,0,0,1-.89-7.31,7.59,7.59,0,0,1,2.31-3,6,6,0,0,1,3.54-1.38,7.88,7.88,0,0,1,3.71.67,3.81,3.81,0,0,1,1.44,1.23A3.13,3.13,0,0,1,92.12,170.47Z"/><path class="cls-28" d="M80.85,175.21a.46.46,0,0,0,.15.3,2.67,2.67,0,0,0,.77.66,6.17,6.17,0,0,0,3.28.45,4.65,4.65,0,0,0,1.77-.65,4.56,4.56,0,0,0,1.19-.9,4.32,4.32,0,0,0,.66-.77,2,2,0,0,0,.15-.3c0-.06-.39.42-1,.92a5,5,0,0,1-1.22.84,9.68,9.68,0,0,1-1.7.62,6.05,6.05,0,0,1-3.23-.33A2.27,2.27,0,0,1,80.85,175.21Z"/><path class="cls-28" d="M80.77,171.9a1.29,1.29,0,0,0,.2.27,4.42,4.42,0,0,0,.78.65,5.8,5.8,0,0,0,3.1,1.14,6.3,6.3,0,0,0,3.25-.5A5,5,0,0,0,89,173a1.88,1.88,0,0,1,.27-.21c0-.06-.45.3-1.23.53a6.25,6.25,0,0,1-3.16.39,7,7,0,0,1-3-1A3.54,3.54,0,0,1,80.77,171.9Z"/><path class="cls-29" d="M87.38,180.23a6.64,6.64,0,0,0,.27-1.55,14.85,14.85,0,0,1,1.29-3.55,32.94,32.94,0,0,1,1.94-3.27,6.06,6.06,0,0,0,1-1.32,9.72,9.72,0,0,0-1.14,1.17,12.54,12.54,0,0,0-2,3.24,14.47,14.47,0,0,0-1.17,3.64A6.17,6.17,0,0,0,87.38,180.23Z"/><path class="cls-28" d="M117.47,167.78a24.4,24.4,0,0,0-2.92-1.38c-1-.39-2-.78-3-1.05a23.32,23.32,0,0,0-6.26-1,17.63,17.63,0,0,0-6.3,1,13.19,13.19,0,0,0-2.86,1.43,12.47,12.47,0,0,0-2.51,2,13.63,13.63,0,0,1,5.29-3.6,15.81,15.81,0,0,1,6.38-1.1,24.32,24.32,0,0,1,6.38,1.15A25.83,25.83,0,0,1,117.47,167.78Z"/><path class="cls-28" d="M107.68,167.88a14.6,14.6,0,0,0-2.56-.06,14.44,14.44,0,0,0-2.54.15,17.68,17.68,0,0,0-5,1.12,16.62,16.62,0,0,0-2.3,1.07,14,14,0,0,0-2,1.46,11.34,11.34,0,0,0-2.84,4.17,9.43,9.43,0,0,1,1.07-2.32,8.17,8.17,0,0,1,1.62-2,13.45,13.45,0,0,1,4.39-2.71,17.29,17.29,0,0,1,5-1A19.59,19.59,0,0,1,107.68,167.88Z"/><path class="cls-28" d="M118.66,167.19a7.64,7.64,0,0,0-3.3-4.84,10.63,10.63,0,0,0-2.74-1.17c-.51-.12-1-.18-1.5-.3a14.55,14.55,0,0,1-1.52-.21,8.44,8.44,0,0,1,1.52.06,14.37,14.37,0,0,1,1.53.21,11.23,11.23,0,0,1,2.86,1.11,6.3,6.3,0,0,1,2.14,2.21A5.83,5.83,0,0,1,118.66,167.19Z"/><path class="cls-28" d="M115.91,170.05a10.33,10.33,0,0,0-3.76-.67,6.42,6.42,0,0,0-3.58,1,7.2,7.2,0,0,0-2.39,2.83,25.53,25.53,0,0,0-1.26,3.61,15.7,15.7,0,0,1-1.58,3.55,8.74,8.74,0,0,1-2.57,2.92,8.41,8.41,0,0,1-3.53,1.6,16,16,0,0,1-3.85.2,20.2,20.2,0,0,0,3.85-.35,8.12,8.12,0,0,0,3.44-1.63,13.13,13.13,0,0,0,3.95-6.44,21.94,21.94,0,0,1,1.22-3.67,6.69,6.69,0,0,1,2.57-2.92,7,7,0,0,1,3.77-1A15.1,15.1,0,0,1,115.91,170.05Z"/><path class="cls-28" d="M97,173.51a3.11,3.11,0,0,0-.89.74,6.67,6.67,0,0,0-1.44,2.35,6.19,6.19,0,0,0-.36,2.72c.06.71.18,1.1.27,1.13a4.54,4.54,0,0,0,0-1.1,7.6,7.6,0,0,1,.42-2.6,7.43,7.43,0,0,1,1.32-2.29A10.35,10.35,0,0,1,97,173.51Z"/><path class="cls-28" d="M121.29,165.13a4,4,0,0,0,0-2,3.86,3.86,0,0,0-.71-1.88,19.28,19.28,0,0,0,.45,1.94A16.29,16.29,0,0,0,121.29,165.13Z"/><path class="cls-22" d="M103,196.61c1-2.06-1.42-5-1.93-6.72-6.93,6.14-12.35-.41-12.35-.41,3,9.91,12,18.16,12,18.16A22.23,22.23,0,0,1,103,196.61Z"/><path class="cls-30" d="M153.32,203.28a36.8,36.8,0,0,0-1-3.59c-.57-1.14-2.2-2-3.25-1.42l.12.29c-1.19-1.63-3.83-1.18-5.41.13a17.35,17.35,0,0,1-5.54,3.52c-5.67,1.63-9.29,1.75-14.17,4.08a32.28,32.28,0,0,0-5.8,3.08c-2.08,1.45-4.24,2.86-6,1.06-.84-.81-2.45-2-3.2-2.89s-2.31-1.49-3.1-.6-.09,2.19.55,3.16a68.21,68.21,0,0,0,6.75,8.85c2.4,2.53,4.19,5,6.51,7.56a46.82,46.82,0,0,0,19.47-3.67A47,47,0,0,0,156.2,209.4l0,0C154.43,207.42,154.25,205.72,153.32,203.28Z"/><path class="cls-28" d="M123.23,219.83a20.59,20.59,0,0,1-2.91-3,36.71,36.71,0,0,1-2.09-3.67,4,4,0,0,0,.34,1.25A10.13,10.13,0,0,0,120,217a11.25,11.25,0,0,0,2.13,2.2A7.54,7.54,0,0,0,123.23,219.83Z"/><path class="cls-28" d="M143,217.9c0-.09-.74-.44-1.56-1.06s-1.51-1.07-1.57-1.05a3.34,3.34,0,0,0,1.41,1.33A3.39,3.39,0,0,0,143,217.9Z"/><path class="cls-28" d="M147.61,206.24c0,.06.38-.09.85-.43a3.73,3.73,0,0,0,1-2.05,3.25,3.25,0,0,0-.59-2.17,1.78,1.78,0,0,0-.68-.61c0,.09.21.33.53.74a3.35,3.35,0,0,1,.48,2.08,4.18,4.18,0,0,1-.81,1.95C147.91,206,147.59,206.19,147.61,206.24Z"/><path class="cls-28" d="M145.84,206.46c0,.06.28,0,.78-.27a3.28,3.28,0,0,0,1.24-1.44,2.94,2.94,0,0,0-.06-1.91c-.21-.47-.39-.73-.42-.65s.12.29.24.72a2.79,2.79,0,0,1-.07,1.77,2.62,2.62,0,0,1-1,1.34C146.1,206.28,145.81,206.4,145.84,206.46Z"/><path class="cls-28" d="M142.31,206.33c0,.06.31.07.77,0a2.71,2.71,0,0,0,1.63-.71,2.23,2.23,0,0,0,.77-1.58.85.85,0,0,0-.22-.66c-.06,0,0,.25,0,.68a2.36,2.36,0,0,1-.73,1.36,3.46,3.46,0,0,1-1.43.69C142.63,206.26,142.37,206.3,142.31,206.33Z"/><path class="cls-6" d="M125.3,144.91s1.82.59,5.1,2.05l2.71,1.28,3.15,1.73c1.11.67,2.28,1.44,3.52,2.25s2.52,1.75,3.75,2.87a46.84,46.84,0,0,1,13.89,19.19,52.5,52.5,0,0,1,3.35,14.22,55.75,55.75,0,0,1-.7,16.1v0l0,0c-.23.51-.5,1.09-.76,1.68v0l0,0a48.64,48.64,0,0,1-19.71,17.1,49.38,49.38,0,0,1-28.16,2.94A77,77,0,0,1,98.28,223a37.24,37.24,0,0,1-20.06-15.7c-.28-.44-.55-.88-.8-1.34l-.38-.68-.09-.17,0,0s-.08-.24,0-.16v-.1l0-.38c-.12-1-.24-2-.35-3-.28-2-.35-4-.46-6s0-3.94-.05-5.87.26-3.83.42-5.7c.15-.93.29-1.85.43-2.77l.22-1.37.31-1.34c.22-.88.42-1.77.63-2.64s.56-1.7.83-2.54c.14-.42.27-.84.42-1.25l.51-1.21c.35-.79.65-1.6,1-2.37a41.76,41.76,0,0,1,2.5-4.35,42.24,42.24,0,0,1,2.86-3.88c1.09-1.14,2.09-2.32,3.23-3.3A41,41,0,0,1,92.74,154c1.19-.79,2.31-1.63,3.51-2.27a45.91,45.91,0,0,1,6.88-3.28,56.27,56.27,0,0,1,11.81-3,59.21,59.21,0,0,1,7.67-.61c.88,0,1.55,0,2,0a6.35,6.35,0,0,1,.68.06h-.69l-2,0a66.57,66.57,0,0,0-7.64.75,57.23,57.23,0,0,0-11.7,3.13,44.93,44.93,0,0,0-6.8,3.3c-1.17.64-2.28,1.47-3.45,2.26a42.27,42.27,0,0,0-3.33,2.78,42.7,42.7,0,0,0-3.16,3.27,41.21,41.21,0,0,0-2.81,3.84,38.94,38.94,0,0,0-2.44,4.3c-.37.75-.67,1.55-1,2.34l-.5,1.19c-.15.4-.27.82-.41,1.23q-.41,1.25-.81,2.52c-.2.86-.4,1.73-.61,2.61l-.31,1.32-.2,1.36L77,183.89c-.15,1.86-.35,3.74-.4,5.65s-.11,3.86.06,5.82.19,4,.47,6c.12,1,.23,2,.35,3l0,.38v.09c0,.12,0-.1,0-.07l0,0,.09.16.37.67c.25.44.52.88.79,1.31a36.57,36.57,0,0,0,19.72,15.39,76.6,76.6,0,0,0,13,3.39,48.79,48.79,0,0,0,27.75-2.87A48,48,0,0,0,158.71,206l0,0c.27-.58.54-1.16.77-1.68l0,.06a55.77,55.77,0,0,0,.74-15.9,52.69,52.69,0,0,0-3.25-14.07,46.82,46.82,0,0,0-13.64-19.09c-1.22-1.12-2.54-2-3.7-2.89s-2.38-1.58-3.47-2.26L133,148.47l-2.68-1.32c-1.59-.82-2.89-1.26-3.73-1.66l-1-.42A1.41,1.41,0,0,1,125.3,144.91Z"/><path class="cls-23" d="M131.64,205.56a2,2,0,0,0-2.23,0,2.16,2.16,0,0,0-.9,2.06,2.31,2.31,0,0,0,1.41,1.77,2.14,2.14,0,0,0,2.45-.61A2.58,2.58,0,0,0,131.64,205.56Z"/><path class="cls-6" d="M132.47,208.6c.07,0-.1.63-.91,1.12a2,2,0,0,1-1.68.21,2.84,2.84,0,0,1-1.46-1.42,3.17,3.17,0,0,1-.31-2,2.45,2.45,0,0,1,1-1.34,1.91,1.91,0,0,1,1.08-.23c.24,0,.38.06.38.11s-.59.13-1.17.55a2.2,2.2,0,0,0-.63,1.07,2.76,2.76,0,0,0,.3,1.52,2.51,2.51,0,0,0,1.06,1.12,1.6,1.6,0,0,0,1.2-.05C132.05,209,132.38,208.53,132.47,208.6Z"/><path class="cls-6" d="M127.82,222.41a36.86,36.86,0,0,1-2.82-3.77,28.56,28.56,0,0,1-1.75-3.4c-.87-2-1.17-3.3-1.22-3.28s.07.32.2.95c.07.32.22.67.34,1.1a10.35,10.35,0,0,0,.53,1.37,21.34,21.34,0,0,0,1.72,3.48,27.54,27.54,0,0,0,2.78,3.85,23.24,23.24,0,0,0,3,2.83l.44-.08A24.62,24.62,0,0,1,127.82,222.41Z"/><path class="cls-6" d="M131.83,222.88a5.85,5.85,0,0,0,1.44,1.87l.13.13.39-.11-.28-.26A10.19,10.19,0,0,0,131.83,222.88Z"/><path class="cls-6" d="M133.78,220.51a13.27,13.27,0,0,0,2.5,3.35l.1.1.35-.13-.21-.22C134.92,222,133.9,220.45,133.78,220.51Z"/><path class="cls-6" d="M148.53,212.5a2.69,2.69,0,0,0-1.32.16,9.28,9.28,0,0,0,1.31.12,8.58,8.58,0,0,1,2.91.81c.23.11.44.24.64.36l.27-.26a7.18,7.18,0,0,0-.78-.43A7.61,7.61,0,0,0,148.53,212.5Z"/><path class="cls-6" d="M151.24,210.28a16.38,16.38,0,0,0,2.28.47l1.19.42.24-.26a7.12,7.12,0,0,0-1.36-.47A4.69,4.69,0,0,0,151.24,210.28Z"/><path class="cls-6" d="M143.79,213.38a3.62,3.62,0,0,0-1.66,0,6.94,6.94,0,0,0,1.62.2,12.47,12.47,0,0,1,3.63,1.19,10.93,10.93,0,0,1,2.17,1.45l.2-.17a11,11,0,0,0-2.21-1.56A10.47,10.47,0,0,0,143.79,213.38Z"/></svg>