<svg id="Слой_1" data-name="Слой 1" xmlns="http://www.w3.org/2000/svg" viewBox="0 0 961.35 852.44"><defs><style>.cls-1{fill:#02ce8e;}.cls-1,.cls-2,.cls-3,.cls-4,.cls-6{stroke:#000;stroke-miterlimit:10;stroke-width:20px;}.cls-2{fill:#8b4ce5;}.cls-3{fill:#ef4137;}.cls-4{fill:#fed43e;}.cls-5{fill:#fff;}.cls-6{fill:none;stroke-linecap:round;}</style></defs><ellipse class="cls-1" cx="465.83" cy="137.8" rx="77.24" ry="113.5" transform="translate(-13.41 58.32) rotate(-7.06)"/><ellipse class="cls-1" cx="682.82" cy="153.47" rx="113.5" ry="77.24" transform="translate(131.52 584.59) rotate(-50.69)"/><path class="cls-2" d="M187.95,487.11H784.65a51.65,51.65,0,0,1,51.65,51.65V647.11a0,0,0,0,1,0,0h-700a0,0,0,0,1,0,0V538.76A51.65,51.65,0,0,1,187.95,487.11Z"/><rect class="cls-2" x="136.3" y="188.11" width="700" height="160" rx="80"/><path class="cls-3" d="M753.8,359.11h-536a67.5,67.5,0,0,0-67.5,67.5h0a67.5,67.5,0,0,0,67.5,67.5h26.73a33.77,33.77,0,0,1,33.77,33.77v18.23a58,58,0,0,0,58,58h0a58,58,0,0,0,58-58V534.63a40.52,40.52,0,0,1,40.52-40.52h47a40.52,40.52,0,0,1,40.52,40.52v7.48a73,73,0,0,0,73,73h0a73,73,0,0,0,73-73V528.65a34.55,34.55,0,0,1,34.54-34.54h51a67.5,67.5,0,0,0,67.5-67.5h0A67.5,67.5,0,0,0,753.8,359.11Z"/><path class="cls-4" d="M60,646.11H900.57a21.73,21.73,0,0,1,21.73,21.73v0A172.27,172.27,0,0,1,750,840.11H210.57A172.27,172.27,0,0,1,38.3,667.84v0A21.73,21.73,0,0,1,60,646.11Z"/><ellipse class="cls-5" cx="340.81" cy="758.7" rx="61.63" ry="52.19"/><ellipse class="cls-5" cx="618.98" cy="760.25" rx="52.19" ry="61.63" transform="translate(-198.6 1301.25) rotate(-84.34)"/><line class="cls-6" x1="599.85" y1="683.2" x2="599.83" y2="710.33"/><line class="cls-6" x1="361.85" y1="681.88" x2="361.84" y2="709"/><path class="cls-6" d="M449.67,726.77l11.85,8.39a30.21,30.21,0,0,0,33.79.73L509,727.1"/></svg>