<svg id="Слой_1" data-name="Слой 1" xmlns="http://www.w3.org/2000/svg" xmlns:xlink="http://www.w3.org/1999/xlink" viewBox="0 0 159 45"><defs><style>.cls-1{fill:#fff;}.cls-2{fill:url(#Безымянный_градиент_765);}.cls-3{opacity:0.13;}.cls-4{opacity:0.25;}</style><linearGradient id="Безымянный_градиент_765" x1="21.94" y1="39.63" x2="21.94" y2="6.53" gradientTransform="translate(28.77 -8.02) rotate(55.92)" gradientUnits="userSpaceOnUse"><stop offset="0" stop-color="#3b0117"/><stop offset="0.22" stop-color="#700b19"/><stop offset="0.49" stop-color="#a8151b"/><stop offset="0.71" stop-color="#d01c1c"/><stop offset="0.89" stop-color="#e9201d"/><stop offset="1" stop-color="#f2221d"/></linearGradient></defs><path class="cls-1" d="M68.61,32V16H62.87l-3.36,8.69L56.18,16H50.44V32h4.13V21.58L58.6,32h1.82l4.06-10.42V32Zm19.63,0-6-16H77L71,32h4.68l.79-2.3h6.32l.79,2.3Zm-6.6-5.9H77.56l2-6ZM94.75,32V26.62h3.89c3.6,0,5.57-2.42,5.57-5.3A5.17,5.17,0,0,0,98.64,16h-8V32Zm3.34-9H94.75V19.59h3.34a1.72,1.72,0,1,1,0,3.43Zm17,9.27a7.41,7.41,0,0,0,7-4.3l-3.55-1.68a3.83,3.83,0,0,1-3.43,2.33A4.42,4.42,0,0,1,110.63,24a4.41,4.41,0,0,1,4.46-4.63,3.82,3.82,0,0,1,3.43,2.32L122.07,20a7.37,7.37,0,0,0-7-4.29c-4.92,0-8.66,3.33-8.66,8.28S110.17,32.29,115.09,32.29ZM129,32l6.75-9.89V32h4.15V16h-4.27l-6.48,9.43V16h-4.13V32Zm29.46,0L152,23.48,158.16,16h-5.09l-4.92,6.58V16H144V32h4.12V27.32L149.23,26l4.2,6Z"/><circle class="cls-2" cx="21.94" cy="23.08" r="16.55" transform="translate(-9.47 28.32) rotate(-55.92)"/><g class="cls-3"><path class="cls-1" d="M37.48,17.39a3.05,3.05,0,0,0-.13-.32V17c-.05-.11-.09-.23-.14-.34l-.15-.34c-.06-.14-.13-.29-.2-.43-.16-.35-.34-.68-.53-1A42.25,42.25,0,0,0,28.66,18c-4.83,2.63-6.43,6.51-12.16,9S8,26.74,9.06,24.93s8.14-5.4,15.67-8.14c5.13-1.87,8.77-3,10.56-3.48a14,14,0,0,0-1-1.2c-.08-.09-.16-.19-.25-.28l-.17-.18,0,0-.39-.4-.17-.16-.19-.17a79.79,79.79,0,0,1-15.06,7.18c-6,2.13-10.2,3.43-12.68,4.14,0,.37,0,.75,0,1.13,0,.2,0,.41,0,.61s0,.15,0,.22,0,.09,0,.14h0c0,.26,0,.52.08.79,0,.1,0,.2,0,.3h0c0,.17.05.34.08.51a1.29,1.29,0,0,0,0,.19,3.73,3.73,0,0,0,.09.46h0c0,.16.07.31.11.47s0,.23.08.34l.24.8,0,.14.09.27c0,.16.11.32.17.47l.1.24.08.2.27.62c.08.17.17.35.26.52a16.33,16.33,0,0,0,2.07,3.13c3.79-1.93,13.64-6.91,18.37-9A63.49,63.49,0,0,1,38.4,21.36c0-.5-.13-1-.22-1.48a1.36,1.36,0,0,1,0-.17l0-.17c0-.1,0-.21-.08-.32S38,19,38,18.94l-.05-.2-.12-.42L37.68,18c0-.13-.09-.27-.14-.4ZM7.61,22.29a.8.8,0,0,1,1,.49.8.8,0,1,1-1-.49Zm2.87,8.89a1.05,1.05,0,0,1-.7-2,1.05,1.05,0,0,1,.7,2ZM27.6,21.94a.8.8,0,0,1-1-.49.8.8,0,1,1,1,.49Zm2.22,1.28a.4.4,0,1,1,.25-.51A.41.41,0,0,1,29.82,23.22Z"/></g><g class="cls-4"><path class="cls-1" d="M25,30.93a110.18,110.18,0,0,1-14.72,4l.08.08.11.11,0,0,.13.12.29.27c.34.29.68.57,1,.83l.06,0c.33.24.66.47,1,.69l.19.12a18.29,18.29,0,0,0,2,1,16.35,16.35,0,0,0,2.16.78h0l.34.1h0c.24.06.47.12.71.16l.19,0h0l.07,0,.14,0,.51.09c.32,0,.64.1,1,.13a47.4,47.4,0,0,1,7.09-2.65c1-.12-.79,1.13-3.16,2.56a16.39,16.39,0,0,0,3.16-.78,16,16,0,0,0,4-2.07l.31-.22.39-.29.43-.36a15.58,15.58,0,0,0,2.1-2.12h0a17.09,17.09,0,0,0,1.36-1.92l.21-.35c-.79.38-1.92.91-3.56,1.65C27.78,35.27,19.19,37.65,19.18,37s4.64-3.44,11-5.45c3-.94,5.39-1.68,7.14-2.2.1-.27.21-.54.3-.82a16.09,16.09,0,0,0,.55-1.95l.09-.48c0-.22.08-.43.11-.65s.09-.73.12-1.1v0A59.68,59.68,0,0,1,25,30.93ZM17.09,36c-1.46.52-2.77.6-2.92.18s.93-1.17,2.39-1.68,2.76-.6,2.91-.18S18.55,35.53,17.09,36Z"/></g><g class="cls-3"><path class="cls-1" d="M29.37,8.29a39.61,39.61,0,0,1-10.71,5.5c-4.83,1.62-9.38,2.78-12.23,3.45a16,16,0,0,1,1-2.18,51.08,51.08,0,0,0,8.66-1.61C21.64,11.74,26.7,8.31,25.51,8s-5,2.05-10.24,3.6a63.8,63.8,0,0,1-6.6,1.54,17,17,0,0,1,2-2.19l0,0,0,0A51.55,51.55,0,0,0,19,8.45c2-.76,3.55-1.36,4.73-1.83l.55.06h0l.89.16h0a14.06,14.06,0,0,1,1.55.39h0l.24.07h0l.13,0,.48.17.26.1.18.07c.4.16.79.33,1.18.52h0l.14.08Z"/></g></svg>