<svg id="Слой_1" data-name="Слой 1" xmlns="http://www.w3.org/2000/svg" viewBox="0 0 1047 779"><defs><style>.cls-1{fill:#32383a;}.cls-2{fill:#1e1223;}.cls-3{opacity:0.3;}.cls-21,.cls-4{opacity:0.4;}.cls-5{opacity:0.5;}.cls-6{fill:#241935;}.cls-7{fill:#ef4137;}.cls-8{fill:#ede25d;}.cls-9{fill:#3aed3e;}.cls-10{fill:#e1e1e1;}.cls-11,.cls-24{opacity:0.2;}.cls-12,.cls-15{fill:#ececec;}.cls-13{fill:none;stroke:#ef4137;stroke-miterlimit:10;stroke-width:2px;}.cls-14,.cls-15{opacity:0.1;}.cls-16{fill:#8840db;}.cls-17{fill:#6525a4;}.cls-18{fill:#e2e2e2;}.cls-19{fill:#375a64;}.cls-20,.cls-22{fill:#fff;}.cls-22{opacity:0.7;}.cls-23{fill:#111414;}.cls-25{fill:#1a2e35;}.cls-26{fill:#131c1e;}</style></defs><path class="cls-1" d="M891.44,642.77H97.89a47.5,47.5,0,0,1-47.5-47.5V50.65A34.65,34.65,0,0,1,85,16H906.2a32.74,32.74,0,0,1,32.74,32.74V595.27A47.5,47.5,0,0,1,891.44,642.77Z"/><path class="cls-1" d="M938,652.31H59.15a45.92,45.92,0,0,1-45.92-45.92v-7.15A1.77,1.77,0,0,1,15,597.47H974.14a1.76,1.76,0,0,1,1.76,1.77v15.17A37.89,37.89,0,0,1,938,652.31Z"/><path class="cls-2" d="M938,652.31l1.29-.09a31.23,31.23,0,0,0,3.84-.35,37.76,37.76,0,0,0,22.71-12A37.73,37.73,0,0,0,973,628.61a39.12,39.12,0,0,0,2.77-15.29c0-2.8,0-5.69,0-8.67v-4.54c0-.78.07-1.55-.51-2s-1.3-.41-2.1-.42l-214,.16L52.9,598H15.09a1.38,1.38,0,0,0-.59.1,1.29,1.29,0,0,0-.73.85,10.77,10.77,0,0,0,0,1.47v3.2c0,2.14.06,4.25.18,6.34a43.62,43.62,0,0,0,2.7,12.27,50,50,0,0,0,2.55,5.75,49.22,49.22,0,0,0,3.39,5.27A45.7,45.7,0,0,0,42,648.44a48.09,48.09,0,0,0,12,3.07c4.1.39,8.29.31,12.46.31h74.09l187.49,0,317.48.1,214,.16,58.19.09,15.13,0c3.41,0,5.16,0,5.16,0s-1.75,0-5.16.05l-15.13,0-58.19.09-214,.16-317.48.1-187.49,0H66.44c-4.16,0-8.34.08-12.57-.32a48.88,48.88,0,0,1-12.27-3.14,46.57,46.57,0,0,1-19.85-15.55,51.43,51.43,0,0,1-3.46-5.39,50.35,50.35,0,0,1-2.6-5.87A44.43,44.43,0,0,1,12.92,610c-.12-2.15-.22-4.3-.18-6.42v-3.2a8.77,8.77,0,0,1,.08-1.72A2.25,2.25,0,0,1,15.09,597H52.9l706.17.14,214,.16h1.2a1.95,1.95,0,0,1,1.75,1.63,9.69,9.69,0,0,1,0,1.19c0,1.53,0,3,0,4.54q0,4.47,0,8.67a39.28,39.28,0,0,1-2.82,15.4A38,38,0,0,1,966,640a36.37,36.37,0,0,1-8.65,7A35.69,35.69,0,0,1,943.15,652a27.58,27.58,0,0,1-3.84.3Z"/><g class="cls-3"><rect x="86.81" y="54.26" width="813.21" height="513.42" rx="9.89"/></g><path class="cls-2" d="M890.14,567.68s.58,0,1.7-.18a9.81,9.81,0,0,0,8.09-9.37V546.54c0-17.57-.06-43.47-.1-76.81,0-66.71-.09-163.23-.15-282.49q0-44.73,0-93.61,0-12.21,0-24.65V65.86a21.91,21.91,0,0,0-.11-3.06,9.44,9.44,0,0,0-7.91-8,19.69,19.69,0,0,0-3.1-.13h-3.16l-51.68,0-223.89,0-513,0A9.44,9.44,0,0,0,89.61,58a9,9,0,0,0-1.92,3.52,13,13,0,0,0-.38,4.08v17q0,16.95,0,33.81V314.25q0,64.37,0,126.34v61.25q0,15.15,0,30.11V554.3c0,2.49-.27,5,.73,7.13a9.47,9.47,0,0,0,4.79,4.94,9.23,9.23,0,0,0,3.39.83c1.17.06,2.43,0,3.65,0H200.32l108.69,0,195.08.06,282.47.16,76.8.09,20,0c4.5,0,6.81,0,6.81,0s-2.31,0-6.81.05l-20,0-76.8.09L504.09,568,309,568.09l-108.69,0H99.83c-1.24,0-2.43,0-3.7,0A10.29,10.29,0,0,1,86.37,558V532q0-15,0-30.11V440.59q0-61.92,0-126.34V183.35q0-33.24,0-66.95V65.6a14.51,14.51,0,0,1,.42-4.36,10.23,10.23,0,0,1,2.13-3.89,10.44,10.44,0,0,1,7.9-3.58l513,0,223.89,0,51.68,0h3.16a19.57,19.57,0,0,1,3.22.14,10.23,10.23,0,0,1,8.56,8.68,21.27,21.27,0,0,1,.11,3.17V69q0,12.45,0,24.65,0,48.83,0,93.61c-.06,119.26-.12,215.78-.15,282.49,0,33.34-.07,59.24-.1,76.81,0,4.39,0,8.26,0,11.59a9.89,9.89,0,0,1-8.23,9.42,7.31,7.31,0,0,1-1.28.12Z"/><g class="cls-4"><polygon points="406.07 597.41 418.02 617.68 586.11 617.68 597.2 597.41 406.07 597.41"/></g><g class="cls-5"><path d="M501.24,36.88a6.67,6.67,0,1,1-6.67-6.67A6.67,6.67,0,0,1,501.24,36.88Z"/></g><rect class="cls-2" x="119.24" y="70.63" width="750.85" height="473.26"/><rect class="cls-6" x="119.24" y="70.07" width="750.85" height="47.44"/><path class="cls-7" d="M150,91.83a7.24,7.24,0,1,1-7.23-7.22A7.22,7.22,0,0,1,150,91.83Z"/><path class="cls-8" d="M171.12,91.83a7.24,7.24,0,1,1-7.23-7.22A7.22,7.22,0,0,1,171.12,91.83Z"/><path class="cls-9" d="M192.25,91.83A7.24,7.24,0,1,1,185,84.61,7.22,7.22,0,0,1,192.25,91.83Z"/><rect class="cls-7" x="737.16" y="133" width="97.86" height="33" rx="16.5"/><path class="cls-10" d="M795.33,152.63H781.65a.6.6,0,0,1-.59-.59.59.59,0,0,1,.59-.59h13.18l1.42-7.86H780.36a.6.6,0,0,1-.59-.59.59.59,0,0,1,.59-.59H797a.57.57,0,0,1,.45.21.59.59,0,0,1,.13.48l-1.63,9A.6.6,0,0,1,795.33,152.63Z"/><path class="cls-10" d="M794.87,155.79h0l-13,0a.58.58,0,0,1-.58-.51l-1.84-14h-3.67a.59.59,0,0,1,0-1.18h4.18a.59.59,0,0,1,.59.51l1.84,14.06,12.51,0a.59.59,0,0,1,0,1.18Z"/><path class="cls-10" d="M784,160.33a2.18,2.18,0,1,1,2.21-2.18A2.21,2.21,0,0,1,784,160.33Zm0-3.18a1,1,0,1,0,1,1A1,1,0,0,0,784,157.15Z"/><path class="cls-10" d="M793,160.33a2.18,2.18,0,1,1,2.21-2.18A2.2,2.2,0,0,1,793,160.33Zm0-3.18a1,1,0,1,0,1,1A1,1,0,0,0,793,157.15Z"/><path class="cls-10" d="M785.87,152.63a.59.59,0,0,1-.58-.56l-.56-8.75a.59.59,0,0,1,1.18-.07l.55,8.75a.58.58,0,0,1-.55.62Z"/><path class="cls-10" d="M790.88,152.63h0a.58.58,0,0,1-.55-.62l.49-8.75a.59.59,0,0,1,1.18.07l-.5,8.75A.58.58,0,0,1,790.88,152.63Z"/><path class="cls-10" d="M780.87,148.25a.59.59,0,0,1,0-1.18l15.28-.14h0a.58.58,0,0,1,.59.58.59.59,0,0,1-.58.6l-15.27.14Z"/><g class="cls-11"><rect class="cls-12" x="156.58" y="380.84" width="121.28" height="18.64" rx="4.26"/></g><g class="cls-11"><rect class="cls-12" x="156.58" y="410.72" width="121.28" height="53.34" rx="4.26"/></g><g class="cls-11"><rect class="cls-12" x="156.58" y="473.36" width="39.35" height="16.72" rx="4.26"/></g><rect class="cls-13" x="226.78" y="473.36" width="51.08" height="16.72" rx="8.36"/><g class="cls-11"><rect class="cls-12" x="333.58" y="380.84" width="121.28" height="18.64" rx="4.26"/></g><g class="cls-11"><rect class="cls-12" x="333.58" y="410.72" width="121.28" height="53.34" rx="4.26"/></g><g class="cls-11"><rect class="cls-12" x="333.58" y="473.36" width="39.35" height="16.72" rx="4.26"/></g><rect class="cls-13" x="403.78" y="473.36" width="51.08" height="16.72" rx="8.36"/><g class="cls-11"><rect class="cls-12" x="514.58" y="380.84" width="121.28" height="18.64" rx="4.26"/></g><g class="cls-11"><rect class="cls-12" x="514.58" y="410.72" width="121.28" height="53.34" rx="4.26"/></g><g class="cls-11"><rect class="cls-12" x="514.58" y="473.36" width="39.35" height="16.72" rx="4.26"/></g><rect class="cls-13" x="584.78" y="473.36" width="51.08" height="16.72" rx="8.36"/><g class="cls-11"><rect class="cls-12" x="700.58" y="380.84" width="121.28" height="18.64" rx="4.26"/></g><g class="cls-11"><rect class="cls-12" x="700.58" y="410.72" width="121.28" height="53.34" rx="4.26"/></g><g class="cls-11"><rect class="cls-12" x="700.58" y="473.36" width="39.35" height="16.72" rx="4.26"/></g><rect class="cls-13" x="770.78" y="473.36" width="51.08" height="16.72" rx="8.36"/><circle class="cls-7" cx="172.5" cy="149.5" r="16.5"/><g class="cls-14"><rect class="cls-12" x="194.94" y="156" width="85.06" height="6.23" rx="0.93"/></g><g class="cls-11"><rect class="cls-12" x="194.94" y="140" width="45.06" height="11.23" rx="2.98"/></g><rect class="cls-15" x="324" y="216" width="70.44" height="22" rx="5.18"/><rect class="cls-15" x="414.56" y="216" width="70.44" height="22" rx="5.18"/><rect class="cls-15" x="505" y="216" width="70.44" height="22" rx="5.18"/><rect class="cls-15" x="595.56" y="216" width="70.44" height="22" rx="5.18"/><path class="cls-16" d="M258.74,330.8a3.81,3.81,0,0,0-1.05-6.64A27.28,27.28,0,0,0,230.47,298H204.06a27.28,27.28,0,0,0-27.22,26.17,3.81,3.81,0,0,0-1,6.62,7,7,0,0,0,1,11v8a10.42,10.42,0,0,0,10.4,10.4H247.3a10.42,10.42,0,0,0,10.4-10.4v-8a7,7,0,0,0,1-11Zm-80.61-4.26h10.55v-2.6h-9.23a24.67,24.67,0,0,1,24.61-23.34h26.41a24.67,24.67,0,0,1,24.61,23.34H192.45v2.6h64a1.22,1.22,0,0,1,0,2.44c-.52,0-1,0-1.44.06h0a14.25,14.25,0,0,0-5.62,1.64,11.7,11.7,0,0,1-6,1.43c-.37,0-.71,0-1,0a11.59,11.59,0,0,1-4.92-1.4,14.26,14.26,0,0,0-7.08-1.7c-.67,0-1.27,0-1.83.09a14.29,14.29,0,0,0-5.25,1.61l-1.16.53a11.24,11.24,0,0,1-4.71.9h-.76a11.33,11.33,0,0,1-2.86-.42,15.54,15.54,0,0,1-2.47-1,15.59,15.59,0,0,0-14.16,0,11.59,11.59,0,0,1-4.92,1.4c-.33,0-.67,0-1,0a11.7,11.7,0,0,1-6-1.43,14.2,14.2,0,0,0-5.64-1.64h0c-.44,0-.91-.06-1.42-.06a1.22,1.22,0,1,1,0-2.44Zm77,19.42H227.4v2.59h27.7v1.26a7.81,7.81,0,0,1-7.8,7.8H187.23a7.81,7.81,0,0,1-7.8-7.8V342.9h4l18.49,10,18.49-10H255.1V346Zm-66.17-3.06h26l-13,7ZM254,340.3H180.5a4.37,4.37,0,0,1-.84-8.65,11.87,11.87,0,0,1,4.43,1.37,14.27,14.27,0,0,0,6.43,1.68h.66a14.41,14.41,0,0,0,7.08-1.69,11.71,11.71,0,0,1,6-1.44,14.31,14.31,0,0,1,2,.12c.28,0,.55.08.8.13l.38.09a13.14,13.14,0,0,1,2.82,1.1,14.86,14.86,0,0,0,3.95,1.41l.76.13.54.06a17.24,17.24,0,0,0,1.83.09h0a16.76,16.76,0,0,0,2.1-.12,14.13,14.13,0,0,0,4.82-1.5l.16-.07a11.71,11.71,0,0,1,6-1.44,14.31,14.31,0,0,1,2,.12c.28,0,.55.08.8.13l.38.09a13.14,13.14,0,0,1,2.82,1.1,14.86,14.86,0,0,0,3.95,1.41l.76.13.54.06a17.24,17.24,0,0,0,1.83.09H244a14.32,14.32,0,0,0,6.44-1.68,12,12,0,0,1,4.41-1.37,4.37,4.37,0,0,1-.86,8.65Z"/><rect class="cls-16" x="202.37" y="303.66" width="4.06" height="2.6"/><rect class="cls-16" x="208.81" y="309.32" width="4.06" height="2.6"/><rect class="cls-16" x="195.94" y="309.32" width="4.06" height="2.6"/><rect class="cls-16" x="234.53" y="309.32" width="4.06" height="2.6"/><rect class="cls-16" x="221.67" y="309.32" width="4.06" height="2.6"/><rect class="cls-16" x="215.24" y="303.66" width="4.06" height="2.6"/><rect class="cls-16" x="228.1" y="303.66" width="4.06" height="2.6"/><path class="cls-16" d="M379.41,341.34a1.3,1.3,0,0,1-1.3,1.3h-.34a1.3,1.3,0,1,1,0-2.59h.34A1.3,1.3,0,0,1,379.41,341.34Zm-8-11.91h-.35a1.3,1.3,0,0,0,0,2.59h.35a1.3,1.3,0,0,0,0-2.59ZM384,319h-.35a1.3,1.3,0,0,0,0,2.59H384a1.3,1.3,0,0,0,0-2.59Zm8-17h-.34a1.3,1.3,0,1,0,0,2.6h.34a1.3,1.3,0,0,0,0-2.6ZM408,316.48a4.15,4.15,0,1,1,4.15,4.15A4.15,4.15,0,0,1,408,316.48Zm2.59,0a1.56,1.56,0,1,0,1.56-1.56A1.56,1.56,0,0,0,410.6,316.48Zm-27.9-3.56a4.16,4.16,0,1,1-4.16-4.15A4.16,4.16,0,0,1,382.7,312.92Zm-2.6,0a1.56,1.56,0,1,0-1.56,1.56A1.56,1.56,0,0,0,380.1,312.92ZM372.85,319h-.35a1.3,1.3,0,0,0,0,2.59h.35a1.3,1.3,0,0,0,0-2.59Zm25.49-14.37h.35a1.3,1.3,0,0,0,0-2.6h-.35a1.3,1.3,0,0,0,0,2.6ZM426,340a1.26,1.26,0,0,0,.59.15,1.3,1.3,0,0,0,1.15-.7l.16-.31a1.29,1.29,0,1,0-2.3-1.19l-.16.31A1.28,1.28,0,0,0,426,340ZM413.72,354.8a1.29,1.29,0,0,1-.41,1.72l-.12.08a36.19,36.19,0,0,1-36,0l-.12-.06-.11-.08a36.19,36.19,0,0,1,0-62.56l.11-.08.12-.06a36.16,36.16,0,0,1,36,0l.12.06.12.08a36.22,36.22,0,0,1,18,31.28h0a1.3,1.3,0,0,1-1.3,1.29H397.38l1.53,2.68a.51.51,0,0,1,.09.13Zm-3,.18L394,325.85a1.27,1.27,0,0,1,0-1.29,1.3,1.3,0,0,1,1.12-.65h28.29a28.34,28.34,0,0,0-9.78-20.13,1.29,1.29,0,1,1,1.69-2A30.88,30.88,0,0,1,426,323.91h2.71a33.62,33.62,0,0,0-15.68-27.14L399,321.1a1.29,1.29,0,1,1-2.24-1.29l11.4-19.75a28.38,28.38,0,0,0-22.82-1.43,1.3,1.3,0,0,1-.9-2.43,31,31,0,0,1,25,1.61l1.35-2.34a33.58,33.58,0,0,0-31.34,0l14,24.34a1.3,1.3,0,0,1-2.25,1.29l-11.4-19.75a28.17,28.17,0,0,0-12.7,19.39,1.3,1.3,0,1,1-2.56-.41,30.75,30.75,0,0,1,14-21.22l-1.35-2.34a33.67,33.67,0,0,0-15.68,27.14h28.11a1.3,1.3,0,1,1,0,2.59h-22.8a28.25,28.25,0,0,0,10,20.34,1.31,1.31,0,0,1,.15,1.83,1.29,1.29,0,0,1-1.83.15,30.83,30.83,0,0,1-10.93-22.32h-2.72a33.65,33.65,0,0,0,15.68,27.14l14-24.33a1.3,1.3,0,0,1,2.25,1.3l-11.41,19.75a28.34,28.34,0,0,0,22.83,1.42,1.31,1.31,0,0,1,1.67.77,1.3,1.3,0,0,1-.77,1.66,30.95,30.95,0,0,1-25-1.6l-1.35,2.33a33.56,33.56,0,0,0,31.29,0Zm12.13-9a1.26,1.26,0,0,0,.59.15,1.32,1.32,0,0,0,1.16-.7l.15-.31a1.29,1.29,0,1,0-2.3-1.19l-.16.31A1.3,1.3,0,0,0,422.89,346Zm-4.74-6.25a1.26,1.26,0,0,0,.59.15,1.3,1.3,0,0,0,1.15-.7l.16-.31a1.29,1.29,0,0,0-.55-1.74,1.3,1.3,0,0,0-1.75.55l-.16.31A1.28,1.28,0,0,0,418.15,339.77ZM442,331.25a36.22,36.22,0,0,1-18.15,31.4,1.4,1.4,0,0,1-1,.13,1.32,1.32,0,0,1-.78-.61L404.67,331.9A1.3,1.3,0,0,1,405.8,330h34.91A1.29,1.29,0,0,1,442,331.25Zm-2.61,1.3H408l13,22.59a28.24,28.24,0,0,0,12.64-18.79,1.3,1.3,0,0,1,2.55.46,30.84,30.84,0,0,1-13.9,20.57l1.35,2.35A33.76,33.76,0,0,0,439.39,332.55Zm-39.58,14.67h.34a1.3,1.3,0,1,0,0-2.59h-.34a1.3,1.3,0,1,0,0,2.59Zm-4-.71a4.15,4.15,0,1,1-4.15-4.15A4.16,4.16,0,0,1,395.83,346.51Zm-2.59,0a1.56,1.56,0,1,0-1.56,1.56A1.55,1.55,0,0,0,393.24,346.51Zm.21-10.43a1.3,1.3,0,0,0,1.3,1.3h.34a1.3,1.3,0,1,0,0-2.59h-.34A1.3,1.3,0,0,0,393.45,336.08Zm1.52-24.4h.34a1.3,1.3,0,1,0,0-2.59H395a1.3,1.3,0,1,0,0,2.59Zm-10.3,21.21a4.15,4.15,0,1,1-4.15-4.15A4.17,4.17,0,0,1,384.67,332.89Zm-2.59,0a1.56,1.56,0,1,0-1.56,1.55A1.56,1.56,0,0,0,382.08,332.89Z"/><path class="cls-16" d="M626.74,330.8a3.81,3.81,0,0,0-1-6.64A27.28,27.28,0,0,0,598.47,298H572.06a27.28,27.28,0,0,0-27.22,26.17,3.81,3.81,0,0,0-1,6.62,7,7,0,0,0,1,11v8a10.42,10.42,0,0,0,10.4,10.4H615.3a10.42,10.42,0,0,0,10.4-10.4v-8a7,7,0,0,0,1-11Zm-80.61-4.26h10.55v-2.6h-9.23a24.67,24.67,0,0,1,24.61-23.34h26.41a24.67,24.67,0,0,1,24.61,23.34H560.45v2.6h64a1.22,1.22,0,1,1,0,2.44c-.52,0-1,0-1.44.06h0a14.25,14.25,0,0,0-5.62,1.64,11.7,11.7,0,0,1-6,1.43c-.37,0-.71,0-1,0a11.59,11.59,0,0,1-4.92-1.4,14.26,14.26,0,0,0-7.08-1.7c-.67,0-1.27,0-1.83.09a14.29,14.29,0,0,0-5.25,1.61l-1.16.53a11.24,11.24,0,0,1-4.71.9h-.76a11.33,11.33,0,0,1-2.86-.42,15.54,15.54,0,0,1-2.47-1,15.59,15.59,0,0,0-14.16,0,11.59,11.59,0,0,1-4.92,1.4c-.33,0-.67,0-1,0a11.7,11.7,0,0,1-6-1.43,14.2,14.2,0,0,0-5.64-1.64h0c-.44,0-.91-.06-1.42-.06a1.22,1.22,0,1,1,0-2.44Zm77,19.42H595.4v2.59h27.7v1.26a7.81,7.81,0,0,1-7.8,7.8H555.23a7.81,7.81,0,0,1-7.8-7.8V342.9h4l18.49,10,18.49-10H623.1V346Zm-66.17-3.06H583l-13,7ZM622,340.3H548.5a4.37,4.37,0,0,1-.84-8.65,11.87,11.87,0,0,1,4.43,1.37,14.27,14.27,0,0,0,6.43,1.68h.66a14.41,14.41,0,0,0,7.08-1.69,11.71,11.71,0,0,1,6-1.44,14.31,14.31,0,0,1,2,.12c.28,0,.55.08.8.13l.38.09a13.14,13.14,0,0,1,2.82,1.1,14.86,14.86,0,0,0,4,1.41l.76.13.54.06a17.24,17.24,0,0,0,1.83.09h0a16.76,16.76,0,0,0,2.1-.12,14.13,14.13,0,0,0,4.82-1.5l.16-.07a11.71,11.71,0,0,1,6-1.44,14.31,14.31,0,0,1,2,.12c.28,0,.55.08.8.13l.38.09a13.14,13.14,0,0,1,2.82,1.1,14.86,14.86,0,0,0,4,1.41l.76.13.54.06a17.24,17.24,0,0,0,1.83.09H612a14.32,14.32,0,0,0,6.44-1.68,12,12,0,0,1,4.41-1.37,4.37,4.37,0,0,1-.86,8.65Z"/><rect class="cls-16" x="570.37" y="303.66" width="4.06" height="2.6"/><rect class="cls-16" x="576.81" y="309.32" width="4.06" height="2.6"/><rect class="cls-16" x="563.94" y="309.32" width="4.06" height="2.6"/><rect class="cls-16" x="602.53" y="309.32" width="4.06" height="2.6"/><rect class="cls-16" x="589.67" y="309.32" width="4.06" height="2.6"/><rect class="cls-16" x="583.24" y="303.66" width="4.06" height="2.6"/><rect class="cls-16" x="596.1" y="303.66" width="4.06" height="2.6"/><path class="cls-17" d="M747.41,341.34a1.3,1.3,0,0,1-1.3,1.3h-.34a1.3,1.3,0,1,1,0-2.59h.34A1.3,1.3,0,0,1,747.41,341.34Zm-8-11.91h-.35a1.3,1.3,0,0,0,0,2.59h.35a1.3,1.3,0,0,0,0-2.59ZM752,319h-.35a1.3,1.3,0,0,0,0,2.59H752a1.3,1.3,0,0,0,0-2.59Zm8-17h-.34a1.3,1.3,0,0,0,0,2.6h.34a1.3,1.3,0,1,0,0-2.6ZM776,316.48a4.15,4.15,0,1,1,4.15,4.15A4.15,4.15,0,0,1,776,316.48Zm2.59,0a1.56,1.56,0,1,0,1.56-1.56A1.56,1.56,0,0,0,778.6,316.48Zm-27.9-3.56a4.16,4.16,0,1,1-4.16-4.15A4.16,4.16,0,0,1,750.7,312.92Zm-2.6,0a1.56,1.56,0,1,0-1.56,1.56A1.56,1.56,0,0,0,748.1,312.92ZM740.85,319h-.35a1.3,1.3,0,0,0,0,2.59h.35a1.3,1.3,0,0,0,0-2.59Zm25.49-14.37h.35a1.3,1.3,0,0,0,0-2.6h-.35a1.3,1.3,0,0,0,0,2.6ZM794,340a1.26,1.26,0,0,0,.59.15,1.3,1.3,0,0,0,1.15-.7l.16-.31a1.29,1.29,0,1,0-2.3-1.19l-.16.31A1.28,1.28,0,0,0,794,340ZM781.72,354.8a1.29,1.29,0,0,1-.41,1.72l-.12.08a36.19,36.19,0,0,1-36,0l-.12-.06-.11-.08a36.19,36.19,0,0,1,0-62.56l.11-.08.12-.06a36.16,36.16,0,0,1,36,0l.12.06.12.08a36.22,36.22,0,0,1,18,31.28h0a1.3,1.3,0,0,1-1.3,1.29H765.38l1.53,2.68a.51.51,0,0,1,.09.13Zm-3,.18L762,325.85a1.27,1.27,0,0,1,0-1.29,1.3,1.3,0,0,1,1.12-.65h28.29a28.34,28.34,0,0,0-9.78-20.13,1.29,1.29,0,1,1,1.69-2A30.88,30.88,0,0,1,794,323.91h2.71a33.62,33.62,0,0,0-15.68-27.14L767,321.1a1.29,1.29,0,1,1-2.24-1.29l11.4-19.75a28.38,28.38,0,0,0-22.82-1.43,1.3,1.3,0,0,1-.9-2.43,31,31,0,0,1,25,1.61l1.35-2.34a33.58,33.58,0,0,0-31.34,0l14,24.34a1.3,1.3,0,0,1-2.25,1.29l-11.4-19.75a28.17,28.17,0,0,0-12.7,19.39,1.3,1.3,0,1,1-2.56-.41,30.75,30.75,0,0,1,14-21.22l-1.35-2.34a33.67,33.67,0,0,0-15.68,27.14h28.11a1.3,1.3,0,1,1,0,2.59h-22.8a28.25,28.25,0,0,0,10,20.34,1.31,1.31,0,0,1,.15,1.83,1.29,1.29,0,0,1-1.83.15,30.83,30.83,0,0,1-10.93-22.32h-2.72a33.65,33.65,0,0,0,15.68,27.14l14-24.33a1.3,1.3,0,0,1,2.25,1.3l-11.41,19.75a28.34,28.34,0,0,0,22.83,1.42,1.31,1.31,0,0,1,1.67.77,1.3,1.3,0,0,1-.77,1.66,30.95,30.95,0,0,1-25-1.6l-1.35,2.33a33.56,33.56,0,0,0,31.29,0Zm12.13-9a1.26,1.26,0,0,0,.59.15,1.32,1.32,0,0,0,1.16-.7l.15-.31a1.29,1.29,0,1,0-2.3-1.19l-.16.31A1.3,1.3,0,0,0,790.89,346Zm-4.74-6.25a1.26,1.26,0,0,0,.59.15,1.3,1.3,0,0,0,1.15-.7l.16-.31a1.29,1.29,0,0,0-.55-1.74,1.3,1.3,0,0,0-1.75.55l-.16.31A1.28,1.28,0,0,0,786.15,339.77ZM810,331.25a36.22,36.22,0,0,1-18.15,31.4,1.4,1.4,0,0,1-1,.13,1.32,1.32,0,0,1-.78-.61L772.67,331.9A1.3,1.3,0,0,1,773.8,330h34.91A1.29,1.29,0,0,1,810,331.25Zm-2.61,1.3H776l13,22.59a28.24,28.24,0,0,0,12.64-18.79,1.3,1.3,0,0,1,2.55.46,30.84,30.84,0,0,1-13.9,20.57l1.35,2.35A33.76,33.76,0,0,0,807.39,332.55Zm-39.58,14.67h.34a1.3,1.3,0,1,0,0-2.59h-.34a1.3,1.3,0,1,0,0,2.59Zm-4-.71a4.15,4.15,0,1,1-4.15-4.15A4.16,4.16,0,0,1,763.83,346.51Zm-2.59,0a1.56,1.56,0,1,0-1.56,1.56A1.55,1.55,0,0,0,761.24,346.51Zm.21-10.43a1.3,1.3,0,0,0,1.3,1.3h.34a1.3,1.3,0,1,0,0-2.59h-.34A1.3,1.3,0,0,0,761.45,336.08Zm1.52-24.4h.34a1.3,1.3,0,1,0,0-2.59H763a1.3,1.3,0,1,0,0,2.59Zm-10.3,21.21a4.15,4.15,0,1,1-4.15-4.15A4.17,4.17,0,0,1,752.67,332.89Zm-2.59,0a1.56,1.56,0,1,0-1.56,1.55A1.56,1.56,0,0,0,750.08,332.89Z"/><path class="cls-18" d="M746.29,397.69s9.44,7.5,10.07,11.5-11.37-1.3-11.37-1.3Z"/><circle class="cls-19" cx="692.97" cy="333.35" r="24" transform="translate(124.63 851.34) rotate(-68.04)"/><path class="cls-20" d="M695.07,343a2.22,2.22,0,0,0,1.4-.48l8.47-6.64a2.27,2.27,0,1,0-2.8-3.57l-6.76,5.3-11.25-13.13a2.27,2.27,0,1,0-3.44,2.95l12.66,14.78A2.27,2.27,0,0,0,695.07,343Z"/><ellipse class="cls-21" cx="651.99" cy="316.73" rx="125.01" ry="132.88" transform="translate(202.94 885.73) rotate(-77.63)"/><path class="cls-22" d="M710.55,238l4.34-19.82s-13.64-8.94-38-15.17l-5.28,19.12S689.05,223.92,710.55,238Z"/><path class="cls-18" d="M750,366.64s3.56-35.48-12.34-56.76-31.38-24.19-77.18-28.06-84,13.54-95.41,37.41-9.45,56.36,2,84.09l8.12,13.5s-11.12,15.75-12.39,68,32.06,96.32,32.06,96.32L649,597.23H979.15s23.62-57.76,20.73-85.9c-4-39-32.85-117.69-121.26-117.69-22.37,0-57.25,10.52-71.27,12.06C749.94,412,746.84,389,746.84,389Z"/><g class="cls-3"><path d="M698.45,446.11s-18.4,1.6-40.05,24.39-27.31,78.57-27.31,78.57l3-1.3Z"/></g><path class="cls-18" d="M525,583.48c5.32-1.91,18.1-3.48,18.1-3.48s17.35-6.92,35.66-15.64l55.31-16.59s5.44-37.36,21.55-65.61c26.08-45.75,81-42.91,81-42.91l33.05,66.91s-30.32,32-36.27,59,0,31.82,0,31.82l-176,.26H514.21A16,16,0,0,1,525,583.48Z"/><path class="cls-23" d="M728.71,438.58s14.34-17.19,27.12-23.1S745,407.89,745,407.89s-39.25,24.64-46.5,37.94C698.34,446.11,726.77,438.07,728.71,438.58Z"/><path class="cls-7" d="M802.82,407.15h22.59s-42.3,24.18-41.1,107.58c0,.5-19.11.45-19.11.45S758.93,448.25,802.82,407.15Z"/><path class="cls-17" d="M743.22,391.94c-2.11,41.61,46.62,18.31,86.3,19s82,7.87,99.85,4.39c15-2.93,14.44-26.93,12.09-48.1-1.21-10.88-13.07-21.76-87-21.76-72.53,0-104,8.46-108.93,29.44A81,81,0,0,0,743.22,391.94Z"/><path class="cls-24" d="M942.67,372.09c0-16.92-14.28-26.59-88.24-26.59-67.7,0-108.8,8.46-108.93,29.44,0,.79,14.3-6.38,65.41-12.52,30.22-3.62,67.53-1.73,93.08,1.21C935.42,367.26,942.67,372.09,942.67,372.09Z"/><path class="cls-7" d="M575.19,416.82c-18.67-23.76-24.78-55.27-15.53-84a107.3,107.3,0,0,1,5.41-13.56c11.45-23.87,49.61-41.28,95.41-37.41s61.28,6.77,77.18,28.06a76,76,0,0,1,9.65,18.32c.34.87.66,1.75,1,2.63,9.25,26.61,4.62,57-9.68,79.88l-3.84,6.11C651.35,473.63,576.4,418,576.4,418l-1.21-1.21Z"/><path class="cls-7" d="M734.64,312.37s-8-60.91-17.31-67.84-44.79,42.12-44.79,42.12l48,21.86Z"/><path class="cls-7" d="M634,286s-17.47-26.33-21.14-30-12.09-17.29-20.5-12.32S579,301.75,579,301.75l36.9-7.33Z"/><path class="cls-18" d="M893.2,694.2c4.93-33.59,34-58.15,63.43-75.16,4.66-2.7,9.49-5.38,13-9.49s6.67-6.48,4.5-11.41c-2.86-6.49-12.24-12-19.24-13.22l-33.8-5.66,9.12-47.36c19.43,2.94,39.06,5.94,57.24,13.38s35,19.87,43.89,37.4,8.16,40.57-4.85,55.29c-9.72,11-24.67,16.16-34.68,26.89a44.44,44.44,0,0,0-8.45,46.07c4.56,11.12,13.85,21,13.45,33-.56,16.38-19.15,26.44-35.54,26.89a66.92,66.92,0,0,1-68-76.61Z"/><g class="cls-3"><path d="M718.4,304.05s0-51.63-5.09-52.43-31.88,35.58-31.88,35.58S702.61,308.33,718.4,304.05Z"/></g><g class="cls-3"><path d="M628.27,288s-30-42-34.57-39.75-5.31,47.48-5.31,47.48S617.9,300.66,628.27,288Z"/></g><path class="cls-18" d="M487.68,489.77c4.38-.66,21,1.37,21,1.37l39.55,7.43,34,.8,9.37,55.82S557,549.38,547.26,546,502.53,511.33,501,511.33s-19.7-4.87-19.7-4.87c-1.51-.67-4.78-2.61-3.57-8.65C478.66,493.29,484.5,490.26,487.68,489.77Z"/><g class="cls-3"><path d="M548.2,498.57s5.28,32.25,27,53.64l2.95.57L563.1,499Z"/></g><g class="cls-4"><path class="cls-20" d="M868.05,596.09a59.18,59.18,0,0,0-25.58-22.2s-11.89-4.33-26.17,1.73-15.8,15.15-17.07,21.44Z"/></g><path class="cls-25" d="M832.35,580.58a20.66,20.66,0,0,0-4.78-.18,25.08,25.08,0,0,0-11.27,2.67,14.54,14.54,0,0,0-4.89,4.24,11.88,11.88,0,0,0-2,4.89,9.42,9.42,0,0,0,.11,3.55A2.74,2.74,0,0,0,810,597a14.06,14.06,0,0,1,0-4.65,11.71,11.71,0,0,1,2-4.54,14.37,14.37,0,0,1,4.66-4A27.3,27.3,0,0,1,827.6,581,37.1,37.1,0,0,0,832.35,580.58Z"/><path class="cls-25" d="M609.21,402.53a2.7,2.7,0,0,0,.28.59c.2.37.5.92.92,1.61a59,59,0,0,0,4,5.76,66.58,66.58,0,0,0,18.16,16.1l1,.57-.38-1.05a24.87,24.87,0,0,1-1.42-9.37l-.77.19a36.61,36.61,0,0,0,13,12.91l.85.49-.24-.95c-1-4-1.94-7.77-2.83-11.33l-.65.35a39,39,0,0,0,13.25,9.33l.84.36-.5-.76a32.86,32.86,0,0,1-3.94-8.4c-.32-1.05-.52-1.86-.66-2.41a3.2,3.2,0,0,0-.24-.84,3.8,3.8,0,0,0,.09.87c.09.56.24,1.39.52,2.46a31,31,0,0,0,3.77,8.62l.34-.41a39.26,39.26,0,0,1-12.91-9.33l-1-1.1.35,1.45c.87,3.55,1.8,7.35,2.77,11.34l.61-.46a36,36,0,0,1-8.15-6.52,36.69,36.69,0,0,1-4.59-6.09l-.72-1.19,0,1.38a25.24,25.24,0,0,0,1.51,9.68l.57-.48a69,69,0,0,1-18.18-15.71c-1.87-2.31-3.23-4.25-4.14-5.6A20.62,20.62,0,0,0,609.21,402.53Z"/><path class="cls-25" d="M721.11,306.75s-.1-.19-.36-.51a14.89,14.89,0,0,0-1.16-1.34,31.67,31.67,0,0,0-5-4.22,55.85,55.85,0,0,0-19.82-8.26l-.19,0,.23.68a15.94,15.94,0,0,1,6.13-4.41l.93-.37-.92-.38a32,32,0,0,0-15.86-2.2,28.27,28.27,0,0,0-4.59.92,7.35,7.35,0,0,0-1.58.58c0,.14,2.29-.65,6.22-1a33,33,0,0,1,15.49,2.44v-.75a16.43,16.43,0,0,0-6.47,4.62l-.45.53.69.15.18.05a58.89,58.89,0,0,1,19.67,7.92A52.5,52.5,0,0,1,721.11,306.75Z"/><path class="cls-25" d="M632,287.58a1.79,1.79,0,0,0-.62-.17c-.41-.07-1-.21-1.81-.28a38.91,38.91,0,0,0-6.75-.18,57.24,57.24,0,0,0-21.55,5.48l.61.39,0-.41a10.71,10.71,0,0,1,1.44-3.73c.66-1.18,1.4-2.28,2-3.41l.51-.88-1,.28a38,38,0,0,0-14.85,8.26,25.28,25.28,0,0,0-3.35,3.67,7.42,7.42,0,0,0-1,1.51,49,49,0,0,1,4.66-4.8,39.49,39.49,0,0,1,14.72-7.85l-.47-.6c-.63,1.09-1.39,2.2-2.07,3.41a11.3,11.3,0,0,0-1.55,4l0,.49,0,.71.66-.32a60.33,60.33,0,0,1,21.22-5.65,48.15,48.15,0,0,1,6.68-.09A17.9,17.9,0,0,0,632,287.58Z"/><g class="cls-4"><path class="cls-20" d="M580.88,470.92c5.47-11.83,14.54-22.64,26.82-27s27.88-.49,34.34,10.82c3.16,5.53,3.91,12.17,3.37,18.51s-2.3,12.52-3.86,18.69c-4.7,18.5-10.47,38.91-11.93,57.94L590,561.22c-7.52-17.05-15.16-34.57-16.22-53.18A78.31,78.31,0,0,1,580.88,470.92Z"/></g><g class="cls-4"><path class="cls-20" d="M556.74,597.23l-13.61-16.87s-20.4-.3-26,8.9a14.59,14.59,0,0,0-1.9,3.33,28.05,28.05,0,0,0-1.06,4.64Z"/></g><path class="cls-25" d="M522.94,598.53a23.36,23.36,0,0,0,.86-3.53c.53-2.09,1.44-5.28,4.22-7.09s6.08-1.56,8.23-1.34a21.09,21.09,0,0,0,3.62.37,12.53,12.53,0,0,0-3.53-1,16.53,16.53,0,0,0-4-.25,10.24,10.24,0,0,0-4.76,1.47,8.83,8.83,0,0,0-3.21,3.83,16.06,16.06,0,0,0-1.15,3.85A11.62,11.62,0,0,0,522.94,598.53Z"/><g class="cls-4"><path class="cls-20" d="M926.3,762c-5.41-2.49-7.64-9.88-8.27-15.81a41,41,0,0,1,64.83-37.58s4.31,10.07,6.14,13.3,16.62,22.48.82,37.41-34.47,11.67-40,10.82C935.31,767.86,926.3,762,926.3,762Z"/></g><path class="cls-25" d="M514.21,597.23s0-.75.36-2.16a14.92,14.92,0,0,1,2.71-5.72h0c1.74-2.58,5.08-5.07,9.59-6.59a50.49,50.49,0,0,1,16.25-2.47h.07l0,0L579,564.7h0l55.32-16.54.25-.07,0-.25c.73-3.86,1.51-8,2.37-12.1,4-19.73,9.78-38.32,18.74-53.33a91.07,91.07,0,0,1,15.26-19.37,72.55,72.55,0,0,1,17.56-12.34A107,107,0,0,1,705,444.18c5-1.54,9.4-2.63,13-3.5l8.3-1.91,2.16-.51c.48-.11.72-.19.72-.19s-.25,0-.74.11l-2.18.42c-1.91.38-4.72.95-8.34,1.76s-8,1.87-13.06,3.37a104.81,104.81,0,0,0-16.67,6.45,72.27,72.27,0,0,0-17.78,12.36A91.53,91.53,0,0,0,655,482c-9.07,15.11-14.89,33.79-18.91,53.56-.85,4.14-1.64,8.25-2.36,12.11l.29-.32L578.7,564h-.05L543,579.75l.12,0a50.27,50.27,0,0,0-16.4,2.63c-4.56,1.58-8,4.16-9.69,6.83h0a14.59,14.59,0,0,0-2.63,5.87A9,9,0,0,0,514.21,597.23Z"/><g class="cls-3"><path d="M801.5,569.75a31.6,31.6,0,0,1,23.63-9.54,63.84,63.84,0,0,1-14.26-53.48,62.62,62.62,0,0,1,9.3-22.36c-2.57,8.64-3,17.95-2.25,27a118.66,118.66,0,0,0,22.82,60.89c-8-1.29-19.85.62-29.06,4.91a22.2,22.2,0,0,0-12.35,16.55l-.68,3.63-5.86-.29C792.13,588.33,795.43,576.06,801.5,569.75Z"/></g><path class="cls-25" d="M981.1,597l-.9,0-2.65,0-10.24-.07-38.15-.11-129.93-.1.4.48a56.92,56.92,0,0,1,1.12-5.76,22.77,22.77,0,0,1,2.36-5.35,21.08,21.08,0,0,1,8.58-8,58,58,0,0,1,23.83-5.55,33.71,33.71,0,0,1,5.59.38l1,.16-.61-.83a118.29,118.29,0,0,1-22.85-61.95,79,79,0,0,1,1.06-20.52,48.44,48.44,0,0,1,7.29-18,49.93,49.93,0,0,1,12.85-13.06,71.12,71.12,0,0,1,30.53-12,109.72,109.72,0,0,1,27.28-.23c8,.88,14.83,2.19,20.37,3.34s9.84,2.17,12.74,2.83l3.31.76,1.14.23s-.38-.12-1.12-.32l-3.29-.83c-2.89-.72-7.17-1.78-12.71-3A203.8,203.8,0,0,0,897.72,446a108.89,108.89,0,0,0-27.41.11,71.51,71.51,0,0,0-30.85,12,57.18,57.18,0,0,0-7,5.9,50.56,50.56,0,0,0-6,7.32A49.22,49.22,0,0,0,819,489.56a79.24,79.24,0,0,0-1.09,20.72,118.63,118.63,0,0,0,3.45,21.39,119.92,119.92,0,0,0,19.51,41l.41-.66a35.48,35.48,0,0,0-5.73-.4,59.21,59.21,0,0,0-24.2,5.65,22.06,22.06,0,0,0-8.91,8.32,23,23,0,0,0-2.44,5.55,54.32,54.32,0,0,0-1.14,5.85l-.09.48h.5l129.94-.18,38.14-.14,10.24-.07,2.65,0C980.8,597,981.1,597,981.1,597Z"/><path class="cls-25" d="M481.39,503.39a19.47,19.47,0,0,0,2.17-2.74c1.29-1.64,3.31-4,6.39-4.84s5.95.59,7.81,1.53a22.55,22.55,0,0,0,3.1,1.6,10.56,10.56,0,0,0-2.81-2.12,16,16,0,0,0-3.51-1.63,8.88,8.88,0,0,0-4.8-.19c-3.43.92-5.47,3.55-6.66,5.3A12.15,12.15,0,0,0,481.39,503.39Z"/><path class="cls-20" d="M634.84,335.61c0,.24,3,0,6.57.34s6.43,1.19,6.51.95-2.71-1.43-6.43-1.79S634.8,335.4,634.84,335.61Z"/><path class="cls-20" d="M725.26,271.84a23.31,23.31,0,0,0,.62,4.28c.51,2.92,1.11,6.41,1.78,10.27s1.14,7.37,1.59,10.29a23.35,23.35,0,0,0,.78,4.26,21.19,21.19,0,0,0-.19-4.33c-.24-2.66-.69-6.33-1.35-10.36s-1.4-7.65-2-10.25A20.17,20.17,0,0,0,725.26,271.84Z"/><path class="cls-20" d="M608.94,257c-.18.14,4,5.68,9.27,12.36s9.75,12,9.93,11.85-4-5.68-9.27-12.37S609.12,256.81,608.94,257Z"/><path class="cls-20" d="M985.3,469.24a25.75,25.75,0,0,0-2.22-4.59,91.43,91.43,0,0,0-6.72-10.31c-8.13-10.83-13.32-14.67-8-9.34a23.31,23.31,0,0,0-3.79-3.41,41.21,41.21,0,0,0,3.36,3.82c2.09,2.33,4.91,5.61,7.78,9.43s5.23,7.45,6.87,10.11A37.86,37.86,0,0,0,985.3,469.24Z"/><g class="cls-11"><path class="cls-20" d="M621.78,337.77,626,336a24.07,24.07,0,0,1,6.39-3.2l7.51-51.19a154.59,154.59,0,0,1,25.73.6s-10.88,18.16-15.31,51a24.3,24.3,0,0,1,5.56,3A26,26,0,0,1,641.76,383a27,27,0,0,1-25.54-15.73A27.31,27.31,0,0,1,621.78,337.77Z"/></g><circle class="cls-20" cx="684.33" cy="333.4" r="23.23" transform="translate(-61.15 179.38) rotate(-14.3)"/><path class="cls-25" d="M661.1,333.4a39.19,39.19,0,0,1,.89-5.64,23.12,23.12,0,0,1,8.47-12.59,22.78,22.78,0,0,1,9.65-4.25,23.09,23.09,0,0,1,12,1,21.74,21.74,0,0,1,5.77,3.12,21.34,21.34,0,0,1,4.82,4.85,22.74,22.74,0,0,1,0,27,23,23,0,0,1-10.59,8,23.13,23.13,0,0,1-12,1,22.83,22.83,0,0,1-9.65-4.25A23.15,23.15,0,0,1,662,339a39.42,39.42,0,0,1-.89-5.63,1.46,1.46,0,0,0,0,.37c0,.3,0,.67,0,1.11a11.65,11.65,0,0,0,.14,1.8,17.82,17.82,0,0,0,.44,2.43,22.27,22.27,0,0,0,2.51,6.27A23.46,23.46,0,0,0,680,356.55a23.61,23.61,0,0,0,12.39-1,22.52,22.52,0,0,0,6-3.2,22.26,22.26,0,0,0,5-5,23.49,23.49,0,0,0,0-27.95,23.62,23.62,0,0,0-11-8.21,23.6,23.6,0,0,0-12.39-1,23.46,23.46,0,0,0-15.8,11.17,22.16,22.16,0,0,0-2.51,6.27,17.82,17.82,0,0,0-.44,2.43,11.65,11.65,0,0,0-.14,1.8c0,.44,0,.81,0,1.11A1.59,1.59,0,0,0,661.1,333.4Z"/><path class="cls-25" d="M650,335.49a26.2,26.2,0,0,0-18-.49,2,2,0,0,0-1.56,3.28l6.7,7.79a2,2,0,0,0,2.58.37L651,339.13A2,2,0,0,0,650,335.49Z"/><path class="cls-25" d="M638.24,345.83a6,6,0,0,0-.41,1.73,19.39,19.39,0,0,0-.06,4.87,18.92,18.92,0,0,0,2.2,6.89,16.9,16.9,0,0,0,6.2,6.33,15.15,15.15,0,0,0,8.6,2.12,14.34,14.34,0,0,0,6.86-2.32,12.49,12.49,0,0,0,3.48-3.41,5,5,0,0,0,.82-1.59,16.58,16.58,0,0,1-4.62,4.5,14.28,14.28,0,0,1-6.59,2,14.72,14.72,0,0,1-8.13-2.07,16.44,16.44,0,0,1-5.94-6,19.28,19.28,0,0,1-2.29-6.58A35.47,35.47,0,0,1,638.24,345.83Z"/><path class="cls-25" d="M612.18,355.44a5.91,5.91,0,0,0,.76,1.47,27.34,27.34,0,0,0,2.59,3.7,12.52,12.52,0,0,0,5.48,3.95,11,11,0,0,0,8.22-.74,14.4,14.4,0,0,0,6.08-5.59,20.9,20.9,0,0,0,2.45-6.27,27.62,27.62,0,0,0,.64-4.47,5.67,5.67,0,0,0,0-1.66c-.16,0-.26,2.35-1.2,6a21.85,21.85,0,0,1-2.54,6,13.9,13.9,0,0,1-5.79,5.24,10.41,10.41,0,0,1-7.61.76,12.3,12.3,0,0,1-5.27-3.61C613.51,357.41,612.32,355.34,612.18,355.44Z"/><path class="cls-25" d="M628.93,367.57c-.08.05.42,1,1.73,2.21a11.58,11.58,0,0,0,12.86,1.7c1.56-.79,2.31-1.61,2.24-1.68s-.94.52-2.49,1.14A12.3,12.3,0,0,1,631,369.31C629.7,368.31,629,367.48,628.93,367.57Z"/><circle class="cls-20" cx="601.26" cy="329.98" r="23.23" transform="translate(-59.46 146.01) rotate(-13.2)"/><path class="cls-25" d="M578,330a39.84,39.84,0,0,1,.88-5.63,23.19,23.19,0,0,1,8.47-12.6A22.89,22.89,0,0,1,609,308.53a22.85,22.85,0,0,1,10.59,8,22.74,22.74,0,0,1,0,27,23,23,0,0,1-10.59,8,23,23,0,0,1-30.13-15.82A39.84,39.84,0,0,1,578,330s0,.13,0,.38,0,.66,0,1.1a10.45,10.45,0,0,0,.14,1.8,15.19,15.19,0,0,0,.44,2.43,21.75,21.75,0,0,0,2.51,6.27,23.44,23.44,0,0,0,15.79,11.18,23.64,23.64,0,0,0,12.4-1,22,22,0,0,0,6-3.2,22.46,22.46,0,0,0,5-5,23.45,23.45,0,0,0,0-27.94,23.53,23.53,0,0,0-11-8.21A23.41,23.41,0,0,0,587,311.28a23.23,23.23,0,0,0-5.91,6.72,21.75,21.75,0,0,0-2.51,6.27,15,15,0,0,0-.44,2.43,10.34,10.34,0,0,0-.14,1.79c0,.45,0,.81,0,1.11S578,330,578,330Z"/><path class="cls-26" d="M667.5,335.89c1.57,8.37,8.19,14.15,14.8,12.91s10.69-9,9.13-17.39-8.19-14.14-14.8-12.91S665.94,327.52,667.5,335.89Z"/><path class="cls-26" d="M593.94,328.87c-1.09,8.44,3.43,16,10.09,16.84s13-5.28,14.05-13.72-3.43-16-10.09-16.85S595,320.43,593.94,328.87Z"/><g class="cls-11"><path d="M749.84,339.88c-8.44,2.19-16.14,4.17-24.85,3.75-2.78-.14-6-.83-7.23-3.31-1.08-2.15-.18-4.87,1.5-6.6a17.37,17.37,0,0,1,6.21-3.57L745.62,322C748,329.31,749.72,335.72,749.84,339.88Z"/></g><g class="cls-11"><path d="M558.75,339.46c.73-3.88,1.83,11.12,4.24,14.24s5.65,5.49,8.73,8,6.11,5.18,7.88,8.71c1.59,3.17,1.87,7.44-.67,9.92-2.07,2-5.27,2.21-8.17,2.17-3.45-.05-9.06-.14-10.8-3.12C560,379.35,555.12,358.8,558.75,339.46Z"/></g><path class="cls-25" d="M658.67,355.59c0,.23,24.83,4.58,55.51,9.7s55.6,9.1,55.63,8.87-24.83-4.57-55.52-9.7S658.7,355.36,658.67,355.59Z"/><path class="cls-25" d="M656,359a4.68,4.68,0,0,0,.9.36l2.61.87c2.27.75,5.57,1.77,9.65,3,8.17,2.44,19.5,5.57,32.1,8.59s24.08,5.36,32.41,6.88c4.16.76,7.54,1.34,9.87,1.7l2.69.4a4,4,0,0,0,1,.08,3.68,3.68,0,0,0-.92-.25l-2.68-.56-9.83-2c-8.3-1.67-19.75-4.1-32.34-7.11s-23.94-6.06-32.13-8.34l-9.7-2.72-2.64-.72A3.86,3.86,0,0,0,656,359Z"/><path class="cls-25" d="M529.46,355.62c0,.23,21.44-.09,47.87-.72s47.86-1.33,47.85-1.56-21.43.09-47.87.72S529.46,355.39,529.46,355.62Z"/><path class="cls-25" d="M545.79,371.83c0,.23,16.71-2.67,37.23-6.48s37.12-7.08,37.08-7.31-16.71,2.68-37.23,6.48S545.75,371.6,545.79,371.83Z"/><path class="cls-20" d="M645.68,382.47c-.08.19,3.87,1.07,8.47-.42s7.35-4.44,7.17-4.55-3,2.38-7.42,3.75S645.69,382.2,645.68,382.47Z"/><path class="cls-20" d="M655.87,388.34c0,.22,3.34.21,7.25-1s6.7-3,6.58-3.18-3,1.24-6.82,2.37S655.85,388.09,655.87,388.34Z"/><path class="cls-7" d="M679.07,286.8c6.71-1.63,15.44-.39,22.12,1.36a13,13,0,0,0-6.92,4.15c10.86,3.64,22.22,7.6,30,16.05l-8,1.81L686,305.59Z"/><path class="cls-7" d="M586.24,296.79c4.51-5.22,12.34-9.28,18.8-11.73a12.93,12.93,0,0,0-3.23,7.39c11-3.33,22.51-6.7,33.71-4.31l-5.44,6.1-27.27,13.81Z"/><path class="cls-25" d="M522.2,288.26s.2-.68.55-2c.17-.68.38-1.51.64-2.5s.54-2.14,1-3.42.85-2.73,1.34-4.32,1.21-3.27,1.89-5.12,1.6-3.77,2.47-5.86,2.05-4.22,3.19-6.51a123.18,123.18,0,0,1,9-14.42,126.2,126.2,0,0,1,13.24-15.31,128.54,128.54,0,0,1,41-26.92,136.42,136.42,0,0,1,58.49-10,139.41,139.41,0,0,1,32.79,5.48,135,135,0,0,1,32.33,14,133.16,133.16,0,0,1,51.12,54.6,131,131,0,0,1,7.41,18.42A120.61,120.61,0,0,1,783,304.05a118.67,118.67,0,0,1-29.52,95.1,130.85,130.85,0,0,1-14.45,13.64A133.2,133.2,0,0,1,669.79,441a135.33,135.33,0,0,1-35.22-.83,139.7,139.7,0,0,1-32.08-8.75,136.27,136.27,0,0,1-48.93-33.58,128.33,128.33,0,0,1-26-41.62,122.25,122.25,0,0,1-7.79-36.32c-.07-2.56-.18-5-.16-7.24s.06-4.39.21-6.36.29-3.78.42-5.44.42-3.14.59-4.48.36-2.51.56-3.51.34-1.85.46-2.54c.25-1.36.35-2.06.35-2.06s-.16.69-.43,2.05q-.21,1-.51,2.52c-.21,1-.42,2.18-.59,3.52s-.4,2.83-.63,4.48-.3,3.48-.47,5.45-.15,4.09-.25,6.37.07,4.69.13,7.26a126.48,126.48,0,0,0,2.11,16.94,125.72,125.72,0,0,0,31.57,61.38A136.94,136.94,0,0,0,602.24,432a139.54,139.54,0,0,0,32.22,8.83,135.53,135.53,0,0,0,35.4.87,133.75,133.75,0,0,0,69.72-28.33,130.55,130.55,0,0,0,14.54-13.72,120.75,120.75,0,0,0,12.29-16.19,118.37,118.37,0,0,0,17.44-79.56,122.21,122.21,0,0,0-4.38-19.84,130.14,130.14,0,0,0-58.93-73.43,136.41,136.41,0,0,0-32.51-14,139.81,139.81,0,0,0-33-5.47,136.83,136.83,0,0,0-58.74,10.16,128.81,128.81,0,0,0-41.14,27.12A121.94,121.94,0,0,0,533,258.36c-1.13,2.3-2.23,4.47-3.15,6.54s-1.76,4-2.45,5.89-1.28,3.58-1.85,5.14-.91,3.05-1.3,4.34-.71,2.44-.93,3.44-.44,1.83-.6,2.51C522.35,287.57,522.2,288.26,522.2,288.26Z"/><path d="M904.37,664a54.73,54.73,0,0,1,19.18-13.78,47.47,47.47,0,0,1,23.4-3.68,54.57,54.57,0,0,1,11.64,2.65c.93.35,1.85.73,2.78,1.09l1.38.56,1.34.65,2.69,1.31,2.57,1.51,1.29.75c.42.26.82.55,1.24.82l2.46,1.67c1.63,1.14,3.16,2.4,4.74,3.6l4.45,3.93,4.21,4.18A96.36,96.36,0,0,0,969,655l-2.57-1.42-2.66-1.27-1.33-.63-1.37-.54c-.91-.35-1.82-.73-2.74-1.06a53,53,0,0,0-11.45-2.52,47.53,47.53,0,0,0-23,3.4A59.15,59.15,0,0,0,904.37,664Z"/><path d="M959.13,617.58a51.85,51.85,0,0,1,18.43-6.77,34.16,34.16,0,0,1,19.5,2.27,29.37,29.37,0,0,1,8.21,5.6,36.25,36.25,0,0,1,6.2,7.72,45.72,45.72,0,0,1,2.38,4.34c.74,1.47,1.33,3,2,4.52l1.58,4.67,1.28,4.75a68.75,68.75,0,0,0-7.88-17.87c-3.5-5.43-8.24-10.22-14.18-12.83a30.44,30.44,0,0,0-9.28-2.57,40.3,40.3,0,0,0-9.69.16,51.88,51.88,0,0,0-9.51,2.21A58.52,58.52,0,0,0,959.13,617.58Z"/><path d="M923.2,760.73a37.88,37.88,0,0,1-4.87-26.26,40.67,40.67,0,0,1,4.83-12.75,44.61,44.61,0,0,1,8.54-10.66,39.63,39.63,0,0,1,11.56-7.28,36.33,36.33,0,0,1,13.37-2.69,43.41,43.41,0,0,1,13.45,2,58.86,58.86,0,0,1,12.35,5.62,62.6,62.6,0,0,0-12.49-5.15,42.77,42.77,0,0,0-13.29-1.74,37.22,37.22,0,0,0-13,2.76,39.17,39.17,0,0,0-11.23,7.18,43.43,43.43,0,0,0-13.3,22.82,37.13,37.13,0,0,0-.21,13.38A38.59,38.59,0,0,0,923.2,760.73Z"/><path d="M992.4,557c-.41,1.57-.72,3.18-1.14,4.76s-.89,3.14-1.4,4.69a65.11,65.11,0,0,1-3.82,9,55.47,55.47,0,0,1-5.22,8.31,46.27,46.27,0,0,1-6.7,7.14c.53-.62,1.06-1.24,1.61-1.84l.81-.91.74-1,1.51-1.9,1.4-2a72.73,72.73,0,0,0,5-8.32c1.49-2.87,2.79-5.83,4-8.84S991.27,560.05,992.4,557Z"/><path class="cls-25" d="M749.74,535.28a52.46,52.46,0,0,0-5.94,8.5,69.43,69.43,0,0,0-4.45,9.34,70.62,70.62,0,0,0-4.43,20.12,46.77,46.77,0,0,0-.22,5.16v3.88c0,.43.07.86.1,1.29l.22,2.57.11,1.29.06.65,0,.32v.2a.47.47,0,0,1-.09.35c-.15.17-.14.12-.19.16l-.12,0a4.33,4.33,0,0,1-.74.05h-.65l-1.28.07q-1.27.09-2.55.3a43,43,0,0,0-9.87,2.95,73.18,73.18,0,0,0-9.26,4.7c5.75-3.85,12.08-7.09,19-8.41.86-.16,1.73-.29,2.61-.37.44-.05.88-.07,1.32-.09l.65,0,.56,0,0,0s0,0-.12.11a.32.32,0,0,0-.07.27v-.2l0-.33-.07-.65-.12-1.3-.25-2.6c0-.44-.09-.87-.11-1.31l0-1.31,0-2.61a48.29,48.29,0,0,1,.18-5.24,69,69,0,0,1,4.72-20.32A56.51,56.51,0,0,1,749.74,535.28Z"/><path class="cls-22" d="M724.19,223.61c89.88,79.91,30.16,158.75,30.16,158.75C764.08,319,760.41,279.82,720.22,243Z"/><ellipse class="cls-20" cx="667.32" cy="334.03" rx="6.24" ry="1.61"/><ellipse class="cls-20" cx="594.79" cy="330.41" rx="6.24" ry="1.61"/><path class="cls-25" d="M942.06,371.49a150.51,150.51,0,0,0-23.1-6.55c-2-.4-3.91-.86-5.88-1.21l-5.93-1-3-.5c-1-.16-2-.27-3-.4l-6-.76a337.14,337.14,0,0,0-48-1.95l-12,.51c-2,.05-4,.25-6,.43l-6,.54-6,.53c-1,.1-2,.16-3,.29l-3,.4-11.91,1.6c-4,.45-7.91,1.24-11.86,1.94l-11.83,2.14c-1,.16-2,.36-2.94.59l-2.94.66L764,370.06l-11.74,2.64L764,369.82l5.85-1.44,2.92-.72c1-.25,1.95-.47,2.93-.65l11.82-2.28c3.94-.75,7.87-1.58,11.86-2.08l11.92-1.7,3-.41c1-.13,2-.2,3-.3l6-.56,6-.56c2-.19,4-.39,6-.45l12-.56a326,326,0,0,1,48.09,2.19l6,.83c1,.15,2,.26,3,.43l3,.54,5.92,1.08c2,.38,3.92.85,5.88,1.29A149.64,149.64,0,0,1,942.06,371.49Z"/><path class="cls-23" d="M811.26,388.14a.82.82,0,0,0,0,.23l0,.67a21.49,21.49,0,0,0,.31,2.62,54.94,54.94,0,0,0,2.91,9.56l.06.14.15,0a287.62,287.62,0,0,1,55.14-1.52l.35,0,0-.35c.37-4.29.76-8.77,1.15-13.35.29-3.32.57-6.6.85-9.8l0-.27L872,376l-2-.76H870a142.57,142.57,0,0,0-32.41-3.08c-4.84.06-9.3.3-13.35.61-4.05.51-7.59,1.31-10.66,2h-.07l0,0a4.81,4.81,0,0,0-.65,1.53q-.22.74-.39,1.44c-.22.94-.4,1.82-.54,2.65-.3,1.65-.47,3.07-.57,4.22a26.38,26.38,0,0,0-.11,2.65c0,.28,0,.5,0,.68a.72.72,0,0,0,0,.23,5.77,5.77,0,0,0,0-.91c0-.59.07-1.48.21-2.63s.34-2.55.66-4.19c.16-.82.34-1.69.58-2.62.12-.46.25-.93.4-1.41a5.38,5.38,0,0,1,.57-1.35l-.09.05c3.07-.61,6.63-1.38,10.63-1.85,4-.27,8.49-.48,13.3-.51a145.06,145.06,0,0,1,32.26,3.17l-.05,0,2,.77-.22-.36c-.28,3.2-.56,6.48-.85,9.8-.39,4.58-.78,9.06-1.15,13.35l.38-.32A272.49,272.49,0,0,0,814.65,401l.21.12a57.3,57.3,0,0,1-3.07-9.46c-.24-1.13-.35-2-.42-2.59A6.21,6.21,0,0,0,811.26,388.14Z"/><path class="cls-23" d="M825.08,389.32a4,4,0,1,0-2.56-5.07A4,4,0,0,0,825.08,389.32Z"/><path class="cls-23" d="M840,388.8a4,4,0,1,0-2.56-5.08A4,4,0,0,0,840,388.8Z"/></svg>