<svg version="1.0" xmlns="http://www.w3.org/2000/svg" width="682.667" height="682.667" viewBox="0 0 512 512"><path d="M246.3 21.8c-24.3 8.7-27.3 42.4-4.8 54.3l4.5 2.4v42.4l-3.2.5c-22.1 3.3-34.6 6.9-49.3 14.1-44.9 21.9-74.1 63.8-80 114.7-.5 4.5-1 5.8-2.3 5.8-3.7 0-33.5 8.1-46.2 12.6-32.7 11.3-53.3 25.2-61.1 40.9-11.7 23.8 4.3 47.4 44 64.6 5.3 2.3 10 4.5 10.4 4.9.5.4-3.7 14.8-9.2 31.9-7.8 23.9-10.1 32.4-10.1 36.6 0 20.4 20.1 35.1 39.5 28.9 9.3-2.9 13.9-8.3 38.5-44.7 12.2-18 22.8-32.7 23.5-32.7.8 0 8.7.9 17.7 2.1 9 1.1 26.2 2.8 38.3 3.7l22 1.7 2.7 29.4c1.5 16.1 3.2 31 3.8 33.1 1.4 5.4 6.7 12.9 11.8 16.7 15.4 11.7 39.1 6 48.1-11.5 2.7-5.2 3-7.4 6-39.5l2.6-28.2 10-.7c21.4-1.5 37.6-3 51.5-4.9 8-1 15.3-1.9 16.2-1.9 1.1 0 9.4 11.4 23.8 32.7 24.6 36.4 29.2 41.8 38.5 44.7 19.4 6.2 39.5-8.5 39.5-28.9 0-4.2-2.3-12.7-10.1-36.5-5.5-17-9.8-31.4-9.5-31.8.3-.5 2.7-1.7 5.3-2.7 23.3-8.8 42.6-23.2 49.4-37.1 3-6.1 3.4-7.8 3.4-14.9 0-7.1-.4-8.9-3.3-14.7-7.2-14.8-26.4-28.5-54.4-38.9-12.3-4.6-31.9-10.4-44-13l-10.7-2.4-.6-5.5c-5.9-51.2-36.5-94.4-81.9-115.5-14.5-6.8-25.4-9.8-47.3-13.1l-3.3-.5V99.7l.1-21.2 5.1-3c16.1-9.3 19.4-31.4 6.9-45.8-7.2-8.1-21.3-11.7-31.8-7.9zm14.6 19.6c6.7 3.5 6.5 14.3-.4 17.4-5.1 2.3-10.7.7-13.1-3.9-4.7-9.1 4.4-18.2 13.5-13.5zm19.9 102c23.4 5.1 42.6 15.3 59.6 31.6 22.1 21.1 34.8 46.6 38.1 76.6l.7 6-13.4 4.2c-20.9 6.5-39.6 10.5-64.4 13.9-18.4 2.5-72.4 2.5-90.8 0-24.6-3.3-47.7-8.4-67.9-15l-9.8-3.2.6-6c3.3-29.9 16.1-55.5 38.1-76.5 17.7-16.9 40.1-28.4 62.4-32 4.1-.6 8.2-1.3 9-1.5 3.8-1 31.2.5 37.8 1.9zM145.9 282.6c18.2 5.3 43.8 10.6 63.6 13.1 20 2.6 73 2.6 93 0 26.9-3.5 66.7-12.7 84.1-19.5 4.7-1.9 5-1.9 13.3 0 54.5 11.9 92.1 31.6 92.1 48.3 0 14.9-31.2 33.2-76.5 44.8-74.1 19-176.3 23.1-265.5 10.6-55.5-7.8-102.2-23.2-120.2-39.8-9.5-8.7-11.6-14.6-7.8-22 7.1-14.1 36.8-28.8 78.1-39 21.3-5.2 19.7-5 25.3-2.9 2.6 1 11.9 3.9 20.5 6.4zM88 387.9c3.6 1 11.2 2.8 17 4.1 5.8 1.2 10.9 2.6 11.3 3 .9.8-35.4 55.2-39.8 59.8-1.3 1.4-3.9 2.6-6.3 2.9-3.7.5-4.5.2-7.7-3-2.5-2.5-3.5-4.4-3.5-6.5 0-1.7 3.4-13.5 7.6-26.4 4.1-12.8 8.4-26.1 9.5-29.6 2.3-7.1 2.4-7.1 11.9-4.3zm347.9 4.3c1.1 3.5 5.4 16.8 9.5 29.6 4.2 12.9 7.6 24.7 7.6 26.4 0 2.1-1 4-3.5 6.5-3.2 3.2-4 3.5-7.7 3-2.4-.3-5-1.5-6.3-2.9-4.4-4.5-40.7-59-39.8-59.7.4-.4 5.3-1.8 10.9-3 5.5-1.2 12.9-3 16.5-4 10.3-3.1 10.4-3 12.8 4.1zM273 409.7c-.1 9.4-5.1 53.6-6.4 56.1-1.6 3.1-6.9 6.2-10.6 6.2-3.7 0-9-3.1-10.6-6.2-1.3-2.5-6.3-46.7-6.4-56.1V407h34v2.7z"/><path d="M139.5 310.8c-15.9 7.4-16.7 29.7-1.5 38.2 3.4 1.9 5.9 2.5 10.5 2.4 12.2 0 20.9-8.7 20.9-20.9.1-7.5-3.1-13.6-9.2-17.9-5.5-3.9-14.6-4.7-20.7-1.8zM356 310.1c-8.3 3.3-13.4 11.1-13.4 20.4 0 6.6 1.5 10.4 6 14.9s8.3 6 14.9 6c18.6.1 28.4-21.2 16.2-35.1-1.8-2-5-4.4-7.2-5.4-4.3-2-12.5-2.4-16.5-.8zM246.2 323.1c-13.5 6.9-15.5 25.9-3.6 35.7 6.7 5.5 15.3 6.3 23.4 2.2 13.9-7.1 15.1-27.3 2.2-36.5-5.8-4-15.6-4.7-22-1.4z"/></svg>