<svg width="189" height="164" viewBox="0 0 189 164" fill="none" xmlns="http://www.w3.org/2000/svg">
<path d="M64.8642 78.8809L51.3201 163.464H133.052L121.259 79.9419L64.8642 78.8809Z" fill="url(#paint0_linear_190_654)"/>
<path d="M58.856 73.6382L57.2308 80.0279C57.2308 80.0279 94.7262 89.0419 127.23 80.5984L125.953 73.7523L58.856 73.6382Z" fill="url(#paint1_linear_190_654)"/>
<path d="M65.1246 78.0881C65.0085 78.6586 64.4281 79.001 63.8477 78.8868C63.2672 78.7727 62.919 78.2022 63.0351 77.6317C63.1511 77.0612 63.7316 76.7189 64.312 76.833C64.8924 76.9471 65.2407 77.5176 65.1246 78.0881Z" fill="white"/>
<path d="M79.8674 81.1689C80.4444 81.1689 80.9122 80.7091 80.9122 80.142C80.9122 79.5748 80.4444 79.1151 79.8674 79.1151C79.2904 79.1151 78.8226 79.5748 78.8226 80.142C78.8226 80.7091 79.2904 81.1689 79.8674 81.1689Z" fill="white"/>
<path d="M72.554 79.3433C72.4379 79.9138 71.8575 80.3702 71.277 80.2561C70.6966 80.142 70.2323 79.5715 70.3484 79.001C70.4644 78.4305 71.0449 77.9741 71.6253 78.0882C72.2057 78.2023 72.6701 78.7728 72.554 79.3433Z" fill="white"/>
<path d="M89.3863 80.9407C89.2702 81.5112 88.6898 81.8535 88.1094 81.7394C87.529 81.6253 87.1807 81.0548 87.2968 80.4843C87.4129 79.9138 87.9933 79.5715 88.5737 79.6856C89.1541 79.7997 89.5024 80.3702 89.3863 80.9407Z" fill="white"/>
<path d="M109.237 80.8266C109.121 81.3971 108.54 81.7394 107.96 81.6253C107.379 81.5112 107.031 80.9407 107.147 80.3702C107.263 79.7997 107.844 79.4574 108.424 79.5715C109.005 79.6856 109.353 80.2561 109.237 80.8266Z" fill="white"/>
<path d="M118.64 80.0279C118.524 80.5984 117.943 80.9407 117.363 80.8266C116.782 80.7125 116.434 80.142 116.55 79.5715C116.666 79.001 117.247 78.6587 117.827 78.7728C118.408 78.8869 118.756 79.4574 118.64 80.0279Z" fill="white"/>
<path d="M99.0213 81.283C98.9052 81.8535 98.3248 82.1958 97.7444 82.0817C97.164 81.9676 96.8157 81.3971 96.9318 80.8266C97.0479 80.2561 97.6283 79.9137 98.2087 80.0278C98.7891 80.1419 99.1374 80.7125 99.0213 81.283Z" fill="white"/>
<path d="M0.697417 47.7371C-0.115177 49.905 26.9326 76.2625 96.6996 77.4036C156.599 78.4305 188.174 54.2409 188.174 54.2409L0.697417 47.7371Z" fill="url(#paint2_linear_190_654)"/>
<path opacity="0.2" d="M0.697417 47.7371C-0.115177 49.905 26.9326 76.2625 96.6996 77.4036C156.599 78.4305 188.174 54.2409 188.174 54.2409L0.697417 47.7371Z" fill="black"/>
<path d="M0.000962703 46.4819C-0.231207 53.3281 41.5593 60.5165 93.4493 62.6844C145.339 64.8524 187.594 61.087 187.942 54.2409C188.291 47.3948 146.384 40.2063 94.4941 38.0384C42.6041 35.8705 0.349217 39.6358 0.000962703 46.4819Z" fill="url(#paint3_linear_190_654)"/>
<path opacity="0.4" d="M51.4265 43.4012C51.4265 43.4012 52.4713 1.52575 94.9583 0.042426C137.445 -1.555 137.097 42.4883 137.097 42.4883C137.097 42.4883 108.076 60.4024 51.4265 43.4012Z" fill="black"/>
<path d="M76.3848 8.25775C76.5009 8.48595 74.9918 9.39877 72.6701 11.2244C72.0897 11.6808 71.5093 12.1372 70.8128 12.7077C70.1162 13.2782 69.5358 13.8487 68.8393 14.5334C67.4463 15.9026 66.0533 17.3859 64.6603 19.2115C63.2672 20.9231 62.1064 22.7487 61.1777 24.3461C60.7134 25.1448 60.249 25.9435 59.9008 26.7423C59.5525 27.541 59.2043 28.2256 58.856 28.9102C57.6952 31.5345 57.1147 33.2461 56.8826 33.2461C56.6504 33.2461 56.8826 31.4204 57.8112 28.5679C58.0434 27.8833 58.2756 27.0846 58.6238 26.2859C58.9721 25.4871 59.3203 24.6884 59.7847 23.7756C60.7134 22.0641 61.8742 20.1243 63.2672 18.4128C64.6603 16.5872 66.1694 14.9898 67.6785 13.7346C68.4911 13.05 69.1876 12.4795 69.8841 11.909C70.5806 11.3385 71.2771 10.8821 71.8575 10.5398C74.5275 8.82826 76.3848 8.14365 76.3848 8.25775Z" fill="white"/>
<path d="M180.977 52.8716C180.977 52.8716 180.861 52.9857 180.745 53.2139C180.513 53.4422 180.281 53.6704 179.817 53.8986C179.004 54.4691 177.611 55.0396 175.87 55.496C172.387 56.5229 167.512 57.6639 162.056 58.3485C156.6 59.1472 151.492 59.2613 147.893 59.2613C146.036 59.2613 144.643 59.1472 143.598 59.1472C143.134 59.1472 142.785 59.0331 142.437 59.0331C142.205 59.0331 142.089 59.0331 142.089 59.0331C142.089 59.0331 142.205 59.0331 142.553 59.0331C142.902 59.0331 143.25 59.0331 143.714 59.0331C144.759 59.0331 146.152 59.0331 148.009 59.0331C151.608 59.0331 156.6 58.8049 162.056 58.0062C167.512 57.3216 172.387 56.1806 175.87 55.1537C177.611 54.6973 179.004 54.1268 179.817 53.6704C180.513 53.2139 180.861 52.8716 180.977 52.8716Z" fill="white"/>
<path d="M80.3317 76.833C80.3317 76.833 80.0995 76.7189 79.7512 76.4907C79.403 76.2625 78.9386 75.8061 78.3582 75.2356C77.7778 74.6651 77.1974 73.9805 76.617 73.1818C76.0365 72.3831 75.4561 71.3561 74.9918 70.3292C74.5274 69.3023 74.1792 68.1613 73.8309 67.2485C73.5987 66.2216 73.3666 65.3087 73.3666 64.6241C73.2505 63.8254 73.2505 63.2549 73.2505 62.7985C73.2505 62.3421 73.2505 62.1139 73.2505 62.1139C73.3666 62.1139 73.2505 63.0267 73.4827 64.51C73.5987 65.3087 73.7148 66.1075 74.0631 67.1344C74.2953 68.0472 74.7596 69.1882 75.2239 70.2151C75.6883 71.242 76.2687 72.269 76.8491 73.0677C77.4295 73.8664 78.01 74.6651 78.4743 75.1215C79.6352 76.1484 80.4477 76.833 80.3317 76.833Z" fill="#0C0C0C"/>
<path d="M78.3582 67.0203C78.3582 67.0203 78.2421 67.1344 78.126 67.3626C78.126 67.4767 78.126 67.5908 78.126 67.7049C78.2421 67.819 78.3582 67.819 78.4743 67.819C78.5904 67.819 78.7065 67.7049 78.7065 67.5908C78.7065 67.4767 78.7065 67.3626 78.5904 67.2485C78.5904 67.1344 78.3582 67.1344 78.3582 67.0203C78.3582 67.0203 78.5904 66.9062 78.8226 67.1344C78.9386 67.2485 79.0547 67.3626 79.0547 67.7049C79.0547 67.9331 78.8226 68.1613 78.4743 68.1613C78.2421 68.1613 77.8939 68.0472 77.7778 67.819C77.6617 67.5908 77.7778 67.3626 77.7778 67.2485C78.126 67.0203 78.3582 67.0203 78.3582 67.0203Z" fill="#0C0C0C"/>
<path d="M80.68 72.1549C80.68 72.1549 80.5639 72.269 80.4478 72.4972C80.4478 72.6113 80.4478 72.7254 80.4478 72.8395C80.5639 72.9536 80.68 72.9536 80.7961 72.9536C80.9122 72.9536 81.0282 72.8395 81.0282 72.7254C81.0282 72.6113 81.0282 72.4972 80.9122 72.3831C80.7961 72.1549 80.68 72.1549 80.68 72.1549C80.68 72.1549 80.9122 72.0408 81.1443 72.269C81.2604 72.3831 81.3765 72.4972 81.3765 72.8395C81.3765 73.0677 81.1443 73.2959 80.7961 73.2959C80.5639 73.2959 80.2157 73.1818 80.0996 72.9536C79.9835 72.7254 80.0996 72.4972 80.0996 72.3831C80.4478 72.0407 80.68 72.0407 80.68 72.1549Z" fill="#0C0C0C"/>
<path d="M0.233154 46.0255C0.233154 46.0255 0.349239 46.0255 0.697494 45.9114C1.04575 45.7973 1.51009 45.7973 2.2066 45.6832C3.48353 45.455 5.34089 45.1127 7.66259 44.7704C12.306 44.0858 18.6906 43.4012 25.7718 43.0589C32.853 42.7165 39.3538 42.7165 43.9971 42.9448C46.3188 43.0589 48.1762 43.173 49.4531 43.2871C50.0336 43.2871 50.614 43.4012 50.9622 43.4012C51.3105 43.4012 51.4266 43.4012 51.4266 43.5153C51.4266 43.5153 51.1944 43.5153 50.8462 43.5153C50.4979 43.5153 50.0336 43.5153 49.3371 43.4012C48.0601 43.2871 46.2028 43.2871 43.8811 43.173C39.2377 43.0589 32.853 43.0588 25.7718 43.4012C18.6906 43.7435 12.306 44.4281 7.66259 45.1127C5.34089 45.455 3.48353 45.6832 2.2066 45.9114C1.62617 46.0255 1.04575 46.0255 0.697494 46.1396C0.465324 46.0255 0.233154 46.0255 0.233154 46.0255Z" fill="#0C0C0C"/>
<path d="M135.936 62.6844C135.936 62.6844 135.704 62.4562 135.24 62.1139C134.776 61.7716 134.079 61.2011 133.266 60.6306C131.641 59.3755 129.32 57.5498 126.766 55.7242C124.212 53.8986 121.774 52.3012 120.033 51.1601C119.22 50.5896 118.524 50.1332 117.943 49.7909C117.479 49.4486 117.131 49.3345 117.247 49.2204C117.247 49.2204 117.595 49.3345 118.059 49.6768C118.524 50.0191 119.336 50.3614 120.149 50.9319C121.89 52.0729 124.328 53.6704 126.998 55.496C129.552 57.3216 131.873 59.1473 133.499 60.5165C134.311 61.2011 135.008 61.7716 135.356 62.1139C135.704 62.4562 135.936 62.6844 135.936 62.6844Z" fill="#0C0C0C"/>
<path d="M119.568 53.3281C119.568 53.3281 119.452 53.4422 119.336 53.7845C119.336 53.8986 119.336 54.1268 119.452 54.2409C119.568 54.355 119.801 54.355 120.033 54.355C120.265 54.2409 120.381 54.1268 120.381 53.8986C120.381 53.6704 120.265 53.5563 120.265 53.4422C120.033 53.214 119.801 53.214 119.801 53.214C119.801 53.214 120.033 53.0998 120.381 53.3281C120.497 53.4422 120.729 53.6704 120.729 54.0127C120.729 54.355 120.497 54.5832 120.149 54.6973C119.801 54.8114 119.452 54.6973 119.336 54.4691C119.104 54.2409 119.104 54.0127 119.22 53.7845C119.22 53.4422 119.568 53.3281 119.568 53.3281Z" fill="#0C0C0C"/>
<path d="M40.9788 44.0858C40.9788 44.0858 40.8627 44.1999 40.7467 44.5422C40.7467 44.6563 40.7467 44.8845 40.8627 44.9986C40.9788 45.1127 41.211 45.1127 41.4432 45.1127C41.6753 44.9986 41.7914 44.8845 41.7914 44.6563C41.7914 44.4281 41.6753 44.314 41.6753 44.1999C41.4432 43.9717 41.211 43.9717 41.211 43.9717C41.211 43.9717 41.4432 43.8576 41.7914 44.0858C41.9075 44.1999 42.1397 44.4281 42.1397 44.7704C42.1397 45.1127 41.9075 45.3409 41.5593 45.455C41.211 45.5691 40.8627 45.455 40.7467 45.2268C40.5145 44.9986 40.5145 44.7704 40.6306 44.5422C40.7467 44.1999 40.9788 44.0858 40.9788 44.0858Z" fill="#0C0C0C"/>
<path d="M26.3522 44.6563C26.3522 44.6563 26.2362 44.7704 26.1201 45.1127C26.1201 45.2268 26.1201 45.455 26.2362 45.5691C26.3522 45.6832 26.5844 45.6832 26.8166 45.6832C27.0487 45.5691 27.1648 45.455 27.1648 45.2268C27.1648 44.9986 27.0487 44.8845 27.0487 44.7704C26.8166 44.5422 26.5844 44.5422 26.5844 44.5422C26.5844 44.5422 26.8166 44.4281 27.1648 44.6563C27.2809 44.7704 27.5131 44.9986 27.5131 45.3409C27.5131 45.6832 27.2809 45.9114 26.9327 46.0255C26.5844 46.1396 26.2362 46.0255 26.1201 45.7973C25.8879 45.5691 25.8879 45.3409 26.004 45.1127C26.004 44.6563 26.3522 44.5422 26.3522 44.6563Z" fill="#0C0C0C"/>
<path d="M9.51985 45.6832C9.51985 45.6832 9.40376 45.7973 9.28768 46.1396C9.28768 46.2537 9.28768 46.4819 9.40376 46.596C9.63593 46.7101 9.8681 46.8242 9.98419 46.7101C10.2164 46.7101 10.3324 46.4819 10.4485 46.3678C10.4485 46.1396 10.3324 46.0255 10.3324 45.9114C10.1003 45.6832 9.8681 45.6832 9.8681 45.6832C9.8681 45.6832 10.1003 45.5691 10.4485 45.7973C10.5646 45.9114 10.7968 46.1396 10.7968 46.4819C10.7968 46.8242 10.5646 47.0524 10.2164 47.1665C9.8681 47.2806 9.51985 47.1665 9.40376 46.9383C9.17159 46.7101 9.17159 46.4819 9.28768 46.2537C9.17159 45.6832 9.51985 45.6832 9.51985 45.6832Z" fill="#0C0C0C"/>
<path d="M125.837 58.3486C125.837 58.3486 125.721 58.4627 125.605 58.805C125.605 58.9191 125.605 59.1473 125.721 59.2614C125.837 59.3755 126.069 59.3755 126.301 59.3755C126.533 59.2614 126.649 59.1473 126.649 58.9191C126.649 58.6909 126.533 58.5768 126.533 58.4627C126.301 58.2345 126.069 58.2345 126.069 58.2345C126.069 58.2345 126.301 58.1204 126.649 58.3486C126.766 58.4627 126.998 58.6909 126.998 59.0332C126.998 59.3755 126.766 59.6037 126.417 59.7178C126.069 59.8319 125.721 59.7178 125.605 59.4896C125.373 59.2614 125.373 59.0332 125.489 58.805C125.489 58.3486 125.837 58.3486 125.837 58.3486Z" fill="#0C0C0C"/>
<path d="M104.245 50.7037C104.245 50.7037 105.986 46.8242 107.147 46.4819C108.308 46.1396 110.282 46.2537 110.63 47.1665C110.862 47.8512 110.862 50.3614 110.165 49.6768C109.701 49.2204 109.237 47.9653 109.237 47.9653L107.96 48.1935L106.451 50.5896L104.245 50.7037Z" fill="#B1ABF5"/>
<path d="M108.308 49.3345L108.424 50.3614L109.005 50.2473L108.889 49.2204L108.308 49.3345Z" fill="#1A2E35"/>
<path d="M108.54 49.4486C109.181 49.4486 109.701 48.9378 109.701 48.3076C109.701 47.6774 109.181 47.1666 108.54 47.1666C107.899 47.1666 107.38 47.6774 107.38 48.3076C107.38 48.9378 107.899 49.4486 108.54 49.4486Z" fill="url(#paint4_linear_190_654)"/>
<path d="M99.834 12.8218C93.7976 10.3116 86.9486 13.3923 85.2073 19.6679C85.2073 19.782 85.2073 19.8961 85.0913 19.8961C84.8591 20.9231 84.743 21.95 84.743 22.9769C84.8591 24.3461 85.2073 26.4 86.2521 28.4538C88.806 33.3602 90.3151 33.7025 90.3151 36.3268C90.3151 39.0653 90.6633 39.6358 89.2703 40.6627C89.2703 40.6627 87.4129 40.6627 86.2521 41.1191C85.2073 41.6896 84.2787 42.0319 83.8143 45.1127C83.5821 48.1934 83.2339 50.1332 83.2339 50.1332C88.922 50.9319 94.4941 51.2742 99.834 50.9319L99.9501 43.0588C99.9501 43.0588 99.7179 41.8037 98.441 41.4614C97.1641 41.1191 95.1906 41.005 95.1906 40.3204C95.1906 39.6358 95.4228 39.4076 95.4228 39.4076C95.4228 39.4076 97.6284 40.5486 99.2536 39.9781C100.763 39.4076 102.62 38.723 102.968 37.582C103.317 36.4409 104.594 32.6756 104.477 32.5615C104.245 32.3333 106.915 30.6217 107.38 26.2859C107.844 21.8359 105.406 15.6744 101.575 13.7346C100.995 13.3923 100.414 13.05 99.834 12.8218Z" fill="url(#paint5_linear_190_654)"/>
<path d="M91.592 22.1782C91.592 22.1782 100.414 20.3526 98.2088 29.9372C98.2088 30.0513 89.0381 30.3936 91.592 22.1782Z" fill="#191919"/>
<path d="M101.924 30.1653C101.924 30.1653 99.1375 21.3795 105.29 22.7487C105.406 22.7487 108.192 29.1384 101.924 30.1653Z" fill="#191919"/>
<g opacity="0.2">
<path opacity="0.2" d="M91.2438 14.6475C90.5473 14.6475 89.9669 14.9898 89.8508 15.5603C89.7347 16.1308 89.9669 16.9295 90.5473 17.1577C91.1277 17.3859 91.9403 17.2718 92.2886 16.7013C92.6368 16.1308 92.5208 15.4462 92.0564 14.9898C91.7082 14.7616 91.3599 14.6475 90.8956 14.6475" fill="white"/>
</g>
<path d="M92.7529 24.2321C92.5207 24.2321 92.1725 24.3462 92.1725 24.5744C92.0564 24.8026 92.1725 25.1449 92.4047 25.259C92.6368 25.3731 92.9851 25.3731 93.1012 25.1449C93.2173 24.9167 93.2173 24.5744 93.1012 24.4603C92.9851 24.3462 92.869 24.2321 92.6368 24.2321" fill="#375A64"/>
<path d="M92.8689 26.4C92.7528 26.4 92.6367 26.4 92.5206 26.5141C92.5206 26.6282 92.5206 26.7423 92.6367 26.8564C92.7528 26.9705 92.8689 26.8564 92.985 26.7423C93.1011 26.6282 93.1011 26.5141 92.985 26.4H92.8689Z" fill="#375A64"/>
<g opacity="0.2">
<path opacity="0.2" d="M88.9221 17.6141C88.5738 17.7282 88.4577 18.0705 88.5738 18.4129C88.6899 18.6411 89.1542 18.7552 89.3864 18.527C89.6186 18.2987 89.5025 17.8423 89.2703 17.7282" fill="white"/>
</g>
<path d="M95.655 30.7359C95.655 30.7359 95.5389 30.7359 95.1906 30.7359C94.9585 30.7359 94.6102 30.6218 94.1459 30.5077C93.2172 30.1654 92.0563 29.4808 91.2437 28.3397C90.4311 27.1987 90.199 25.8295 90.199 24.9167C90.199 24.4603 90.3151 24.118 90.3151 23.7757C90.4312 23.5475 90.4311 23.4333 90.4311 23.4333C90.4311 23.4333 90.3151 24.0039 90.3151 24.9167C90.3151 25.8295 90.6633 27.0846 91.4759 28.2256C92.2885 29.3666 93.3333 30.0513 94.2619 30.3936C95.0745 30.6218 95.655 30.6218 95.655 30.7359Z" fill="#191919"/>
<path d="M98.7893 24.6885C98.6732 24.6885 98.0927 23.4334 96.6997 22.4065C95.3067 21.3795 93.7976 21.3795 93.7976 21.2654C93.7976 21.2654 94.1459 21.2654 94.7263 21.2654C95.3067 21.3795 96.1193 21.6077 96.8158 22.1783C97.5123 22.6347 98.0927 23.3193 98.441 23.7757C98.6732 24.3462 98.7893 24.6885 98.7893 24.6885Z" fill="#191919"/>
<path d="M101.227 25.9436C101.227 25.9436 101.111 25.6013 101.111 25.1449C101.111 24.6885 101.111 24.0039 101.459 23.3193C101.807 22.6347 102.388 22.1783 102.852 21.9501C103.317 21.7218 103.665 21.8359 103.665 21.9501C103.665 21.9501 103.317 21.9501 102.968 22.1783C102.504 22.4065 102.04 22.8629 101.807 23.4334C101.575 24.118 101.459 24.6885 101.459 25.259C101.343 25.7154 101.343 25.9436 101.227 25.9436Z" fill="#191919"/>
<path d="M105.058 29.4808C105.174 29.4808 104.71 30.1654 103.781 30.5077C102.852 30.85 102.04 30.6218 102.156 30.5077C102.156 30.3936 102.852 30.5077 103.781 30.1654C104.477 30.0513 105.058 29.4808 105.058 29.4808Z" fill="#191919"/>
<path d="M97.6282 39.8641C97.6282 39.8641 97.28 39.8641 96.6996 39.8641C96.1191 39.75 95.4226 39.5218 94.61 38.9513C93.9135 38.4949 93.3331 37.8102 93.1009 37.3538C92.8688 36.8974 92.7527 36.5551 92.7527 36.5551C92.7527 36.5551 92.9849 36.8974 93.217 37.3538C93.5653 37.8102 94.0296 38.3807 94.7261 38.8372C95.4226 39.2936 96.1191 39.6359 96.6996 39.75C97.28 39.8641 97.6282 39.8641 97.6282 39.8641Z" fill="#1A2E35"/>
<path d="M86.8325 50.4755C86.7164 50.4755 86.8325 49.3345 86.9486 48.0794C87.0647 46.7101 87.1808 45.6832 87.2968 45.6832C87.4129 45.6832 87.2968 46.8242 87.1808 48.0794C87.0647 49.4486 86.9486 50.4755 86.8325 50.4755Z" fill="#1A2E35"/>
<path d="M92.2885 49.1063C92.2885 49.2204 91.2437 49.3345 89.9668 49.2204C89.3863 49.1063 88.6898 48.9922 88.4577 48.6499C88.1094 48.3076 88.2255 47.9653 88.2255 47.9653C88.2255 47.9653 88.3416 48.1935 88.5737 48.4217C88.8059 48.6499 89.3863 48.764 89.9668 48.8781C91.2437 49.1063 92.2885 49.1063 92.2885 49.1063Z" fill="#1A2E35"/>
<path d="M97.1641 51.046C97.048 51.046 97.048 50.1332 97.048 48.9922C97.048 47.8512 97.1641 46.9384 97.1641 46.9384C97.2801 46.9384 97.2801 47.8512 97.2801 48.9922C97.2801 50.1332 97.1641 51.046 97.1641 51.046Z" fill="#1A2E35"/>
<path d="M97.1641 47.7371C97.2802 47.7371 96.9319 48.4217 96.2354 48.764C95.5389 49.1063 94.8424 48.9922 94.8424 48.8781C94.8424 48.764 95.4228 48.8781 96.1193 48.5358C96.6998 48.1935 97.048 47.7371 97.1641 47.7371Z" fill="#1A2E35"/>
<path d="M105.406 12.8219C105.406 12.936 104.593 13.0501 103.665 13.6206C102.852 14.1911 102.504 14.9898 102.388 14.9898C102.388 14.9898 102.388 14.7616 102.62 14.4193C102.736 14.077 103.084 13.7347 103.549 13.3924C104.013 13.0501 104.477 12.936 104.825 12.8219C105.174 12.7078 105.406 12.8219 105.406 12.8219Z" fill="#375A64"/>
<path d="M106.103 12.3655C105.754 12.1373 105.406 12.2514 105.174 12.5937C104.942 13.0501 105.174 13.7347 105.87 13.5065C106.335 13.3924 106.567 12.8219 106.335 12.4796C106.219 12.3655 106.103 12.2514 105.986 12.2514" fill="#375A64"/>
<path d="M103.2 11.6808C103.2 11.7949 102.388 11.9091 101.459 12.4796C100.647 13.0501 100.298 13.8488 100.182 13.8488C100.182 13.8488 100.182 13.6206 100.414 13.2783C100.531 12.936 100.879 12.5937 101.343 12.2514C101.807 11.9091 102.272 11.7949 102.62 11.6808C102.968 11.6808 103.2 11.6808 103.2 11.6808Z" fill="#375A64"/>
<path d="M103.781 11.2244C103.433 10.9962 103.084 11.1103 102.852 11.4526C102.62 11.9091 102.852 12.5937 103.549 12.3655C104.013 12.2514 104.245 11.6808 104.013 11.3385C103.897 11.2244 103.781 11.1103 103.665 11.1103" fill="#375A64"/>
<path d="M99.3696 34.1589C99.3696 34.273 98.9053 34.1589 98.4409 33.9307C97.9766 33.7025 97.6283 33.4743 97.7444 33.3602C97.7444 33.2461 98.2088 33.3602 98.6731 33.5884C99.0214 33.8166 99.3696 34.0448 99.3696 34.1589Z" fill="#191919"/>
<defs>
<linearGradient id="paint0_linear_190_654" x1="93.2361" y1="60.7751" x2="91.4054" y2="164.998" gradientUnits="userSpaceOnUse">
<stop stop-color="white"/>
<stop offset="0.5" stop-color="#DADADA" stop-opacity="0.5"/>
<stop offset="1" stop-color="#848484" stop-opacity="0"/>
</linearGradient>
<linearGradient id="paint1_linear_190_654" x1="57.3157" y1="78.9179" x2="127.269" y2="78.9179" gradientUnits="userSpaceOnUse">
<stop stop-color="#2E1256"/>
<stop offset="0.9944" stop-color="#6525A4"/>
</linearGradient>
<linearGradient id="paint2_linear_190_654" x1="0.702757" y1="62.6382" x2="188.128" y2="62.6382" gradientUnits="userSpaceOnUse">
<stop stop-color="#2E1256"/>
<stop offset="0.9944" stop-color="#6525A4"/>
</linearGradient>
<linearGradient id="paint3_linear_190_654" x1="0.000962703" y1="50.2917" x2="187.925" y2="50.2917" gradientUnits="userSpaceOnUse">
<stop stop-color="#2E1256"/>
<stop offset="0.9944" stop-color="#6525A4"/>
</linearGradient>
<linearGradient id="paint4_linear_190_654" x1="107.376" y1="48.3401" x2="109.611" y2="48.3401" gradientUnits="userSpaceOnUse">
<stop stop-color="#3B0117"/>
<stop offset="0.2244" stop-color="#700B19"/>
<stop offset="0.4869" stop-color="#A8151B"/>
<stop offset="0.7131" stop-color="#D01C1C"/>
<stop offset="0.8915" stop-color="#E9201D"/>
<stop offset="1" stop-color="#F2221D"/>
</linearGradient>
<linearGradient id="paint5_linear_190_654" x1="102.884" y1="35.5293" x2="80.2748" y2="27.1554" gradientUnits="userSpaceOnUse">
<stop stop-color="#D8D8D8"/>
<stop offset="0.1357" stop-color="#CFCFCF"/>
<stop offset="0.3614" stop-color="#B6B5B7"/>
<stop offset="0.6492" stop-color="#8D8C8F"/>
<stop offset="0.9849" stop-color="#555359"/>
<stop offset="1" stop-color="#525056"/>
</linearGradient>
</defs>
</svg>
