<svg id="Слой_1" data-name="Слой 1" xmlns="http://www.w3.org/2000/svg" viewBox="0 0 189 255"><defs><style>.cls-1{fill:#2b4255;}.cls-2{fill:#e42c34;}.cls-3{fill:#ef4137;}.cls-4{fill:#e6e6e6;}.cls-5{fill:#c6322e;}.cls-6{fill:#89312f;}.cls-7{fill:#e9eded;}</style></defs><path class="cls-1" d="M90.31,8.22a40.92,40.92,0,0,0-41,40.8V94.35a4.11,4.11,0,1,0,8.21,0V49a32.81,32.81,0,0,1,65.61,0V94.35a4.11,4.11,0,1,0,8.21,0V49A40.91,40.91,0,0,0,90.31,8.22Z"/><path class="cls-2" d="M41.05,65.71H172.4a8.18,8.18,0,0,1,8.21,8.21V238.11a8.2,8.2,0,0,1-8.21,8.21H41.05a8.2,8.2,0,0,1-8.21-8.21V73.92A8.18,8.18,0,0,1,41.05,65.71Z"/><path class="cls-3" d="M33.3,65.71H172a8.42,8.42,0,0,1,8.66,8.21V238.11a8.43,8.43,0,0,1-8.66,8.21H33.3a8.44,8.44,0,0,1-8.67-8.21V73.92A8.43,8.43,0,0,1,33.3,65.71Z"/><path class="cls-4" d="M78,94.44a8.21,8.21,0,1,1-8.21-8.21A8.2,8.2,0,0,1,78,94.44Zm73.89,0a8.21,8.21,0,1,1-8.21-8.21A8.21,8.21,0,0,1,151.88,94.44Z"/><path class="cls-1" d="M106.73,8.25A40.91,40.91,0,0,0,65.71,49V94.38a4.11,4.11,0,0,0,8.21,0V49a32.81,32.81,0,0,1,65.61,0V94.38a4.11,4.11,0,0,0,8.21,0V49A40.91,40.91,0,0,0,106.73,8.25Z"/><path class="cls-5" d="M16.42,65.71a8.18,8.18,0,0,0-8.21,8.21V238.11a8.2,8.2,0,0,0,8.21,8.21H41.05a8.2,8.2,0,0,1-8.21-8.21V73.92a8.18,8.18,0,0,1,8.21-8.21Z"/><path class="cls-6" d="M16.42,65.71a8.18,8.18,0,0,0-8.21,8.21V74c0,3.59,2.37,6.91,6.16,8.7a14.63,14.63,0,0,0,12.31,0c3.79-1.79,6.13-5.11,6.16-8.7v-.08a8.18,8.18,0,0,1,8.21-8.21Z"/><path class="cls-7" d="M90.31,0A49.25,49.25,0,0,0,41.08,49V57.5H16.42A16.57,16.57,0,0,0,0,73.92V238.11a16.57,16.57,0,0,0,16.42,16.42h156a16.57,16.57,0,0,0,16.42-16.42V73.92A16.57,16.57,0,0,0,172.4,57.5H156V49A49.25,49.25,0,0,0,106.73,0a48.76,48.76,0,0,0-8.1.82A48.4,48.4,0,0,0,90.31,0Zm0,8.21a41.26,41.26,0,0,1,8.29.85,41.82,41.82,0,0,1,8.13-.82,40.92,40.92,0,0,1,41,40.8V65.71H172.4a8.19,8.19,0,0,1,8.21,8.21V238.11a8.2,8.2,0,0,1-8.21,8.21h-156a8.2,8.2,0,0,1-8.21-8.21V73.92a8.19,8.19,0,0,1,8.21-8.21H49.29V49A40.92,40.92,0,0,1,90.31,8.21Zm8.26,9.36A32.39,32.39,0,0,0,73.92,49.05V65.71h49.19V49A32.36,32.36,0,0,0,98.57,17.58Zm-18.31.55A32.33,32.33,0,0,0,57.5,49V65.71h8.21V49A40.46,40.46,0,0,1,80.25,18.12Zm36.63.06A40.45,40.45,0,0,1,131.32,49V65.71h8.21V49a32.33,32.33,0,0,0-22.64-30.86ZM98.55,26.83C108,30.24,114.9,38.37,114.9,49V57.5H82.13V49C82.13,38.37,89.1,30.22,98.55,26.83Z"/></svg>