<svg id="Слой_1" data-name="Слой 1" xmlns="http://www.w3.org/2000/svg" xmlns:xlink="http://www.w3.org/1999/xlink" viewBox="0 0 1039 1319"><defs><style>.cls-1{fill:#3a3332;}.cls-2{opacity:0.3;}.cls-3{fill:#4f4847;}.cls-4{fill:url(#Безымянный_градиент_765);}.cls-5{opacity:0.13;}.cls-6{fill:#fff;}.cls-7{opacity:0.25;}.cls-8{fill:#375a64;}.cls-9{fill:#1a2e35;}.cls-10{fill-rule:evenodd;}.cls-11{fill:#e1e1e1;}.cls-12{fill:#e2e2e2;}.cls-13{opacity:0.2;}.cls-14{fill:#c43a30;}.cls-15{opacity:0.3;}.cls-16{fill:#6525a4;}.cls-17{fill:#131c1e;}.cls-18{fill:#e51336;}.cls-19{opacity:0.4;}.cls-20{opacity:0.5;}.cls-21{fill:url(#Безымянный_градиент_782);}.cls-22{opacity:0.1;}.cls-23{fill:#ffc19d;}.cls-24{fill:#ff9c6a;}.cls-25{fill:url(#Безымянный_градиент_763);}.cls-26{fill:url(#Безымянный_градиент_782-2);}.cls-27,.cls-30{fill:#161616;}.cls-28{fill:#455a64;}.cls-29{fill:#4b98f2;}.cls-30{stroke:#455a64;stroke-miterlimit:10;stroke-width:0.25px;}</style><linearGradient id="Безымянный_градиент_765" x1="515.93" y1="547.82" x2="515.93" y2="216.99" gradientTransform="translate(421.51 -252.81) rotate(45)" gradientUnits="userSpaceOnUse"><stop offset="0" stop-color="#3b0117"/><stop offset="0.22" stop-color="#700b19"/><stop offset="0.49" stop-color="#a8151b"/><stop offset="0.71" stop-color="#d01c1c"/><stop offset="0.89" stop-color="#e9201d"/><stop offset="1" stop-color="#f2221d"/></linearGradient><linearGradient id="Безымянный_градиент_782" x1="25.66" y1="982.69" x2="68.71" y2="982.69" gradientTransform="translate(-188.65 118.43) rotate(-14.32)" gradientUnits="userSpaceOnUse"><stop offset="0" stop-color="#1e457c"/><stop offset="1" stop-color="#3d6da8"/></linearGradient><linearGradient id="Безымянный_градиент_763" x1="131.82" y1="730.91" x2="233.63" y2="730.91" gradientTransform="translate(-188.65 118.43) rotate(-14.32)" gradientUnits="userSpaceOnUse"><stop offset="0" stop-color="#aeadb2"/><stop offset="0.14" stop-color="#a5a4a9"/><stop offset="0.38" stop-color="#8c8b8f"/><stop offset="0.69" stop-color="#636266"/><stop offset="1" stop-color="#333235"/></linearGradient><linearGradient id="Безымянный_градиент_782-2" x1="396.12" y1="860.02" x2="430.5" y2="860.02" xlink:href="#Безымянный_градиент_782"/></defs><path class="cls-1" d="M396.17,849.93s2.91,8-1.52,18.57-6.52,17.32-13.31,18.11-18.56.4-18.56.4l-.58-19.3Z"/><g class="cls-2"><path d="M396.17,849.93s2.91,8-1.52,18.57-6.52,17.32-13.31,18.11-18.56.4-18.56.4l-.58-19.3Z"/></g><path class="cls-3" d="M350,853.4s9.08,13,11.6,15l1.43,1.93c2-.77,23-7.15,24.05-8.91a4.18,4.18,0,0,0,.38-3.47l3.21,1.09,5.53-9.09-23.87,2.88s2.52-2.21,1-3S350,853.4,350,853.4Z"/><path class="cls-1" d="M362.78,887a56.39,56.39,0,0,1-6.87-14.14c-3.07-9-5.94-19.47-5.94-19.47l13,16.91Z"/><g class="cls-2"><path d="M387.05,861.4l1.05,10.93L390.64,859l-3.21-1.09S388,860.11,387.05,861.4Z"/></g><circle class="cls-4" cx="515.93" cy="382.4" r="165.37" transform="translate(-119.29 476.82) rotate(-45)"/><g class="cls-5"><path class="cls-6" d="M671.25,325.51c-.38-1.08-.8-2.18-1.23-3.24l-.18-.51c-.44-1.11-.89-2.23-1.37-3.33s-1-2.32-1.49-3.44c-.64-1.44-1.29-2.88-2-4.3q-2.46-5.18-5.3-10.08c-21.05,6.5-50.25,16.93-76.58,31.33-48.24,26.38-64.31,65.15-121.54,90.16s-85.47-3.14-74.4-21.28,81.44-54,156.68-81.35c51.3-18.69,87.63-29.68,105.58-34.79q-4.53-6.23-9.61-12c-.83-.92-1.68-1.87-2.53-2.79-.55-.59-1.1-1.19-1.68-1.78l-.45-.47c-1.26-1.34-2.57-2.66-3.89-3.92-.56-.54-1.12-1.1-1.71-1.63l-1.82-1.74c-26.49,16.47-79.83,46.67-150.61,71.81-59.9,21.28-101.93,34.24-126.66,41.38-.22,3.72-.3,7.52-.22,11.28q0,3,.17,6.11c.05.71.08,1.44.13,2.15,0,.45.07.91.09,1.39v0c.22,2.64.47,5.27.8,7.92.1,1,.22,2,.37,3v0c.23,1.7.51,3.38.8,5.09.11.64.22,1.26.35,1.89.27,1.54.59,3.1.93,4.65v0c.33,1.58.69,3.16,1.09,4.71.26,1.13.54,2.27.86,3.41.72,2.68,1.52,5.37,2.4,8,.13.47.26.9.42,1.36.29.91.61,1.82.93,2.72.56,1.59,1.14,3.17,1.74,4.71.31.82.63,1.64,1,2.42s.49,1.3.77,1.94c.87,2.1,1.77,4.16,2.73,6.17.82,1.77,1.67,3.54,2.56,5.26a164.46,164.46,0,0,0,20.68,31.23C427,469.81,525.48,420,572.74,399c35-15.59,79-27.25,107.71-33.88-.49-4.92-1.26-9.85-2.22-14.77-.11-.56-.23-1.14-.38-1.71s-.22-1.11-.33-1.67c-.23-1.05-.49-2.11-.75-3.18s-.47-1.9-.72-2.86c-.17-.65-.34-1.29-.52-1.94-.38-1.42-.78-2.81-1.19-4.22-.35-1.15-.7-2.3-1.08-3.47-.45-1.34-.9-2.71-1.38-4.07C671.68,326.66,671.48,326.08,671.25,325.51Zm-298.52,49a8,8,0,1,1-4.85,10.16A8,8,0,0,1,372.73,374.47Zm28.63,88.85A10.46,10.46,0,1,1,407.74,450,10.46,10.46,0,0,1,401.36,463.32ZM572.53,371a8,8,0,1,1,4.85-10.16A8,8,0,0,1,572.53,371Zm22.17,12.8a4,4,0,1,1,2.46-5.08A4,4,0,0,1,594.7,383.76Z"/></g><g class="cls-7"><path class="cls-6" d="M546.85,460.8A1098.85,1098.85,0,0,1,399.7,500.5c.26.28.54.52.81.79a14.42,14.42,0,0,0,1.14,1.07c.12.1.22.24.34.33.43.42.85.81,1.3,1.19.94.91,2,1.8,2.95,2.69q5,4.41,10.29,8.35c.19.13.38.29.57.42q4.93,3.66,10.1,6.92c.6.41,1.24.81,1.86,1.19a172.65,172.65,0,0,0,19.66,10.31,170.36,170.36,0,0,0,21.54,7.85l.05,0c1.12.37,2.25.68,3.38,1l.28.07c2.36.61,4.74,1.19,7.11,1.66.65.16,1.26.29,1.9.41h0l.71.15a13.12,13.12,0,0,0,1.39.27c1.68.34,3.36.63,5.07.88,3.2.51,6.43.93,9.65,1.24,32.73-13.91,62-25.43,70.95-26.46,10.36-1.18-7.9,11.26-31.6,25.59a167.74,167.74,0,0,0,31.53-7.75,164.77,164.77,0,0,0,40.3-20.7c1-.73,2.11-1.48,3.14-2.26,1.28-.93,2.55-1.92,3.82-2.9,1.46-1.14,2.91-2.33,4.35-3.54a163.05,163.05,0,0,0,21-21.21h0A168.53,168.53,0,0,0,657,468.86c.7-1.15,1.39-2.33,2.07-3.53-7.9,3.76-19.25,9.06-35.56,16.49-49.18,22.4-135.1,46.15-135.19,39.23s46.4-34.33,109.56-54.46c29.56-9.41,53.84-16.78,71.32-21.93,1.08-2.71,2.1-5.44,3.09-8.19a168.42,168.42,0,0,0,5.44-19.53c.34-1.6.65-3.2,1-4.84.37-2.14.73-4.27,1-6.45.53-3.63.91-7.3,1.17-11a4.35,4.35,0,0,0,0-.51A596.08,596.08,0,0,1,546.85,460.8Zm-79.41,51.13c-14.6,5.14-27.64,5.93-29.1,1.78s9.21-11.7,23.81-16.83,27.64-5.93,29.1-1.77S482,506.8,467.44,511.93Z"/></g><g class="cls-5"><path class="cls-6" d="M590.17,234.56a394.46,394.46,0,0,1-107,54.94c-48.25,16.17-93.75,27.8-122.2,34.49A160.7,160.7,0,0,1,371,302.23c28.34-3.23,61.29-8.28,86.6-16.1,55.29-17.08,106-51.38,94-54.35s-49.84,20.43-102.36,36a637.62,637.62,0,0,1-65.93,15.37A162,162,0,0,1,403,261.19c.08-.08.17-.14.25-.23a5.2,5.2,0,0,1,.44-.38c20.89-4.06,48.23-11.41,82.54-24.45,20-7.61,35.43-13.62,47.3-18.33q2.71.27,5.43.66s.07,0,.1,0c3,.45,5.95.93,8.92,1.56a.64.64,0,0,1,.28.07A159.79,159.79,0,0,1,563.81,224s0,0,0,0c.79.23,1.55.47,2.35.73h0l1.32.44c1.6.54,3.21,1.08,4.8,1.68.88.31,1.73.64,2.58,1l1.81.72q6,2.36,11.78,5.2l.07,0c.51.24.95.46,1.47.73Z"/></g><path class="cls-8" d="M201.71,133.76l-16.27-8.12a.72.72,0,0,0-.63,1.29l16.27,8.12a.72.72,0,0,0,.63-1.29Z"/><path class="cls-8" d="M203.47,130.25l-16.28-8.13a.72.72,0,0,0-.63,1.29l16.28,8.13a.72.72,0,0,0,.63-1.29Z"/><polygon class="cls-8" points="221.27 152.48 230 134.99 203.96 121.99 195.45 139.03 195.26 139.49 221.27 152.48"/><rect class="cls-6" x="204.26" y="124.12" width="16.75" height="26.24" transform="translate(-5.2 266.08) rotate(-63.44)"/><rect class="cls-8" x="216.49" y="130.29" width="1.23" height="18.28" transform="translate(351 359.98) rotate(-153.97)"/><rect class="cls-8" x="212.03" y="123.51" width="1.23" height="27.46" transform="translate(429.28 6.41) rotate(116.03)"/><rect class="cls-8" x="208.14" y="126.21" width="1.23" height="18.28" transform="translate(336.95 348.58) rotate(-153.97)"/><path class="cls-8" d="M165.21,113.11l16.28,8.13a.72.72,0,0,0,.63-1.29l-16.28-8.13a.72.72,0,0,0-.63,1.29Z"/><path class="cls-8" d="M163.46,116.62l16.28,8.13a.72.72,0,0,0,.63-1.29l-16.28-8.13a.72.72,0,0,0-.63,1.29Z"/><polygon class="cls-8" points="182.78 87.56 186.41 102.68 200.88 110.23 214.9 103.77 182.78 87.56"/><rect class="cls-8" x="192.72" y="93.87" width="12.96" height="1.34" transform="translate(28.76 234.43) rotate(-64.77)"/><path class="cls-8" d="M203.3,90.75A2.94,2.94,0,1,1,205.15,87,2.95,2.95,0,0,1,203.3,90.75Z"/><polygon class="cls-8" points="186.41 102.68 185.31 104.89 180.35 106.54 168.31 130.67 169.66 134.73 168.79 136.48 184.53 144.32 185.53 142.32 189.48 141 201.33 116.73 199.83 112.14 200.84 110.21 186.41 102.68"/><polygon class="cls-8" points="145.66 94.39 136.93 111.88 162.97 124.88 171.48 107.84 171.67 107.38 145.66 94.39"/><rect class="cls-6" x="145.92" y="96.51" width="16.75" height="26.24" transform="translate(-12.75 198.62) rotate(-63.44)"/><rect class="cls-8" x="149.21" y="98.31" width="1.23" height="18.28" transform="translate(62.36 -54.86) rotate(26.04)"/><rect class="cls-8" x="153.67" y="95.91" width="1.23" height="27.46" transform="translate(-11.93 200.16) rotate(-63.97)"/><rect class="cls-8" x="157.56" y="102.38" width="1.23" height="18.28" transform="translate(64.98 -58.1) rotate(26.03)"/><path class="cls-9" d="M201.15,117c-.07.15-4.82-2-10.62-4.86s-10.43-5.24-10.36-5.39,4.83,2,10.62,4.85S201.23,116.86,201.15,117Z"/><path class="cls-9" d="M180.35,106.54a11,11,0,0,1-.76,1.82l-2.29,4.87c-2,4.1-4.69,9.75-7.75,16-.26.53-.53,1.06-.77,1.56l-.14-.4c5.87,2.87,11.1,5.47,14.86,7.36l4.42,2.26a11.91,11.91,0,0,1,1.58.9,12.08,12.08,0,0,1-1.68-.7l-4.5-2.09c-3.8-1.8-9.07-4.33-14.94-7.19l-.27-.14.13-.26.77-1.57c3.06-6.22,5.86-11.83,7.91-15.88,1-2,1.83-3.57,2.46-4.79A14.91,14.91,0,0,1,180.35,106.54Z"/><path class="cls-9" d="M185.44,142.49c-.07.15-3.67-1.46-8-3.59a66.46,66.46,0,0,1-7.77-4.12c.07-.15,3.67,1.45,8,3.59S185.51,142.34,185.44,142.49Z"/><path class="cls-9" d="M199.83,112.14c-.07.15-3.43-1.34-7.49-3.33S185,105.1,185.1,105s3.43,1.34,7.5,3.33S199.9,112,199.83,112.14Z"/><path class="cls-9" d="M201.05,110.15a58.12,58.12,0,0,1-7.48-3.32,57.18,57.18,0,0,1-7.22-3.86c.08-.15,3.42,1.34,7.48,3.32S201.12,110,201.05,110.15Z"/><path class="cls-9" d="M208.35,140.24c0-.16,3-1.33,6.87-2.62s7-2.21,7.05-2.05a45.72,45.72,0,0,1-6.86,2.62C211.56,139.48,208.4,140.4,208.35,140.24Z"/><path class="cls-9" d="M204.61,137.81a28.07,28.07,0,0,1,7.66-2.78c.06.16-1.61.91-3.73,1.67S204.67,138,204.61,137.81Z"/><path class="cls-9" d="M146.67,112.65a72.25,72.25,0,0,1,9-2.12,70.8,70.8,0,0,1,9.1-1.53,72.25,72.25,0,0,1-9,2.12A71.1,71.1,0,0,1,146.67,112.65Z"/><path class="cls-9" d="M143.84,110.8c0-.17,2.08-.57,4.65-1.19a32.18,32.18,0,0,1,4.68-1.07,14.21,14.21,0,0,1-4.54,1.65A14.2,14.2,0,0,1,143.84,110.8Z"/><path class="cls-1" d="M892.64,1063s4.27,11.66-2.22,27.22-9.57,25.41-19.52,26.57-27.22.59-27.22.59l-.85-28.31Z"/><g class="cls-2"><path d="M892.64,1063s4.27,11.66-2.22,27.22-9.57,25.41-19.52,26.57-27.22.59-27.22.59l-.85-28.31Z"/></g><path class="cls-3" d="M824.88,1068.09s13.33,19.11,17,22l2.1,2.83c2.93-1.13,33.73-10.5,35.28-13.08a6.13,6.13,0,0,0,.55-5.09l4.71,1.61,8.1-13.33-35,4.22s3.69-3.24,1.45-4.43S824.88,1068.09,824.88,1068.09Z"/><path class="cls-1" d="M843.68,1117.38s-5.58-7.54-10.08-20.75-8.72-28.54-8.72-28.54l19.12,24.8Z"/><g class="cls-2"><path d="M879.28,1079.81l1.54,16,3.72-19.51-4.71-1.61S880.6,1077.92,879.28,1079.81Z"/></g><polygon class="cls-1" points="622.64 984.5 619.26 968.83 642.9 964.24 650.58 945.53 646.11 969.08 637.67 981.73 622.64 984.5"/><polygon class="cls-1" points="604.54 954.09 606.99 968.82 622.64 984.5 619.26 968.83 604.54 954.09"/><path class="cls-3" d="M609.15,943.35c-1.22,1.84-4.61,10.74-4.61,10.74l14.72,14.74,23.64-4.59,7.68-18.71c-.79-1.91-6.89-9.36-6.89-9.36Z"/><polygon class="cls-1" points="216.26 446.15 233.9 441.28 230.08 430.16 215 406.85 196.68 419.66 200.34 433.98 216.26 446.15"/><polygon class="cls-3" points="196.68 419.66 219.45 432.72 230.08 430.16 215 406.85 196.68 419.66"/><g class="cls-2"><polygon class="cls-10" points="216.26 446.15 219.45 432.72 230.08 430.16 233.9 441.28 216.26 446.15"/></g><polygon class="cls-1" points="71.06 368.12 71.13 360.92 61.28 353.8 56.05 364.31 58.9 372.64 64.72 372.82 71.06 368.12"/><polygon class="cls-3" points="58.9 372.64 66.32 365.45 61.28 353.8 56.05 364.31 58.9 372.64"/><g class="cls-2"><polygon class="cls-10" points="71.23 368.12 66.49 365.45 61.45 353.8 71.3 360.92 71.23 368.12"/></g><path class="cls-1" d="M639.6,442.62,622.28,445l-1,1.85s-6.83,1.06-7.43,1.27l-2,9.91L623,459.53,634,450.35Z"/><path class="cls-1" d="M611.82,458.07c.31.21,4.28,6.88,10.64,10a62.17,62.17,0,0,0,10.76,4.26L618.87,457.4Z"/><polygon class="cls-3" points="634.38 443.63 632.5 447.4 623.37 448.13 622.21 453.06 618.87 457.4 633.22 472.34 639.6 462.62 639.6 442.62 634.38 443.63"/><g class="cls-2"><polygon points="623.37 448.13 613.8 448.16 611.82 458.07 618.87 457.4 622.21 453.06 623.37 448.13"/></g><path class="cls-11" d="M893.09,783.94c10.73-7.12,22.27-24.14,24.39-36.85s1.92-25.81,5.19-38.27c1.35-5.12,4.22-10.89,9.48-11.52,4.29-.51,8.27,3,9.69,7.06s.85,8.57,0,12.81-1.92,8.53-1.47,12.82c1.15-3,5.48-3.66,8-1.79s3.41,5.42,2.92,8.55-.18,5.53-1.47,9c-3.35,8.86-11.32,21.72-18.32,29.4s-22.13,15.63-34,14.87"/><path class="cls-9" d="M932.65,773.76c-.15.06-.71-1.26-1.94-3.18a25.35,25.35,0,0,0-13.87-10.5c-2.18-.66-3.61-.84-3.59-1a9.31,9.31,0,0,1,3.77.33,22.22,22.22,0,0,1,14.3,10.81C932.43,772.29,932.76,773.73,932.65,773.76Z"/><path class="cls-9" d="M947.45,751.13c-.15.1-1.15-1.46-3.19-3.57a29.36,29.36,0,0,0-9.34-6.44,28.9,28.9,0,0,0-11.11-2.3c-2.94,0-4.75.38-4.78.21s.42-.22,1.24-.42a19.18,19.18,0,0,1,3.52-.5,26.13,26.13,0,0,1,11.52,2.09,26.5,26.5,0,0,1,9.48,6.88,18.81,18.81,0,0,1,2.09,2.87C947.31,750.68,947.51,751.09,947.45,751.13Z"/><path class="cls-9" d="M941.18,720.8c-.15.29-4.23-2.5-10.09-3.18s-10.48.92-10.56.6a7.43,7.43,0,0,1,3-1.17,21.62,21.62,0,0,1,15.09,1.88A7.48,7.48,0,0,1,941.18,720.8Z"/><path class="cls-12" d="M744.26,795.61c-1.83.39-18.13,9.12-34.18,1.07s-22.32-18.42-29.94-19.42S633.1,789.67,631,799s2.59,8.76,2.59,8.76,4.32,7.92,11,5.55c0,0-.42,3.67,6.6.74s7.54-9.79,10.5-12.54,18.75-4.38,18.75-4.38,12.47,25.47,33.09,32.54,33.27-3.32,33.27-3.32Z"/><path class="cls-12" d="M872.15,851.06c.5.63.12,15.16,5.27,23s8.5,11.54,4.41,15.53-38.38,22-41.94,27.44-2.63,17.54-12.27,15.21c0,0-5.06,5.47-9,1.38,0,0-4.18,2.72-5.76-.42s-5.3-8.57.49-16.57,35.09-22.48,35.59-27.89S838,864.2,838,864.2Z"/><g class="cls-2"><polygon points="837.99 864.2 842.57 872.41 873.58 863.32 872.5 854.46 837.99 864.2"/></g><path class="cls-12" d="M749.22,814.15l-6.48,32.45-3.65,2s-24.43-4.37-33.44-1.37-42.41,18.41-36.08,31.79c0,0,6,17.15,16.61,10.77,0,0,7.12,5.07,10.43-2.07s1.89-12.45,1.89-12.45l14.38-9.23s60.45,18.46,65.92,12.74,15.41-33.28,15.41-33.28l13.33-26.68S798.37,808.5,779,804.32A29.8,29.8,0,0,0,749.22,814.15Z"/><path class="cls-12" d="M865.29,827.18c.74.92,10.62,27.2,22.63,34.55s52.62,8.08,59.27,14.16,11.16,18.5,13.29,27.17c1.44,5.83,1.46,10.67,8.87,11.5,0,0,2.62,10.21,11.4,4.91,0,0,7.23-.75,7.25-7.49s-13.77-37.35-24-47.25-13.56-2.27-20.45-7.93-7.48-31.92-16.15-41.38A76.71,76.71,0,0,0,900,809.09C883.89,808.31,865.29,827.18,865.29,827.18Z"/><g class="cls-2"><path d="M724.81,800.07s-3.77,20.16,3.53,32c0,0,5.13.43,14.32-3.3l-4.24-31A52.68,52.68,0,0,1,724.81,800.07Z"/></g><path class="cls-12" d="M740.29,771.37c-.63,1.57-17,40.92,5,62.71,19.49,19.3,72.82,28.7,72.82,28.7s17.18,4.08,31,.8c21.61-5.12,30.42-14.13,30.42-14.13l49.29-31.84s-10.35-27.58-31.08-36.3-28.85,9.25-45.93,6.44-35.3-.84-39.49-13.8l-4.2-13Z"/><path class="cls-11" d="M730.17,847.34s13.88,17.61,10,26.35l8.07,2a33.69,33.69,0,0,0-9.12-27Z"/><path class="cls-11" d="M704.86,793.79s4,10.44,2.71,20.91c-1,8.7-2.1,11.07-2.1,11.07a31.38,31.38,0,0,0,8,3.86s5.86-14.8.87-31.18Z"/><path class="cls-11" d="M826.36,784.47s-.27,40.69-32.17,72.21l8,2.26s37.23-32,31.27-73.3Z"/><path class="cls-9" d="M887.14,861.16c0,.05-.52-.23-1.33-.85a27.87,27.87,0,0,1-3.21-2.89,46.65,46.65,0,0,1-8-11.71,91.22,91.22,0,0,1-5.14-13.21c-1.07-3.46-1.62-5.63-1.49-5.67s.93,2,2.16,5.44a129,129,0,0,0,5.37,13,54.24,54.24,0,0,0,7.66,11.67C885.49,859.64,887.25,861,887.14,861.16Z"/><path class="cls-9" d="M877.77,850.94a11.48,11.48,0,0,1-1.84,1.53,26,26,0,0,1-2.31,1.61c-.92.59-2,1.29-3.19,1.93a64.6,64.6,0,0,1-8.78,4.13,81.39,81.39,0,0,1-11.42,3.31,83.48,83.48,0,0,1-11.8,1.47,71.16,71.16,0,0,1-9.7-.21c-1.38-.09-2.61-.29-3.7-.44a26.56,26.56,0,0,1-2.77-.49,11,11,0,0,1-2.32-.61c0-.18,3.38.51,8.84.83a82.7,82.7,0,0,0,9.6,0A89.87,89.87,0,0,0,850,862.46a86.34,86.34,0,0,0,11.29-3.19,74.57,74.57,0,0,0,8.78-3.88C874.94,852.85,877.66,850.78,877.77,850.94Z"/><path class="cls-9" d="M777.35,805.32c-.05.08-.77-.4-2.24-.81a12.7,12.7,0,0,0-6.33,0c-5.38,1.12-11.15,6.73-15.51,13.77A81.32,81.32,0,0,0,745,838c-.75,2.65-1.25,4.82-1.61,6.32a11.54,11.54,0,0,1-.62,2.32,10.36,10.36,0,0,1,.23-2.39c.25-1.53.64-3.74,1.32-6.44a73.47,73.47,0,0,1,8.12-20.06,43.26,43.26,0,0,1,7.6-9.26,18.67,18.67,0,0,1,8.62-4.67,12.21,12.21,0,0,1,6.6.36,8.64,8.64,0,0,1,1.63.78C777.2,805.16,777.37,805.29,777.35,805.32Z"/><path class="cls-9" d="M786.71,863.56c-.13-.06.73-2.17,2.16-5.56s3.4-8.06,5.06-13.39a57.52,57.52,0,0,0,2.64-14c.18-3.64-.08-5.91.1-5.93a4.81,4.81,0,0,1,.34,1.58,28.41,28.41,0,0,1,.27,4.37,42.64,42.64,0,0,1-.54,6.5,61.59,61.59,0,0,1-1.85,7.75,99.33,99.33,0,0,1-5.37,13.38A33.57,33.57,0,0,1,786.71,863.56Z"/><path class="cls-9" d="M741.91,831.46a6.73,6.73,0,0,1-1.17-1.48,35.31,35.31,0,0,1-2.63-4.42,46.38,46.38,0,0,1-2.9-7.07A49.26,49.26,0,0,1,733,800a46.94,46.94,0,0,1,1.17-7.56,35.28,35.28,0,0,1,1.52-4.91,6.24,6.24,0,0,1,.8-1.71c.17.06-.78,2.57-1.62,6.77a53.85,53.85,0,0,0-.95,7.46,59.06,59.06,0,0,0,.28,9.19,60.07,60.07,0,0,0,1.87,9,56.11,56.11,0,0,0,2.66,7C740.56,829.14,742.07,831.36,741.91,831.46Z"/><path class="cls-9" d="M918.23,798.72c-.15.08-1.4-2.11-4.13-5.08A45.64,45.64,0,0,0,901.79,784a41.75,41.75,0,0,0-15-4.21c-4-.26-6.5.33-6.53.14a5.77,5.77,0,0,1,1.72-.48,22.65,22.65,0,0,1,4.84-.37,38.54,38.54,0,0,1,15.45,4,41.42,41.42,0,0,1,12.39,10.06,29.33,29.33,0,0,1,2.83,3.94A5.36,5.36,0,0,1,918.23,798.72Z"/><path class="cls-9" d="M941.11,856.33c.25,0,0,3.56-1.89,7.43s-4.58,6.22-4.74,6,2-2.75,3.84-6.47S940.81,856.28,941.11,856.33Z"/><path class="cls-9" d="M951.51,860.58c.26,0,.32,3.57-1.27,7.62s-4,6.64-4.22,6.46,1.79-2.94,3.28-6.83S951.21,860.55,951.51,860.58Z"/><path class="cls-9" d="M859,897.24c-.26.15-1.71-2.73-5-4.69s-6.43-2-6.42-2.33c0-.12.8-.3,2.11-.19a11.65,11.65,0,0,1,4.84,1.67,11.51,11.51,0,0,1,3.65,3.57C859,896.39,859.15,897.19,859,897.24Z"/><path class="cls-9" d="M882.71,881.56c0,.12-1.69.89-4.6,1.83a77.45,77.45,0,0,1-23.55,3.6c-3.06,0-4.94-.24-4.93-.37s1.89-.18,4.92-.34a117.37,117.37,0,0,0,11.77-1.18c4.57-.7,8.65-1.63,11.59-2.39S882.66,881.42,882.71,881.56Z"/><path class="cls-9" d="M709.1,868.26c-.28,0-.67-4.59-2.84-9.82s-4.59-9.13-4.32-9.3,3.1,3.56,5.26,8.93S709.38,868.29,709.1,868.26Z"/><path class="cls-9" d="M715.91,866.88c-.31-.07.92-4.71.66-10.51s-1.83-10.33-1.52-10.43,2.29,4.38,2.53,10.39S716.12,867,715.91,866.88Z"/><path class="cls-9" d="M679.6,777.22c.21-.1,2,4.26,2.28,10s-1.12,10.25-1.34,10.18.6-4.56.34-10.14S679.29,777.3,679.6,777.22Z"/><path class="cls-9" d="M690.64,784.29c.25,0,.39,4.19-1.71,8.82s-5.31,7.35-5.45,7.15,2.56-3.11,4.53-7.56S690.33,784.26,690.64,784.29Z"/><path class="cls-9" d="M932,826.26a3.87,3.87,0,0,1-.8.51,20.79,20.79,0,0,1-2.42,1.23,34.62,34.62,0,0,1-9.64,2.63,49.21,49.21,0,0,1-14.82-.54,67.16,67.16,0,0,1-17.21-5.76,44.86,44.86,0,0,1-14.45-11A31.63,31.63,0,0,1,866,800.16a25.66,25.66,0,0,1-.35-10,17.15,17.15,0,0,1,.66-2.64,3.14,3.14,0,0,1,.35-.88c.1,0-.32,1.27-.62,3.58a26.92,26.92,0,0,0,.65,9.76,31.57,31.57,0,0,0,6.72,12.77,44.67,44.67,0,0,0,14.2,10.67,68.49,68.49,0,0,0,16.93,5.75,49.83,49.83,0,0,0,14.56.74C927.43,829,931.94,826,932,826.26Z"/><path class="cls-9" d="M872.24,837.52a19.5,19.5,0,0,1-2.8,1.34,36.09,36.09,0,0,1-3.38,1.34c-1.34.47-2.85,1.07-4.58,1.53s-3.59,1-5.66,1.48-4.26.85-6.6,1.25a89.32,89.32,0,0,1-30.65-.79c-2.31-.51-4.52-1-6.53-1.58s-3.89-1.17-5.58-1.77-3.18-1.23-4.49-1.76a35.16,35.16,0,0,1-3.31-1.52,15.9,15.9,0,0,1-2.72-1.48,19.24,19.24,0,0,1,2.88,1.13c.91.4,2,.88,3.36,1.35s2.81,1.11,4.51,1.61,3.54,1.14,5.57,1.63,4.19,1,6.48,1.48a94.27,94.27,0,0,0,30.35.78c2.32-.37,4.53-.67,6.56-1.14s3.93-.89,5.64-1.36,3.24-1,4.59-1.37,2.49-.82,3.42-1.18A19.11,19.11,0,0,1,872.24,837.52Z"/><g class="cls-13"><ellipse cx="767.85" cy="704.95" rx="74.55" ry="80.34" transform="translate(-118.47 1253.56) rotate(-74.31)"/></g><path class="cls-14" d="M755.54,648.17c-4,2.27-12.38,10.68-14.31,25.14S745.12,705,745.12,705l26.47-8.87Z"/><g class="cls-15"><path d="M755.54,648.17c-4,2.27-12.38,10.68-14.31,25.14S745.12,705,745.12,705l26.47-8.87Z"/></g><g class="cls-13"><path class="cls-6" d="M835.72,747s.19-.38.6-1.1l1.87-3.18c.41-.7.87-1.48,1.38-2.33s.87-1.91,1.36-3,1-2.23,1.59-3.47.91-2.66,1.41-4.11a70.22,70.22,0,0,0,2.55-9.87,74.36,74.36,0,0,0,.94-12.09,72.84,72.84,0,0,0-6.1-28.71l-.79-1.92c-.3-.62-.64-1.22-1-1.85-.66-1.23-1.32-2.49-2-3.75a35.71,35.71,0,0,0-2.3-3.68l-2.46-3.7A83.38,83.38,0,0,0,820,650.75c-1.24-1-2.46-2.1-3.75-3.1l-4.09-2.8-2.06-1.42c-.7-.46-1.46-.83-2.19-1.25l-4.47-2.48a85.76,85.76,0,0,0-19.86-7.09,91.28,91.28,0,0,0-10.83-1.8l-5.59-.28a42.49,42.49,0,0,0-5.64.05l-2.85.13-1.42.06-1.42.19-5.72.78a85.89,85.89,0,0,0-11.31,2.94,74.79,74.79,0,0,0-38.43,28.48c-9.21,13.88-13.49,30.6-11.52,46.26a73.06,73.06,0,0,0,6,22.26c.69,1.77,1.71,3.37,2.54,5l1.31,2.48,1.53,2.33c1.05,1.53,2,3.13,3.1,4.57l3.43,4.25a80.49,80.49,0,0,0,15.74,14,89.1,89.1,0,0,0,17.56,9.39,86.71,86.71,0,0,0,35.13,5.62,81.47,81.47,0,0,0,28.65-6.64A72.29,72.29,0,0,0,822.81,761c1.15-1,2.31-1.9,3.27-2.86l2.64-2.76L831,753l1.66-2.15c1-1.25,1.74-2.22,2.27-2.9s.81-1,.81-1-.23.36-.72,1l-2.2,3-1.63,2.18-2.23,2.41-2.62,2.8c-1,1-2.11,1.87-3.25,2.9a71.94,71.94,0,0,1-18.94,12,81.79,81.79,0,0,1-28.85,6.83,87.3,87.3,0,0,1-35.47-5.55,89.18,89.18,0,0,1-17.75-9.44A81,81,0,0,1,706.12,751l-3.48-4.29c-1.14-1.46-2.08-3.08-3.14-4.62L698,739.68l-1.33-2.5c-.85-1.7-1.88-3.32-2.58-5.1a74.06,74.06,0,0,1-6.13-22.55c-2-15.87,2.32-32.86,11.67-46.94a75.77,75.77,0,0,1,38.95-28.85,88,88,0,0,1,11.45-3l5.78-.78,1.44-.19,1.44-.06,2.88-.13a43.56,43.56,0,0,1,5.71,0l5.65.29a92.8,92.8,0,0,1,10.94,1.83,86.8,86.8,0,0,1,20.06,7.22l4.51,2.51c.74.43,1.5.8,2.21,1.27l2.08,1.44L816.8,647c1.3,1,2.53,2.11,3.78,3.15a84.12,84.12,0,0,1,12.85,13.69q1.25,1.89,2.47,3.74a38.31,38.31,0,0,1,2.31,3.73c.68,1.28,1.34,2.55,2,3.8.33.63.67,1.24,1,1.87l.79,1.93a73.44,73.44,0,0,1,6,29,74.72,74.72,0,0,1-1,12.17,71.53,71.53,0,0,1-2.64,9.92c-.53,1.45-.94,2.85-1.47,4.11l-1.64,3.47-1.41,3-1.43,2.31-2,3.14C836,746.67,835.72,747,835.72,747Z"/></g><path class="cls-14" d="M803.78,765.19l-23.92,8.21s-29.49-.84-29.75-2.16-4.88-21.56-12.35-24c-13.14-4.28-14-3.41-22.88-8.22-15-8.16-12.24-27.09-10.86-29.85s15.58-1.55,21.9-1.71,8.86,0,22.55-12.75a28.45,28.45,0,0,1,29.06-6.06s30.37-37.26,35-29.08-8.85,45.87-8.85,45.87l5.1,9.38a20.34,20.34,0,0,0,3.09,8.89c2.79,4.18,7.55,7.15,4.81,7.78s-8.06,1.34-8.06,1.34l6.17,3.72L808,741.74l6,1.68-6.81,6.16L811.65,762Z"/><path class="cls-16" d="M730,776c22.37,10,48.31,11.42,71.45,3a93,93,0,0,0,18.66-9.14c3.38-2.19,5.22-6.79,2.94-10.48-2.08-3.36-6.86-5.27-10.47-2.94-2.31,1.5-4.69,2.89-7.13,4.15q-1.71.88-3.45,1.68l-1.88.84-.81.34c-1,.44,1.21-.46.18-.07a94.58,94.58,0,0,1-15.84,4.54c-1.25.24-2.51.44-3.78.63l-.87.12c-.88.12.47,0,.51-.07a7.89,7.89,0,0,1-2.35.24q-4.11.38-8.24.36c-2.76,0-5.51-.14-8.25-.41l-1.76-.18c-.31,0-2.42-.35-1.31-.17l-1-.17c-.77-.13-1.55-.27-2.32-.42a84.1,84.1,0,0,1-8.84-2.24c-1.5-.47-3-1-4.46-1.53l-1.92-.75-1.09-.45c-1-.43,1.77.78,0,0-3.65-1.64-8.41-1.34-10.56,2.61-1.79,3.29-1.32,8.8,2.61,10.56Z"/><path class="cls-17" d="M712.66,706.88s-12.31-3.09-11.43,6.25l1.42,7.08s8.05-2.31,10.43-7.8c2.1-4.85-.42-5.53-.42-5.53"/><path class="cls-9" d="M777.53,688.65c0,.19-2.94-.9-7.81-1a34.91,34.91,0,0,0-8.43.86,26.63,26.63,0,0,0-9.41,4.11,96.1,96.1,0,0,0-7.92,6.86,47.47,47.47,0,0,1-6.9,5.25,16.29,16.29,0,0,1-5.44,2.17,5,5,0,0,1-2.15.08,18.4,18.4,0,0,0,7.22-2.86,52.45,52.45,0,0,0,6.65-5.33,86.73,86.73,0,0,1,7.95-7,26.56,26.56,0,0,1,9.8-4.19,32.66,32.66,0,0,1,8.66-.67,25.85,25.85,0,0,1,5.77.94A7,7,0,0,1,777.53,688.65Z"/><g class="cls-15"><path class="cls-6" d="M807.17,669.14a56.36,56.36,0,0,0-19.09,25,12.35,12.35,0,0,1,6-3.93c-.46,2.73-.91,5.47-1.37,8.21a8.89,8.89,0,0,1,5.4-4.2,18.92,18.92,0,0,1,1,6.76,58.66,58.66,0,0,0,7.55-31.41"/></g><path class="cls-17" d="M756.54,708.22c-2.14-.14-4.23,3-4,5.09a4.11,4.11,0,0,0,4.55,3.49,4.35,4.35,0,0,0,3.51-4.63,4.65,4.65,0,0,0-4.34-4"/><path class="cls-17" d="M766.53,706c-1,1-3,.68-4.9.17s-3.77-1.34-4.09-2.71c-.12-.67.34-1.41,1.35-1.9a6.33,6.33,0,0,1,7.48,2.11A1.92,1.92,0,0,1,766.53,706Z"/><path class="cls-9" d="M742.5,726.89s0,.21-.14.58a8,8,0,0,1-.64,1.56,13.61,13.61,0,0,1-4,4.76,23.82,23.82,0,0,1-8.31,4,46.16,46.16,0,0,1-5.32,1.16,20.47,20.47,0,0,1-5.9,0,19.48,19.48,0,0,1-10.38-4.49,15.33,15.33,0,0,1-4-8.3,38.29,38.29,0,0,1-.66-6.15,8.84,8.84,0,0,1,.08-2.27c.2,0,.19,3.24,1.27,8.27.6,2.45,1.56,5.51,4,7.77a18.93,18.93,0,0,0,9.88,4.17c3.85.64,7.55-.22,10.84-1a24.22,24.22,0,0,0,8.13-3.65,14.42,14.42,0,0,0,4.09-4.38A19.5,19.5,0,0,1,742.5,726.89Z"/><g class="cls-13"><path class="cls-6" d="M835.74,692.13c-1.42-18.39-19.15-41.5-32.93-43.36-6.82-1.32-9,4.41-8.44,8.49s3.54,7.43,6.89,9.8,7.18,4,10.52,6.44a29.23,29.23,0,0,1,11.27,16.82c.61,2.54.88,5.21,2.11,7.51s3.76,4.19,6.31,3.62C835.12,700.63,836,695.85,835.74,692.13Z"/></g><g class="cls-13"><path class="cls-6" d="M833.32,711.71a4.32,4.32,0,1,0,1.36.1"/></g><path class="cls-18" d="M371.67,66.27c0-16.84,12.31-28.91,29.15-28.91s29.25,12.07,29.25,28.91-12.32,28.91-29.25,28.91S371.67,83.11,371.67,66.27Zm46.16,0c0-10.47-6.7-18.35-17-18.35S383.9,55.8,383.9,66.27s6.62,18.35,16.92,18.35S417.83,76.66,417.83,66.27Z"/><path class="cls-18" d="M496.59,53.7V94.17h-58.4V53.7h10.64V84.87h13.24V53.7h10.64V84.87h13.15V53.7Z"/><path class="cls-18" d="M507.14,94.17V53.7h10.64V78.17L534.46,53.7h10.72V94.17H534.54V68.78L517.36,94.17Z"/><path class="cls-18" d="M553.14,72.05c0-19.69,7.12-28.49,21-30.33,6.78-1,9.13-2,9.13-3.44h11.06c0,7.88-10.22,10.06-16.84,10.9C568,50.43,564,54.62,562.94,59.31a17,17,0,0,1,13.82-6.61c11.57,0,19.11,9.88,19.11,21.11,0,11.39-7.88,21.37-21.37,21.37S553.14,85.2,553.14,72.05Zm31.75,1.68c0-6.12-3.77-11.57-10.39-11.57s-10.3,5.45-10.3,11.57c0,6.53,3.68,12,10.3,12S584.89,80.26,584.89,73.73Z"/><path class="cls-18" d="M630.3,94.17,619.58,78.59l-4.86,5.19V94.17H604.08V53.7h10.64v18l15.33-18h13.07l-16,18.35,16.5,22.12Z"/><path class="cls-18" d="M673.2,94.17V90c-2.77,3.27-7.55,5.2-12.82,5.2-6.46,0-14.08-4.36-14.08-13.41,0-9.47,7.62-13.07,14.08-13.07,5.36,0,10.13,1.76,12.82,4.94V68.2c0-4.11-3.52-6.79-8.89-6.79a17,17,0,0,0-11.81,4.77l-4-7.12a26.57,26.57,0,0,1,17.68-6.36c9.21,0,17.68,3.68,17.68,15.33V94.17Zm0-9.72v-5c-1.76-2.34-5.12-3.52-8.55-3.52-4.19,0-7.63,2.18-7.63,6.12,0,3.77,3.44,6,7.63,6C668.08,88,671.44,86.8,673.2,84.45Z"/><path class="cls-6" d="M367.94,64.41c0-16.84,12.32-28.91,29.16-28.91s29.24,12.07,29.24,28.91S414,93.31,397.1,93.31,367.94,81.25,367.94,64.41Zm46.17,0c0-10.48-6.7-18.35-17-18.35s-16.93,7.87-16.93,18.35,6.62,18.35,16.93,18.35S414.11,74.8,414.11,64.41Z"/><path class="cls-6" d="M492.86,51.84V92.31h-58.4V51.84h10.65V83h13.23V51.84H469V83h13.16V51.84Z"/><path class="cls-6" d="M503.42,92.31V51.84h10.64V76.3l16.67-24.46h10.73V92.31H530.82V66.92L513.64,92.31Z"/><path class="cls-6" d="M549.41,70.19c0-19.69,7.12-28.49,21-30.33,6.79-1,9.14-2,9.14-3.44h11c0,7.88-10.22,10.06-16.84,10.89-9.55,1.26-13.49,5.45-14.58,10.14A17,17,0,0,1,573,50.83c11.56,0,19.1,9.89,19.1,21.12,0,11.39-7.87,21.36-21.36,21.36S549.41,83.34,549.41,70.19Zm31.76,1.67c0-6.11-3.77-11.56-10.39-11.56s-10.31,5.45-10.31,11.56c0,6.54,3.69,12,10.31,12S581.17,78.4,581.17,71.86Z"/><path class="cls-6" d="M626.58,92.31,615.85,76.72,611,81.92V92.31H600.35V51.84H611v18l15.33-18H639.4l-16,18.35L639.9,92.31Z"/><path class="cls-6" d="M669.47,92.31V88.12c-2.76,3.27-7.54,5.19-12.82,5.19-6.45,0-14.08-4.35-14.08-13.4,0-9.47,7.63-13.07,14.08-13.07,5.36,0,10.14,1.76,12.82,4.94V66.33c0-4.1-3.52-6.78-8.88-6.78a17,17,0,0,0-11.81,4.77l-4-7.12a26.56,26.56,0,0,1,17.68-6.37c9.22,0,17.68,3.69,17.68,15.34V92.31Zm0-9.72v-5c-1.76-2.34-5.11-3.52-8.55-3.52-4.19,0-7.62,2.18-7.62,6.12,0,3.77,3.43,6,7.62,6C664.36,86.11,667.71,84.93,669.47,82.59Z"/><path class="cls-18" d="M398.2,303.4V272.86H327.58v-24.8l58.67-92.3h43.38v89.43h19v27.67h-19V303.4Zm0-119.75-39.85,61.54H398.2Z"/><path class="cls-18" d="M461.74,229.69c0-38.07,18.81-76.15,61.09-76.15,42.06,0,61.1,38.08,61.1,76.15s-19,76.37-61.1,76.37C480.55,306.06,461.74,267.76,461.74,229.69Zm90.09,0c0-27.23-8-48.26-29-48.26-21.25,0-29.22,21-29.22,48.26s8,48.48,29.22,48.48C543.86,278.17,551.83,256.92,551.83,229.69Z"/><path class="cls-18" d="M667.6,303.4V272.86H597v-24.8l58.66-92.3H699v89.43h19v27.67H699V303.4Zm0-119.75-39.84,61.54H667.6Z"/><path class="cls-6" d="M389.9,295.9V265.35H319.28V240.56L378,148.25h43.38v89.43h19v27.67h-19V295.9Zm0-119.76-39.85,61.54H389.9Z"/><path class="cls-6" d="M453.43,222.19c0-38.08,18.82-76.15,61.1-76.15,42.06,0,61.1,38.07,61.1,76.15s-19,76.37-61.1,76.37C472.25,298.56,453.43,260.26,453.43,222.19Zm90.1,0c0-27.23-8-48.26-29-48.26-21.25,0-29.22,21-29.22,48.26s8,48.48,29.22,48.48C535.56,270.67,543.53,249.42,543.53,222.19Z"/><path class="cls-6" d="M659.31,295.9V265.35H588.69V240.56l58.66-92.31h43.39v89.43h19v27.67h-19V295.9Zm0-119.76-39.85,61.54h39.85Z"/><g class="cls-2"><path d="M479.75,533.28c-9.66.29-20.13.33-27.92-5.39-4.62-3.4-7.71-8.46-11.79-12.49s-10.07-7.15-15.44-5.15c-6.15,2.28-9.76,10.57-16.31,10.17-4.8-.29-7.89-5.25-12.33-7.11-4.9-2-14.39-.63-18.13,3.15s-8.07,8.61-10.07,13.54c10.94,14,30.16,18,47.8,20.14,31.8,3.79,40.71,2.65,72.63.07,7.71-.62,36.36-9.32,43.46-12.4s19.24-3.22,21.47-7.79C529.84,530.7,503,532.59,479.75,533.28Z"/></g><g class="cls-2"><path d="M750.33,345.35c-3.63-11-12.26-21.09-23.66-22.84s-24.18,8.14-22.4,19.54c-6.28-3.89-12.75-7.87-20-9.19s-15.63.58-20,6.57c-2.54,3.5-3.85,8.38-7.85,10-6,2.45-9-4.57-20.45-.95-11.23,3.53-17.26,15.89-17.5,17.15,0,0-31.73.5-41.33,17.94h0a330.78,330.78,0,0,1,132.39-7.19c7,1.05,14.05,2.32,21.09,1.61s14.2-3.71,18.17-9.56C753.3,361.83,752.85,352.94,750.33,345.35Z"/></g><g class="cls-2"><path d="M488.92,415.47c-8.34-2-10.91-9.19-23.42-8.91-4.84.11-14.57,5-14.57,5s-3.34-7.42-5-11.21a14.8,14.8,0,0,0-28.29,5.1c-.59-4.32-6-7.48-10.55-6.57A22.37,22.37,0,0,0,393.58,408c-2.88,4.43-4.05,4.89-7.94,13.17L383.29,427q53-.56,105.84-5.83c2.52-.25,5.81-1.4,5.54-3.92C494.47,415.34,490.77,415.92,488.92,415.47Z"/></g><g class="cls-2"><path d="M633.69,460.27c-8.34-2-10.91-9.18-23.42-8.91-4.84.11-14.57,5-14.57,5s-3.34-7.43-5-11.22a14.8,14.8,0,0,0-28.29,5.11c-.58-4.33-6-7.49-10.55-6.58a22.41,22.41,0,0,0-13.48,9.15c-2.88,4.43-4.05,4.89-7.94,13.17l-2.35,5.82q53-.57,105.84-5.84c2.52-.25,5.82-1.4,5.54-3.92C639.24,460.14,635.54,460.72,633.69,460.27Z"/></g><g class="cls-2"><path d="M420.08,340.75c-8.35-2-10.91-9.18-23.42-8.91-4.84.11-14.58,5-14.58,5s-3.33-7.43-5-11.22a14.8,14.8,0,0,0-28.29,5.11c-.59-4.33-6-7.49-10.56-6.58a22.41,22.41,0,0,0-13.48,9.15c-2.87,4.43-4,4.89-7.94,13.18l-2.35,5.81q53-.57,105.85-5.84c2.52-.25,5.81-1.4,5.54-3.91C425.63,340.62,421.92,341.2,420.08,340.75Z"/></g><polygon class="cls-1" points="53.88 148.45 53.95 141.25 44.1 134.13 38.87 144.65 41.72 152.97 47.54 153.15 53.88 148.45"/><polygon class="cls-3" points="41.72 152.97 49.14 145.78 44.1 134.13 38.87 144.65 41.72 152.97"/><g class="cls-2"><polyline class="cls-10" points="44.27 134.13 54.12 141.25 54.05 148.45"/></g><path class="cls-1" d="M950.17,291.54s2.91,7.95-1.52,18.56-6.52,17.32-13.31,18.12-18.56.4-18.56.4l-.58-19.3Z"/><g class="cls-2"><path d="M950.17,291.54s2.91,7.95-1.52,18.56-6.52,17.32-13.31,18.12-18.56.4-18.56.4l-.58-19.3Z"/></g><path class="cls-3" d="M904,295s9.08,13,11.6,15l1.43,1.93c2-.77,23-7.16,24-8.92a4.18,4.18,0,0,0,.38-3.47l3.21,1.1,5.53-9.09-23.87,2.88s2.52-2.21,1-3S904,295,904,295Z"/><path class="cls-1" d="M916.78,328.62a56.36,56.36,0,0,1-6.87-14.15C906.84,305.47,904,295,904,295l13,16.91Z"/><g class="cls-2"><path d="M941.05,303l1.05,10.93,2.54-13.3-3.21-1.1S942,301.71,941.05,303Z"/></g><polygon class="cls-1" points="907.58 221.86 907.65 215.46 898.9 209.13 894.26 218.47 896.78 225.87 901.95 226.02 907.58 221.86"/><polygon class="cls-3" points="896.78 225.87 903.38 219.49 898.9 209.13 894.26 218.47 896.78 225.87"/><g class="cls-2"><polygon class="cls-10" points="907.73 221.86 903.53 219.49 899.05 209.13 907.8 215.46 907.73 221.86"/></g><polygon class="cls-1" points="995.07 157.21 1012.7 152.33 1008.89 141.22 993.8 117.9 975.48 130.71 979.15 145.04 995.07 157.21"/><polygon class="cls-3" points="975.48 130.71 998.26 143.77 1008.89 141.22 993.8 117.9 975.48 130.71"/><g class="cls-2"><polygon class="cls-10" points="995.07 157.21 998.26 143.77 1008.89 141.22 1012.7 152.33 995.07 157.21"/></g><polygon class="cls-1" points="186.71 1263.42 182.4 1243.42 212.56 1237.57 222.37 1213.68 216.67 1243.74 205.89 1259.89 186.71 1263.42"/><polygon class="cls-1" points="163.61 1224.61 166.73 1243.41 186.71 1263.42 182.4 1243.42 163.61 1224.61"/><path class="cls-3" d="M169.49,1210.9c-1.57,2.35-5.88,13.71-5.88,13.71l18.79,18.81,30.16-5.85,9.81-23.89c-1-2.44-8.79-11.94-8.79-11.94Z"/><path class="cls-1" d="M334.46,125l-22.11,3.09L311,130.45s-8.72,1.36-9.48,1.63L299,144.73l14.24,1.86,14.11-11.72Z"/><path class="cls-1" d="M299,144.73c.4.26,5.46,8.78,13.58,12.78a79.38,79.38,0,0,0,13.74,5.43L308,143.88Z"/><polygon class="cls-3" points="327.8 126.3 325.39 131.11 313.74 132.03 312.25 138.33 308 143.88 326.32 162.94 334.46 150.54 334.46 125 327.8 126.3"/><g class="cls-2"><polygon points="313.74 132.03 301.53 132.08 299 144.73 308 143.88 312.25 138.33 313.74 132.03"/></g><path class="cls-16" d="M314,835.87a12.2,12.2,0,0,1,6-2.66c.2,0,1.7-.23.71-.14.63-.05,1.26-.07,1.89-.07s1.25,0,1.88.11c1.48.14-.67-.26.76.14a13.77,13.77,0,0,1,5.38,2.43,12.79,12.79,0,0,1,3.65,4.47c.25.46.48.94.7,1.42-.43-1,.3.94.35,1.14.15.5.27,1,.38,1.53,0,.22.2,1.59.12.65a16.41,16.41,0,0,1-.08,3.64c.14-1-.12.44-.17.64-.16.67-.39,1.31-.59,2-.32,1,.27-.39-.27.63-.23.46-.47.91-.73,1.35a18.05,18.05,0,0,1-1.13,1.71c.58-.76-.44.48-.47.51-.4.44-.83.86-1.27,1.26-.16.15-1.5,1.16-.7.6a20.33,20.33,0,0,1-3.12,1.76c-2.63,1.19-3.32,4.95-2,7.29,1.54,2.7,4.66,3.19,7.29,2,9.64-4.37,15.05-15,13.67-25.34-1.43-10.7-10.28-18.9-20.77-20.36a24,24,0,0,0-16.82,4.06c-2.35,1.67-3.52,4.6-2,7.29,1.33,2.31,4.93,3.67,7.29,2Z"/><g class="cls-15"><path d="M314,835.87a12.2,12.2,0,0,1,6-2.66c.2,0,1.7-.23.71-.14.63-.05,1.26-.07,1.89-.07s1.25,0,1.88.11c1.48.14-.67-.26.76.14a13.77,13.77,0,0,1,5.38,2.43,12.79,12.79,0,0,1,3.65,4.47c.25.46.48.94.7,1.42-.43-1,.3.94.35,1.14.15.5.27,1,.38,1.53,0,.22.2,1.59.12.65a16.41,16.41,0,0,1-.08,3.64c.14-1-.12.44-.17.64-.16.67-.39,1.31-.59,2-.32,1,.27-.39-.27.63-.23.46-.47.91-.73,1.35a18.05,18.05,0,0,1-1.13,1.71c.58-.76-.44.48-.47.51-.4.44-.83.86-1.27,1.26-.16.15-1.5,1.16-.7.6a20.33,20.33,0,0,1-3.12,1.76c-2.63,1.19-3.32,4.95-2,7.29,1.54,2.7,4.66,3.19,7.29,2,9.64-4.37,15.05-15,13.67-25.34-1.43-10.7-10.28-18.9-20.77-20.36a24,24,0,0,0-16.82,4.06c-2.35,1.67-3.52,4.6-2,7.29,1.33,2.31,4.93,3.67,7.29,2Z"/></g><path class="cls-12" d="M417.73,1216.54,477,1251.45l20.53,45.76a19.49,19.49,0,0,0,25.29,8.18,8.23,8.23,0,0,0,2-1.27h0c1.75-1.63,4-9,3.74-11.38-2.56-26.64-4.85-62.21-13.47-68.55-4.91-3.62-58.14-50.94-58.14-50.94Z"/><path class="cls-9" d="M473.4,1216.72a3.88,3.88,0,0,1,1,.42c.62.3,1.52.77,2.68,1.39,2.29,1.26,5.63,3.09,9.53,5.72a53,53,0,0,1,12.29,11,35.38,35.38,0,0,1,4.9,8.51,80.63,80.63,0,0,1,3.11,10c1.61,7,4.31,13.2,5.73,19.32s1.16,12.08-1,16.41a14.2,14.2,0,0,1-8.27,7.31,10.28,10.28,0,0,1-3,.46,3.28,3.28,0,0,1-1.06-.12,16.73,16.73,0,0,0,3.94-.75,14.08,14.08,0,0,0,7.7-7.24c2-4.16,2.19-9.91.73-15.84s-4.18-12.27-5.81-19.27a82.89,82.89,0,0,0-3-9.89,34.7,34.7,0,0,0-4.71-8.3,54.38,54.38,0,0,0-11.92-11c-3.8-2.69-7.07-4.61-9.3-6A30.37,30.37,0,0,1,473.4,1216.72Z"/><path class="cls-9" d="M493.59,1240.65c.11.32-4.13,1.95-8.81,4.93s-8,6.1-8.23,5.86,2.8-3.76,7.63-6.8S493.52,1240.38,493.59,1240.65Z"/><path class="cls-9" d="M497.15,1256.46c.06.32-3.8,1.06-8.17,3s-7.51,4.3-7.72,4,2.72-3,7.27-5.06S497.14,1256.17,497.15,1256.46Z"/><path class="cls-9" d="M505.3,1270.39c0,.34-3.95.39-8.59,1.59s-8.14,3-8.3,2.7,3.19-2.57,8-3.78S505.33,1270.11,505.3,1270.39Z"/><path class="cls-9" d="M507.05,1305.29a18.91,18.91,0,0,0,3.42-.81,14.44,14.44,0,0,0,7-6.16c2.11-3.44,3-8.31,3-13.67s-.29-11.35-.84-17.57a213.58,213.58,0,0,0-5.33-31.5c-1-4-1.88-7.17-2.49-9.38a23.32,23.32,0,0,1-.88-3.45,22.2,22.2,0,0,1,1.3,3.32c.73,2.18,1.77,5.34,2.83,9.31a185.81,185.81,0,0,1,5.68,31.6c.55,6.26.81,12.23.76,17.68s-1.07,10.51-3.38,14.07a14.37,14.37,0,0,1-7.54,6.16,10,10,0,0,1-2.63.48A2.67,2.67,0,0,1,507.05,1305.29Z"/><path class="cls-9" d="M512.16,1229.67c-.11.11-1.62-1.28-4.07-3.49s-5.89-5.22-9.84-8.33-7.67-5.75-10.4-7.62-4.43-3-4.34-3.15,1.92.78,4.77,2.49a106,106,0,0,1,10.66,7.4,107.88,107.88,0,0,1,9.69,8.64C511,1228,512.27,1229.57,512.16,1229.67Z"/><path class="cls-12" d="M545.81,1076.34l30.9,61.84,44.45,23.72a19.59,19.59,0,0,1,6.46,25.91,8.48,8.48,0,0,1-1.42,2h0c-1.75,1.64-9.29,3.35-11.66,3-26.52-4.4-62-9.14-67.77-18.21-3.29-5.17-47-61.78-47-61.78Z"/><path class="cls-9" d="M542.16,1132.14s.23.29.55.9.85,1.62,1.41,2.69c1.22,2.33,2.92,5.73,5.35,9.74a54.82,54.82,0,0,0,10.24,12.7,34.78,34.78,0,0,0,8,5.29,83.91,83.91,0,0,0,9.7,3.73c6.9,2.11,13.06,5.31,18.91,7.15s11.62,2.05,15.92.35a14.08,14.08,0,0,0,7.79-7.22,16,16,0,0,0,1-3.89,3.18,3.18,0,0,1,.05,1.07,10.4,10.4,0,0,1-.67,3,14.22,14.22,0,0,1-7.9,7.78c-4.48,1.89-10.51,1.76-16.5-.1s-12.11-5-19-7.08a80.47,80.47,0,0,1-9.83-3.8,35.78,35.78,0,0,1-8.19-5.5,53.14,53.14,0,0,1-10.23-13.07c-2.37-4.09-4-7.56-5.07-9.95-.55-1.2-1-2.14-1.22-2.78A4.36,4.36,0,0,1,542.16,1132.14Z"/><path class="cls-9" d="M564.76,1154c-.27-.09,1.24-4.54,4.64-9.15s7.17-7.41,7.34-7.18-3.15,3.33-6.44,7.84S565.06,1154.15,564.76,1154Z"/><path class="cls-9" d="M580.35,1158.68c-.28,0,.26-4.1,2.61-8.5s5.38-7.15,5.57-6.94-2.35,3.2-4.59,7.46S580.67,1158.76,580.35,1158.68Z"/><path class="cls-9" d="M593.75,1167.8c-.28,0-.45-4.09,1.13-8.84s4.11-8,4.33-7.79-1.8,3.55-3.28,8.14S594.09,1167.82,593.75,1167.8Z"/><path class="cls-9" d="M628.61,1172a2.76,2.76,0,0,1,0,.93,9.83,9.83,0,0,1-.66,2.61,14.39,14.39,0,0,1-6.68,7.13c-3.73,2.07-8.88,2.72-14.33,2.42s-11.44-1-17.67-2a187.23,187.23,0,0,1-31.28-7.86c-3.9-1.35-7-2.6-9.13-3.48a21.19,21.19,0,0,1-3.25-1.54,23.15,23.15,0,0,1,3.41,1.13c2.17.76,5.3,1.9,9.22,3.14a215.21,215.21,0,0,0,31.21,7.51c6.18,1,12.14,1.68,17.54,2s10.32-.2,13.91-2.08a14.47,14.47,0,0,0,6.66-6.61A20,20,0,0,0,628.61,1172Z"/><path class="cls-9" d="M552.47,1171.88c-.11.1-1.61-1.32-3.83-3.82a108.85,108.85,0,0,1-14.67-21.5c-1.52-3-2.29-4.89-2.17-5s1.17,1.72,2.86,4.58,4.07,6.77,6.92,10.94,5.62,7.82,7.67,10.43S552.59,1171.77,552.47,1171.88Z"/><path class="cls-16" d="M188.29,963.29a30,30,0,0,0-13.36,23.37c-.75,10.49,3.67,21.13,10.13,29.22,6.32,7.92,15.68,11.61,25.65,9.2s18.89-9.23,27.5-14.62l33.48-20.93c5.81-3.64.55-12.95-5.3-9.28l-25.33,15.84c-7.93,5-15.73,10.24-23.89,14.8-6.13,3.42-13.65,6.52-20,2-6.15-4.37-10-12.73-11.27-19.94-1.32-7.46,1.12-16.09,7.72-20.36,5.74-3.71.49-13-5.3-9.28Z"/><g class="cls-19"><path d="M188.29,963.29a30,30,0,0,0-13.36,23.37c-.75,10.49,3.67,21.13,10.13,29.22,6.32,7.92,15.68,11.61,25.65,9.2s18.89-9.23,27.5-14.62l33.48-20.93c5.81-3.64.55-12.95-5.3-9.28l-25.33,15.84c-7.93,5-15.73,10.24-23.89,14.8-6.13,3.42-13.65,6.52-20,2-6.15-4.37-10-12.73-11.27-19.94-1.32-7.46,1.12-16.09,7.72-20.36,5.74-3.71.49-13-5.3-9.28Z"/></g><path class="cls-16" d="M85.23,778.85c-8.32,4-11.46,14-9.64,22.57,2,9.47,9.19,16.43,16.13,22.61a5.47,5.47,0,0,0,7.56.05c2-1.93,2.21-5.62,0-7.55-5-4.5-10.94-9.6-12.89-15.87a13.39,13.39,0,0,1-.74-4.32c0-.31.16-2.08,0-1.41a18.85,18.85,0,0,1,.54-2.09c.06-.22.27-.77,0-.25.14-.33.31-.65.48-1s.46-.76.7-1.14c.48-.72-.43.46.13-.19.24-.26.48-.52.73-.77.07-.06.81-.72.45-.44s.44-.28.53-.34a13.08,13.08,0,0,1,1.17-.62c2.6-1.26,3.35-4.91,2-7.29a5.45,5.45,0,0,0-7.29-2Z"/><g class="cls-20"><path d="M85.23,778.85c-8.32,4-11.46,14-9.64,22.57,2,9.47,9.19,16.43,16.13,22.61a5.47,5.47,0,0,0,7.56.05c2-1.93,2.21-5.62,0-7.55-5-4.5-10.94-9.6-12.89-15.87a13.39,13.39,0,0,1-.74-4.32c0-.31.16-2.08,0-1.41a18.85,18.85,0,0,1,.54-2.09c.06-.22.27-.77,0-.25.14-.33.31-.65.48-1s.46-.76.7-1.14c.48-.72-.43.46.13-.19.24-.26.48-.52.73-.77.07-.06.81-.72.45-.44s.44-.28.53-.34a13.08,13.08,0,0,1,1.17-.62c2.6-1.26,3.35-4.91,2-7.29a5.45,5.45,0,0,0-7.29-2Z"/></g><rect class="cls-16" x="92.48" y="767.94" width="196.3" height="204.47" rx="21.92" transform="translate(-446.64 247.74) rotate(-33.32)"/><g class="cls-2"><rect x="92.48" y="767.94" width="196.3" height="204.47" rx="21.92" transform="translate(-446.64 247.74) rotate(-33.32)"/></g><rect class="cls-16" x="115.67" y="752.7" width="196.3" height="204.47" rx="21.92" transform="translate(-434.46 257.97) rotate(-33.32)"/><path class="cls-12" d="M104.91,832.43S90,852.65,89.55,870.18s-2.3,72.13-2.3,72.13-4.2,19.67-4.83,30c-.44,7.3-7.75,49.1-.92,60,.63,1-3,23.05-3,23.05l44.23,3.23,3-23.47,2.95-2.93a17.35,17.35,0,0,0,5-10.42l7.1-65.12,5.25-52.79Z"/><path class="cls-9" d="M99.31,841.44a18.6,18.6,0,0,1,2.94,1.62,38,38,0,0,1,3.32,2.13c1.25.89,2.73,1.84,4.22,3.08a92,92,0,0,1,10.12,9.1,105,105,0,0,1,10.46,13,104.78,104.78,0,0,1,8.06,14.6,92.63,92.63,0,0,1,4.6,12.8c.58,1.85.9,3.58,1.25,5.08s.57,2.8.72,3.88a18.44,18.44,0,0,1,.38,3.33,20,20,0,0,1-.81-3.25c-.21-1.06-.49-2.35-.9-3.82s-.77-3.17-1.4-5a101.74,101.74,0,0,0-4.77-12.61,111.36,111.36,0,0,0-8.05-14.4,111.25,111.25,0,0,0-10.28-12.9,101.43,101.43,0,0,0-9.87-9.19c-1.45-1.26-2.88-2.25-4.09-3.18s-2.3-1.68-3.19-2.28A20,20,0,0,1,99.31,841.44Z"/><path class="cls-9" d="M90.77,860.31a14.39,14.39,0,0,1,2.77,1.07,79.37,79.37,0,0,1,7.25,3.59A108,108,0,0,1,111,871.36a119.24,119.24,0,0,1,11.4,9.29,119.78,119.78,0,0,1,10.07,10.73,109.19,109.19,0,0,1,7.08,9.7c1.84,2.88,3.23,5.27,4.09,7a14.52,14.52,0,0,1,1.26,2.69,15.53,15.53,0,0,1-1.64-2.47c-1-1.64-2.45-4-4.37-6.76s-4.34-6-7.21-9.48a130.87,130.87,0,0,0-10-10.58,130.68,130.68,0,0,0-11.24-9.27c-3.64-2.62-7-4.83-10-6.53s-5.34-3-7-3.89A16.39,16.39,0,0,1,90.77,860.31Z"/><path class="cls-14" d="M85.4,951.64c16.89,8.85,37.57,12.29,55.38,5.48l1-8.65c-17.78,7.3-38.6,4.78-54.71-5.71Z"/><path class="cls-9" d="M142.15,943.49a8.26,8.26,0,0,1-2.07.82,43.94,43.94,0,0,1-5.86,1.51,60,60,0,0,1-19.94.22,83.39,83.39,0,0,1-19.19-5.44c-2.36-1-4.23-1.84-5.5-2.49a8.6,8.6,0,0,1-1.93-1.1c.08-.16,3,1.1,7.72,2.85a97.54,97.54,0,0,0,19.07,5.08,66.43,66.43,0,0,0,19.64.1C139.08,944.26,142.09,943.29,142.15,943.49Z"/><path class="cls-9" d="M138.87,964.73a8.77,8.77,0,0,1-2.07.82,42.68,42.68,0,0,1-5.86,1.5,60,60,0,0,1-19.94.23,83.89,83.89,0,0,1-19.19-5.44c-2.36-1-4.23-1.84-5.5-2.49a8.6,8.6,0,0,1-1.93-1.1c.08-.17,3,1.1,7.72,2.85a97.62,97.62,0,0,0,19.06,5.08,66.49,66.49,0,0,0,19.65.1C135.8,965.5,138.8,964.53,138.87,964.73Z"/><path class="cls-14" d="M99.52,886.43a14.64,14.64,0,0,0-5.47-2.34c-2-.27-4.24.46-5.17,2.23a7.49,7.49,0,0,0-.58,3.33l-.42,22.47a9.36,9.36,0,0,0,.42,3.69,5.82,5.82,0,0,0,4,3.27c3.72.92,7.67-1.29,9.79-4.47s2.73-7.13,2.88-11C105.27,897.31,104.46,889.5,99.52,886.43Z"/><path class="cls-9" d="M122.31,1042.24a7,7,0,0,1-1.92,0l-5.26-.35c-4.46-.34-10.68-.88-17.72-1.55l-.55-.06,0-.55c.14-1.44.29-3,.44-4.49.06-.59.11-1.18.17-1.73l0-.53.53,0c7.74.45,14.66.9,19.65,1.29,2.49.19,4.5.36,5.89.5l1.59.19c.18.06.34,0,.36.14s.18,0,.19,0,0-.06-.09,0-.28.06-.47.09h-1.6c-1.4,0-3.41-.07-5.91-.16-5-.18-11.93-.51-19.67-.94l.58-.5c-.05.55-.11,1.13-.16,1.73-.16,1.54-.31,3.05-.45,4.49l-.5-.6c7,.71,13.25,1.39,17.69,1.92l5.23.68A7.19,7.19,0,0,1,122.31,1042.24Z"/><path class="cls-9" d="M80.33,1043.72c0-.31,9.8.4,21.81,1.58s21.73,2.38,21.7,2.69-9.79-.4-21.81-1.58S80.3,1044,80.33,1043.72Z"/><path class="cls-21" d="M80,1059.79l39.58,3.88a2.83,2.83,0,0,0,3.09-2.53h0a2.83,2.83,0,0,0-2.54-3.09l-39.58-3.88a2.83,2.83,0,0,0-3.09,2.53h0A2.82,2.82,0,0,0,80,1059.79Z"/><path class="cls-12" d="M120,1062.09s10.18,11.61,12.75,20.28,4.19,15.21,1,19-7.14,4.15-8.64-.12-.61-7.37-4.23-12-5.46-4.89-5.46-4.89-3,15.93-.26,19.74,14.71,11.19,9.27,15.65-13.33-.18-13.33-.18-4.46,7.22-12.74,1.84a15.81,15.81,0,0,1-15.32-9.16s-8.42.88-9.71-6.5-1.29-22.11.39-29.45a86.79,86.79,0,0,1,3.29-10.86c0-.42,2.24-7.64,2.24-7.64Z"/><path class="cls-9" d="M98.35,1098.63c.35-.08.88,5.61,4.52,11.39s8.41,8.83,8.19,9.11c-.06.11-1.36-.47-3.18-1.87a25.64,25.64,0,0,1-9.27-15C98.17,1100.06,98.22,1098.64,98.35,1098.63Z"/><path class="cls-9" d="M86.48,1094.35c.37,0-.1,6.9,3.29,14.48s8.69,12,8.41,12.23c-.07.09-1.52-.84-3.46-2.82a31,31,0,0,1-8.51-19.44C86.06,1096,86.36,1094.34,86.48,1094.35Z"/><path class="cls-9" d="M79.75,1091.29c.33,0,.32,4.91,1.35,10.81s2.65,10.53,2.34,10.65S81,1108.34,80,1102.29,79.47,1091.26,79.75,1091.29Z"/><path class="cls-9" d="M73.59,1082.79c.08-.16,2.82,1.41,7.8,3s12.21,2.8,20.6,3.41l-.59.49a75.51,75.51,0,0,1,1.3-8.53,77.47,77.47,0,0,1,2.54-9.24l.46.71a137,137,0,0,1-20.09-3.67c-2.46-.65-4.39-1.24-5.71-1.67a9.45,9.45,0,0,1-2-.78,10.53,10.53,0,0,1,2.11.42l5.77,1.36a169.35,169.35,0,0,0,20,3.27l.67.07-.22.64a80,80,0,0,0-2.47,9.12,81,81,0,0,0-1.31,8.41l0,.53-.53,0c-8.42-.67-15.75-2-20.73-3.82a41.93,41.93,0,0,1-5.68-2.44A8.68,8.68,0,0,1,73.59,1082.79Z"/><path class="cls-9" d="M124.91,1098.7c-.12-.07.07-.77.85-1.62a6,6,0,0,1,4-1.87,6.12,6.12,0,0,1,4.21,1.36c.87.75,1.15,1.43,1,1.5s-.61-.35-1.49-.85a6.41,6.41,0,0,0-7.25.45C125.47,1098.27,125.05,1098.79,124.91,1098.7Z"/><path class="cls-9" d="M117.29,1121.64c-.11.07-.68-.53-1.16-1.76a8.83,8.83,0,0,1,2.2-9.53c1-.89,1.75-1.18,1.82-1.06s-2.45,2.13-3.28,5.74S117.59,1121.52,117.29,1121.64Z"/><path class="cls-9" d="M121.43,1063.54c0,.16-2.45,0-6.37-.43l-15.32-1.51L84.43,1060c-3.91-.45-6.33-.8-6.31-1s2.45-.08,6.38.18,9.37.71,15.36,1.31,11.39,1.26,15.29,1.84S121.45,1063.39,121.43,1063.54Z"/><path class="cls-12" d="M147.62,911.63c.63.6,54.75,61.53,54.75,61.53s27.14,44.11,41.23,55.78L364.36,906.7,325.86,863l-79.7-128-20,9.41s-92,62.18-104.08,70.64-17.19,17.37-17.19,17.37S124.64,889.85,147.62,911.63Z"/><g class="cls-2"><path d="M295.4,895l-64.63,44.68A14.47,14.47,0,0,1,210.63,936l-35.25-51a14.48,14.48,0,0,1,3.67-20.14l64.63-44.69a14.48,14.48,0,0,1,20.14,3.68l35.25,51A14.48,14.48,0,0,1,295.4,895Z"/></g><path class="cls-16" d="M112.88,822.89c27.08,1.25,46.55,23.28,63.21,42.13,4.55,5.16,12.15-2.36,7.6-7.51-18.73-21.2-40.4-43.92-70.6-45.31-6.89-.31-7.07,10.37-.21,10.69Z"/><g class="cls-15"><path d="M112.88,822.89c27.08,1.25,46.55,23.28,63.21,42.13,4.55,5.16,12.15-2.36,7.6-7.51-18.73-21.2-40.4-43.92-70.6-45.31-6.89-.31-7.07,10.37-.21,10.69Z"/></g><path class="cls-16" d="M295.93,890.81l-64.62,44.68a14.47,14.47,0,0,1-20.14-3.67l-35.26-51a14.47,14.47,0,0,1,3.68-20.14L244.21,816a14.48,14.48,0,0,1,20.14,3.67l35.26,51A14.48,14.48,0,0,1,295.93,890.81Z"/><path class="cls-9" d="M295.93,890.81a24.25,24.25,0,0,0,2.7-2.61,14.26,14.26,0,0,0,3.3-9.93,14.09,14.09,0,0,0-2.4-7.22l-5.32-7.64-13-18.63c-4.8-6.92-10.06-14.49-15.71-22.61-1.42-2-2.73-4.15-4.81-5.55a13.93,13.93,0,0,0-14.47-1.21,28.24,28.24,0,0,0-3.39,2.16l-3.4,2.36-59.53,41.21a13.94,13.94,0,0,0-5.17,16.2,15.49,15.49,0,0,0,2.17,4l2.63,3.82,5.21,7.54,19.84,28.74q2.35,3.44,4.67,6.78c1.59,2.23,2.9,4.57,4.89,6.16a14,14,0,0,0,13.95,2.32c2.25-.8,4.11-2.42,6.12-3.72l5.79-4c3.78-2.6,7.42-5.09,10.88-7.48C264.75,912,276,904.29,283.79,899l9-6.08,2.35-1.56c.53-.35.82-.5.82-.5a8.74,8.74,0,0,1-.76.59l-2.28,1.65L284,899.3l-32.69,22.82-10.84,7.54-5.77,4c-2,1.29-3.86,3-6.3,3.85a15,15,0,0,1-17.69-5.45l-2.3-3.31-4.7-6.78-19.89-28.7-5.21-7.54q-1.32-1.89-2.64-3.81a17,17,0,0,1-2.3-4.21,15,15,0,0,1,5.58-17.49l59.57-41.14,3.42-2.36a27.18,27.18,0,0,1,3.52-2.21,14.89,14.89,0,0,1,15.47,1.33c2.22,1.51,3.63,3.8,5,5.79l15.6,22.69,12.85,18.73,5.25,7.7a14.49,14.49,0,0,1,2.39,7.49,14.26,14.26,0,0,1-3.56,10.09A11.63,11.63,0,0,1,295.93,890.81Z"/><path class="cls-11" d="M238.66,886.59l-27.07,18.72a4.35,4.35,0,0,1-6.05-1.11h0a4.35,4.35,0,0,1,1.1-6l27.08-18.72a4.35,4.35,0,0,1,6,1.1h0A4.35,4.35,0,0,1,238.66,886.59Z"/><path class="cls-11" d="M218.91,911.4a3.62,3.62,0,1,1-5-.92A3.63,3.63,0,0,1,218.91,911.4Z"/><path class="cls-11" d="M229.09,904.36a3.62,3.62,0,1,1-5-.92A3.62,3.62,0,0,1,229.09,904.36Z"/><path class="cls-11" d="M238.94,897.55a3.62,3.62,0,1,1-5-.92A3.63,3.63,0,0,1,238.94,897.55Z"/><path class="cls-11" d="M248.78,890.75a3.62,3.62,0,1,1-5-.92A3.62,3.62,0,0,1,248.78,890.75Z"/><path class="cls-11" d="M222.1,863,195,881.73a4.35,4.35,0,0,1-6-1.1h0a4.35,4.35,0,0,1,1.1-6l27.07-18.72a4.36,4.36,0,0,1,6,1.1h0A4.36,4.36,0,0,1,222.1,863Z"/><path class="cls-8" d="M202.34,887.82a3.62,3.62,0,1,1-5-.92A3.62,3.62,0,0,1,202.34,887.82Z"/><path class="cls-14" d="M212.53,880.78a3.62,3.62,0,1,1-5-.92A3.62,3.62,0,0,1,212.53,880.78Z"/><path class="cls-8" d="M222.37,874a3.62,3.62,0,1,1-5-.91A3.62,3.62,0,0,1,222.37,874Z"/><path class="cls-14" d="M232.22,867.17a3.62,3.62,0,1,1-5-.92A3.64,3.64,0,0,1,232.22,867.17Z"/><path class="cls-14" d="M206.44,979.2s44.21-18.11,82.62-50.85,47.55-53.14,47.55-53.14l12.07,13.7S317.49,945.52,215.55,994.3C215.55,994.3,206.48,984.15,206.44,979.2Z"/><path class="cls-9" d="M223.54,830.3a7.2,7.2,0,0,1,.92,1.14l2.45,3.41,8.86,12.64,28.86,41.94,2.54,3.73.32.46-.46.31-39.68,26.83-12,8-3.27,2.11a6.72,6.72,0,0,1-1.18.67,6.43,6.43,0,0,1,1.06-.85l3.15-2.28,11.77-8.23L266.4,893l-.14.78-2.55-3.73-28.59-42.13-8.56-12.84-2.28-3.52A7.09,7.09,0,0,1,223.54,830.3Z"/><g class="cls-2"><polygon points="266.71 893.47 266.41 896.5 212.74 934.09 210.94 931.49 266.71 893.47"/></g><rect class="cls-9" x="241.05" y="829.33" width="25.78" height="25.78" rx="2.54" transform="matrix(0.82, -0.57, 0.57, 0.82, -433.92, 293.88)"/><path class="cls-9" d="M277.58,856.39,260,868a3.32,3.32,0,0,1-4.59-.94h0a3.31,3.31,0,0,1,1-4.59L274,850.85a3.31,3.31,0,0,1,4.58.95h0A3.31,3.31,0,0,1,277.58,856.39Z"/><path class="cls-9" d="M292.59,861.74c.17.26-7,5.41-15.92,11.51s-16.37,10.84-16.54,10.59,6.95-5.41,15.92-11.51S292.41,861.49,292.59,861.74Z"/><path class="cls-14" d="M279.76,886.85a3.51,3.51,0,1,1-3.78-3.21A3.5,3.5,0,0,1,279.76,886.85Z"/><path class="cls-8" d="M290.74,879.85a3.51,3.51,0,1,1-3.79-3.21A3.52,3.52,0,0,1,290.74,879.85Z"/><polygon class="cls-11" points="224.21 970.45 235.16 986.51 245.44 980.68 233.76 962.58 224.21 970.45"/><polygon class="cls-11" points="317.52 898.99 332.71 911.12 340.82 902.53 324.34 888.66 317.52 898.99"/><path class="cls-9" d="M330.28,869.06a9.47,9.47,0,0,1-.94,1.4l-2.88,3.87c-1.25,1.69-2.8,3.73-4.69,6s-4,5-6.44,7.8-5.12,6-8.13,9.17S301,904,297.49,907.51c-7,7-15,14.43-23.74,21.79s-17.53,13.86-25.66,19.54c-4.1,2.77-8,5.44-11.74,7.75s-7.23,4.49-10.46,6.38-6.21,3.52-8.81,5-4.88,2.62-6.75,3.55L206,973.64a9.66,9.66,0,0,1-1.54.68,8.6,8.6,0,0,1,1.44-.88l4.22-2.33c1.84-1,4.09-2.21,6.65-3.72s5.54-3.11,8.71-5.1,6.7-4,10.37-6.48,7.57-5,11.65-7.82c8.07-5.7,16.75-12.24,25.52-19.54s16.7-14.73,23.74-21.67c3.46-3.52,6.79-6.83,9.75-10.09s5.74-6.25,8.21-9.06,4.63-5.4,6.56-7.67,3.53-4.25,4.83-5.89l3-3.75A10.3,10.3,0,0,1,330.28,869.06Z"/><path class="cls-9" d="M215.12,967.15c-.22.21-16.38-16-36.1-36.21s-35.51-36.78-35.29-37,16.37,16,36.09,36.22S215.34,966.93,215.12,967.15Z"/><path class="cls-9" d="M277,794.76a26.21,26.21,0,0,1,1.74,3.39c1.13,2.38,2.65,5.53,4.48,9.36,3.81,7.89,9.25,18.7,15.73,30.38s12.8,22,17.48,29.41c2.29,3.58,4.17,6.53,5.58,8.75a23.65,23.65,0,0,1,2,3.27,24.45,24.45,0,0,1-2.31-3c-1.44-2-3.46-4.91-5.89-8.57-4.86-7.3-11.28-17.59-17.79-29.3s-11.84-22.6-15.47-30.58c-1.82-4-3.24-7.25-4.17-9.52A23.53,23.53,0,0,1,277,794.76Z"/><rect class="cls-9" x="254.08" y="950.5" width="15.85" height="18.1" transform="translate(-460.39 275.78) rotate(-31.3)"/><path class="cls-12" d="M208.28,723.05c3.52,43.22-29.12,75.48-72.35,79s-80.65-23-84.18-66.24a78.52,78.52,0,0,1,156.53-12.76Z"/><path class="cls-9" d="M208.28,723.05s-.1-.42-.22-1.24-.31-2.07-.54-3.64c-.12-.8-.24-1.7-.39-2.68s-.47-2-.74-3.18a57.6,57.6,0,0,0-2.23-7.83c-.52-1.44-1-3-1.63-4.56s-1.48-3.16-2.26-4.85a43.74,43.74,0,0,0-2.79-5.11,46.33,46.33,0,0,0-3.41-5.29A77.47,77.47,0,0,0,173,664.26,79.64,79.64,0,0,0,139.75,652a81,81,0,0,0-19.85.17,76.69,76.69,0,0,0-20.29,5.48l-5,2.28c-1.65.78-3.18,1.82-4.79,2.72L87.48,664l-2.27,1.64c-1.49,1.12-3.08,2.14-4.51,3.37a81,81,0,0,0-15.46,17.07l-3.15,5-2.68,5.33A50.08,50.08,0,0,0,57.1,702L56,704.82c-.31,1-.55,1.95-.83,2.92-.48,2-1.21,3.89-1.5,5.91s-.69,4-1,6.06a85.2,85.2,0,0,0-.46,12.39,70.75,70.75,0,0,0,17,44.48,74.77,74.77,0,0,0,38.34,22.73c7,1.9,14.08,2.34,20.91,2.54l5.1-.19,2.51-.11,2.49-.3,4.9-.6c1.61-.28,3.19-.66,4.77-1a89.85,89.85,0,0,0,17.64-5.79l3.93-2a33.78,33.78,0,0,0,3.79-2.1,72,72,0,0,0,6.93-4.72,70.92,70.92,0,0,0,19.22-22.1A65.3,65.3,0,0,0,207.13,742a38.23,38.23,0,0,0,.7-4.27c.11-1.36.21-2.62.31-3.8s.22-2.26.23-3.26,0-1.89-.05-2.71c0-1.58,0-2.8-.06-3.67s0-1.26,0-1.26.05.42.09,1.25.1,2.09.17,3.68c0,.81.07,1.72.11,2.72s-.12,2.09-.18,3.27-.17,2.46-.26,3.82a38.6,38.6,0,0,1-.65,4.31,65,65,0,0,1-7.3,21.13A71.19,71.19,0,0,1,181,785.65a68.66,68.66,0,0,1-7,4.8,33.76,33.76,0,0,1-3.82,2.14l-4,2.07a90,90,0,0,1-17.8,5.91c-1.6.33-3.19.72-4.81,1l-5,.62-2.51.32-2.54.12-5.15.2c-6.9-.18-14.07-.61-21.15-2.53a75.69,75.69,0,0,1-38.92-23,71.75,71.75,0,0,1-17.28-45.16,86.27,86.27,0,0,1,.47-12.57c.35-2.05.71-4.1,1.06-6.14s1-4,1.52-6c.28-1,.53-2,.84-3l1.1-2.86A50.45,50.45,0,0,1,58.42,696c.91-1.81,1.81-3.61,2.72-5.4l3.19-5.08A82.67,82.67,0,0,1,80,668.22c1.46-1.24,3.07-2.27,4.58-3.41l2.3-1.65,2.43-1.42c1.64-.92,3.19-2,4.86-2.75l5-2.31a77.61,77.61,0,0,1,20.57-5.5,81.87,81.87,0,0,1,20.08-.12,80.23,80.23,0,0,1,33.57,12.55,77.86,77.86,0,0,1,21.15,20.71,44.59,44.59,0,0,1,3.39,5.35,42.74,42.74,0,0,1,2.77,5.17c.78,1.7,1.52,3.34,2.23,4.89s1.09,3.16,1.6,4.61a57.41,57.41,0,0,1,2.15,7.9c.24,1.16.54,2.21.69,3.2l.33,2.7c.18,1.58.33,2.79.43,3.66S208.28,723.05,208.28,723.05Z"/><g class="cls-22"><path d="M135,651S48.42,668.87,86.48,758h0a56.27,56.27,0,0,0,35,18c26.73,3.09,69.49-.13,86.56-47l.5-2.77S206.79,658.89,135,651Z"/></g><path class="cls-23" d="M181.84,764.22s16.93-10.81,17.85-19.65c.52-5-.63-10.72-4.88-16.71-6.16-8.68-20.3-25.51-33.27-40.6-13.95-16.22-33.91-15.32-51.2-2.73l-1.72,1.26c-17.73,14.57-19.36,34.1-4.29,51.42l34.19,39.38s15.16,0,24.24-3.41A163.45,163.45,0,0,0,181.84,764.22Z"/><path class="cls-9" d="M167.35,702.64a3.16,3.16,0,0,1-.58,4.35,3,3,0,0,1-4.3-.39,3.16,3.16,0,0,1,.58-4.35A3,3,0,0,1,167.35,702.64Z"/><path class="cls-9" d="M163.48,697.88c-.07.56-3,.54-5.77,2.54s-3.74,4.83-4.28,4.71c-.25,0-.37-.88,0-2.15a8.63,8.63,0,0,1,3.13-4.18,8.32,8.32,0,0,1,4.89-1.61C162.81,697.22,163.53,697.62,163.48,697.88Z"/><path class="cls-9" d="M143.37,721.53a3.16,3.16,0,0,1-.59,4.36,3,3,0,0,1-4.29-.39,3.16,3.16,0,0,1,.58-4.35A3,3,0,0,1,143.37,721.53Z"/><path class="cls-9" d="M137.12,718.05c-.07.56-3,.54-5.77,2.54s-3.74,4.83-4.28,4.71c-.25,0-.37-.87,0-2.15a8.67,8.67,0,0,1,3.13-4.18,8.23,8.23,0,0,1,4.89-1.6C136.44,717.4,137.17,717.79,137.12,718.05Z"/><path class="cls-9" d="M162.25,731.93c-.12-.15,1.36-1.68,3.86-4,.65-.58,1.21-1.21,1-1.77s-1-1.16-2-1.73l-5.94-3.81c-8.39-5.49-15-10.2-14.78-10.54s7.21,3.84,15.6,9.32l5.87,3.91a4.93,4.93,0,0,1,2.36,2.48,2.15,2.15,0,0,1-.4,1.86,6,6,0,0,1-1.07,1C164.09,730.81,162.38,732.07,162.25,731.93Z"/><path class="cls-9" d="M131.77,708.85c.14,1-3.05,2.17-6.34,4.45s-5.61,4.75-6.46,4.27c-.39-.24-.31-1.27.42-2.66a13.48,13.48,0,0,1,9.75-6.65C130.71,708.1,131.69,708.39,131.77,708.85Z"/><path class="cls-9" d="M157.74,689.74c-.1,1-2.78,2.06-5.45,4s-4.58,4.09-5.58,3.83c-.46-.14-.57-1,0-2.34a11.34,11.34,0,0,1,8.89-6.33C157,688.85,157.77,689.25,157.74,689.74Z"/><path class="cls-23" d="M115,741.56c-.4.09-14.87,5.29-5.62,17.18s20-.69,19.75-1S115,741.56,115,741.56Z"/><path class="cls-24" d="M121.26,756.85c-.08,0-.09.31-.32.74a2.59,2.59,0,0,1-1.52,1.24c-1.61.51-4.22-.66-6-2.76a8.63,8.63,0,0,1-1.73-3.41,3.08,3.08,0,0,1,.32-2.81,1.35,1.35,0,0,1,1.67-.38c.41.21.52.51.6.48s.1-.4-.38-.82a1.64,1.64,0,0,0-1-.38,2,2,0,0,0-1.38.59,3.68,3.68,0,0,0-.73,3.53,8.89,8.89,0,0,0,1.86,3.87c1.94,2.34,4.91,3.63,7,2.78a2.8,2.8,0,0,0,1.65-1.79C121.47,757.15,121.32,756.84,121.26,756.85Z"/><g class="cls-2"><path d="M215.17,754.69l-77.73,59.16c8.71,1.5,17.74-.19,26-3.42s15.77-8,23.2-12.75c6.06-3.9,12.12-7.89,17.26-12.94s9.35-11.26,10.93-18.29A33.2,33.2,0,0,0,215.17,754.69Z"/></g><path class="cls-25" d="M124.69,807.87l-2-2.63,1.57-3.06S141.7,803.3,171.83,785c31.63-19.22,33.74-36.65,33.74-36.65L209,746.3l5.52,7.14s-1,25.13-39,46.15c-18.51,10.24-30.26,13.53-37.44,14.2A15.08,15.08,0,0,1,124.69,807.87Z"/><path class="cls-9" d="M124.69,807.87s.53.64,1.67,1.7a15.2,15.2,0,0,0,5.84,3.36,14.73,14.73,0,0,0,4.82.65,38.5,38.5,0,0,0,5.79-.82,83.32,83.32,0,0,0,13.64-4.37,168.52,168.52,0,0,0,15.73-7.49,130.53,130.53,0,0,0,16.87-10.69,76.69,76.69,0,0,0,15.6-15.48,59.53,59.53,0,0,0,6-10A36.66,36.66,0,0,0,214,753.42l.11.36L213,752.3l-4.38-5.66.72.13-3.44,2.06.26-.4a28.21,28.21,0,0,1-3.34,8.45,50.78,50.78,0,0,1-5,7.22,80.67,80.67,0,0,1-11.93,11.7,144.76,144.76,0,0,1-25,15.8c-15.9,8-29.45,11-36.63,10.75l.17-.09-1.62,3v-.13l1.46,2a4.28,4.28,0,0,1,.44.68s-.2-.18-.54-.6-.9-1.12-1.56-2l0-.06,0-.07,1.52-3.08.05-.1h.12c7.06.06,20.48-3.07,36.21-11.17A146.16,146.16,0,0,0,185.21,775,80.64,80.64,0,0,0,197,763.42a50.94,50.94,0,0,0,4.88-7.07,27.92,27.92,0,0,0,3.19-8.06l.06-.28.21-.13,3.44-2.06.42-.25.3.39,4.39,5.66L215,753.1l.14.17,0,.19c-1,8.42-5,15.67-9.58,21.92A76.89,76.89,0,0,1,189.66,791a128.09,128.09,0,0,1-17,10.69,161.06,161.06,0,0,1-15.87,7.4,80.46,80.46,0,0,1-13.81,4.25,37.36,37.36,0,0,1-5.9.75,15.1,15.1,0,0,1-5-.77,14.84,14.84,0,0,1-5.86-3.61A10.13,10.13,0,0,1,124.69,807.87Z"/><path class="cls-11" d="M92.76,755.19C96.22,761,95,768.1,90,771.09s-11.86.73-15.32-5.06-2.23-12.91,2.77-15.9S89.29,749.4,92.76,755.19Z"/><path class="cls-9" d="M92.76,755.19c-.09.06-.61-.81-1.85-2.1a12.73,12.73,0,0,0-6.41-3.64,10,10,0,0,0-5,.25A8.93,8.93,0,0,0,75,753.12c-2.35,3.36-2.35,8.56.14,12.62s7,6.58,11.06,6.09a9,9,0,0,0,5.15-2.35,10.1,10.1,0,0,0,2.58-4.3,12.77,12.77,0,0,0-.18-7.37c-.55-1.7-1.08-2.57-1-2.62s.18.18.44.59a11,11,0,0,1,1,1.88,12.66,12.66,0,0,1,.53,7.73,10.73,10.73,0,0,1-2.7,4.75,9.84,9.84,0,0,1-5.67,2.71c-4.53.59-9.54-2.09-12.13-6.54s-2.69-10.06,0-13.77a9.8,9.8,0,0,1,5.06-3.72,10.63,10.63,0,0,1,5.47-.13,12.5,12.5,0,0,1,6.55,4.11,10,10,0,0,1,1.22,1.72C92.68,754.94,92.79,755.17,92.76,755.19Z"/><path class="cls-6" d="M181.16,681c-9.49-15.23-27.34-25.47-45.22-23.95a4.11,4.11,0,0,0-2.84,1.14,3.69,3.69,0,0,0-.89,3.74c2.36,6,17.48,2.83,24.9,7.74s13.17,11.13,19.44,17.44c1,1,2.09,2,3.45,1.94,1.65-.06,2.83-1.81,2.85-3.46A8.79,8.79,0,0,0,181.16,681Z"/><path class="cls-9" d="M209.28,746.9a4.81,4.81,0,0,1-.11,1.13,30.5,30.5,0,0,1-.67,3.18,42.15,42.15,0,0,1-4.61,11,41.18,41.18,0,0,1-5,6.6,93.86,93.86,0,0,1-6.69,6.71,112.37,112.37,0,0,1-17.33,13,164.38,164.38,0,0,1-19.29,9.87,100,100,0,0,1-16.66,6,44.85,44.85,0,0,1-11.86,1.4,30.37,30.37,0,0,1-3.24-.3,5,5,0,0,1-1.11-.23c0-.11,1.56.11,4.35.09a48,48,0,0,0,11.66-1.72,105.49,105.49,0,0,0,16.44-6.14,170.93,170.93,0,0,0,19.13-9.88,117.45,117.45,0,0,0,17.23-12.82c2.46-2.21,4.7-4.41,6.69-6.57a41.5,41.5,0,0,0,5-6.39,45.58,45.58,0,0,0,4.87-10.72C208.91,748.42,209.18,746.88,209.28,746.9Z"/><path class="cls-12" d="M226.18,744.42c.57-.78,25.1-16.3,48.13-13,14.44,2.07,47.11,10.73,71.75,25s68.79,45.5,71.13,50.45a18.5,18.5,0,0,1,1.65,9.64l15,16-22.06,29.7-16.65-10s-7.33,1.77-19.2-5.45-39.92-35.28-54-40.55-57.5-11.07-61.17-11S226.18,744.42,226.18,744.42Z"/><path class="cls-9" d="M398.83,854.45c-.11-.08,1.31-2.2,3.74-5.63s5.88-8.19,9.84-13.55l.11.77-3.42-2.53-1.31-1,.76-.1c-4.59,5.67-8.75,10.7-11.78,14.3-1.52,1.8-2.76,3.23-3.63,4.21-.44.49-.79.86-1,1.11s-.16.24-.37.27-.06.07,0,.07.07,0,.12-.14.05-.18.12-.34c.27-.38.56-.78.87-1.23.77-1.06,1.92-2.57,3.36-4.43,2.89-3.72,6.94-8.84,11.52-14.51l.34-.42.42.32,1.32,1,3.41,2.54.44.33-.33.44c-4,5.34-7.55,10-10.14,13.33S399,854.54,398.83,854.45Z"/><path class="cls-9" d="M427.29,825c.24.18-4.89,7.51-11.46,16.36S403.72,857.19,403.47,857s4.89-7.51,11.46-16.36S427,824.78,427.29,825Z"/><path class="cls-9" d="M333.4,749.78c.15.07-.82,2.26-2.37,5.78s-3.67,8.4-5.84,13.85c-1.56,3.91-2.94,7.58-4.06,10.65l-.15.39-.38-.08c-2.92-.58-5.34-1.08-7-1.47a9.59,9.59,0,0,1-2.62-.75,10.57,10.57,0,0,1,2.71.22c1.72.22,4.16.6,7.09,1.08l-.52.3c1-3.12,2.35-6.83,3.92-10.75,2.18-5.48,4.42-10.33,6.16-13.78S333.27,749.71,333.4,749.78Z"/><path class="cls-9" d="M320.92,745.08c.14.07-.56,1.88-1.68,4.8s-2.64,7-4.14,11.48S312.39,770,311.54,773s-1.38,4.88-1.54,4.85.11-2,.77-5A117.84,117.84,0,0,1,314,761a115.91,115.91,0,0,1,4.48-11.44C319.83,746.72,320.78,745,320.92,745.08Z"/><path class="cls-9" d="M317.7,742.81a10.86,10.86,0,0,1-.76,2.33c-.56,1.47-1.35,3.6-2.29,6.25a177.06,177.06,0,0,0-9.5,42.66c-.27,2.79-.46,5.06-.58,6.62a10.7,10.7,0,0,1-.3,2.43,10,10,0,0,1-.13-2.44c0-1.58.05-3.86.23-6.68a143.35,143.35,0,0,1,3.13-21.8,145.1,145.1,0,0,1,6.41-21.07c1-2.62,1.94-4.72,2.63-6.14A10.43,10.43,0,0,1,317.7,742.81Z"/><path class="cls-9" d="M305.78,742.51c.16.08-1.29,3.14-3.29,8.21A141.27,141.27,0,0,0,292.91,792c-.44,5.44-.48,8.83-.66,8.83a10,10,0,0,1-.2-2.38c-.06-1.53-.05-3.75.07-6.5a118.34,118.34,0,0,1,9.64-41.57c1.1-2.52,2.06-4.52,2.8-5.86A9.29,9.29,0,0,1,305.78,742.51Z"/><g class="cls-2"><path d="M296.44,736.43c-2.31,11.74-4.33,18.88-6.65,30.62a2.34,2.34,0,0,1-3.4,2.19l-12.9-2.34a6.53,6.53,0,0,1-3-1.07c-1.17-1-1.52-2.57-1.75-4.07-1.59-10.41.15-20.56,3.27-30.61,0,0,4.49.45,12,2A127.93,127.93,0,0,1,296.44,736.43Z"/></g><path class="cls-26" d="M437.8,836.09l-22.32,30a2.66,2.66,0,0,1-3.72.55h0a2.66,2.66,0,0,1-.55-3.72l22.33-30a2.65,2.65,0,0,1,3.72-.55h0A2.66,2.66,0,0,1,437.8,836.09Z"/><path class="cls-12" d="M414.69,865.34s2.64,13.12,7.26,19.46,8.27,10.89,12.54,10.69,6.62-2.73,4.47-6-4.76-4.3-6-9.2-.49-6.33-.49-6.33,12.57,6.28,13.73,10.2,0,16,5.9,14.63S459,889.5,459,889.5s7.33.73,8-7.81a13.71,13.71,0,0,0,1.75-15.37s5-5.34.63-10.11S454.79,843.69,448.85,841a74.6,74.6,0,0,0-9.21-3.45c-.3-.22-3.18-2.51-3.18-2.51Z"/><path class="cls-9" d="M451.26,869.65c.12-.25,4.26,2.92,6.44,8.74s1.25,10.91,1,10.81.1-4.92-2-10.42S451,869.88,451.26,869.65Z"/><path class="cls-9" d="M454.56,859.22c.07-.11,1.4.57,3.25,2.12a26.58,26.58,0,0,1,8.92,16.12c.33,2.39.2,3.87.07,3.88-.36,0-.54-6-4.06-12.2S454.32,859.49,454.56,859.22Z"/><path class="cls-9" d="M456,853c.15-.24,3.88,2,7.49,5.92s5.6,7.78,5.35,7.92-2.62-3.37-6.16-7.16S455.81,853.24,456,853Z"/><path class="cls-9" d="M453.38,844.25a6.61,6.61,0,0,1-.16,1.94,34,34,0,0,1-1.3,5.21c-1.36,4.38-4.28,10.16-8.25,16.31l-.28.45-.46-.28a71.56,71.56,0,0,0-6.47-3.52,68.72,68.72,0,0,0-7.58-3.09l-.64-.22.35-.57A149.33,149.33,0,0,0,436.91,845c1.84-4,2.82-6.39,3-6.34a6.82,6.82,0,0,1-.5,1.8c-.39,1.14-1,2.78-1.84,4.82a116.57,116.57,0,0,1-8,15.79l-.29-.79A66.48,66.48,0,0,1,443.5,867l-.74.17a83,83,0,0,0,8.51-16C452.84,846.93,453.21,844.22,453.38,844.25Z"/><path class="cls-9" d="M437.33,888c0,.3-2.44.2-4.17,2.19s-1.28,4.42-1.58,4.44c-.13,0-.47-.5-.54-1.5a5.25,5.25,0,0,1,4.72-5.45C436.77,887.58,437.35,887.84,437.33,888Z"/><path class="cls-9" d="M457.14,894.81c-.28.15-1.46-2.4-4.36-3.7s-5.59-.52-5.65-.84c-.05-.13.55-.53,1.69-.74a7.54,7.54,0,0,1,4.42.56,7.69,7.69,0,0,1,3.35,2.95C457.17,894,457.27,894.76,457.14,894.81Z"/><path class="cls-9" d="M438.61,835.46c.25.19-4.87,7.27-11.42,15.82s-12.06,15.33-12.31,15.14,4.87-7.26,11.43-15.81S438.37,835.28,438.61,835.46Z"/><path class="cls-14" d="M337.51,816.27c15.62-10.93,28.18-27.71,30.33-46.66l-7.23-4.84c-1.7,19.14-13.51,36.47-30.23,46Z"/><path class="cls-9" d="M356.37,762.14a8.89,8.89,0,0,1-.23,2.21,42.66,42.66,0,0,1-1.36,5.89,59.66,59.66,0,0,1-9,17.81,83.51,83.51,0,0,1-13.65,14.54c-2,1.65-3.58,2.91-4.74,3.74a8.07,8.07,0,0,1-1.87,1.2c-.11-.14,2.34-2.12,6.09-5.53a98.16,98.16,0,0,0,13.27-14.6A66.31,66.31,0,0,0,354,770C355.64,765.21,356.16,762.1,356.37,762.14Z"/><path class="cls-9" d="M373.72,774.82a8.89,8.89,0,0,1-.23,2.21,42.73,42.73,0,0,1-1.36,5.9,59.74,59.74,0,0,1-9,17.8,83.51,83.51,0,0,1-13.65,14.54c-1.95,1.65-3.58,2.91-4.74,3.74a8.4,8.4,0,0,1-1.87,1.21c-.11-.14,2.34-2.13,6.09-5.54a98.71,98.71,0,0,0,13.27-14.6,66.43,66.43,0,0,0,9.12-17.39C373,777.89,373.51,774.78,373.72,774.82Z"/><path class="cls-9" d="M232.22,740.92a16.7,16.7,0,0,1,1.3,3c.73,1.94,1.93,4.7,3.53,8a95.94,95.94,0,0,0,16.14,23.81A97.52,97.52,0,0,0,265,786.33a94.49,94.49,0,0,0,10.89,7.06c3.24,1.78,5.92,3.13,7.82,4a19.05,19.05,0,0,1,2.9,1.44,17.49,17.49,0,0,1-3.07-1,74.51,74.51,0,0,1-8-3.66,86.58,86.58,0,0,1-11.12-6.93,92.45,92.45,0,0,1-12-10.67,94.26,94.26,0,0,1-9.81-12.7,92.12,92.12,0,0,1-6.23-11.53,82,82,0,0,1-3.22-8.22A18.42,18.42,0,0,1,232.22,740.92Z"/><path class="cls-9" d="M249.32,733.8a16.46,16.46,0,0,1,.87,2.88c.48,1.87,1.26,4.55,2.33,7.82s2.51,7.1,4.31,11.28a125.45,125.45,0,0,0,15,25.43c2.78,3.59,5.41,6.74,7.77,9.24s4.31,4.5,5.72,5.82a15.36,15.36,0,0,1,2.09,2.16,15.13,15.13,0,0,1-2.38-1.84,78.88,78.88,0,0,1-6-5.6,107.77,107.77,0,0,1-8-9.16,127,127,0,0,1-8.39-12.33,125.12,125.12,0,0,1-6.72-13.31,108.36,108.36,0,0,1-4.12-11.46,80.13,80.13,0,0,1-2-8A15.26,15.26,0,0,1,249.32,733.8Z"/><path class="cls-16" d="M379.8,914.83s8.86-8.46,15.83-6.71,37.95,13.79,37.63,17.44-.26,11.7-.26,11.7Z"/><path class="cls-12" d="M441.28,1147.75c-.56-.93-33.38-26.69-33.38-26.69l-31-38.32L359,1055.68s4.13-8-6.92-11.56L343,1016.77,216.05,994.26s8.87,42.14,30.72,55.07c6.58,3.9,24,39.68,41.36,58.12s54.6,48,60,54.08,46.34,37,62,46.09c18.51,10.77,53.45,35.22,53.45,35.22l32-41.19S441.84,1148.69,441.28,1147.75Z"/><path class="cls-12" d="M383.4,915.23c2.25-.49,74.48,28,88.9,39.31S510,1004.1,514,1011.47s51.86,101.79,53.05,104.48-15.49,31.38-41.16,33.17l-26.41-29.5s-29.14-31.5-35.94-41.44l-6.8-9.93-25.38-33.19-22.22-14c-3.82-.55-6.48-2.21-7.94-5l-14.09-8.86-25,.1S348,993.7,345.39,963s16.81-58.79,16.81-58.79Z"/><path class="cls-9" d="M319.54,1136.72a10,10,0,0,1,1.29-2.91,53.39,53.39,0,0,1,4.87-7.19,105.26,105.26,0,0,1,21-19.39c2.31-1.57,4.5-3.19,6.79-4.54a71.41,71.41,0,0,1,6.72-3.6,88.3,88.3,0,0,1,12.06-4.52,84.59,84.59,0,0,1,8.42-2,13.92,13.92,0,0,1,3.16-.38,23.3,23.3,0,0,1-3.07.81c-2,.49-4.82,1.23-8.28,2.36a95.79,95.79,0,0,0-11.85,4.69,87,87,0,0,0-13.3,8.12,115.09,115.09,0,0,0-21,19,68.09,68.09,0,0,0-5.11,6.91C320.11,1135.74,319.61,1136.75,319.54,1136.72Z"/><path class="cls-14" d="M327.56,1143.53s10.3-17.91,28.2-29.67,33.06-16.37,33.06-16.37l4.05,5s-22.7,10.81-31.61,17c-11.08,7.66-28.49,28.54-28.49,28.54Z"/><path class="cls-9" d="M400.88,1016.42a23.77,23.77,0,0,1-.51-3.57,36.13,36.13,0,0,1-.29-4.22c0-1.65-.17-3.53,0-5.6a65.86,65.86,0,0,1,.51-6.78c.21-2.44.74-5,1.23-7.71a88.32,88.32,0,0,1,14.14-32.64c1.64-2.22,3.15-4.35,4.79-6.17a64.53,64.53,0,0,1,4.59-5c1.42-1.53,2.88-2.72,4.11-3.82a34.7,34.7,0,0,1,3.27-2.67,22.17,22.17,0,0,1,2.95-2.07,21.54,21.54,0,0,1-2.67,2.4,41.48,41.48,0,0,0-3.14,2.8c-1.17,1.14-2.59,2.36-3.95,3.91a67,67,0,0,0-4.45,5.05c-1.59,1.82-3.06,4-4.66,6.16a91.8,91.8,0,0,0-14,32.27c-.51,2.67-1.07,5.2-1.31,7.61s-.52,4.65-.64,6.7-.12,3.92-.15,5.56,0,3,.11,4.2A21.5,21.5,0,0,1,400.88,1016.42Z"/><path class="cls-9" d="M409.9,1021.1a21.93,21.93,0,0,1-.51-3.56,34.21,34.21,0,0,1-.29-4.22,54.63,54.63,0,0,1,0-5.61,63.55,63.55,0,0,1,.51-6.78c.21-2.44.73-5,1.23-7.71A88.07,88.07,0,0,1,425,960.58c1.63-2.21,3.14-4.35,4.78-6.17a66.27,66.27,0,0,1,4.6-5c1.41-1.52,2.88-2.71,4.1-3.82a34.68,34.68,0,0,1,3.28-2.67,20.62,20.62,0,0,1,2.95-2.06,22.3,22.3,0,0,1-2.68,2.4,41.56,41.56,0,0,0-3.13,2.8c-1.18,1.14-2.59,2.35-4,3.9s-3,3.14-4.45,5-3.05,4-4.65,6.17a91.32,91.32,0,0,0-14,32.27c-.52,2.67-1.07,5.2-1.32,7.61s-.52,4.64-.64,6.7-.11,3.92-.14,5.56a41.34,41.34,0,0,0,.1,4.2A22.26,22.26,0,0,1,409.9,1021.1Z"/><path class="cls-12" d="M237.5,1042.12s40.92-43.56,107-19.43c2.66,1,3.81-3.81,3.81-3.81s15.89-7.55,13.82-11.55c-30.23-58.69,8.87-97.06,8.87-97.06l-22.71-21L305.9,933.2l-90.13,60.85,7.91,24.79"/><path class="cls-9" d="M370.49,910a30.81,30.81,0,0,1-2.4,3.09,82.6,82.6,0,0,0-6,8.74,76.48,76.48,0,0,0-6,67.34,82.69,82.69,0,0,0,4.41,9.68,33.14,33.14,0,0,1,1.82,3.46,3.59,3.59,0,0,1-.62-.8c-.36-.56-.95-1.35-1.58-2.45a68.59,68.59,0,0,1-4.76-9.6,74.52,74.52,0,0,1,6.07-68,68.54,68.54,0,0,1,6.38-8.6c.82-1,1.53-1.65,2-2.13A3.79,3.79,0,0,1,370.49,910Z"/><path class="cls-9" d="M347.38,1023.8a3.16,3.16,0,0,1-1-.27l-2.77-1c-1.2-.45-2.66-1-4.41-1.46s-3.68-1.18-5.91-1.66-4.63-1.13-7.28-1.55-5.46-.83-8.44-1.2a109.85,109.85,0,0,0-38.78,3.06c-2.89.83-5.66,1.56-8.16,2.51s-4.85,1.78-6.94,2.67-3.95,1.8-5.58,2.57-3,1.5-4.13,2.13L251.4,1031a3.63,3.63,0,0,1-1,.42,3.9,3.9,0,0,1,.83-.61l2.49-1.58a42.78,42.78,0,0,1,4-2.31c1.62-.82,3.43-1.86,5.55-2.73s4.39-2,6.95-2.82,5.29-1.76,8.2-2.63a105.65,105.65,0,0,1,39.15-3.09c3,.4,5.88.72,8.51,1.31s5.09,1.1,7.31,1.7,4.18,1.26,5.91,1.83a42.49,42.49,0,0,1,4.36,1.64l2.71,1.17A4,4,0,0,1,347.38,1023.8Z"/><path class="cls-9" d="M276.11,1091.3a24.1,24.1,0,0,1,1.53-3.38,35.85,35.85,0,0,1,2.08-3.84c.89-1.44,1.82-3.16,3.11-4.87l1.95-2.74c.69-1,1.5-1.86,2.29-2.84,1.55-2,3.46-3.91,5.41-6a86.93,86.93,0,0,1,30.83-19.83c2.68-.93,5.21-1.87,7.67-2.45,1.22-.31,2.38-.68,3.53-.91l3.31-.63a55.12,55.12,0,0,1,5.72-.81,33.78,33.78,0,0,1,4.35-.3,22.53,22.53,0,0,1,3.71,0,25.3,25.3,0,0,1-3.69.42,40.47,40.47,0,0,0-4.3.49c-1.67.27-3.58.45-5.65,1l-3.25.7c-1.13.25-2.28.63-3.48,1-2.43.61-4.91,1.58-7.56,2.52a90,90,0,0,0-30.47,19.6c-1.95,2-3.86,3.88-5.42,5.83-.8,1-1.62,1.84-2.32,2.76l-2,2.68c-1.32,1.66-2.28,3.33-3.21,4.74a40.65,40.65,0,0,0-2.24,3.71A23.29,23.29,0,0,1,276.11,1091.3Z"/><path class="cls-9" d="M285.4,1104.74a22.63,22.63,0,0,1,1.59-3.24l.92-1.71c.38-.6.8-1.25,1.23-1.94a54.11,54.11,0,0,1,3.18-4.63l2-2.61c.72-.88,1.51-1.76,2.31-2.69,1.56-1.9,3.48-3.69,5.41-5.66a105.13,105.13,0,0,1,14.08-11.06,111.68,111.68,0,0,1,15.83-8.4c2.56-1,5-2,7.31-2.77s4.51-1.44,6.52-2,3.85-.92,5.47-1.27a40,40,0,0,1,4.17-.72,23.94,23.94,0,0,1,3.59-.39,21.93,21.93,0,0,1-3.51.81c-1.14.21-2.53.49-4.12.91s-3.42.79-5.39,1.42-4.15,1.23-6.42,2.08-4.69,1.81-7.21,2.84a119.28,119.28,0,0,0-15.63,8.39,111.09,111.09,0,0,0-14,10.88c-1.93,1.93-3.85,3.67-5.42,5.53-.81.9-1.61,1.76-2.34,2.61l-2,2.54c-1.33,1.59-2.34,3.16-3.29,4.5l-1.3,1.88-1,1.65A22.42,22.42,0,0,1,285.4,1104.74Z"/><path class="cls-9" d="M304,1120.21c-.15,0,.54-2.6,1.77-6.69s3-9.72,5-15.92l4.14-12.36.09.44c-2.05-2.44-3.73-4.48-4.87-5.92a12.36,12.36,0,0,1-1.7-2.36,11.22,11.22,0,0,1,2.1,2c1.27,1.34,3.05,3.29,5.17,5.67l.17.19-.08.25c-1.17,3.68-2.51,7.89-4,12.43-2,6.19-3.91,11.78-5.33,15.81S304.12,1120.26,304,1120.21Z"/><path class="cls-9" d="M383.5,1190.55a14.65,14.65,0,0,1,.13-2.89,27,27,0,0,1,.43-3.37,43.6,43.6,0,0,1,.89-4.41,50.25,50.25,0,0,1,1.53-5.24c.57-1.89,1.42-3.81,2.27-5.85a67.61,67.61,0,0,1,16.94-23c1.7-1.42,3.28-2.8,4.91-3.9a50.14,50.14,0,0,1,4.56-3,43.79,43.79,0,0,1,3.95-2.15,24.4,24.4,0,0,1,3.09-1.41,14.19,14.19,0,0,1,2.72-1c.09.22-3.77,1.69-9.35,5.21a53.69,53.69,0,0,0-4.42,3.08c-1.58,1.12-3.12,2.51-4.78,3.92a78.41,78.41,0,0,0-9.49,10.49,77.2,77.2,0,0,0-7.2,12.16c-.86,2-1.73,3.88-2.33,5.72a50.73,50.73,0,0,0-1.63,5.14C384,1186.45,383.74,1190.57,383.5,1190.55Z"/><path class="cls-9" d="M394,1197.24a12.33,12.33,0,0,1,.19-2.75,27.19,27.19,0,0,1,.48-3.2c.25-1.24.46-2.66.9-4.19a69.9,69.9,0,0,1,3.58-10.58,72.91,72.91,0,0,1,15.22-22.6,70.41,70.41,0,0,1,8.47-7.28c1.25-1,2.49-1.72,3.54-2.41a27.64,27.64,0,0,1,2.79-1.65,13.79,13.79,0,0,1,2.48-1.21c.11.2-3.36,2.05-8.34,5.9a76.42,76.42,0,0,0-8.2,7.37,84.11,84.11,0,0,0-8.49,10.49,85.28,85.28,0,0,0-6.54,11.8,79.84,79.84,0,0,0-3.75,10.37C394.63,1193.36,394.22,1197.27,394,1197.24Z"/><path class="cls-9" d="M516.27,1017.21a15.39,15.39,0,0,1-2.89,1.14c-.94.31-2.09.72-3.4,1.26s-2.83,1.06-4.44,1.82a108.61,108.61,0,0,0-11.12,5.65,104.55,104.55,0,0,0-23.73,19.06,107.28,107.28,0,0,0-7.92,9.64c-1.09,1.41-1.94,2.78-2.74,3.94s-1.45,2.2-2,3a16.14,16.14,0,0,1-1.74,2.58,17.34,17.34,0,0,1,1.36-2.8c.46-.89,1.05-2,1.82-3.16s1.56-2.61,2.62-4.06a94.43,94.43,0,0,1,7.8-9.88,97.46,97.46,0,0,1,24-19.25,94,94,0,0,1,11.33-5.49c1.64-.72,3.19-1.21,4.53-1.69s2.51-.83,3.48-1.09A17.56,17.56,0,0,1,516.27,1017.21Z"/><path class="cls-9" d="M521.57,1027.46a17.61,17.61,0,0,1-2.79,1.36c-1.82.78-4.42,2-7.57,3.64s-6.83,3.72-10.77,6.25a122,122,0,0,0-23.24,19.62c-3.15,3.46-5.85,6.72-8,9.56s-3.78,5.2-4.86,6.86a17.36,17.36,0,0,1-1.8,2.52,15.53,15.53,0,0,1,1.43-2.74,84,84,0,0,1,4.6-7.1,108.28,108.28,0,0,1,7.85-9.79,121.9,121.9,0,0,1,11-10.7,124.26,124.26,0,0,1,12.4-9.09,106.23,106.23,0,0,1,11-6.09,81.08,81.08,0,0,1,7.77-3.34A16.15,16.15,0,0,1,521.57,1027.46Z"/><path class="cls-14" d="M481.74,964c-16.33-.28-32.24,9.74-40.93,23.56s-11.35,30.75-10.53,47.05l-7.7-5.12c-.82-16.3,2.51-34.69,11.19-48.52s25-24.3,41.35-24A52.62,52.62,0,0,1,481.74,964Z"/><g class="cls-2"><path d="M287.19,1101.49c2.43,1.35,7.2-.43,9.34-3,2.71-3.3,4.81-9.76,7.08-12.25,13.1-14.39,30.23-12.85,48.79-26.55.37-.27.88-.38,1.06-.79a1.2,1.2,0,0,0-.76-1.47,3.4,3.4,0,0,0-1.82,0c-26.2,4.28-49,21.52-63.69,44.13"/></g><g class="cls-2"><path d="M410.68,1019.65c3.83-14,1.22-29.7,7.57-42.8,5.45-11.25,16.9-19.12,20.77-31a86.69,86.69,0,0,0-29.88,72.84"/></g><path class="cls-14" d="M527.32,1155.51c21.11-3.45,39-18.8,46.47-38.68,1-2.7-1-5.86-3.66-6.61-3-.85-5.59,1-6.61,3.67-6.2,16.51-21.58,28.45-38.84,31.27-2.85.47-4.52,3.88-3.85,6.5.76,3,3.63,4.32,6.49,3.85Z"/><path class="cls-9" d="M351.11,894.34a11,11,0,0,1-.95,1.41q-1.1,1.46-2.91,3.91c-1.26,1.7-2.84,3.75-4.76,6.07s-4,5-6.54,7.84-5.2,6-8.27,9.22-6.38,6.64-9.91,10.19c-7.17,7-15.34,14.38-24.32,21.65s-18,13.63-26.36,19.14c-4.22,2.69-8.21,5.29-12.07,7.5s-7.45,4.31-10.77,6.12-6.39,3.35-9.06,4.71-5,2.48-6.95,3.35l-4.44,2a8.68,8.68,0,0,1-1.58.63,9.66,9.66,0,0,1,1.48-.83l4.35-2.19c1.9-.93,4.21-2.08,6.85-3.51s5.7-2.95,9-4.85,6.9-3.88,10.67-6.22,7.79-4.86,12-7.56c8.3-5.55,17.22-11.95,26.22-19.15s17.11-14.6,24.31-21.52c3.53-3.53,6.93-6.83,9.95-10.1s5.84-6.27,8.35-9.1,4.7-5.44,6.65-7.72,3.59-4.28,4.9-5.94l3.07-3.78A8.75,8.75,0,0,1,351.11,894.34Z"/><path class="cls-9" d="M329.86,929.36a15.54,15.54,0,0,1-1.72,2.3c-1.16,1.43-2.91,3.45-5.13,5.89a198.25,198.25,0,0,1-39.45,33c-2.78,1.76-5.08,3.13-6.7,4a13.47,13.47,0,0,1-2.56,1.28,15.18,15.18,0,0,1,2.34-1.66c1.55-1,3.77-2.46,6.49-4.3a244.22,244.22,0,0,0,39.3-32.9c2.29-2.35,4.13-4.28,5.38-5.63A14,14,0,0,1,329.86,929.36Z"/><path class="cls-14" d="M467.78,1247.1q15.23-21.22,32.29-41a5.47,5.47,0,0,0,.05-7.55c-1.9-1.93-5.66-2.25-7.55,0q-17.94,20.8-34,43.17c-1.69,2.35-.47,5.94,1.86,7.32,2.67,1.58,5.64.48,7.32-1.87Z"/><path class="cls-12" d="M525.18,1038.11s17.4,4.32,20.38,9.94,20,49,20,49l-3.3,9.31Z"/><path class="cls-9" d="M561.69,1105.7c-.27.14-8.85-16.28-19.16-36.68s-18.45-37-18.18-37.18,8.86,16.28,19.17,36.68S562,1105.56,561.69,1105.7Z"/><path class="cls-12" d="M406.9,1215.24A6.71,6.71,0,0,1,404,1208c1.78-7.68,5.91-21.83,10.26-21.38,4.63.49,29.16,20.29,39,28.39a6.64,6.64,0,0,1,1.71,8.16L449,1235a5.51,5.51,0,0,1-7.88,2.16Z"/><path class="cls-9" d="M406.9,1215.24a7.31,7.31,0,0,1,1.37.74l3.82,2.32L426,1227l9.6,6,5.34,3.39a5.11,5.11,0,0,0,5.77.29,5.31,5.31,0,0,0,2-2.41l1.6-3.18,3.31-6.56a11.9,11.9,0,0,0,1.38-3.33,6.07,6.07,0,0,0-.4-3.44,6.64,6.64,0,0,0-2.28-2.77l-3.05-2.49c-8.22-6.67-16.12-12.94-23.51-18.34-3.7-2.63-7.28-5.3-10.87-6.87-1.74-.88-3.17,1-4.12,2.48a31.54,31.54,0,0,0-2.39,4.8,86.83,86.83,0,0,0-3,8.83c-.36,1.32-.69,2.56-1,3.7a8.17,8.17,0,0,0-.4,3.1,6.73,6.73,0,0,0,1.71,3.92c.69.74,1.16,1,1.13,1.07a4.65,4.65,0,0,1-1.29-.91,6.72,6.72,0,0,1-2-4,8.51,8.51,0,0,1,.31-3.27c.27-1.16.57-2.41.92-3.74a82.84,82.84,0,0,1,2.85-9,30.73,30.73,0,0,1,2.39-5A9.82,9.82,0,0,1,412,1187a3.4,3.4,0,0,1,1.5-.77,3.15,3.15,0,0,1,1.71.21c3.92,1.67,7.4,4.27,11.18,6.91,7.46,5.38,15.38,11.63,23.61,18.31l3.06,2.49a7.82,7.82,0,0,1,2.59,3.19,7.21,7.21,0,0,1,.46,4.07,7,7,0,0,1-.64,2l-.85,1.68-3.33,6.55c-.54,1.07-1.08,2.13-1.62,3.17a6.34,6.34,0,0,1-2.42,2.81,6.12,6.12,0,0,1-6.83-.34l-5.31-3.43-9.53-6.17-13.75-9-3.71-2.49A8.55,8.55,0,0,1,406.9,1215.24Z"/><path class="cls-9" d="M479.68,966.54a25.92,25.92,0,0,1-3.13,1.55,83.26,83.26,0,0,0-8.31,4.54,76,76,0,0,0-34.64,49.77,84,84,0,0,0-1.37,9.37,24.38,24.38,0,0,1-.37,3.47,3.36,3.36,0,0,1-.08-.9c0-.59,0-1.47,0-2.59a68.07,68.07,0,0,1,1-9.5,73.34,73.34,0,0,1,35-50.29,66.7,66.7,0,0,1,8.54-4.27c1-.45,1.87-.71,2.43-.91A3.08,3.08,0,0,1,479.68,966.54Z"/><path class="cls-9" d="M489.06,974.57a20,20,0,0,1-2.88,1.7c-.95.5-2.1,1.13-3.4,1.93s-2.83,1.62-4.42,2.7a125.75,125.75,0,0,0-10.93,7.83,121.16,121.16,0,0,0-22.56,23.86,127.72,127.72,0,0,0-7.22,11.35c-1,1.65-1.73,3.22-2.44,4.56s-1.29,2.53-1.74,3.5a20.08,20.08,0,0,1-1.54,3,19.51,19.51,0,0,1,1.14-3.15c.4-1,.9-2.23,1.58-3.6s1.37-3,2.31-4.66A110.16,110.16,0,0,1,444,1012a113,113,0,0,1,22.76-24.07,110.16,110.16,0,0,1,11.16-7.7c1.63-1,3.19-1.83,4.53-2.57s2.52-1.33,3.5-1.77A19.18,19.18,0,0,1,489.06,974.57Z"/><path class="cls-9" d="M339.31,1154.25a15.81,15.81,0,0,1,1.06-2.84,32.4,32.4,0,0,1,1.49-3.23c.64-1.23,1.31-2.67,2.24-4.14a76.58,76.58,0,0,1,7-10.06,85.16,85.16,0,0,1,10.61-10.65,86.52,86.52,0,0,1,12.41-8.48,78.29,78.29,0,0,1,11.18-5.06c1.63-.64,3.16-1,4.49-1.44a33.35,33.35,0,0,1,3.44-.87,15.89,15.89,0,0,1,3-.52c.05.23-4.18,1.07-10.64,3.57a84.81,84.81,0,0,0-11,5.21,84.06,84.06,0,0,0-22.74,18.89,85.77,85.77,0,0,0-7.14,9.81C341.14,1150.33,339.52,1154.34,339.31,1154.25Z"/><path class="cls-9" d="M398.59,1109a14.53,14.53,0,0,1-2.2,1.85l-6.16,4.82c-5.18,4.1-12.19,9.93-19.55,16.8s-13.63,13.51-18.05,18.4l-5.22,5.83a14.21,14.21,0,0,1-2,2.08,13.46,13.46,0,0,1,1.66-2.35c1.12-1.48,2.81-3.56,5-6.08a234.67,234.67,0,0,1,37.71-35.3c2.65-2,4.84-3.53,6.38-4.55A13.07,13.07,0,0,1,398.59,1109Z"/><path class="cls-27" d="M124.68,675.09c-8.1,2.95-15.59,6.59-22.38,14.33-5.13,5.91-7.2,12.41-9.18,18.69-7.82,22.77,28.2,44.07,28.2,44.07s-9.74-5.2-7.74-14.74c2-9.25-4.87-14.23-1.6-23.39,3.89-10.62,11.21-15.87,23.89-19.27,3.13-15.89,11.28-17,16.93-15.17C141.82,671.57,133.28,672.11,124.68,675.09Z"/><path class="cls-28" d="M124.68,675.09a66.61,66.61,0,0,0-11.78,5.45,44.15,44.15,0,0,0-10,8.24,36.83,36.83,0,0,0-6.83,11c-.83,2-1.53,4-2.2,6.1-.32,1-.67,2.07-1,3.11-.13.52-.32,1-.41,1.56l-.27,1.6a22.85,22.85,0,0,0,.17,6.45,29.52,29.52,0,0,0,2,6.17,40.64,40.64,0,0,0,3.17,5.65,54.75,54.75,0,0,0,3.95,5.14,79.34,79.34,0,0,0,9.34,9,94.16,94.16,0,0,0,10.54,7.56l-.11.19a17.54,17.54,0,0,1-6.51-6.46,12.35,12.35,0,0,1-1.18-9,19.08,19.08,0,0,0-.78-9c-.42-1.48-.91-2.94-1.26-4.44a18.73,18.73,0,0,1-.54-4.6,20.32,20.32,0,0,1,2.72-8.77,25.75,25.75,0,0,1,5.65-7.26c4.66-4.11,10.59-6.37,16.5-8l0,0a38.32,38.32,0,0,1,1.8-6.32,18.75,18.75,0,0,1,3.24-5.7,10.4,10.4,0,0,1,5.45-3.52,11.61,11.61,0,0,1,6.5.35l0,0a43,43,0,0,0-6.37-3.86,26.64,26.64,0,0,0-7.07-2.31,24.68,24.68,0,0,0-7.43-.14A37.42,37.42,0,0,0,124.68,675.09Zm0,0a36.73,36.73,0,0,1,7.23-1.78,24.75,24.75,0,0,1,7.44.11,26.7,26.7,0,0,1,7.08,2.31,43.18,43.18,0,0,1,6.39,3.85l.16.12-.19-.06a11.57,11.57,0,0,0-6.46-.33,10.33,10.33,0,0,0-5.4,3.5,18.52,18.52,0,0,0-3.21,5.67,39.76,39.76,0,0,0-1.79,6.31v0h0c-5.9,1.59-11.8,3.86-16.42,8a25.55,25.55,0,0,0-5.6,7.22,20.18,20.18,0,0,0-2.68,8.7,18.32,18.32,0,0,0,.55,4.54c.35,1.49.84,3,1.26,4.43a19.33,19.33,0,0,1,.8,9.15,12.2,12.2,0,0,0,1.16,8.85,17.39,17.39,0,0,0,6.41,6.39l-.11.19a94.05,94.05,0,0,1-10.55-7.6,79.77,79.77,0,0,1-9.35-9,58.2,58.2,0,0,1-4-5.16,41.55,41.55,0,0,1-3.17-5.68,30.13,30.13,0,0,1-1.94-6.2,22.78,22.78,0,0,1-.16-6.49l.28-1.61c.09-.53.28-1,.41-1.57.29-1,.64-2.07,1-3.11.67-2.06,1.38-4.1,2.22-6.11a36.55,36.55,0,0,1,6.86-11,44.21,44.21,0,0,1,10-8.24A67.33,67.33,0,0,1,124.68,675.09Z"/><path class="cls-27" d="M95.54,701.41c-1.15-4-5.73-4.31-9.73-3s-6.53,5.37-6.76,9.47a11.07,11.07,0,0,0,5.16,10c2.43,1.41,7.3,3,8.07-1.57"/><path class="cls-28" d="M95.54,701.41A4.73,4.73,0,0,0,94,699.08,5.62,5.62,0,0,0,91.45,698a11.63,11.63,0,0,0-5.54.58c-3.58,1.17-6,4.71-6.51,8.36a11.07,11.07,0,0,0,3.76,10,9.52,9.52,0,0,0,2.38,1.46,10,10,0,0,0,2.68.81,3.9,3.9,0,0,0,2.68-.49,3.58,3.58,0,0,0,1.38-2.38A3.67,3.67,0,0,1,91,718.83a4,4,0,0,1-2.78.63,10,10,0,0,1-2.78-.76,10.45,10.45,0,0,1-2.5-1.45,11.43,11.43,0,0,1-4-10.39,11.78,11.78,0,0,1,2.24-5.31,9.24,9.24,0,0,1,4.66-3.35,11.86,11.86,0,0,1,5.7-.44A5.63,5.63,0,0,1,94.08,699,4.76,4.76,0,0,1,95.54,701.41Z"/><path class="cls-28" d="M80.64,712.69a.71.71,0,0,0,.34.38,3.8,3.8,0,0,0,1.39.68,9.42,9.42,0,0,0,5-.57,9,9,0,0,0,3.79-3.4,6.66,6.66,0,0,0,.68-1.4,2.8,2.8,0,0,0,.11-.5c-.06-.07-.42.77-1.06,1.73a7.48,7.48,0,0,1-1.5,1.7,13.93,13.93,0,0,1-2.29,1.57,9.27,9.27,0,0,1-4.89.72A3.55,3.55,0,0,1,80.64,712.69Z"/><path class="cls-28" d="M79.27,707.82a1.85,1.85,0,0,0,.41.32,7.82,7.82,0,0,0,1.39.68,9,9,0,0,0,5,.51,9.71,9.71,0,0,0,4.63-2,6.54,6.54,0,0,0,1.09-1.08,2.9,2.9,0,0,1,.32-.41c-.07-.08-.55.61-1.61,1.26A9.67,9.67,0,0,1,86,708.89a10.72,10.72,0,0,1-4.81-.43A5.73,5.73,0,0,1,79.27,707.82Z"/><path class="cls-29" d="M92.2,717.66a10.09,10.09,0,0,0-.18-2.4,22.73,22.73,0,0,1,.56-5.74c.53-2.2,1.1-4,1.64-5.59a9.46,9.46,0,0,0,1-2.31A14.54,14.54,0,0,0,94,703.77a19.61,19.61,0,0,0-1.79,5.57,22,22,0,0,0-.35,5.83A9.48,9.48,0,0,0,92.2,717.66Z"/><path class="cls-28" d="M132.05,687.85a36.46,36.46,0,0,0-4.85-.93c-1.65-.2-3.29-.39-4.81-.43a35.69,35.69,0,0,0-9.67.81,26.55,26.55,0,0,0-9,3.82,23.08,23.08,0,0,0-6.67,7.1,20.83,20.83,0,0,1,6.47-7.33,24.34,24.34,0,0,1,9-4,37.19,37.19,0,0,1,9.88-.71A39.42,39.42,0,0,1,132.05,687.85Z"/><path class="cls-28" d="M117.6,691.7a21.81,21.81,0,0,0-3.82.88,22.07,22.07,0,0,0-3.7,1.17,27.05,27.05,0,0,0-6.91,3.54,25.24,25.24,0,0,0-3,2.45,23,23,0,0,0-2.46,2.93,17.79,17.79,0,0,0-2.63,7.25,14.25,14.25,0,0,1,.72-3.85,12.38,12.38,0,0,1,1.64-3.57,20.19,20.19,0,0,1,5.47-5.66,26.6,26.6,0,0,1,7-3.39A30.18,30.18,0,0,1,117.6,691.7Z"/><path class="cls-28" d="M133.59,686.52a11.75,11.75,0,0,0-6.72-5.92,16.11,16.11,0,0,0-4.5-.69c-.8,0-1.53.11-2.32.12a21.28,21.28,0,0,1-2.33.26,13.32,13.32,0,0,1,2.27-.48,21.28,21.28,0,0,1,2.33-.26,16.71,16.71,0,0,1,4.66.56,9.67,9.67,0,0,1,4,2.46A8.92,8.92,0,0,1,133.59,686.52Z"/><path class="cls-28" d="M130.6,691.79a15.75,15.75,0,0,0-5.81.44,9.74,9.74,0,0,0-4.91,2.89,10.73,10.73,0,0,0-2.47,5.1,38.66,38.66,0,0,0-.5,5.81,23.44,23.44,0,0,1-1,5.85,13.1,13.1,0,0,1-2.7,5.3,13,13,0,0,1-4.61,3.71,25.59,25.59,0,0,1-5.62,1.75,33,33,0,0,0,5.56-2A12.5,12.5,0,0,0,113,717c2.32-3.08,3.19-7.07,3.41-11a32.77,32.77,0,0,1,.43-5.89,10.14,10.14,0,0,1,2.7-5.29,10.51,10.51,0,0,1,5.2-2.87A22.53,22.53,0,0,1,130.6,691.79Z"/><path class="cls-28" d="M103.9,704.06a5.3,5.3,0,0,0-1.05,1.44,10.21,10.21,0,0,0-1.23,4,9.35,9.35,0,0,0,.49,4.16c.35,1,.68,1.57.82,1.58a6.89,6.89,0,0,0-.46-1.63,11.79,11.79,0,0,1-.36-4,11.25,11.25,0,0,1,1.09-3.89C103.49,704.68,104,704.14,103.9,704.06Z"/><path class="cls-28" d="M136.71,682.48a6.24,6.24,0,0,0-.72-3,6,6,0,0,0-1.77-2.52c-.07.07.64,1.21,1.39,2.71A26.07,26.07,0,0,0,136.71,682.48Z"/><path class="cls-23" d="M121.5,736c.68-3.42-4-6.8-5.4-9.21-7.94,11.7-18.44,4.06-18.44,4.06,8.19,13.54,24.67,22.34,24.67,22.34A33.9,33.9,0,0,1,121.5,736Z"/><path class="cls-30" d="M198.55,726.85c-1.12-1.59-1.63-3.52-2.84-4.92s-4-2.17-5.36-.89l.3.39c-2.39-2-6.13-.29-8,2.25s-4.18,5.7-6.87,7.3c-7.78,4.56-13.09,6.1-19.44,11.39a49.86,49.86,0,0,0-7.43,6.75c-2.51,2.94-5.18,5.84-8.46,3.84-1.55-.89-4.37-2-5.82-3.08s-4-1.33-4.82.29.7,3.28,2,4.48a105.85,105.85,0,0,0,13.35,10.54c4.51,2.84,8.1,5.87,12.5,8.74a71.52,71.52,0,0,0,27.42-12.8,71.59,71.59,0,0,0,20-26.3l-.05,0C201.75,732.58,200.84,730.12,198.55,726.85Z"/><path class="cls-28" d="M160.24,762.73a31.68,31.68,0,0,1-5.45-3.39c-2.76-2.29-4.32-4.77-4.47-4.65s.26.66,1,1.72a15.68,15.68,0,0,0,3.11,3.36,16.84,16.84,0,0,0,4,2.45A9.41,9.41,0,0,0,160.24,762.73Z"/><path class="cls-28" d="M188.75,752.41c0-.14-1.27-.37-2.72-1s-2.64-1-2.71-1a5.19,5.19,0,0,0,2.58,1.43A5.1,5.1,0,0,0,188.75,752.41Z"/><path class="cls-28" d="M191.21,733.41c.06.07.52-.28,1.1-1a5.73,5.73,0,0,0,.77-3.44,5,5,0,0,0-1.7-3,2.71,2.71,0,0,0-1.23-.64c0,.14.43.4,1.06.9a5.11,5.11,0,0,1,1.51,2.89,6.45,6.45,0,0,1-.47,3.19C191.56,732.9,191.15,733.33,191.21,733.41Z"/><path class="cls-28" d="M188.67,734.4c.06.08.42-.08,1.05-.7a4.91,4.91,0,0,0,1.3-2.6,4.48,4.48,0,0,0-.82-2.81c-.48-.61-.85-.93-.87-.8s.3.39.64,1a4.29,4.29,0,0,1,.56,2.64,4,4,0,0,1-1,2.36C189,734,188.61,734.32,188.67,734.4Z"/><path class="cls-28" d="M183.4,735.54c.06.07.49,0,1.14-.28a4.25,4.25,0,0,0,2.15-1.66,3.38,3.38,0,0,0,.54-2.63,1.36,1.36,0,0,0-.58-.91c-.08.06.16.37.29,1a3.57,3.57,0,0,1-.56,2.28,5.4,5.4,0,0,1-1.86,1.57C183.84,735.31,183.48,735.48,183.4,735.54Z"/><path class="cls-9" d="M135,651s2.93.19,8.34,1.11l4.5.86,5.32,1.39c1.89.57,3.91,1.26,6.06,2,2.08.9,4.38,1.66,6.63,2.85a71.41,71.41,0,0,1,27.82,23.16A80.61,80.61,0,0,1,204,702.16a85.53,85.53,0,0,1,5,24.11v.1c-.15.85-.32,1.81-.5,2.77v.05l0,0c-4.29,11.93-11.69,23.85-22.72,32.75-11.17,8.7-25.58,13.88-40.58,15a118.16,118.16,0,0,1-20.7-.12,56.8,56.8,0,0,1-35.63-15.67c-.58-.55-1.16-1.1-1.69-1.68l-.82-.86-.21-.22,0,0s-.21-.33-.13-.22l-.06-.13-.21-.55c-.55-1.47-1.11-2.93-1.66-4.38-1.17-2.87-2-5.81-3-8.7s-1.53-5.82-2.28-8.68-1.07-5.77-1.54-8.6c-.14-1.43-.27-2.85-.41-4.26l-.2-2.11,0-2.1c0-1.39,0-2.78-.07-4.15s.18-2.73.26-4.08c0-.67.08-1.34.15-2l.3-2c.22-1.3.36-2.62.64-3.89a61.72,61.72,0,0,1,2-7.39,62.85,62.85,0,0,1,2.77-6.83,66.68,66.68,0,0,1,3.54-6.1,60.42,60.42,0,0,1,4-5.42c1.46-1.62,2.81-3.28,4.33-4.68a70.6,70.6,0,0,1,9-7.46,86.54,86.54,0,0,1,16.34-8.94A87.56,87.56,0,0,1,131,651.91c1.3-.35,2.3-.58,3-.72s1-.16,1-.16l-1,.28-2.94.81a99.71,99.71,0,0,0-11,4,87.7,87.7,0,0,0-16.15,9,69.86,69.86,0,0,0-8.81,7.46c-1.5,1.39-2.82,3-4.25,4.64a64.28,64.28,0,0,0-3.88,5.38,62.92,62.92,0,0,0-3.46,6,64.72,64.72,0,0,0-4.69,14c-.27,1.25-.4,2.55-.61,3.84l-.29,2c-.07.66-.09,1.32-.14,2-.08,1.33-.16,2.67-.25,4s.06,2.72.09,4.1l0,2.08.2,2.08c.14,1.39.28,2.8.42,4.21.48,2.8.89,5.66,1.55,8.52s1.29,5.75,2.28,8.59,1.78,5.79,3,8.64l1.66,4.34.21.54,0,.14c.1.16-.1-.14-.06-.09l0,.05.2.21.81.84c.53.57,1.09,1.11,1.66,1.65a55.85,55.85,0,0,0,35,15.33,116.85,116.85,0,0,0,20.5.12c14.84-1.11,29-6.21,40-14.74,10.86-8.74,18.17-20.45,22.45-32.25l0,.08c.17-1,.35-1.92.51-2.77v.1a85,85,0,0,0-4.93-23.82A79.81,79.81,0,0,0,193,682.87a71.17,71.17,0,0,0-27.4-23.11c-2.22-1.2-4.5-2-6.56-2.88-2.13-.75-4.13-1.46-6-2l-5.28-1.44-4.47-.94c-2.66-.61-4.75-.77-6.15-1l-1.59-.26Z"/><path class="cls-24" d="M167.31,738.43a3.11,3.11,0,0,0-3.31.83,3.32,3.32,0,0,0-.55,3.39,3.54,3.54,0,0,0,2.75,2.09,3.27,3.27,0,0,0,3.4-1.84C170.12,741.62,169.22,739.22,167.31,738.43Z"/><path class="cls-9" d="M169.68,742.62c.12,0,.09,1-.92,2a3,3,0,0,1-2.4.94,4.32,4.32,0,0,1-2.7-1.54,4.85,4.85,0,0,1-1.22-2.85,3.77,3.77,0,0,1,1-2.37,2.86,2.86,0,0,1,1.5-.74c.37-.07.58-.06.61,0s-.82.41-1.52,1.25a3.44,3.44,0,0,0-.54,1.83,4.33,4.33,0,0,0,1,2.13,3.75,3.75,0,0,0,2,1.26,2.53,2.53,0,0,0,1.77-.52C169.2,743.32,169.52,742.55,169.68,742.62Z"/><path class="cls-9" d="M168,764.82a55.88,55.88,0,0,1-5.59-4.52,44.38,44.38,0,0,1-3.88-4.36c-2-2.61-3-4.46-3-4.4s.22.44.67,1.33c.22.44.57.9.91,1.5a16.3,16.3,0,0,0,1.3,1.82,31.4,31.4,0,0,0,3.86,4.5,42.54,42.54,0,0,0,5.57,4.65,36.85,36.85,0,0,0,5.53,3.06l.62-.29A37.32,37.32,0,0,1,168,764.82Z"/><path class="cls-9" d="M174.14,764a8.66,8.66,0,0,0,2.83,2.22l.24.15.53-.31-.51-.29A17,17,0,0,0,174.14,764Z"/><path class="cls-9" d="M176.12,759.75a20,20,0,0,0,5,4l.18.12.48-.33-.4-.24C178.39,761.56,176.28,759.63,176.12,759.75Z"/><path class="cls-9" d="M194.94,742.32a4.14,4.14,0,0,0-1.9.73,11.27,11.27,0,0,0,2-.3,13,13,0,0,1,4.63.1,9.49,9.49,0,0,1,1.08.28c.1-.16.2-.32.29-.48a9.61,9.61,0,0,0-1.31-.35A11.58,11.58,0,0,0,194.94,742.32Z"/><path class="cls-9" d="M198.11,738a25.94,25.94,0,0,0,3.55-.17l1.93.18.24-.48a12,12,0,0,0-2.18-.19A7.48,7.48,0,0,0,198.11,738Z"/><path class="cls-9" d="M188.25,745.42a5.49,5.49,0,0,0-2.44.66,9.79,9.79,0,0,0,2.46-.31,19,19,0,0,1,5.84.39,16.82,16.82,0,0,1,3.75,1.33l.23-.33a16.88,16.88,0,0,0-3.86-1.47A15.87,15.87,0,0,0,188.25,745.42Z"/><polygon class="cls-1" points="650.63 1097.54 668.26 1092.65 664.44 1081.54 649.36 1058.23 631.04 1071.04 634.7 1085.36 650.63 1097.54"/><polygon class="cls-3" points="631.04 1071.04 653.81 1084.1 664.44 1081.54 649.36 1058.23 631.04 1071.04"/><g class="cls-2"><polygon class="cls-10" points="650.63 1097.54 653.81 1084.1 664.44 1081.54 668.26 1092.65 650.63 1097.54"/></g><polygon class="cls-1" points="411.42 721.5 411.5 714.3 401.64 707.18 396.42 717.69 399.26 726.02 405.08 726.2 411.42 721.5"/><polygon class="cls-3" points="399.26 726.02 406.68 718.83 401.64 707.18 396.42 717.69 399.26 726.02"/><g class="cls-2"><polygon class="cls-10" points="411.59 721.5 406.85 718.83 401.81 707.18 411.67 714.3 411.59 721.5"/></g><polygon class="cls-1" points="188.63 586.25 188.7 579.86 179.96 573.53 175.31 582.87 177.84 590.26 183 590.42 188.63 586.25"/><polygon class="cls-3" points="177.84 590.26 184.43 583.88 179.96 573.53 175.31 582.87 177.84 590.26"/><g class="cls-2"><polygon class="cls-10" points="188.78 586.25 184.58 583.88 180.11 573.53 188.85 579.86 188.78 586.25"/></g></svg>