<svg id="Слой_1" data-name="Слой 1" xmlns="http://www.w3.org/2000/svg" xmlns:xlink="http://www.w3.org/1999/xlink" viewBox="0 0 961.35 852.44"><defs><style>.cls-1,.cls-2,.cls-4,.cls-6,.cls-7,.cls-8{stroke:#000;stroke-width:20px;}.cls-1,.cls-2,.cls-4,.cls-7,.cls-8{stroke-miterlimit:10;}.cls-1{fill:url(#Безымянный_градиент_12);}.cls-2{fill:#fed43e;}.cls-3{opacity:0.2;}.cls-4{fill:#ef4137;}.cls-5{fill:#fff;}.cls-6,.cls-7{fill:none;stroke-linecap:round;}.cls-6{stroke-linejoin:round;}.cls-8{fill:#a3e6ff;}</style><radialGradient id="Безымянный_градиент_12" cx="479.46" cy="429.71" r="406.6" gradientUnits="userSpaceOnUse"><stop offset="0" stop-color="#fed43e"/><stop offset="0.87" stop-color="#fed43e"/><stop offset="1" stop-color="#fed43e"/></radialGradient></defs><circle class="cls-1" cx="479.46" cy="429.71" r="406.6"/><circle class="cls-2" cx="479.46" cy="429.71" r="300.88"/><path class="cls-3" d="M379.35,228.11c0-111-65-160-99-160-83,0-192.49,50.76-192.49,140.52,0,74.12,45.88,136.65,108.59,156.18V732.44c0,18.6,9.43,41.56,30.79,41.56l.11.11c21.36,0,46.46-23.07,46.46-41.67L263.35,403.11C329.09,385.78,379.35,293.11,379.35,228.11Z"/><path class="cls-3" d="M672.86,200.38l1-124.91c0-17.76-12.64-21.49-24.61-21.36-10,.11-24.93-7-24.93,62V291.79c0,37.78,37.31,70.35,72.91,85.34a14,14,0,0,1,8.87,12.78V728.28c0,17,14.77,31.35,33.61,31.82,19.54.48,35.54-13.66,35.54-31.17V390.42C775.25,384.93,672.86,210.13,672.86,200.38Z"/><path class="cls-4" d="M871.43,48.38c-21.27,0-27.26,17-27.26,23.68v93a19.59,19.59,0,0,1-19.58,19.59h-7.38c-8.28-2-16.26-8.77-16.26-19.59v-93c0-14.37-8-23.68-22.61-23.68-10.63,0-21.27,5.32-21.27,23.27V165.1c0,10.82-10.46,19.59-21.28,19.59h-5.32c-10.82,0-20.61-8.77-20.61-19.59v-93c0-19.69-12.64-23.83-24.61-23.68-10,.11-23.93,4-23.93,23.27V266.47c0,41.89,37.31,78,72.91,94.63a15.57,15.57,0,0,1,8.87,14.17V750.48c0,18.84,14.77,34.77,33.61,35.28a34.56,34.56,0,0,0,35.54-34.56V375.84a15.56,15.56,0,0,1,9-14.22c36.23-16.37,75.42-52.8,75.42-95.15V71.65C896.7,63.66,891.38,48.38,871.43,48.38Z"/><ellipse class="cls-5" cx="333.85" cy="427.59" rx="54.02" ry="44.35"/><ellipse class="cls-5" cx="625.73" cy="427.59" rx="54.02" ry="44.35"/><path class="cls-6" d="M582.19,388.88,587,378.34c3.65-8,12.2-12.79,20.8-11.14.45.08.89.18,1.33.3a18.74,18.74,0,0,1,11.35,9l5.23,9.15"/><line class="cls-7" x1="359.66" y1="367.11" x2="359.66" y2="394.24"/><path class="cls-6" d="M523.66,439.67l-5.79,10c-4.37,7.59-13.34,11.6-21.75,9.16-.44-.13-.87-.27-1.3-.43a18.81,18.81,0,0,1-10.46-10l-4.35-9.6"/><path class="cls-6" d="M480.12,439.67l-5.79,10c-4.37,7.59-13.34,11.6-21.75,9.16-.44-.13-.87-.27-1.3-.43a18.81,18.81,0,0,1-10.46-10l-4.35-9.6"/><path class="cls-8" d="M341.49,213.28c0-92.18-60.14-166.9-134.31-166.9S72.86,121.1,72.86,213.28c0,76.12,41,140.33,97.08,160.39V751.2a34.58,34.58,0,0,0,34.58,34.58h0a34.58,34.58,0,0,0,34.57-34.58V375.42C297.86,357.62,341.49,291.78,341.49,213.28Z"/></svg>