<svg id="Слой_1" data-name="Слой 1" xmlns="http://www.w3.org/2000/svg" viewBox="0 0 961.35 852.44"><defs><style>.cls-1{fill:#a3e6ff;}.cls-1,.cls-2,.cls-5,.cls-6,.cls-7,.cls-8,.cls-9{stroke:#000;stroke-width:20px;}.cls-1,.cls-2,.cls-6,.cls-7,.cls-8,.cls-9{stroke-miterlimit:10;}.cls-2{fill:#fed43e;}.cls-3{opacity:0.2;}.cls-4{fill:#fff;}.cls-5,.cls-7{fill:none;}.cls-5,.cls-7,.cls-9{stroke-linecap:round;}.cls-5{stroke-linejoin:round;}.cls-6{fill:#02ce8e;}.cls-8,.cls-9{fill:#ef4137;}</style></defs><path class="cls-1" d="M781.39,825.11H398.44a45.61,45.61,0,0,1-45.27-40.05L270,109.12a45.61,45.61,0,0,1,45.27-51.19H880.61a45.61,45.61,0,0,1,45.61,46.45s-.32,55-17.81,238c-21,219.43-83,449-83,449A45.61,45.61,0,0,1,781.39,825.11Z"/><path class="cls-2" d="M288.05,256.14l52.1,423.23H762.69a110.52,110.52,0,0,0,108.47-89.28c14.59-74.55,29.06-161.89,37.25-247.67,3.13-32.72,5.7-61.33,7.83-86.28L870.08,267.3a658.58,658.58,0,0,1-312.58-.75h0a658.62,658.62,0,0,0-238.21-14.26Z"/><path class="cls-3" d="M341.51,785.07a45.61,45.61,0,0,0,45.27,40h383a45.48,45.48,0,0,0,24.54-7.17C565.44,541.8,465.85,210.27,429.75,57.93H303.57a45.61,45.61,0,0,0-45.27,51.19Z"/><ellipse class="cls-4" cx="536.43" cy="471.8" rx="57.32" ry="48.54"/><ellipse class="cls-4" cx="796.24" cy="471.8" rx="57.32" ry="48.54"/><path class="cls-5" d="M750.05,429.44l5.12-11.54c3.87-8.71,12.94-14,22.07-12.2l1.41.33a20.11,20.11,0,0,1,12.05,9.87l5.54,10"/><path class="cls-5" d="M531.48,429.44l5.12-11.54c3.87-8.71,12.94-14,22.07-12.2.47.1,1,.21,1.41.33a20.09,20.09,0,0,1,12,9.87l5.55,10"/><ellipse class="cls-6" cx="342.59" cy="406.5" rx="103.85" ry="70.67" transform="translate(-162.87 571.18) rotate(-67.92)"/><ellipse class="cls-2" cx="258.45" cy="630.48" rx="220.5" ry="194.63"/><path class="cls-7" d="M630.88,466.58l11.9,8.32a30.19,30.19,0,0,0,33.79.55l13.6-8.87"/><ellipse class="cls-8" cx="211.45" cy="533.11" rx="39.5" ry="23" transform="translate(-158.52 94.89) rotate(-18.54)"/><line class="cls-9" x1="237.95" y1="769.11" x2="258.45" y2="769.11"/><line class="cls-9" x1="379.95" y1="713.11" x2="360.95" y2="713.11"/><line class="cls-9" x1="279.95" y1="692.11" x2="257.95" y2="692.11"/></svg>