<svg id="Слой_1" data-name="Слой 1" xmlns="http://www.w3.org/2000/svg" viewBox="0 0 961.35 852.44"><defs><style>.cls-1{fill:#fed43e;}.cls-1,.cls-2,.cls-3,.cls-5{stroke:#000;stroke-miterlimit:10;stroke-width:20px;}.cls-2{fill:#ef4137;}.cls-3{fill:#a3e6ff;}.cls-4{fill:#fff;}.cls-5{fill:none;stroke-linecap:round;}.cls-6{opacity:0.2;}</style></defs><path class="cls-1" d="M754.17,632.61h0A1222.31,1222.31,0,0,0,289.76,152.32h0L97.15,701.56c-22.58,59.61,34.6,118.52,94.86,97.73L341.43,755v43.72a41.4,41.4,0,0,0,41.4,41.4h0a41.4,41.4,0,0,0,41.39-41.4V730.44Z"/><path class="cls-2" d="M192.92,658.39a79,79,0,1,0-26.07-153.65L126,621.33A79,79,0,0,0,192.92,658.39Z"/><circle class="cls-2" cx="409.17" cy="269.13" r="67.74"/><path class="cls-2" d="M754.17,632.61Q733.43,593.9,710,556.91a67.74,67.74,0,0,0-42.5,101.39l86.63-25.69Z"/><path class="cls-3" d="M754.34,632.58C621.38,428,531.86,302.05,319.92,184.18c-47.23-26.27-74.19-82.8-50.54-121.51l16.13-19.35c31.73-29,77.51-26.37,114-3.67C606.71,168.58,757.78,330.17,896.74,539.88a87.48,87.48,0,0,1-14,113h0C856.49,670.21,782.3,675.59,754.34,632.58Z"/><ellipse class="cls-4" cx="289.07" cy="434.79" rx="52.19" ry="61.63" transform="translate(-220.67 321.8) rotate(-43.88)"/><ellipse class="cls-4" cx="499.72" cy="616.46" rx="52.19" ry="61.63" transform="translate(-287.78 518.55) rotate(-43.88)"/><line class="cls-5" x1="535.16" y1="545.43" x2="517.55" y2="566.05"/><line class="cls-5" x1="354.94" y1="389.98" x2="337.32" y2="410.61"/><path class="cls-5" d="M388.82,477.88,392.39,492a30.22,30.22,0,0,0,25.24,22.49l16.09,2.16"/><path class="cls-6" d="M486.48,98q-41.85-30.27-87-58.38C363,17,317.24,14.36,285.51,43.32L269.38,62.67c-23.65,38.71,3.31,95.24,50.54,121.51A1097.72,1097.72,0,0,1,428.9,253C423.73,171.1,456.13,123.94,486.48,98Z"/></svg>