<svg id="Слой_1" data-name="Слой 1" xmlns="http://www.w3.org/2000/svg" xmlns:xlink="http://www.w3.org/1999/xlink" viewBox="0 0 167.79 45.55"><defs><style>.cls-1{fill:#fff;}.cls-2{fill:url(#Безымянный_градиент_765);}.cls-3{opacity:0.13;}.cls-4{opacity:0.25;}</style><linearGradient id="Безымянный_градиент_765" x1="25.98" y1="43.64" x2="25.98" y2="5.52" gradientTransform="translate(31.78 -10.72) rotate(55.92)" gradientUnits="userSpaceOnUse"><stop offset="0" stop-color="#3b0117"/><stop offset="0.22" stop-color="#700b19"/><stop offset="0.49" stop-color="#a8151b"/><stop offset="0.71" stop-color="#d01c1c"/><stop offset="0.89" stop-color="#e9201d"/><stop offset="1" stop-color="#f2221d"/></linearGradient></defs><path class="cls-1" d="M77.9,32.75v-16H72.16L68.8,25.43l-3.33-8.68H59.73v16h4.13V22.34l4,10.41h1.82l4.06-10.41V32.75Zm19.63,0-6-16H86.3l-6,16H85l.8-2.3h6.31l.79,2.3Zm-6.6-5.9H86.85l2-6ZM104,32.75V27.38h3.89a5.17,5.17,0,0,0,5.57-5.31,5.16,5.16,0,0,0-5.57-5.32h-8v16Zm3.34-9H104V20.35h3.34a1.73,1.73,0,1,1,0,3.43Zm17,9.26a7.45,7.45,0,0,0,7-4.29l-3.56-1.68a3.82,3.82,0,0,1-3.43,2.32,4.42,4.42,0,0,1-4.46-4.63,4.42,4.42,0,0,1,4.46-4.63,3.83,3.83,0,0,1,3.43,2.33l3.56-1.68a7.4,7.4,0,0,0-7-4.3c-4.92,0-8.66,3.34-8.66,8.28S119.46,33,124.38,33Zm14-.29,6.75-9.88v9.88h4.15v-16H145l-6.48,9.43V16.75h-4.13v16Zm29.46,0-6.55-8.52,6.21-7.48h-5.09l-4.92,6.57V16.75h-4.12v16h4.12V28.07l1.08-1.34,4.2,6Z"/><circle class="cls-2" cx="25.98" cy="24.58" r="19.06" transform="translate(-8.93 32.33) rotate(-55.92)"/><g class="cls-3"><path class="cls-1" d="M43.88,18c0-.12-.09-.25-.14-.37l0-.06c0-.13-.1-.26-.16-.38s-.11-.27-.17-.4-.15-.33-.23-.5c-.19-.39-.39-.78-.61-1.16a49.4,49.4,0,0,0-8.82,3.61c-5.56,3-7.41,7.51-14,10.39s-9.85-.36-8.57-2.45,9.38-6.22,18-9.37c5.91-2.16,10.1-3.42,12.17-4q-.52-.72-1.11-1.38c-.09-.11-.19-.22-.29-.32l-.19-.21-.06-.05a6.25,6.25,0,0,0-.44-.45l-.2-.19-.21-.2a91.14,91.14,0,0,1-17.36,8.27c-6.9,2.46-11.74,3.95-14.59,4.77,0,.43,0,.87,0,1.3,0,.24,0,.47,0,.71,0,.08,0,.16,0,.24a.81.81,0,0,0,0,.16h0c0,.3,0,.6.09.91,0,.11,0,.23,0,.34h0c0,.19.06.39.1.58a1.43,1.43,0,0,0,0,.22c0,.18.06.36.1.54h0c0,.18.08.36.13.54s.06.26.1.39c.08.31.17.62.28.93,0,0,0,.1,0,.16s.07.21.11.31l.2.54a2.36,2.36,0,0,0,.12.28,1.43,1.43,0,0,0,.08.22l.32.72c.09.2.19.4.29.6a18.92,18.92,0,0,0,2.39,3.6c4.36-2.22,15.71-8,21.16-10.38a73.75,73.75,0,0,1,12.41-3.9,16.19,16.19,0,0,0-.25-1.7l0-.2,0-.19-.09-.37c0-.11-.05-.22-.08-.33l-.06-.22c-.05-.17-.09-.33-.14-.49s-.08-.26-.13-.4L44,18.22C43.93,18.16,43.91,18.09,43.88,18ZM9.48,23.66a.92.92,0,1,1-.56,1.18A.92.92,0,0,1,9.48,23.66Zm3.3,10.24a1.2,1.2,0,1,1,.74-1.53A1.2,1.2,0,0,1,12.78,33.9ZM32.51,23.26a.92.92,0,1,1,.56-1.17A.92.92,0,0,1,32.51,23.26Zm2.55,1.48a.46.46,0,0,1-.58-.29.45.45,0,0,1,.28-.58.46.46,0,0,1,.59.28A.47.47,0,0,1,35.06,24.74Z"/></g><g class="cls-4"><path class="cls-1" d="M29.55,33.61a126.89,126.89,0,0,1-17,4.58l.09.09.14.12,0,0,.15.14.34.31c.39.34.78.66,1.19,1l.07,0c.37.28.76.54,1.16.8l.21.13A18.17,18.17,0,0,0,18.24,42a19.33,19.33,0,0,0,2.48.91h0l.39.12h0l.82.19.22,0h0l.08,0,.16,0,.59.1q.56.09,1.11.15c3.77-1.61,7.14-2.94,8.17-3,1.2-.14-.91,1.29-3.64,2.94a18.41,18.41,0,0,0,3.64-.89,19,19,0,0,0,4.64-2.38l.36-.26c.15-.11.3-.22.44-.34l.5-.41a18,18,0,0,0,2.42-2.44h0a18.84,18.84,0,0,0,1.57-2.21c.09-.13.16-.27.24-.4-.91.43-2.22,1-4.09,1.89-5.67,2.59-15.57,5.32-15.58,4.53s5.34-4,12.62-6.28c3.41-1.08,6.21-1.93,8.22-2.53.13-.31.24-.62.36-.94a19.74,19.74,0,0,0,.62-2.25c0-.19.08-.37.11-.56s.09-.49.12-.74c.07-.42.11-.84.14-1.27v-.06A68.54,68.54,0,0,1,29.55,33.61Zm-9.15,5.9c-1.69.59-3.19.68-3.36.2s1.06-1.35,2.75-1.94,3.18-.68,3.35-.2S22.08,38.91,20.4,39.51Z"/></g><g class="cls-3"><path class="cls-1" d="M34.54,7.54a45.36,45.36,0,0,1-12.33,6.33c-5.57,1.87-10.81,3.21-14.09,4a20.41,20.41,0,0,1,1.16-2.51,58,58,0,0,0,10-1.86c6.37-2,12.2-5.92,10.83-6.26s-5.74,2.36-11.79,4.15a76.19,76.19,0,0,1-7.6,1.77A18.67,18.67,0,0,1,13,10.61l0,0,.05,0a58,58,0,0,0,9.52-2.82c2.31-.87,4.08-1.57,5.45-2.11l.62.08h0c.35,0,.69.11,1,.18h0a18,18,0,0,1,1.79.45h0l.27.08h0l.15,0,.55.19.3.12.21.08c.46.18.91.38,1.36.6h0l.16.08Z"/></g></svg>