<svg id="Слой_1" data-name="Слой 1" xmlns="http://www.w3.org/2000/svg" xmlns:xlink="http://www.w3.org/1999/xlink" viewBox="0 0 646 508"><defs><style>.cls-1{fill:url(#Безымянный_градиент_37);}.cls-2{fill:url(#Безымянный_градиент_32);}.cls-3{fill:#fff;}.cls-4{fill:url(#Безымянный_градиент_32-2);}.cls-13,.cls-5{opacity:0.2;}.cls-6{fill:url(#Безымянный_градиент_32-3);}.cls-7{opacity:0.4;}.cls-8{fill:#0c0c0c;}.cls-9{fill:#ef4137;}.cls-10{opacity:0.5;}.cls-11{fill:#1a2e35;}.cls-12{opacity:0.3;}.cls-14{opacity:0.6;}</style><linearGradient id="Безымянный_градиент_37" x1="322.26" y1="234.07" x2="318.63" y2="501.98" gradientUnits="userSpaceOnUse"><stop offset="0" stop-color="#fff"/><stop offset="0.51" stop-color="#fff" stop-opacity="0.44"/><stop offset="0.53" stop-color="#fff" stop-opacity="0.42"/><stop offset="0.68" stop-color="#fff" stop-opacity="0.24"/><stop offset="0.81" stop-color="#fff" stop-opacity="0.11"/><stop offset="0.92" stop-color="#fff" stop-opacity="0.03"/><stop offset="1" stop-color="#fff" stop-opacity="0"/></linearGradient><linearGradient id="Безымянный_градиент_32" x1="200.99" y1="280.71" x2="435.77" y2="280.71" gradientUnits="userSpaceOnUse"><stop offset="0" stop-color="#2e1256"/><stop offset="0.99" stop-color="#6525a4"/></linearGradient><linearGradient id="Безымянный_градиент_32-2" x1="10.99" y1="225.12" x2="640.02" y2="225.12" xlink:href="#Безымянный_градиент_32"/><linearGradient id="Безымянный_градиент_32-3" x1="8.63" y1="182.97" x2="639.34" y2="182.97" gradientTransform="translate(493.26 -148.38) rotate(87.61)" xlink:href="#Безымянный_градиент_32"/></defs><polygon class="cls-1" points="227.4 280.52 182.33 498 455.05 498 415.79 283.46 227.4 280.52"/><path class="cls-2" d="M206.26,262.67,201,284.42s126,30.94,234.78,1.89l-4.14-23.41Z"/><path class="cls-3" d="M227.31,278.06a3.66,3.66,0,1,1-2.83-4.33A3.66,3.66,0,0,1,227.31,278.06Z"/><circle class="cls-3" cx="276.5" cy="284.82" r="3.66"/><path class="cls-3" d="M252.13,282a3.65,3.65,0,1,1-3-4.17A3.65,3.65,0,0,1,252.13,282Z"/><path class="cls-3" d="M308.6,287.79a3.66,3.66,0,1,1-2.83-4.32A3.64,3.64,0,0,1,308.6,287.79Z"/><path class="cls-3" d="M375.15,287.37a3.65,3.65,0,1,1-2.83-4.33A3.65,3.65,0,0,1,375.15,287.37Z"/><path class="cls-3" d="M406.94,284.52a3.66,3.66,0,1,1-2.83-4.33A3.66,3.66,0,0,1,406.94,284.52Z"/><path class="cls-3" d="M341,288.85a3.66,3.66,0,1,1-2.83-4.33A3.66,3.66,0,0,1,341,288.85Z"/><path class="cls-4" d="M11,174.33c-2.59,7.46,88.2,97.32,322.06,101.47C534,279.37,640,196.75,640,196.75Z"/><path class="cls-5" d="M11,174.33c-2.59,7.46,88.2,97.32,322.06,101.47C534,279.37,640,196.75,640,196.75Z"/><ellipse class="cls-6" cx="323.99" cy="182.97" rx="42.01" ry="315.62" transform="translate(127.65 499.03) rotate(-87.61)"/><path class="cls-7" d="M180.17,159.37s3.57-142.84,146-148.23,141.6,145,141.6,145S370.4,217.4,180.17,159.37Z"/><path class="cls-3" d="M265.14,39.6c.39.73-4.83,4.07-12.56,10.21-1.92,1.54-4,3.22-6.17,5.18s-4.41,4-6.77,6.26A151.49,151.49,0,0,0,214,94.64c-1.54,2.85-3.08,5.54-4.3,8.16s-2.41,5-3.41,7.3c-3.93,9.06-5.8,15-6.61,14.77-.63-.14-.05-6.43,3.08-16.11.8-2.41,1.71-5.05,2.91-7.79s2.52-5.65,4-8.68a122.91,122.91,0,0,1,26.56-34.61c2.54-2.22,4.93-4.35,7.35-6.12s4.64-3.42,6.77-4.82C258.91,41.22,264.84,39,265.14,39.6Z"/><path class="cls-3" d="M615.85,191.77a6,6,0,0,1-1,1,24.94,24.94,0,0,1-3.16,2.35,51.52,51.52,0,0,1-13.35,5.5,327.66,327.66,0,0,1-46.53,9.89,326.63,326.63,0,0,1-47.48,3.08c-6.09-.06-11-.28-14.41-.5l-3.91-.29a7.88,7.88,0,0,1-1.36-.17,6.63,6.63,0,0,1,1.37-.05l3.92.09c3.4.09,8.32.2,14.39.16a362.67,362.67,0,0,0,47.33-3.38,365.09,365.09,0,0,0,46.47-9.55,55.29,55.29,0,0,0,13.34-5.13C614.43,193,615.78,191.69,615.85,191.77Z"/><path class="cls-8" d="M278.39,273.56a9.4,9.4,0,0,1-1.83-1.35,46.43,46.43,0,0,1-4.5-4.27,61.59,61.59,0,0,1-5.78-7.16,69,69,0,0,1-5.57-9.81A71,71,0,0,1,257,240.33a62.56,62.56,0,0,1-1.61-9.06,46.25,46.25,0,0,1-.26-6.19,9.62,9.62,0,0,1,.17-2.27c.2,0,.15,3.23.84,8.37a69.81,69.81,0,0,0,1.82,8.9,68.42,68.42,0,0,0,9.18,20.15,71.6,71.6,0,0,0,5.53,7.21C276.05,271.33,278.52,273.41,278.39,273.56Z"/><path class="cls-8" d="M271.65,240.27c0,.15-.54.33-.79,1.08a1.46,1.46,0,0,0,.08,1.19,1.26,1.26,0,0,0,2.17-.39,1.42,1.42,0,0,0-.34-1.14c-.5-.62-1.1-.59-1.12-.74s.7-.53,1.64.19a2.13,2.13,0,0,1,.8,1.82,2.19,2.19,0,0,1-4,.73,2.1,2.1,0,0,1,.11-2C270.8,240,271.69,240.13,271.65,240.27Z"/><path class="cls-8" d="M279.34,257.45c0,.15-.54.33-.79,1.08a1.46,1.46,0,0,0,.08,1.19,1.14,1.14,0,0,0,1.2.44,1.12,1.12,0,0,0,1-.84,1.41,1.41,0,0,0-.34-1.13c-.5-.62-1.1-.59-1.12-.74s.7-.54,1.64.19a2.11,2.11,0,0,1,.8,1.82,2.18,2.18,0,0,1-4,.72,2.13,2.13,0,0,1,.11-2C278.49,257.19,279.38,257.31,279.34,257.45Z"/><path class="cls-8" d="M9.5,168.47a10.47,10.47,0,0,1,1.7-.4l4.94-.93c4.29-.81,10.53-1.84,18.25-3,15.44-2.29,36.89-4.74,60.69-6s45.4-1,61-.35c7.8.33,14.1.71,18.45,1.07l5,.42a11.12,11.12,0,0,1,1.74.21,9.69,9.69,0,0,1-1.75,0l-5-.22c-4.36-.23-10.66-.49-18.46-.72-15.58-.48-37.14-.57-60.91.65s-45.19,3.58-60.64,5.66c-7.72,1-14,2-18.28,2.64l-5,.73A11.87,11.87,0,0,1,9.5,168.47Z"/><path class="cls-8" d="M464.78,225.42a17.26,17.26,0,0,1-2.48-1.84l-6.55-5.24c-5.54-4.43-13.26-10.44-22-16.8S416.92,189.69,411,185.78l-7-4.62a17.13,17.13,0,0,1-2.51-1.79,15.91,15.91,0,0,1,2.73,1.44c1.73,1,4.19,2.46,7.2,4.34,6,3.75,14.2,9.15,23,15.53s16.42,12.49,21.84,17.07c2.71,2.29,4.87,4.17,6.34,5.51A16.68,16.68,0,0,1,464.78,225.42Z"/><path class="cls-8" d="M409.93,193.48c.1.13-.55.58-.61,1.64a2.12,2.12,0,0,0,.53,1.57,1.9,1.9,0,0,0,3.07-1,2.11,2.11,0,0,0-.53-1.57c-.69-.81-1.48-.77-1.49-.93s.9-.52,2,.39a2.73,2.73,0,0,1,1,2.19,2.8,2.8,0,0,1-4.78,1.62,2.76,2.76,0,0,1-.55-2.34C408.91,193.61,409.93,193.34,409.93,193.48Z"/><path class="cls-8" d="M146.24,161.85c.1.14-.55.59-.61,1.65a2.12,2.12,0,0,0,.53,1.57,1.9,1.9,0,0,0,3.07-1,2.15,2.15,0,0,0-.53-1.57c-.69-.81-1.49-.77-1.49-.93s.9-.52,2,.39a2.73,2.73,0,0,1,1,2.19,2.8,2.8,0,0,1-4.78,1.62,2.76,2.76,0,0,1-.55-2.34C145.22,162,146.24,161.72,146.24,161.85Z"/><path class="cls-8" d="M96.91,163.63c.1.13-.55.58-.61,1.64a2.14,2.14,0,0,0,.53,1.57,1.9,1.9,0,0,0,3.07-1,2.07,2.07,0,0,0-.53-1.56c-.69-.81-1.48-.77-1.48-.94s.89-.51,2,.39a2.77,2.77,0,0,1,1,2.19,2.79,2.79,0,0,1-4.78,1.62,2.78,2.78,0,0,1-.55-2.34C95.89,163.77,96.91,163.49,96.91,163.63Z"/><path class="cls-8" d="M40.52,167.24c.1.13-.55.58-.61,1.64a2.09,2.09,0,0,0,.53,1.57,1.9,1.9,0,0,0,3.07-1,2.07,2.07,0,0,0-.53-1.56c-.69-.81-1.48-.77-1.48-.94s.89-.51,2,.39a2.77,2.77,0,0,1,1,2.19,2.79,2.79,0,0,1-4.78,1.62,2.75,2.75,0,0,1-.55-2.34C39.5,167.38,40.52,167.1,40.52,167.24Z"/><path class="cls-8" d="M430.85,210.5c.1.13-.55.59-.61,1.65a2.16,2.16,0,0,0,.53,1.57,1.77,1.77,0,0,0,1.83.34,1.74,1.74,0,0,0,1.24-1.38,2.08,2.08,0,0,0-.53-1.57c-.69-.81-1.48-.77-1.48-.94s.89-.51,2,.4a2.74,2.74,0,0,1,1,2.19,2.8,2.8,0,0,1-4.78,1.62,2.79,2.79,0,0,1-.55-2.34C429.83,210.64,430.85,210.37,430.85,210.5Z"/><path class="cls-9" d="M325.53,183.78c10.84.29,21.7.17,32.52-.44a12.6,12.6,0,0,0,.58-2.09c2.11-11.5-2.11-17-2.11-17l.63-11.5s9.93-15.38,10.56-20.33-4.86-23-4.86-23L319,112c0,.71.12,11.07-12.35,19.38s-22.82,18-22.61,30.94c.11,6.81,2.8,14,5.33,19.19C301.39,182.72,313.46,183.5,325.53,183.78Z"/><path class="cls-9" d="M258.8,151.43c3.21,1.14,6.79,2.38,8.39,5.39,1.39,2.61.86,5.77.55,8.71a52.12,52.12,0,0,0,.3,13.38c4.22.6,8.44,1.16,12.66,1.65a17,17,0,0,1-.65-6.81c.67-7.8,4-15.53,2.46-23.21a19,19,0,0,0-26.17-13.76c-3.23,1.4-6.26,4.07-6.64,7.57C250.73,147.6,255.59,150.29,258.8,151.43Z"/><g class="cls-10"><path class="cls-3" d="M282.06,153.35a14.92,14.92,0,0,0,.6-2c-.05-.28-.09-.56-.15-.84a19,19,0,0,0-26.17-13.76c-3.23,1.4-6.26,4.07-6.64,7.57,1,3.25,5.89,5.94,9.1,7.08s6.79,2.38,8.39,5.39a10.46,10.46,0,0,1,.85,5.8,8.76,8.76,0,0,0,1.77.06A14.49,14.49,0,0,0,282.06,153.35Z"/></g><path class="cls-11" d="M344.5,145.48a8.42,8.42,0,0,0-.21,3.42,10.72,10.72,0,0,0,1.31,3.55,19.77,19.77,0,0,0,2.94,3.84c1.23,1.27,2.5,2.41,3.63,3.46a40.76,40.76,0,0,1,2.88,2.91,17.94,17.94,0,0,1,1.65,2.14c.17.27.28.48.36.62s.11.23.1.23a9.64,9.64,0,0,1-.58-.79,19.55,19.55,0,0,0-1.71-2.08c-.78-.85-1.78-1.81-2.92-2.86s-2.42-2.18-3.66-3.45a19.14,19.14,0,0,1-3-3.92,10.41,10.41,0,0,1-1.27-3.63,6.66,6.66,0,0,1,.12-2.55,4.35,4.35,0,0,1,.22-.67C344.46,145.55,344.49,145.47,344.5,145.48Z"/><path class="cls-11" d="M321.06,159.41a3.91,3.91,0,0,1-.61-.35c-.39-.25-.94-.62-1.6-1.12a26.41,26.41,0,0,1-4.69-4.53l.28-.11c.37,1,.78,2.11,1.21,3.25l.9,2.44.15.4-.4-.26a13,13,0,0,1-4.74-5.22,9.55,9.55,0,0,1-.68-1.86,4.92,4.92,0,0,1-.11-.51c0-.12,0-.18,0-.18a5,5,0,0,1,.23.67,13.22,13.22,0,0,0,.77,1.81,13.43,13.43,0,0,0,4.74,5.08l-.25.15-.9-2.44c-.42-1.14-.83-2.23-1.2-3.25l-.32-.87.6.76a28.89,28.89,0,0,0,4.56,4.55c.64.51,1.17.9,1.53,1.17A3.8,3.8,0,0,1,321.06,159.41Z"/><g class="cls-12"><path d="M344.16,146.13c.09-.52,1.1-.51,1.45-.08a2.18,2.18,0,0,1,.21,1.53c-.22,3,2.05,5.78,4.39,8.11s5,4.67,5.74,7.64c-1.88-1.81-4.11-3.35-6.19-5a18.82,18.82,0,0,1-5.16-5.71,7,7,0,0,1,0-7"/></g><path class="cls-9" d="M366.69,84.76a16.7,16.7,0,0,0-6.58-6.53l.07,0a14.82,14.82,0,0,0-5.73-3.38A4,4,0,0,1,355.2,76a40,40,0,0,0-17.41-1.74c-13.71,1.49-18.33,2.48-23,9s-5.25,18,.92,25.14c2,2.32,5.87,6.92,5.87,6.92,5.91,3.43,14.79,1.89,22.37,1.6,3-.11,10.62-1.07,16.52-4.79C370.65,105.69,370.3,91.84,366.69,84.76Z"/><g class="cls-13"><path class="cls-3" d="M348.88,90.22h0a7.19,7.19,0,0,0-1.94-.92L344.31,74a46,46,0,0,0-7.72.37s3.4,5.37,5,15.19a7.11,7.11,0,0,0-1.65.94,7.79,7.79,0,0,0,4.57,14A8.1,8.1,0,0,0,352,99.54,7.47,7.47,0,0,0,348.88,90.22Z"/></g><path class="cls-3" d="M338.31,89.71a7,7,0,1,1-7.14-6.8A7,7,0,0,1,338.31,89.71Z"/><path class="cls-11" d="M338.31,89.71A11,11,0,0,0,338,88a7,7,0,0,0-2.64-3.71,6.87,6.87,0,0,0-2.92-1.21,7,7,0,0,0-3.6.4,6.52,6.52,0,0,0-1.71,1A6.68,6.68,0,0,0,325.73,86a6.82,6.82,0,0,0,.2,8.09,6.42,6.42,0,0,0,1.48,1.42,6.63,6.63,0,0,0,1.76.89,6.9,6.9,0,0,0,3.61.22,6.73,6.73,0,0,0,2.86-1.35,6.89,6.89,0,0,0,2.45-3.84,10.8,10.8,0,0,0,.22-1.69s0,0,0,.11v.33a3.64,3.64,0,0,1,0,.54,4.32,4.32,0,0,1-.11.73,6.42,6.42,0,0,1-.71,1.9,7.07,7.07,0,0,1-4.66,3.47,7,7,0,0,1-3.73-.2,6.75,6.75,0,0,1-1.82-.91,6.66,6.66,0,0,1-1.53-1.47,7,7,0,0,1-.21-8.38A6.53,6.53,0,0,1,327,84.29a6.38,6.38,0,0,1,1.77-1,7.06,7.06,0,0,1,6.71.88,7,7,0,0,1,1.82,2,6.51,6.51,0,0,1,.8,1.86,4.89,4.89,0,0,1,.15.72,4.22,4.22,0,0,1,.06.54v.33C338.32,89.67,338.32,89.71,338.31,89.71Z"/><path class="cls-11" d="M331,91.66c-.69-2.46-.11-4.77,1.29-5.16s3.08,1.29,3.76,3.75.11,4.77-1.29,5.16S331.65,94.12,331,91.66Z"/><path class="cls-9" d="M315.77,84s1.94-18.34,4.69-20.48,13.75,12.3,13.75,12.3L320,82.69Z"/><path class="cls-9" d="M346.73,76a.74.74,0,0,1-.52-1.12c1.38-2.25,4.82-7.8,5.68-8.7C353,65,355.38,60.87,358,62.3s4.44,17.32,4.44,17.32l-2.56-1.43-5.58-3.8,1.47,3Z"/><path class="cls-3" d="M333.36,91.35c.05.26-.74.61-1.76.79s-1.88.1-1.93-.16.75-.62,1.77-.79S333.32,91.08,333.36,91.35Z"/><path class="cls-11" d="M345.26,93.27a1.52,1.52,0,0,1,.14.52,5.41,5.41,0,0,1,.05,1.46,5.56,5.56,0,0,1-.61,2.08A5,5,0,0,1,343,99.27a4.4,4.4,0,0,1-2.56.7,4.23,4.23,0,0,1-2.08-.64,4,4,0,0,1-1.07-1,1.27,1.27,0,0,1-.25-.47,4.93,4.93,0,0,0,1.41,1.32,4.25,4.25,0,0,0,4.42-.12,5,5,0,0,0,1.74-1.84,5.8,5.8,0,0,0,.64-2A10,10,0,0,0,345.26,93.27Z"/><path class="cls-11" d="M353.15,96a1.6,1.6,0,0,1-.21.45,8.29,8.29,0,0,1-.75,1.13,3.67,3.67,0,0,1-1.62,1.22,3.29,3.29,0,0,1-2.47-.16A4.21,4.21,0,0,1,346.24,97a6.23,6.23,0,0,1-.79-1.86,8.66,8.66,0,0,1-.22-1.34,1.48,1.48,0,0,1,0-.5s.1.7.41,1.79a6.1,6.1,0,0,0,.8,1.78,4.23,4.23,0,0,0,1.77,1.53,3.13,3.13,0,0,0,2.29.17,3.66,3.66,0,0,0,1.56-1.12C352.77,96.56,353.11,95.93,353.15,96Z"/><path class="cls-11" d="M348.22,99.72a1.59,1.59,0,0,1-.5.68,3.5,3.5,0,0,1-3.85.61,1.7,1.7,0,0,1-.69-.49,8,8,0,0,1,.76.32,3.77,3.77,0,0,0,1.91.2,3.9,3.9,0,0,0,1.75-.78C348,100,348.19,99.7,348.22,99.72Z"/><g class="cls-12"><path d="M320.58,81.33s-.38-15.49,1.14-15.77S331.54,76,331.54,76,325.35,82.5,320.58,81.33Z"/></g><g class="cls-12"><path d="M346.94,75.62s9.24-12.6,10.64-11.94,2.81,14.71,2.81,14.71-3.34-3-5.77-3.25c-.37,0,1.5,2.49,1.1,2.26C353.11,75.87,347.46,75.33,346.94,75.62Z"/></g><path class="cls-3" d="M363.21,88.07a7,7,0,1,1-7.14-6.8A7,7,0,0,1,363.21,88.07Z"/><path class="cls-11" d="M363.21,88.07a12.86,12.86,0,0,0-.3-1.68,7,7,0,0,0-2.64-3.72,6.86,6.86,0,0,0-2.92-1.2,7,7,0,0,0-3.6.39,6.52,6.52,0,0,0-1.71,1,6.68,6.68,0,0,0-1.41,1.49,6.82,6.82,0,0,0,.2,8.09,6.42,6.42,0,0,0,1.48,1.42,6.52,6.52,0,0,0,1.76.9,6.89,6.89,0,0,0,3.61.21,6.78,6.78,0,0,0,2.86-1.34A6.92,6.92,0,0,0,363,89.77a12.64,12.64,0,0,0,.22-1.7s0,0,0,.12,0,.19,0,.33a3.71,3.71,0,0,1,0,.54,5.91,5.91,0,0,1-.11.73,6.83,6.83,0,0,1-.71,1.9,7.07,7.07,0,0,1-4.66,3.47A7.14,7.14,0,0,1,354,95a6.78,6.78,0,0,1-1.82-.92,6.69,6.69,0,0,1-1.54-1.47,7.05,7.05,0,0,1-.2-8.38,6.53,6.53,0,0,1,1.47-1.54,6.35,6.35,0,0,1,1.77-1,7,7,0,0,1,6.71.88A7,7,0,0,1,363,86.36a5,5,0,0,1,.15.73,4.22,4.22,0,0,1,.06.54,3.22,3.22,0,0,0,0,.33C363.22,88,363.22,88.07,363.21,88.07Z"/><path class="cls-11" d="M354.59,89.86c-.53-2.5.19-4.77,1.61-5.07s3,1.47,3.53,4-.19,4.77-1.6,5.07S355.13,92.36,354.59,89.86Z"/><path class="cls-11" d="M319.79,82.16s0-.06.1-.15a3,3,0,0,1,.34-.41,9.46,9.46,0,0,1,1.47-1.31,16.72,16.72,0,0,1,5.88-2.62h.06l-.07.2a4.86,4.86,0,0,0-1.87-1.28l-.28-.1.27-.12a9.59,9.59,0,0,1,4.75-.78,9.47,9.47,0,0,1,1.38.24,2.12,2.12,0,0,1,.48.17s-.69-.18-1.88-.25a9.84,9.84,0,0,0-4.63.84v-.22a4.89,4.89,0,0,1,2,1.33l.14.16-.2.05-.06,0a17.65,17.65,0,0,0-5.84,2.52A15.15,15.15,0,0,0,319.79,82.16Z"/><path class="cls-11" d="M346.38,75.75l.19,0c.12,0,.3-.07.54-.1a12.32,12.32,0,0,1,2-.1A16.94,16.94,0,0,1,355.64,77l-.18.12V77a3.35,3.35,0,0,0-.46-1.11c-.21-.34-.44-.67-.64-1l-.16-.26.29.07A11.65,11.65,0,0,1,359,77.05a8,8,0,0,1,1,1.08,2.43,2.43,0,0,1,.3.44,18.17,18.17,0,0,0-1.43-1.4,12,12,0,0,0-4.48-2.25l.14-.18c.19.32.43.65.64,1a3.31,3.31,0,0,1,.5,1.2v.14l0,.22-.2-.1a18.12,18.12,0,0,0-6.4-1.53,12.74,12.74,0,0,0-2,0A3.7,3.7,0,0,1,346.38,75.75Z"/><path class="cls-11" d="M341.71,90.05a7.13,7.13,0,0,1,5.11-.27c.75.19,1.05.77.72,1.17l-2,2.38a.59.59,0,0,1-.77.13l-3.43-2.11C340.89,91.05,341.14,90.25,341.71,90.05Z"/><path class="cls-3" d="M345.88,90.19c0,.07-.89,0-2,.15s-1.92.4-1.94.33a5.83,5.83,0,0,1,3.91-.48Z"/><path class="cls-11" d="M339.58,98.62s-5,2-11.3,4.43-11.37,4.29-11.39,4.23,5-2,11.31-4.44S339.56,98.56,339.58,98.62Z"/><path class="cls-11" d="M309.56,102.37l.3-.11.84-.28c.74-.24,1.82-.56,3.15-.94,2.68-.75,6.4-1.67,10.57-2.42s8-1.19,10.76-1.41c1.38-.11,2.5-.18,3.28-.21l.89,0h.32a1.61,1.61,0,0,1-.31,0l-.89.07c-.78.06-1.9.15-3.28.29-2.76.26-6.56.72-10.73,1.47s-7.89,1.64-10.56,2.35c-1.34.36-2.43.66-3.17.88l-.86.24A1.14,1.14,0,0,1,309.56,102.37Z"/><path class="cls-3" d="M356.85,89.6c0,.26-.75.61-1.77.79s-1.88.1-1.92-.16.74-.62,1.76-.79S356.8,89.33,356.85,89.6Z"/><g class="cls-14"><path class="cls-3" d="M330.6,114.66c-1.57-.23,2,2.46,3.22,3.44,4.45,3.65,10,5.63,14.83,8.8s9.07,8.34,8.44,14.07l.29,11.76c.48-.88,9.87-15.65,10.39-20.45.45-4.23-3.78-18.74-4.75-22.69C363,109.59,353,118,330.6,114.66Z"/></g><path class="cls-11" d="M363,109.44a1.46,1.46,0,0,1-.12.32l-.42.9a17.26,17.26,0,0,1-2,3.08,13.85,13.85,0,0,1-5.62,4.09,12.91,12.91,0,0,1-1.56.5,15,15,0,0,1-1.67.35,16.55,16.55,0,0,1-1.74.14,14.48,14.48,0,0,1-3.11-.23l.08-.26a11.48,11.48,0,0,1,3.85,2.66l.19.21h-.28a20.63,20.63,0,0,1-6.61-1,18.53,18.53,0,0,1-1.77-.69l-.45-.22-.15-.08a3.28,3.28,0,0,1,.63.23c.41.16,1,.38,1.78.62a21.23,21.23,0,0,0,6.57.93l-.09.21a11.3,11.3,0,0,0-3.77-2.58l-1.18-.5,1.25.24a15.27,15.27,0,0,0,3.05.23c.58,0,1.15-.08,1.71-.14a16.83,16.83,0,0,0,3.18-.82c.49-.2,1-.41,1.41-.64a14.53,14.53,0,0,0,4.15-3.33,19.11,19.11,0,0,0,2-3l.46-.87A1.2,1.2,0,0,1,363,109.44Z"/><path class="cls-11" d="M357.15,137.79a3,3,0,0,1,.08.61c0,.39.08,1,.12,1.68.08,1.41.15,3.37.18,5.53s0,4.13,0,5.54c0,.71-.05,1.29-.07,1.68a2.87,2.87,0,0,1-.07.62,2.78,2.78,0,0,1,0-.62c0-.45,0-1,0-1.68,0-1.48,0-3.4-.06-5.53s-.07-4.06-.1-5.54q0-1,0-1.68A2.47,2.47,0,0,1,357.15,137.79Z"/><path class="cls-8" d="M181.27,159.54c11.65,3.75,23.5,6.84,35.4,9.64s23.89,5.26,35.94,7.33a504.3,504.3,0,0,0,72.92,7.27,353.56,353.56,0,0,0,73-5.16,313.16,313.16,0,0,0,35.6-8.71q8.78-2.67,17.31-6A120.44,120.44,0,0,0,468,156a120.72,120.72,0,0,1-16.46,8.09q-8.49,3.49-17.25,6.29c-5.85,1.83-11.73,3.52-17.68,5s-11.93,2.79-17.95,3.92a354.35,354.35,0,0,1-73.15,5.51,505.17,505.17,0,0,1-73-7.62q-18.09-3.19-35.94-7.51C204.68,166.69,192.87,163.45,181.27,159.54Z"/><path class="cls-11" d="M289.51,181.52l.2,0v0a7.68,7.68,0,0,1-.33-.93,4.49,4.49,0,0,0-.3-.8,4.35,4.35,0,0,0,.17.82A7.38,7.38,0,0,0,289.51,181.52Z"/><path class="cls-9" d="M386,175.07l.65,5.72,3.23-.64-.64-5.72Z"/><path class="cls-9" d="M387.26,175.71a6.36,6.36,0,1,0-6.46-6.36A6.42,6.42,0,0,0,387.26,175.71Z"/></svg>